%TF.GenerationSoftware,KiCad,Pcbnew,9.0.7-9.0.7~ubuntu24.04.1*%
%TF.CreationDate,2026-04-14T09:49:42-04:00*%
%TF.ProjectId,screwterminalbreakout,73637265-7774-4657-926d-696e616c6272,rev?*%
%TF.SameCoordinates,Original*%
%TF.FileFunction,Legend,Top*%
%TF.FilePolarity,Positive*%
%FSLAX46Y46*%
G04 Gerber Fmt 4.6, Leading zero omitted, Abs format (unit mm)*
G04 Created by KiCad (PCBNEW 9.0.7-9.0.7~ubuntu24.04.1) date 2026-04-14 09:49:42*
%MOMM*%
%LPD*%
G01*
G04 APERTURE LIST*
G04 Aperture macros list*
%AMRoundRect*
0 Rectangle with rounded corners*
0 $1 Rounding radius*
0 $2 $3 $4 $5 $6 $7 $8 $9 X,Y pos of 4 corners*
0 Add a 4 corners polygon primitive as box body*
4,1,4,$2,$3,$4,$5,$6,$7,$8,$9,$2,$3,0*
0 Add four circle primitives for the rounded corners*
1,1,$1+$1,$2,$3*
1,1,$1+$1,$4,$5*
1,1,$1+$1,$6,$7*
1,1,$1+$1,$8,$9*
0 Add four rect primitives between the rounded corners*
20,1,$1+$1,$2,$3,$4,$5,0*
20,1,$1+$1,$4,$5,$6,$7,0*
20,1,$1+$1,$6,$7,$8,$9,0*
20,1,$1+$1,$8,$9,$2,$3,0*%
G04 Aperture macros list end*
%ADD10C,0.150000*%
%ADD11C,0.120000*%
%ADD12RoundRect,0.249999X0.850001X-0.850001X0.850001X0.850001X-0.850001X0.850001X-0.850001X-0.850001X0*%
%ADD13C,2.200000*%
%ADD14R,1.700000X1.700000*%
%ADD15C,1.700000*%
G04 APERTURE END LIST*
D10*
X123190000Y-91440000D02*
X126955000Y-91440000D01*
X126955000Y-107950000D01*
X123190000Y-107950000D01*
X123190000Y-91440000D01*
G36*
X123190000Y-91440000D02*
G01*
X126955000Y-91440000D01*
X126955000Y-107950000D01*
X123190000Y-107950000D01*
X123190000Y-91440000D01*
G37*
D11*
%TO.C,J2*%
X126955000Y-91725000D02*
X133395000Y-91725000D01*
X126955000Y-107665000D02*
X126955000Y-91725000D01*
X127475000Y-107665000D02*
X127475000Y-91725000D01*
X132775000Y-107665000D02*
X132775000Y-91725000D01*
X133395000Y-91725000D02*
X133395000Y-105745000D01*
X133395000Y-106345000D02*
X133395000Y-107665000D01*
X133395000Y-107665000D02*
X126955000Y-107665000D01*
X134005000Y-106485000D02*
X133395000Y-106045000D01*
X134005000Y-105605000D01*
X134005000Y-106485000D01*
G36*
X134005000Y-106485000D02*
G01*
X133395000Y-106045000D01*
X134005000Y-105605000D01*
X134005000Y-106485000D01*
G37*
%TO.C,J1*%
X120540000Y-104775000D02*
X120540000Y-91965000D01*
X123300000Y-91965000D02*
X120540000Y-91965000D01*
X123300000Y-104775000D02*
X120540000Y-104775000D01*
X123300000Y-104775000D02*
X123300000Y-91965000D01*
X123300000Y-106045000D02*
X123300000Y-107425000D01*
X123300000Y-107425000D02*
X121920000Y-107425000D01*
%TD*%
%LPC*%
D12*
%TO.C,J2*%
X130175000Y-106045000D03*
D13*
X130175000Y-103505000D03*
X130175000Y-100965000D03*
X130175000Y-98425000D03*
X130175000Y-95885000D03*
X130175000Y-93345000D03*
%TD*%
D14*
%TO.C,J1*%
X121920000Y-106045000D03*
D15*
X121920000Y-103505000D03*
X121920000Y-100965000D03*
X121920000Y-98425000D03*
X121920000Y-95885000D03*
X121920000Y-93345000D03*
%TD*%
%LPD*%
M02*
