%TF.GenerationSoftware,KiCad,Pcbnew,9.0.9-9.0.9~ubuntu24.04.1*%
%TF.CreationDate,2026-06-26T17:03:11-04:00*%
%TF.ProjectId,LED_Breakout,4c45445f-4272-4656-916b-6f75742e6b69,rev?*%
%TF.SameCoordinates,Original*%
%TF.FileFunction,Copper,L1,Top*%
%TF.FilePolarity,Positive*%
%FSLAX46Y46*%
G04 Gerber Fmt 4.6, Leading zero omitted, Abs format (unit mm)*
G04 Created by KiCad (PCBNEW 9.0.9-9.0.9~ubuntu24.04.1) date 2026-06-26 17:03:11*
%MOMM*%
%LPD*%
G01*
G04 APERTURE LIST*
G04 Aperture macros list*
%AMRoundRect*
0 Rectangle with rounded corners*
0 $1 Rounding radius*
0 $2 $3 $4 $5 $6 $7 $8 $9 X,Y pos of 4 corners*
0 Add a 4 corners polygon primitive as box body*
4,1,4,$2,$3,$4,$5,$6,$7,$8,$9,$2,$3,0*
0 Add four circle primitives for the rounded corners*
1,1,$1+$1,$2,$3*
1,1,$1+$1,$4,$5*
1,1,$1+$1,$6,$7*
1,1,$1+$1,$8,$9*
0 Add four rect primitives between the rounded corners*
20,1,$1+$1,$2,$3,$4,$5,0*
20,1,$1+$1,$4,$5,$6,$7,0*
20,1,$1+$1,$6,$7,$8,$9,0*
20,1,$1+$1,$8,$9,$2,$3,0*%
G04 Aperture macros list end*
%TA.AperFunction,SMDPad,CuDef*%
%ADD10RoundRect,0.218750X0.256250X-0.218750X0.256250X0.218750X-0.256250X0.218750X-0.256250X-0.218750X0*%
%TD*%
%TA.AperFunction,SMDPad,CuDef*%
%ADD11RoundRect,0.100000X-0.637500X-0.100000X0.637500X-0.100000X0.637500X0.100000X-0.637500X0.100000X0*%
%TD*%
%TA.AperFunction,SMDPad,CuDef*%
%ADD12RoundRect,0.200000X-0.200000X-0.275000X0.200000X-0.275000X0.200000X0.275000X-0.200000X0.275000X0*%
%TD*%
%TA.AperFunction,SMDPad,CuDef*%
%ADD13RoundRect,0.225000X-0.225000X-0.250000X0.225000X-0.250000X0.225000X0.250000X-0.225000X0.250000X0*%
%TD*%
%TA.AperFunction,SMDPad,CuDef*%
%ADD14RoundRect,0.200000X0.200000X0.275000X-0.200000X0.275000X-0.200000X-0.275000X0.200000X-0.275000X0*%
%TD*%
%TA.AperFunction,ComponentPad*%
%ADD15R,1.700000X1.700000*%
%TD*%
%TA.AperFunction,ComponentPad*%
%ADD16C,1.700000*%
%TD*%
%TA.AperFunction,ViaPad*%
%ADD17C,0.609600*%
%TD*%
%TA.AperFunction,Conductor*%
%ADD18C,0.254000*%
%TD*%
%TA.AperFunction,Conductor*%
%ADD19C,0.200000*%
%TD*%
%TA.AperFunction,Conductor*%
%ADD20C,0.203200*%
%TD*%
G04 APERTURE END LIST*
D10*
%TO.P,D2,1,K*%
%TO.N,GND*%
X140208000Y-101244600D03*
%TO.P,D2,2,A*%
%TO.N,Net-(D2-A)*%
X140208000Y-99669600D03*
%TD*%
%TO.P,D5,1,K*%
%TO.N,GND*%
X145084800Y-101244600D03*
%TO.P,D5,2,A*%
%TO.N,Net-(D5-A)*%
X145084800Y-99669600D03*
%TD*%
D11*
%TO.P,U2,1,SCLK*%
%TO.N,/SCLK*%
X141409500Y-88175000D03*
%TO.P,U2,2,VDD*%
%TO.N,+3V3*%
X141409500Y-88825000D03*
%TO.P,U2,3,DIN*%
%TO.N,/COPI*%
X141409500Y-89475000D03*
%TO.P,U2,4,GND*%
%TO.N,GND*%
X141409500Y-90125000D03*
%TO.P,U2,5,S1*%
%TO.N,Net-(U2-S1)*%
X141409500Y-90775000D03*
%TO.P,U2,6,D1*%
%TO.N,Net-(D4-A)*%
X141409500Y-91425000D03*
%TO.P,U2,7,S2*%
%TO.N,Net-(U2-S2)*%
X141409500Y-92075000D03*
%TO.P,U2,8,D2*%
%TO.N,Net-(D3-A)*%
X141409500Y-92725000D03*
%TO.P,U2,9,S3*%
%TO.N,Net-(U2-S3)*%
X141409500Y-93375000D03*
%TO.P,U2,10,D3*%
%TO.N,Net-(D2-A)*%
X141409500Y-94025000D03*
%TO.P,U2,11,S4*%
%TO.N,Net-(U2-S4)*%
X141409500Y-94675000D03*
%TO.P,U2,12,D4*%
%TO.N,Net-(D1-A)*%
X141409500Y-95325000D03*
%TO.P,U2,13,D5*%
%TO.N,Net-(D8-A)*%
X147134500Y-95325000D03*
%TO.P,U2,14,S5*%
%TO.N,Net-(U2-S5)*%
X147134500Y-94675000D03*
%TO.P,U2,15,D6*%
%TO.N,Net-(D7-A)*%
X147134500Y-94025000D03*
%TO.P,U2,16,S6*%
%TO.N,Net-(U2-S6)*%
X147134500Y-93375000D03*
%TO.P,U2,17,D7*%
%TO.N,Net-(D6-A)*%
X147134500Y-92725000D03*
%TO.P,U2,18,S7*%
%TO.N,Net-(U2-S7)*%
X147134500Y-92075000D03*
%TO.P,U2,19,D8*%
%TO.N,Net-(D5-A)*%
X147134500Y-91425000D03*
%TO.P,U2,20,S8*%
%TO.N,Net-(U2-S8)*%
X147134500Y-90775000D03*
%TO.P,U2,21,VSS*%
%TO.N,GND*%
X147134500Y-90125000D03*
%TO.P,U2,22,DOUT*%
%TO.N,/DOUT*%
X147134500Y-89475000D03*
%TO.P,U2,23,~{RESET}*%
%TO.N,/RESET*%
X147134500Y-88825000D03*
%TO.P,U2,24,SYNC*%
%TO.N,/SYNC*%
X147134500Y-88175000D03*
%TD*%
D12*
%TO.P,R3,1*%
%TO.N,+3V3*%
X138016135Y-93500716D03*
%TO.P,R3,2*%
%TO.N,Net-(U2-S3)*%
X139666135Y-93500716D03*
%TD*%
D10*
%TO.P,D7,1,K*%
%TO.N,GND*%
X148336000Y-101244600D03*
%TO.P,D7,2,A*%
%TO.N,Net-(D7-A)*%
X148336000Y-99669600D03*
%TD*%
%TO.P,D4,1,K*%
%TO.N,GND*%
X143459200Y-101244600D03*
%TO.P,D4,2,A*%
%TO.N,Net-(D4-A)*%
X143459200Y-99669600D03*
%TD*%
D13*
%TO.P,C1,1*%
%TO.N,+3V3*%
X137675000Y-88450000D03*
%TO.P,C1,2*%
%TO.N,GND*%
X139225000Y-88450000D03*
%TD*%
D10*
%TO.P,D6,1,K*%
%TO.N,GND*%
X146710400Y-101244600D03*
%TO.P,D6,2,A*%
%TO.N,Net-(D6-A)*%
X146710400Y-99669600D03*
%TD*%
%TO.P,D1,1,K*%
%TO.N,GND*%
X138582400Y-101245200D03*
%TO.P,D1,2,A*%
%TO.N,Net-(D1-A)*%
X138582400Y-99670200D03*
%TD*%
D14*
%TO.P,R7,1*%
%TO.N,+3V3*%
X150622000Y-91821000D03*
%TO.P,R7,2*%
%TO.N,Net-(U2-S7)*%
X148972000Y-91821000D03*
%TD*%
D10*
%TO.P,D8,1,K*%
%TO.N,GND*%
X149961600Y-101244600D03*
%TO.P,D8,2,A*%
%TO.N,Net-(D8-A)*%
X149961600Y-99669600D03*
%TD*%
D14*
%TO.P,R5,1*%
%TO.N,+3V3*%
X150640000Y-94869000D03*
%TO.P,R5,2*%
%TO.N,Net-(U2-S5)*%
X148990000Y-94869000D03*
%TD*%
D12*
%TO.P,R4,1*%
%TO.N,+3V3*%
X138016135Y-95050716D03*
%TO.P,R4,2*%
%TO.N,Net-(U2-S4)*%
X139666135Y-95050716D03*
%TD*%
D10*
%TO.P,D3,1,K*%
%TO.N,GND*%
X141833600Y-101244600D03*
%TO.P,D3,2,A*%
%TO.N,Net-(D3-A)*%
X141833600Y-99669600D03*
%TD*%
D12*
%TO.P,R1,1*%
%TO.N,+3V3*%
X138006135Y-90396716D03*
%TO.P,R1,2*%
%TO.N,Net-(U2-S1)*%
X139656135Y-90396716D03*
%TD*%
D14*
%TO.P,R8,1*%
%TO.N,+3V3*%
X150622000Y-90297000D03*
%TO.P,R8,2*%
%TO.N,Net-(U2-S8)*%
X148972000Y-90297000D03*
%TD*%
%TO.P,R6,1*%
%TO.N,+3V3*%
X150634200Y-93345000D03*
%TO.P,R6,2*%
%TO.N,Net-(U2-S6)*%
X148984200Y-93345000D03*
%TD*%
D12*
%TO.P,R2,1*%
%TO.N,+3V3*%
X138006135Y-91940716D03*
%TO.P,R2,2*%
%TO.N,Net-(U2-S2)*%
X139656135Y-91940716D03*
%TD*%
D15*
%TO.P,J2,1,Pin_1*%
%TO.N,GND*%
X135340000Y-83820000D03*
D16*
%TO.P,J2,2,Pin_2*%
%TO.N,/SCLK*%
X137880000Y-83820000D03*
%TO.P,J2,3,Pin_3*%
%TO.N,+3V3*%
X140420000Y-83820000D03*
%TO.P,J2,4,Pin_4*%
%TO.N,/COPI*%
X142960000Y-83820000D03*
%TO.P,J2,5,Pin_5*%
%TO.N,/DOUT*%
X145500000Y-83820000D03*
%TO.P,J2,6,Pin_6*%
%TO.N,/RESET*%
X148040000Y-83820000D03*
%TO.P,J2,7,Pin_7*%
%TO.N,/SYNC*%
X150580000Y-83820000D03*
%TD*%
D17*
%TO.N,+3V3*%
X150596600Y-89535000D03*
X137693400Y-87757000D03*
%TD*%
D18*
%TO.N,GND*%
X143459200Y-101244600D02*
X138583000Y-101244600D01*
X144473301Y-92035501D02*
X144479901Y-92028901D01*
X144265400Y-100438400D02*
X145071600Y-101244600D01*
X144479901Y-92028901D02*
X144265400Y-92243401D01*
X146383801Y-90125000D02*
X144479901Y-92028901D01*
X139225000Y-88450000D02*
X139225000Y-88640580D01*
X144265400Y-92243401D02*
X144265400Y-100438400D01*
X147134500Y-90125000D02*
X146383801Y-90125000D01*
X145071600Y-101244600D02*
X145084800Y-101244600D01*
X144057499Y-92035501D02*
X144473301Y-92035501D01*
X140709420Y-90125000D02*
X141409500Y-90125000D01*
X141409500Y-90125000D02*
X142146999Y-90125000D01*
X139225000Y-88640580D02*
X140709420Y-90125000D01*
X139225000Y-87705000D02*
X135340000Y-83820000D01*
X145084800Y-101244600D02*
X149961600Y-101244600D01*
X144265400Y-100438400D02*
X143459200Y-101244600D01*
X139225000Y-88450000D02*
X139225000Y-87705000D01*
X138583000Y-101244600D02*
X138582400Y-101245200D01*
X144057499Y-92035501D02*
X144265400Y-92243401D01*
X142146999Y-90125000D02*
X144057499Y-92035501D01*
%TO.N,+3V3*%
X142146999Y-88825000D02*
X142900000Y-88071999D01*
X142900000Y-86300000D02*
X140420000Y-83820000D01*
X137832716Y-95050716D02*
X138016135Y-95050716D01*
X150622000Y-90297000D02*
X150622000Y-89560400D01*
X142900000Y-88071999D02*
X142900000Y-86300000D01*
X137675000Y-87775400D02*
X137693400Y-87757000D01*
X138016135Y-88791135D02*
X137675000Y-88450000D01*
X141409500Y-88825000D02*
X142146999Y-88825000D01*
X137675000Y-88450000D02*
X137675000Y-87775400D01*
X150622000Y-89560400D02*
X150596600Y-89535000D01*
X138016135Y-95050716D02*
X138016135Y-88791135D01*
X150622000Y-90297000D02*
X150622000Y-94851000D01*
X150622000Y-94851000D02*
X150640000Y-94869000D01*
D19*
%TO.N,Net-(D1-A)*%
X141409500Y-95325000D02*
X141986000Y-95901500D01*
X138582400Y-99161600D02*
X138582400Y-99670200D01*
X141986000Y-95901500D02*
X141986000Y-97231200D01*
X141986000Y-97231200D02*
X140309600Y-98907600D01*
X140309600Y-98907600D02*
X138836400Y-98907600D01*
X138836400Y-98907600D02*
X138582400Y-99161600D01*
%TO.N,Net-(D2-A)*%
X142494000Y-94372001D02*
X142494000Y-97739200D01*
X141409500Y-94025000D02*
X142146999Y-94025000D01*
X142146999Y-94025000D02*
X142494000Y-94372001D01*
X140563600Y-99669600D02*
X140208000Y-99669600D01*
X142494000Y-97739200D02*
X140563600Y-99669600D01*
%TO.N,Net-(D3-A)*%
X141409500Y-92725000D02*
X142146999Y-92725000D01*
X143002000Y-93580001D02*
X143002000Y-98501200D01*
X142146999Y-92725000D02*
X143002000Y-93580001D01*
X143002000Y-98501200D02*
X141833600Y-99669600D01*
%TO.N,Net-(D4-A)*%
X142072600Y-91425000D02*
X143510000Y-92862400D01*
X143510000Y-99618800D02*
X143459200Y-99669600D01*
X141409500Y-91425000D02*
X142072600Y-91425000D01*
X143510000Y-92862400D02*
X143510000Y-99618800D01*
%TO.N,Net-(D5-A)*%
X147134500Y-91425000D02*
X146471400Y-91425000D01*
X146471400Y-91425000D02*
X145034000Y-92862400D01*
X145034000Y-99618800D02*
X145084800Y-99669600D01*
X145034000Y-92862400D02*
X145034000Y-99618800D01*
%TO.N,Net-(D6-A)*%
X145542000Y-98501200D02*
X146710400Y-99669600D01*
X146383065Y-92725000D02*
X145542000Y-93566065D01*
X147134500Y-92725000D02*
X146383065Y-92725000D01*
X145542000Y-93566065D02*
X145542000Y-98501200D01*
%TO.N,Net-(D7-A)*%
X146431565Y-94025000D02*
X146050000Y-94406565D01*
X147980400Y-99669600D02*
X148336000Y-99669600D01*
X146050000Y-94406565D02*
X146050000Y-97739200D01*
X147134500Y-94025000D02*
X146431565Y-94025000D01*
X146050000Y-97739200D02*
X147980400Y-99669600D01*
%TO.N,Net-(D8-A)*%
X146558000Y-97231200D02*
X148234400Y-98907600D01*
X147134500Y-95325000D02*
X146558000Y-95901500D01*
X146558000Y-95901500D02*
X146558000Y-97231200D01*
X148234400Y-98907600D02*
X149199600Y-98907600D01*
X149199600Y-98907600D02*
X149961600Y-99669600D01*
%TO.N,/SCLK*%
X142050000Y-87534500D02*
X142050000Y-86800000D01*
X140300000Y-85050000D02*
X139110000Y-85050000D01*
X142050000Y-86800000D02*
X140300000Y-85050000D01*
X141409500Y-88175000D02*
X142050000Y-87534500D01*
X139110000Y-85050000D02*
X137880000Y-83820000D01*
%TO.N,/COPI*%
X141409500Y-89475000D02*
X142675000Y-89475000D01*
X142675000Y-89475000D02*
X143800000Y-88350000D01*
X143800000Y-84660000D02*
X142960000Y-83820000D01*
X143800000Y-88350000D02*
X143800000Y-84660000D01*
%TO.N,/DOUT*%
X145825000Y-89475000D02*
X144700000Y-88350000D01*
X147134500Y-89475000D02*
X145825000Y-89475000D01*
X144700000Y-88350000D02*
X144700000Y-84620000D01*
X144700000Y-84620000D02*
X145500000Y-83820000D01*
%TO.N,/RESET*%
X145650000Y-86210000D02*
X148040000Y-83820000D01*
X147134500Y-88825000D02*
X146475000Y-88825000D01*
X145650000Y-88000000D02*
X145650000Y-86210000D01*
X146475000Y-88825000D02*
X145650000Y-88000000D01*
D20*
%TO.N,Net-(U2-S1)*%
X141409500Y-90775000D02*
X139851000Y-90775000D01*
X139656135Y-90580135D02*
X139656135Y-90396716D01*
X139851000Y-90775000D02*
X139656135Y-90580135D01*
%TO.N,Net-(U2-S2)*%
X139790419Y-92075000D02*
X139656135Y-91940716D01*
X141409500Y-92075000D02*
X139790419Y-92075000D01*
%TO.N,Net-(U2-S3)*%
X141409500Y-93375000D02*
X139791851Y-93375000D01*
X139791851Y-93375000D02*
X139666135Y-93500716D01*
%TO.N,Net-(U2-S4)*%
X139913000Y-94675000D02*
X139666135Y-94921865D01*
X139666135Y-94921865D02*
X139666135Y-95050716D01*
X141409500Y-94675000D02*
X139913000Y-94675000D01*
%TO.N,Net-(U2-S5)*%
X148990000Y-94869000D02*
X148796000Y-94675000D01*
X148796000Y-94675000D02*
X147134500Y-94675000D01*
%TO.N,Net-(U2-S6)*%
X147134500Y-93375000D02*
X148954200Y-93375000D01*
X148954200Y-93375000D02*
X148984200Y-93345000D01*
%TO.N,Net-(U2-S7)*%
X147134500Y-92075000D02*
X148718000Y-92075000D01*
X148718000Y-92075000D02*
X148972000Y-91821000D01*
%TO.N,Net-(U2-S8)*%
X147134500Y-90775000D02*
X148494000Y-90775000D01*
X148494000Y-90775000D02*
X148972000Y-90297000D01*
D19*
%TO.N,/SYNC*%
X146550000Y-86700000D02*
X148250000Y-85000000D01*
X148250000Y-85000000D02*
X149400000Y-85000000D01*
X147134500Y-88175000D02*
X146550000Y-87590500D01*
X149400000Y-85000000D02*
X150580000Y-83820000D01*
X146550000Y-87590500D02*
X146550000Y-86700000D01*
%TD*%
M02*
