%TF.GenerationSoftware,KiCad,Pcbnew,9.0.9-9.0.9~ubuntu24.04.1*%
%TF.CreationDate,2026-06-26T17:03:11-04:00*%
%TF.ProjectId,LED_Breakout,4c45445f-4272-4656-916b-6f75742e6b69,rev?*%
%TF.SameCoordinates,Original*%
%TF.FileFunction,Copper,L2,Bot*%
%TF.FilePolarity,Positive*%
%FSLAX46Y46*%
G04 Gerber Fmt 4.6, Leading zero omitted, Abs format (unit mm)*
G04 Created by KiCad (PCBNEW 9.0.9-9.0.9~ubuntu24.04.1) date 2026-06-26 17:03:11*
%MOMM*%
%LPD*%
G01*
G04 APERTURE LIST*
%TA.AperFunction,ComponentPad*%
%ADD10R,1.700000X1.700000*%
%TD*%
%TA.AperFunction,ComponentPad*%
%ADD11C,1.700000*%
%TD*%
%TA.AperFunction,ViaPad*%
%ADD12C,0.609600*%
%TD*%
G04 APERTURE END LIST*
D10*
%TO.P,J2,1,Pin_1*%
%TO.N,GND*%
X135340000Y-83820000D03*
D11*
%TO.P,J2,2,Pin_2*%
%TO.N,/SCLK*%
X137880000Y-83820000D03*
%TO.P,J2,3,Pin_3*%
%TO.N,+3V3*%
X140420000Y-83820000D03*
%TO.P,J2,4,Pin_4*%
%TO.N,/COPI*%
X142960000Y-83820000D03*
%TO.P,J2,5,Pin_5*%
%TO.N,/DOUT*%
X145500000Y-83820000D03*
%TO.P,J2,6,Pin_6*%
%TO.N,/RESET*%
X148040000Y-83820000D03*
%TO.P,J2,7,Pin_7*%
%TO.N,/SYNC*%
X150580000Y-83820000D03*
%TD*%
D12*
%TO.N,+3V3*%
X150596600Y-89535000D03*
X137693400Y-87757000D03*
%TD*%
%TA.AperFunction,Conductor*%
%TO.N,+3V3*%
G36*
X152394539Y-81984785D02*
G01*
X152440294Y-82037589D01*
X152451500Y-82089100D01*
X152451500Y-101984000D01*
X152431815Y-102051039D01*
X152379011Y-102096794D01*
X152327500Y-102108000D01*
X133625700Y-102108000D01*
X133558661Y-102088315D01*
X133512906Y-102035511D01*
X133501700Y-101984000D01*
X133501700Y-82922135D01*
X133989500Y-82922135D01*
X133989500Y-84717870D01*
X133989501Y-84717876D01*
X133995908Y-84777483D01*
X134046202Y-84912328D01*
X134046206Y-84912335D01*
X134132452Y-85027544D01*
X134132455Y-85027547D01*
X134247664Y-85113793D01*
X134247671Y-85113797D01*
X134382517Y-85164091D01*
X134382516Y-85164091D01*
X134389444Y-85164835D01*
X134442127Y-85170500D01*
X136237872Y-85170499D01*
X136297483Y-85164091D01*
X136432331Y-85113796D01*
X136547546Y-85027546D01*
X136633796Y-84912331D01*
X136682810Y-84780916D01*
X136724681Y-84724984D01*
X136790145Y-84700566D01*
X136858418Y-84715417D01*
X136886673Y-84736569D01*
X137000213Y-84850109D01*
X137172179Y-84975048D01*
X137172181Y-84975049D01*
X137172184Y-84975051D01*
X137361588Y-85071557D01*
X137563757Y-85137246D01*
X137773713Y-85170500D01*
X137773714Y-85170500D01*
X137986286Y-85170500D01*
X137986287Y-85170500D01*
X138196243Y-85137246D01*
X138398412Y-85071557D01*
X138587816Y-84975051D01*
X138674138Y-84912335D01*
X138759786Y-84850109D01*
X138759788Y-84850106D01*
X138759792Y-84850104D01*
X138910104Y-84699792D01*
X138910106Y-84699788D01*
X138910109Y-84699786D01*
X138995890Y-84581717D01*
X139035051Y-84527816D01*
X139039793Y-84518508D01*
X139087763Y-84467711D01*
X139155583Y-84450911D01*
X139221719Y-84473445D01*
X139260763Y-84518500D01*
X139265373Y-84527547D01*
X139304728Y-84581716D01*
X139937037Y-83949408D01*
X139954075Y-84012993D01*
X140019901Y-84127007D01*
X140112993Y-84220099D01*
X140227007Y-84285925D01*
X140290590Y-84302962D01*
X139658282Y-84935269D01*
X139658282Y-84935270D01*
X139712449Y-84974624D01*
X139901782Y-85071095D01*
X140103870Y-85136757D01*
X140313754Y-85170000D01*
X140526246Y-85170000D01*
X140736127Y-85136757D01*
X140736130Y-85136757D01*
X140938217Y-85071095D01*
X141127554Y-84974622D01*
X141181716Y-84935270D01*
X141181717Y-84935270D01*
X140549408Y-84302962D01*
X140612993Y-84285925D01*
X140727007Y-84220099D01*
X140820099Y-84127007D01*
X140885925Y-84012993D01*
X140902962Y-83949408D01*
X141535270Y-84581717D01*
X141535270Y-84581716D01*
X141574622Y-84527555D01*
X141579232Y-84518507D01*
X141627205Y-84467709D01*
X141695025Y-84450912D01*
X141761161Y-84473447D01*
X141800204Y-84518504D01*
X141804949Y-84527817D01*
X141929890Y-84699786D01*
X142080213Y-84850109D01*
X142252179Y-84975048D01*
X142252181Y-84975049D01*
X142252184Y-84975051D01*
X142441588Y-85071557D01*
X142643757Y-85137246D01*
X142853713Y-85170500D01*
X142853714Y-85170500D01*
X143066286Y-85170500D01*
X143066287Y-85170500D01*
X143276243Y-85137246D01*
X143478412Y-85071557D01*
X143667816Y-84975051D01*
X143754138Y-84912335D01*
X143839786Y-84850109D01*
X143839788Y-84850106D01*
X143839792Y-84850104D01*
X143990104Y-84699792D01*
X143990106Y-84699788D01*
X143990109Y-84699786D01*
X144115048Y-84527820D01*
X144115047Y-84527820D01*
X144115051Y-84527816D01*
X144119514Y-84519054D01*
X144167488Y-84468259D01*
X144235308Y-84451463D01*
X144301444Y-84473999D01*
X144340486Y-84519056D01*
X144344951Y-84527820D01*
X144469890Y-84699786D01*
X144620213Y-84850109D01*
X144792179Y-84975048D01*
X144792181Y-84975049D01*
X144792184Y-84975051D01*
X144981588Y-85071557D01*
X145183757Y-85137246D01*
X145393713Y-85170500D01*
X145393714Y-85170500D01*
X145606286Y-85170500D01*
X145606287Y-85170500D01*
X145816243Y-85137246D01*
X146018412Y-85071557D01*
X146207816Y-84975051D01*
X146294138Y-84912335D01*
X146379786Y-84850109D01*
X146379788Y-84850106D01*
X146379792Y-84850104D01*
X146530104Y-84699792D01*
X146530106Y-84699788D01*
X146530109Y-84699786D01*
X146655048Y-84527820D01*
X146655047Y-84527820D01*
X146655051Y-84527816D01*
X146659514Y-84519054D01*
X146707488Y-84468259D01*
X146775308Y-84451463D01*
X146841444Y-84473999D01*
X146880486Y-84519056D01*
X146884951Y-84527820D01*
X147009890Y-84699786D01*
X147160213Y-84850109D01*
X147332179Y-84975048D01*
X147332181Y-84975049D01*
X147332184Y-84975051D01*
X147521588Y-85071557D01*
X147723757Y-85137246D01*
X147933713Y-85170500D01*
X147933714Y-85170500D01*
X148146286Y-85170500D01*
X148146287Y-85170500D01*
X148356243Y-85137246D01*
X148558412Y-85071557D01*
X148747816Y-84975051D01*
X148834138Y-84912335D01*
X148919786Y-84850109D01*
X148919788Y-84850106D01*
X148919792Y-84850104D01*
X149070104Y-84699792D01*
X149070106Y-84699788D01*
X149070109Y-84699786D01*
X149195048Y-84527820D01*
X149195047Y-84527820D01*
X149195051Y-84527816D01*
X149199514Y-84519054D01*
X149247488Y-84468259D01*
X149315308Y-84451463D01*
X149381444Y-84473999D01*
X149420486Y-84519056D01*
X149424951Y-84527820D01*
X149549890Y-84699786D01*
X149700213Y-84850109D01*
X149872179Y-84975048D01*
X149872181Y-84975049D01*
X149872184Y-84975051D01*
X150061588Y-85071557D01*
X150263757Y-85137246D01*
X150473713Y-85170500D01*
X150473714Y-85170500D01*
X150686286Y-85170500D01*
X150686287Y-85170500D01*
X150896243Y-85137246D01*
X151098412Y-85071557D01*
X151287816Y-84975051D01*
X151374138Y-84912335D01*
X151459786Y-84850109D01*
X151459788Y-84850106D01*
X151459792Y-84850104D01*
X151610104Y-84699792D01*
X151610106Y-84699788D01*
X151610109Y-84699786D01*
X151735048Y-84527820D01*
X151735047Y-84527820D01*
X151735051Y-84527816D01*
X151831557Y-84338412D01*
X151897246Y-84136243D01*
X151930500Y-83926287D01*
X151930500Y-83713713D01*
X151897246Y-83503757D01*
X151831557Y-83301588D01*
X151735051Y-83112184D01*
X151735049Y-83112181D01*
X151735048Y-83112179D01*
X151610109Y-82940213D01*
X151459786Y-82789890D01*
X151287820Y-82664951D01*
X151098414Y-82568444D01*
X151098413Y-82568443D01*
X151098412Y-82568443D01*
X150896243Y-82502754D01*
X150896241Y-82502753D01*
X150896240Y-82502753D01*
X150734957Y-82477208D01*
X150686287Y-82469500D01*
X150473713Y-82469500D01*
X150425042Y-82477208D01*
X150263760Y-82502753D01*
X150061585Y-82568444D01*
X149872179Y-82664951D01*
X149700213Y-82789890D01*
X149549890Y-82940213D01*
X149424949Y-83112182D01*
X149420484Y-83120946D01*
X149372509Y-83171742D01*
X149304688Y-83188536D01*
X149238553Y-83165998D01*
X149199516Y-83120946D01*
X149195050Y-83112182D01*
X149070109Y-82940213D01*
X148919786Y-82789890D01*
X148747820Y-82664951D01*
X148558414Y-82568444D01*
X148558413Y-82568443D01*
X148558412Y-82568443D01*
X148356243Y-82502754D01*
X148356241Y-82502753D01*
X148356240Y-82502753D01*
X148194957Y-82477208D01*
X148146287Y-82469500D01*
X147933713Y-82469500D01*
X147885042Y-82477208D01*
X147723760Y-82502753D01*
X147521585Y-82568444D01*
X147332179Y-82664951D01*
X147160213Y-82789890D01*
X147009890Y-82940213D01*
X146884949Y-83112182D01*
X146880484Y-83120946D01*
X146832509Y-83171742D01*
X146764688Y-83188536D01*
X146698553Y-83165998D01*
X146659516Y-83120946D01*
X146655050Y-83112182D01*
X146530109Y-82940213D01*
X146379786Y-82789890D01*
X146207820Y-82664951D01*
X146018414Y-82568444D01*
X146018413Y-82568443D01*
X146018412Y-82568443D01*
X145816243Y-82502754D01*
X145816241Y-82502753D01*
X145816240Y-82502753D01*
X145654957Y-82477208D01*
X145606287Y-82469500D01*
X145393713Y-82469500D01*
X145345042Y-82477208D01*
X145183760Y-82502753D01*
X144981585Y-82568444D01*
X144792179Y-82664951D01*
X144620213Y-82789890D01*
X144469890Y-82940213D01*
X144344949Y-83112182D01*
X144340484Y-83120946D01*
X144292509Y-83171742D01*
X144224688Y-83188536D01*
X144158553Y-83165998D01*
X144119516Y-83120946D01*
X144115050Y-83112182D01*
X143990109Y-82940213D01*
X143839786Y-82789890D01*
X143667820Y-82664951D01*
X143478414Y-82568444D01*
X143478413Y-82568443D01*
X143478412Y-82568443D01*
X143276243Y-82502754D01*
X143276241Y-82502753D01*
X143276240Y-82502753D01*
X143114957Y-82477208D01*
X143066287Y-82469500D01*
X142853713Y-82469500D01*
X142805042Y-82477208D01*
X142643760Y-82502753D01*
X142441585Y-82568444D01*
X142252179Y-82664951D01*
X142080213Y-82789890D01*
X141929890Y-82940213D01*
X141804949Y-83112182D01*
X141800202Y-83121499D01*
X141752227Y-83172293D01*
X141684405Y-83189087D01*
X141618271Y-83166548D01*
X141579234Y-83121495D01*
X141574626Y-83112452D01*
X141535270Y-83058282D01*
X141535269Y-83058282D01*
X140902962Y-83690590D01*
X140885925Y-83627007D01*
X140820099Y-83512993D01*
X140727007Y-83419901D01*
X140612993Y-83354075D01*
X140549409Y-83337037D01*
X141181716Y-82704728D01*
X141127550Y-82665375D01*
X140938217Y-82568904D01*
X140736129Y-82503242D01*
X140526246Y-82470000D01*
X140313754Y-82470000D01*
X140103872Y-82503242D01*
X140103869Y-82503242D01*
X139901782Y-82568904D01*
X139712439Y-82665380D01*
X139658282Y-82704727D01*
X139658282Y-82704728D01*
X140290591Y-83337037D01*
X140227007Y-83354075D01*
X140112993Y-83419901D01*
X140019901Y-83512993D01*
X139954075Y-83627007D01*
X139937037Y-83690591D01*
X139304728Y-83058282D01*
X139304727Y-83058282D01*
X139265380Y-83112440D01*
X139265376Y-83112446D01*
X139260760Y-83121505D01*
X139212781Y-83172297D01*
X139144959Y-83189087D01*
X139078826Y-83166543D01*
X139039794Y-83121493D01*
X139035051Y-83112184D01*
X139035049Y-83112181D01*
X139035048Y-83112179D01*
X138910109Y-82940213D01*
X138759786Y-82789890D01*
X138587820Y-82664951D01*
X138398414Y-82568444D01*
X138398413Y-82568443D01*
X138398412Y-82568443D01*
X138196243Y-82502754D01*
X138196241Y-82502753D01*
X138196240Y-82502753D01*
X138034957Y-82477208D01*
X137986287Y-82469500D01*
X137773713Y-82469500D01*
X137725042Y-82477208D01*
X137563760Y-82502753D01*
X137361585Y-82568444D01*
X137172179Y-82664951D01*
X137000215Y-82789889D01*
X136886673Y-82903431D01*
X136825350Y-82936915D01*
X136755658Y-82931931D01*
X136699725Y-82890059D01*
X136682810Y-82859082D01*
X136633797Y-82727671D01*
X136633793Y-82727664D01*
X136547547Y-82612455D01*
X136547544Y-82612452D01*
X136432335Y-82526206D01*
X136432328Y-82526202D01*
X136297482Y-82475908D01*
X136297483Y-82475908D01*
X136237883Y-82469501D01*
X136237881Y-82469500D01*
X136237873Y-82469500D01*
X136237864Y-82469500D01*
X134442129Y-82469500D01*
X134442123Y-82469501D01*
X134382516Y-82475908D01*
X134247671Y-82526202D01*
X134247664Y-82526206D01*
X134132455Y-82612452D01*
X134132452Y-82612455D01*
X134046206Y-82727664D01*
X134046202Y-82727671D01*
X133995908Y-82862517D01*
X133989501Y-82922116D01*
X133989500Y-82922135D01*
X133501700Y-82922135D01*
X133501700Y-82089100D01*
X133521385Y-82022061D01*
X133574189Y-81976306D01*
X133625700Y-81965100D01*
X152327500Y-81965100D01*
X152394539Y-81984785D01*
G37*
%TD.AperFunction*%
%TD*%
M02*
