%TF.GenerationSoftware,KiCad,Pcbnew,9.0.9-9.0.9~ubuntu24.04.1*%
%TF.CreationDate,2026-06-26T16:54:57-04:00*%
%TF.ProjectId,WB_Breakout,57425f42-7265-4616-9b6f-75742e6b6963,rev?*%
%TF.SameCoordinates,Original*%
%TF.FileFunction,Legend,Top*%
%TF.FilePolarity,Positive*%
%FSLAX46Y46*%
G04 Gerber Fmt 4.6, Leading zero omitted, Abs format (unit mm)*
G04 Created by KiCad (PCBNEW 9.0.9-9.0.9~ubuntu24.04.1) date 2026-06-26 16:54:57*
%MOMM*%
%LPD*%
G01*
G04 APERTURE LIST*
G04 Aperture macros list*
%AMRoundRect*
0 Rectangle with rounded corners*
0 $1 Rounding radius*
0 $2 $3 $4 $5 $6 $7 $8 $9 X,Y pos of 4 corners*
0 Add a 4 corners polygon primitive as box body*
4,1,4,$2,$3,$4,$5,$6,$7,$8,$9,$2,$3,0*
0 Add four circle primitives for the rounded corners*
1,1,$1+$1,$2,$3*
1,1,$1+$1,$4,$5*
1,1,$1+$1,$6,$7*
1,1,$1+$1,$8,$9*
0 Add four rect primitives between the rounded corners*
20,1,$1+$1,$2,$3,$4,$5,0*
20,1,$1+$1,$4,$5,$6,$7,0*
20,1,$1+$1,$6,$7,$8,$9,0*
20,1,$1+$1,$8,$9,$2,$3,0*%
G04 Aperture macros list end*
%ADD10C,0.125000*%
%ADD11C,0.150000*%
%ADD12C,0.120000*%
%ADD13RoundRect,0.200000X0.275000X-0.200000X0.275000X0.200000X-0.275000X0.200000X-0.275000X-0.200000X0*%
%ADD14RoundRect,0.225000X-0.225000X-0.250000X0.225000X-0.250000X0.225000X0.250000X-0.225000X0.250000X0*%
%ADD15RoundRect,0.225000X0.250000X-0.225000X0.250000X0.225000X-0.250000X0.225000X-0.250000X-0.225000X0*%
%ADD16RoundRect,0.100000X0.100000X-0.637500X0.100000X0.637500X-0.100000X0.637500X-0.100000X-0.637500X0*%
%ADD17RoundRect,0.200000X-0.275000X0.200000X-0.275000X-0.200000X0.275000X-0.200000X0.275000X0.200000X0*%
%ADD18RoundRect,0.200000X0.200000X0.275000X-0.200000X0.275000X-0.200000X-0.275000X0.200000X-0.275000X0*%
%ADD19RoundRect,0.225000X-0.250000X0.225000X-0.250000X-0.225000X0.250000X-0.225000X0.250000X0.225000X0*%
%ADD20RoundRect,0.200000X-0.200000X-0.275000X0.200000X-0.275000X0.200000X0.275000X-0.200000X0.275000X0*%
%ADD21R,1.700000X1.700000*%
%ADD22C,1.700000*%
G04 APERTURE END LIST*
D10*
X159237415Y-91766786D02*
X159229657Y-91815254D01*
X159229657Y-91815254D02*
X159168288Y-91894674D01*
X159168288Y-91894674D02*
X159114677Y-91925626D01*
X159114677Y-91925626D02*
X159015212Y-91939063D01*
X159015212Y-91939063D02*
X158923506Y-91904033D01*
X158923506Y-91904033D02*
X158858605Y-91853526D01*
X158858605Y-91853526D02*
X158755609Y-91737037D01*
X158755609Y-91737037D02*
X158698466Y-91638062D01*
X158698466Y-91638062D02*
X158649081Y-91490620D01*
X158649081Y-91490620D02*
X158637792Y-91409161D01*
X158637792Y-91409161D02*
X158653308Y-91312226D01*
X158653308Y-91312226D02*
X158714677Y-91232806D01*
X158714677Y-91232806D02*
X158768288Y-91201854D01*
X158768288Y-91201854D02*
X158867752Y-91188416D01*
X158867752Y-91188416D02*
X158913605Y-91205932D01*
X159516760Y-91693483D02*
X159116760Y-91000663D01*
X159307236Y-91330577D02*
X159628903Y-91144863D01*
X159838426Y-91507769D02*
X159438426Y-90814949D01*
X159813704Y-90598282D02*
X159867315Y-90567330D01*
X159867315Y-90567330D02*
X159939974Y-90569369D01*
X159939974Y-90569369D02*
X159985827Y-90586884D01*
X159985827Y-90586884D02*
X160050728Y-90637391D01*
X160050728Y-90637391D02*
X160153724Y-90753881D01*
X160153724Y-90753881D02*
X160248962Y-90918838D01*
X160248962Y-90918838D02*
X160298347Y-91066280D01*
X160298347Y-91066280D02*
X160309636Y-91147739D01*
X160309636Y-91147739D02*
X160301878Y-91196206D01*
X160301878Y-91196206D02*
X160267315Y-91260150D01*
X160267315Y-91260150D02*
X160213704Y-91291103D01*
X160213704Y-91291103D02*
X160141045Y-91289064D01*
X160141045Y-91289064D02*
X160095192Y-91271548D01*
X160095192Y-91271548D02*
X160030291Y-91221042D01*
X160030291Y-91221042D02*
X159927295Y-91104552D01*
X159927295Y-91104552D02*
X159832057Y-90939595D01*
X159832057Y-90939595D02*
X159782672Y-90792153D01*
X159782672Y-90792153D02*
X159771382Y-90710694D01*
X159771382Y-90710694D02*
X159779140Y-90662226D01*
X159779140Y-90662226D02*
X159813704Y-90598282D01*
D11*
X147068942Y-91887084D02*
X147068942Y-91744226D01*
X147068942Y-91744226D02*
X147026085Y-91672798D01*
X147026085Y-91672798D02*
X146983228Y-91637084D01*
X146983228Y-91637084D02*
X146854657Y-91565655D01*
X146854657Y-91565655D02*
X146683228Y-91529941D01*
X146683228Y-91529941D02*
X146340371Y-91529941D01*
X146340371Y-91529941D02*
X146254657Y-91565655D01*
X146254657Y-91565655D02*
X146211800Y-91601369D01*
X146211800Y-91601369D02*
X146168942Y-91672798D01*
X146168942Y-91672798D02*
X146168942Y-91815655D01*
X146168942Y-91815655D02*
X146211800Y-91887084D01*
X146211800Y-91887084D02*
X146254657Y-91922798D01*
X146254657Y-91922798D02*
X146340371Y-91958512D01*
X146340371Y-91958512D02*
X146554657Y-91958512D01*
X146554657Y-91958512D02*
X146640371Y-91922798D01*
X146640371Y-91922798D02*
X146683228Y-91887084D01*
X146683228Y-91887084D02*
X146726085Y-91815655D01*
X146726085Y-91815655D02*
X146726085Y-91672798D01*
X146726085Y-91672798D02*
X146683228Y-91601369D01*
X146683228Y-91601369D02*
X146640371Y-91565655D01*
X146640371Y-91565655D02*
X146554657Y-91529941D01*
X147111800Y-92815655D02*
X145954657Y-92172798D01*
X146983228Y-93029941D02*
X147026085Y-93065655D01*
X147026085Y-93065655D02*
X147068942Y-93137084D01*
X147068942Y-93137084D02*
X147068942Y-93315655D01*
X147068942Y-93315655D02*
X147026085Y-93387084D01*
X147026085Y-93387084D02*
X146983228Y-93422798D01*
X146983228Y-93422798D02*
X146897514Y-93458512D01*
X146897514Y-93458512D02*
X146811800Y-93458512D01*
X146811800Y-93458512D02*
X146683228Y-93422798D01*
X146683228Y-93422798D02*
X146168942Y-92994226D01*
X146168942Y-92994226D02*
X146168942Y-93458512D01*
X147068942Y-93708512D02*
X147068942Y-94172798D01*
X147068942Y-94172798D02*
X146726085Y-93922798D01*
X146726085Y-93922798D02*
X146726085Y-94029941D01*
X146726085Y-94029941D02*
X146683228Y-94101370D01*
X146683228Y-94101370D02*
X146640371Y-94137084D01*
X146640371Y-94137084D02*
X146554657Y-94172798D01*
X146554657Y-94172798D02*
X146340371Y-94172798D01*
X146340371Y-94172798D02*
X146254657Y-94137084D01*
X146254657Y-94137084D02*
X146211800Y-94101370D01*
X146211800Y-94101370D02*
X146168942Y-94029941D01*
X146168942Y-94029941D02*
X146168942Y-93815655D01*
X146168942Y-93815655D02*
X146211800Y-93744227D01*
X146211800Y-93744227D02*
X146254657Y-93708512D01*
X147111800Y-95029941D02*
X145954657Y-94387084D01*
X146983228Y-95244227D02*
X147026085Y-95279941D01*
X147026085Y-95279941D02*
X147068942Y-95351370D01*
X147068942Y-95351370D02*
X147068942Y-95529941D01*
X147068942Y-95529941D02*
X147026085Y-95601370D01*
X147026085Y-95601370D02*
X146983228Y-95637084D01*
X146983228Y-95637084D02*
X146897514Y-95672798D01*
X146897514Y-95672798D02*
X146811800Y-95672798D01*
X146811800Y-95672798D02*
X146683228Y-95637084D01*
X146683228Y-95637084D02*
X146168942Y-95208512D01*
X146168942Y-95208512D02*
X146168942Y-95672798D01*
X147068942Y-96137084D02*
X147068942Y-96208513D01*
X147068942Y-96208513D02*
X147026085Y-96279941D01*
X147026085Y-96279941D02*
X146983228Y-96315656D01*
X146983228Y-96315656D02*
X146897514Y-96351370D01*
X146897514Y-96351370D02*
X146726085Y-96387084D01*
X146726085Y-96387084D02*
X146511800Y-96387084D01*
X146511800Y-96387084D02*
X146340371Y-96351370D01*
X146340371Y-96351370D02*
X146254657Y-96315656D01*
X146254657Y-96315656D02*
X146211800Y-96279941D01*
X146211800Y-96279941D02*
X146168942Y-96208513D01*
X146168942Y-96208513D02*
X146168942Y-96137084D01*
X146168942Y-96137084D02*
X146211800Y-96065656D01*
X146211800Y-96065656D02*
X146254657Y-96029941D01*
X146254657Y-96029941D02*
X146340371Y-95994227D01*
X146340371Y-95994227D02*
X146511800Y-95958513D01*
X146511800Y-95958513D02*
X146726085Y-95958513D01*
X146726085Y-95958513D02*
X146897514Y-95994227D01*
X146897514Y-95994227D02*
X146983228Y-96029941D01*
X146983228Y-96029941D02*
X147026085Y-96065656D01*
X147026085Y-96065656D02*
X147068942Y-96137084D01*
X146983228Y-96672799D02*
X147026085Y-96708513D01*
X147026085Y-96708513D02*
X147068942Y-96779942D01*
X147068942Y-96779942D02*
X147068942Y-96958513D01*
X147068942Y-96958513D02*
X147026085Y-97029942D01*
X147026085Y-97029942D02*
X146983228Y-97065656D01*
X146983228Y-97065656D02*
X146897514Y-97101370D01*
X146897514Y-97101370D02*
X146811800Y-97101370D01*
X146811800Y-97101370D02*
X146683228Y-97065656D01*
X146683228Y-97065656D02*
X146168942Y-96637084D01*
X146168942Y-96637084D02*
X146168942Y-97101370D01*
X147068942Y-97744228D02*
X147068942Y-97601370D01*
X147068942Y-97601370D02*
X147026085Y-97529942D01*
X147026085Y-97529942D02*
X146983228Y-97494228D01*
X146983228Y-97494228D02*
X146854657Y-97422799D01*
X146854657Y-97422799D02*
X146683228Y-97387085D01*
X146683228Y-97387085D02*
X146340371Y-97387085D01*
X146340371Y-97387085D02*
X146254657Y-97422799D01*
X146254657Y-97422799D02*
X146211800Y-97458513D01*
X146211800Y-97458513D02*
X146168942Y-97529942D01*
X146168942Y-97529942D02*
X146168942Y-97672799D01*
X146168942Y-97672799D02*
X146211800Y-97744228D01*
X146211800Y-97744228D02*
X146254657Y-97779942D01*
X146254657Y-97779942D02*
X146340371Y-97815656D01*
X146340371Y-97815656D02*
X146554657Y-97815656D01*
X146554657Y-97815656D02*
X146640371Y-97779942D01*
X146640371Y-97779942D02*
X146683228Y-97744228D01*
X146683228Y-97744228D02*
X146726085Y-97672799D01*
X146726085Y-97672799D02*
X146726085Y-97529942D01*
X146726085Y-97529942D02*
X146683228Y-97458513D01*
X146683228Y-97458513D02*
X146640371Y-97422799D01*
X146640371Y-97422799D02*
X146554657Y-97387085D01*
X144826085Y-91529941D02*
X144826085Y-91887084D01*
X144568942Y-91458512D02*
X145468942Y-91708512D01*
X145468942Y-91708512D02*
X144568942Y-91958512D01*
X144568942Y-92208512D02*
X145468942Y-92208512D01*
X145468942Y-92208512D02*
X145468942Y-92387083D01*
X145468942Y-92387083D02*
X145426085Y-92494226D01*
X145426085Y-92494226D02*
X145340371Y-92565655D01*
X145340371Y-92565655D02*
X145254657Y-92601369D01*
X145254657Y-92601369D02*
X145083228Y-92637083D01*
X145083228Y-92637083D02*
X144954657Y-92637083D01*
X144954657Y-92637083D02*
X144783228Y-92601369D01*
X144783228Y-92601369D02*
X144697514Y-92565655D01*
X144697514Y-92565655D02*
X144611800Y-92494226D01*
X144611800Y-92494226D02*
X144568942Y-92387083D01*
X144568942Y-92387083D02*
X144568942Y-92208512D01*
X145426085Y-93351369D02*
X145468942Y-93279941D01*
X145468942Y-93279941D02*
X145468942Y-93172798D01*
X145468942Y-93172798D02*
X145426085Y-93065655D01*
X145426085Y-93065655D02*
X145340371Y-92994226D01*
X145340371Y-92994226D02*
X145254657Y-92958512D01*
X145254657Y-92958512D02*
X145083228Y-92922798D01*
X145083228Y-92922798D02*
X144954657Y-92922798D01*
X144954657Y-92922798D02*
X144783228Y-92958512D01*
X144783228Y-92958512D02*
X144697514Y-92994226D01*
X144697514Y-92994226D02*
X144611800Y-93065655D01*
X144611800Y-93065655D02*
X144568942Y-93172798D01*
X144568942Y-93172798D02*
X144568942Y-93244226D01*
X144568942Y-93244226D02*
X144611800Y-93351369D01*
X144611800Y-93351369D02*
X144654657Y-93387083D01*
X144654657Y-93387083D02*
X144954657Y-93387083D01*
X144954657Y-93387083D02*
X144954657Y-93244226D01*
X145468942Y-93637083D02*
X145468942Y-94137083D01*
X145468942Y-94137083D02*
X144568942Y-93815655D01*
X144568942Y-94815655D02*
X144568942Y-94387084D01*
X144568942Y-94601369D02*
X145468942Y-94601369D01*
X145468942Y-94601369D02*
X145340371Y-94529941D01*
X145340371Y-94529941D02*
X145254657Y-94458512D01*
X145254657Y-94458512D02*
X145211800Y-94387084D01*
X145168942Y-95458513D02*
X144568942Y-95458513D01*
X145511800Y-95279941D02*
X144868942Y-95101370D01*
X144868942Y-95101370D02*
X144868942Y-95565655D01*
X145040371Y-96672799D02*
X144997514Y-96779942D01*
X144997514Y-96779942D02*
X144954657Y-96815656D01*
X144954657Y-96815656D02*
X144868942Y-96851370D01*
X144868942Y-96851370D02*
X144740371Y-96851370D01*
X144740371Y-96851370D02*
X144654657Y-96815656D01*
X144654657Y-96815656D02*
X144611800Y-96779942D01*
X144611800Y-96779942D02*
X144568942Y-96708513D01*
X144568942Y-96708513D02*
X144568942Y-96422799D01*
X144568942Y-96422799D02*
X145468942Y-96422799D01*
X145468942Y-96422799D02*
X145468942Y-96672799D01*
X145468942Y-96672799D02*
X145426085Y-96744228D01*
X145426085Y-96744228D02*
X145383228Y-96779942D01*
X145383228Y-96779942D02*
X145297514Y-96815656D01*
X145297514Y-96815656D02*
X145211800Y-96815656D01*
X145211800Y-96815656D02*
X145126085Y-96779942D01*
X145126085Y-96779942D02*
X145083228Y-96744228D01*
X145083228Y-96744228D02*
X145040371Y-96672799D01*
X145040371Y-96672799D02*
X145040371Y-96422799D01*
X144568942Y-97172799D02*
X145168942Y-97172799D01*
X144997514Y-97172799D02*
X145083228Y-97208513D01*
X145083228Y-97208513D02*
X145126085Y-97244228D01*
X145126085Y-97244228D02*
X145168942Y-97315656D01*
X145168942Y-97315656D02*
X145168942Y-97387085D01*
X144611800Y-97922799D02*
X144568942Y-97851371D01*
X144568942Y-97851371D02*
X144568942Y-97708514D01*
X144568942Y-97708514D02*
X144611800Y-97637085D01*
X144611800Y-97637085D02*
X144697514Y-97601371D01*
X144697514Y-97601371D02*
X145040371Y-97601371D01*
X145040371Y-97601371D02*
X145126085Y-97637085D01*
X145126085Y-97637085D02*
X145168942Y-97708514D01*
X145168942Y-97708514D02*
X145168942Y-97851371D01*
X145168942Y-97851371D02*
X145126085Y-97922799D01*
X145126085Y-97922799D02*
X145040371Y-97958514D01*
X145040371Y-97958514D02*
X144954657Y-97958514D01*
X144954657Y-97958514D02*
X144868942Y-97601371D01*
X144568942Y-98601371D02*
X145040371Y-98601371D01*
X145040371Y-98601371D02*
X145126085Y-98565656D01*
X145126085Y-98565656D02*
X145168942Y-98494228D01*
X145168942Y-98494228D02*
X145168942Y-98351371D01*
X145168942Y-98351371D02*
X145126085Y-98279942D01*
X144611800Y-98601371D02*
X144568942Y-98529942D01*
X144568942Y-98529942D02*
X144568942Y-98351371D01*
X144568942Y-98351371D02*
X144611800Y-98279942D01*
X144611800Y-98279942D02*
X144697514Y-98244228D01*
X144697514Y-98244228D02*
X144783228Y-98244228D01*
X144783228Y-98244228D02*
X144868942Y-98279942D01*
X144868942Y-98279942D02*
X144911800Y-98351371D01*
X144911800Y-98351371D02*
X144911800Y-98529942D01*
X144911800Y-98529942D02*
X144954657Y-98601371D01*
X144568942Y-98958513D02*
X145468942Y-98958513D01*
X144911800Y-99029942D02*
X144568942Y-99244227D01*
X145168942Y-99244227D02*
X144826085Y-98958513D01*
X144568942Y-99672799D02*
X144611800Y-99601370D01*
X144611800Y-99601370D02*
X144654657Y-99565656D01*
X144654657Y-99565656D02*
X144740371Y-99529942D01*
X144740371Y-99529942D02*
X144997514Y-99529942D01*
X144997514Y-99529942D02*
X145083228Y-99565656D01*
X145083228Y-99565656D02*
X145126085Y-99601370D01*
X145126085Y-99601370D02*
X145168942Y-99672799D01*
X145168942Y-99672799D02*
X145168942Y-99779942D01*
X145168942Y-99779942D02*
X145126085Y-99851370D01*
X145126085Y-99851370D02*
X145083228Y-99887085D01*
X145083228Y-99887085D02*
X144997514Y-99922799D01*
X144997514Y-99922799D02*
X144740371Y-99922799D01*
X144740371Y-99922799D02*
X144654657Y-99887085D01*
X144654657Y-99887085D02*
X144611800Y-99851370D01*
X144611800Y-99851370D02*
X144568942Y-99779942D01*
X144568942Y-99779942D02*
X144568942Y-99672799D01*
X145168942Y-100565656D02*
X144568942Y-100565656D01*
X145168942Y-100244227D02*
X144697514Y-100244227D01*
X144697514Y-100244227D02*
X144611800Y-100279941D01*
X144611800Y-100279941D02*
X144568942Y-100351370D01*
X144568942Y-100351370D02*
X144568942Y-100458513D01*
X144568942Y-100458513D02*
X144611800Y-100529941D01*
X144611800Y-100529941D02*
X144654657Y-100565656D01*
X145168942Y-100815655D02*
X145168942Y-101101369D01*
X145468942Y-100922798D02*
X144697514Y-100922798D01*
X144697514Y-100922798D02*
X144611800Y-100958512D01*
X144611800Y-100958512D02*
X144568942Y-101029941D01*
X144568942Y-101029941D02*
X144568942Y-101101369D01*
D10*
X147344226Y-83131395D02*
X147127559Y-82750442D01*
X146972797Y-83131395D02*
X146972797Y-82331395D01*
X146972797Y-82331395D02*
X147220416Y-82331395D01*
X147220416Y-82331395D02*
X147282321Y-82369490D01*
X147282321Y-82369490D02*
X147313274Y-82407585D01*
X147313274Y-82407585D02*
X147344226Y-82483776D01*
X147344226Y-82483776D02*
X147344226Y-82598061D01*
X147344226Y-82598061D02*
X147313274Y-82674252D01*
X147313274Y-82674252D02*
X147282321Y-82712347D01*
X147282321Y-82712347D02*
X147220416Y-82750442D01*
X147220416Y-82750442D02*
X146972797Y-82750442D01*
X147622797Y-82712347D02*
X147839464Y-82712347D01*
X147932321Y-83131395D02*
X147622797Y-83131395D01*
X147622797Y-83131395D02*
X147622797Y-82331395D01*
X147622797Y-82331395D02*
X147932321Y-82331395D01*
X148179940Y-83093300D02*
X148272797Y-83131395D01*
X148272797Y-83131395D02*
X148427559Y-83131395D01*
X148427559Y-83131395D02*
X148489464Y-83093300D01*
X148489464Y-83093300D02*
X148520416Y-83055204D01*
X148520416Y-83055204D02*
X148551369Y-82979014D01*
X148551369Y-82979014D02*
X148551369Y-82902823D01*
X148551369Y-82902823D02*
X148520416Y-82826633D01*
X148520416Y-82826633D02*
X148489464Y-82788538D01*
X148489464Y-82788538D02*
X148427559Y-82750442D01*
X148427559Y-82750442D02*
X148303750Y-82712347D01*
X148303750Y-82712347D02*
X148241845Y-82674252D01*
X148241845Y-82674252D02*
X148210892Y-82636157D01*
X148210892Y-82636157D02*
X148179940Y-82559966D01*
X148179940Y-82559966D02*
X148179940Y-82483776D01*
X148179940Y-82483776D02*
X148210892Y-82407585D01*
X148210892Y-82407585D02*
X148241845Y-82369490D01*
X148241845Y-82369490D02*
X148303750Y-82331395D01*
X148303750Y-82331395D02*
X148458511Y-82331395D01*
X148458511Y-82331395D02*
X148551369Y-82369490D01*
X148829940Y-82712347D02*
X149046607Y-82712347D01*
X149139464Y-83131395D02*
X148829940Y-83131395D01*
X148829940Y-83131395D02*
X148829940Y-82331395D01*
X148829940Y-82331395D02*
X149139464Y-82331395D01*
X149325178Y-82331395D02*
X149696607Y-82331395D01*
X149510893Y-83131395D02*
X149510893Y-82331395D01*
X159236615Y-84139386D02*
X159228857Y-84187854D01*
X159228857Y-84187854D02*
X159167488Y-84267274D01*
X159167488Y-84267274D02*
X159113877Y-84298226D01*
X159113877Y-84298226D02*
X159014412Y-84311663D01*
X159014412Y-84311663D02*
X158922706Y-84276633D01*
X158922706Y-84276633D02*
X158857805Y-84226126D01*
X158857805Y-84226126D02*
X158754809Y-84109637D01*
X158754809Y-84109637D02*
X158697666Y-84010662D01*
X158697666Y-84010662D02*
X158648281Y-83863220D01*
X158648281Y-83863220D02*
X158636992Y-83781761D01*
X158636992Y-83781761D02*
X158652508Y-83684826D01*
X158652508Y-83684826D02*
X158713877Y-83605406D01*
X158713877Y-83605406D02*
X158767488Y-83574454D01*
X158767488Y-83574454D02*
X158866952Y-83561016D01*
X158866952Y-83561016D02*
X158912805Y-83578532D01*
X159515960Y-84066083D02*
X159115960Y-83373263D01*
X159306436Y-83703177D02*
X159628103Y-83517463D01*
X159837626Y-83880369D02*
X159437626Y-83187549D01*
X159652070Y-83063739D02*
X160000543Y-82862549D01*
X160000543Y-82862549D02*
X159965285Y-83234814D01*
X159965285Y-83234814D02*
X160045701Y-83188385D01*
X160045701Y-83188385D02*
X160118360Y-83190424D01*
X160118360Y-83190424D02*
X160164213Y-83207940D01*
X160164213Y-83207940D02*
X160229114Y-83258446D01*
X160229114Y-83258446D02*
X160324352Y-83423404D01*
X160324352Y-83423404D02*
X160335642Y-83504863D01*
X160335642Y-83504863D02*
X160327884Y-83553330D01*
X160327884Y-83553330D02*
X160293320Y-83617274D01*
X160293320Y-83617274D02*
X160132487Y-83710131D01*
X160132487Y-83710131D02*
X160059828Y-83708092D01*
X160059828Y-83708092D02*
X160013975Y-83690577D01*
X158919225Y-113690236D02*
X159260464Y-113477006D01*
X159260464Y-113477006D02*
X159238219Y-113850275D01*
X159238219Y-113850275D02*
X159316967Y-113801068D01*
X159316967Y-113801068D02*
X159389652Y-113800570D01*
X159389652Y-113800570D02*
X159436089Y-113816474D01*
X159436089Y-113816474D02*
X159502713Y-113864685D01*
X159502713Y-113864685D02*
X159603650Y-114026218D01*
X159603650Y-114026218D02*
X159617775Y-114107234D01*
X159617775Y-114107234D02*
X159611714Y-114155943D01*
X159611714Y-114155943D02*
X159579403Y-114221054D01*
X159579403Y-114221054D02*
X159421908Y-114319467D01*
X159421908Y-114319467D02*
X159349223Y-114319965D01*
X159349223Y-114319965D02*
X159302786Y-114304061D01*
X159759142Y-113749371D02*
X160179128Y-113486935D01*
X160130634Y-113876606D02*
X159807636Y-113359700D01*
X159236615Y-86639386D02*
X159228857Y-86687854D01*
X159228857Y-86687854D02*
X159167488Y-86767274D01*
X159167488Y-86767274D02*
X159113877Y-86798226D01*
X159113877Y-86798226D02*
X159014412Y-86811663D01*
X159014412Y-86811663D02*
X158922706Y-86776633D01*
X158922706Y-86776633D02*
X158857805Y-86726126D01*
X158857805Y-86726126D02*
X158754809Y-86609637D01*
X158754809Y-86609637D02*
X158697666Y-86510662D01*
X158697666Y-86510662D02*
X158648281Y-86363220D01*
X158648281Y-86363220D02*
X158636992Y-86281761D01*
X158636992Y-86281761D02*
X158652508Y-86184826D01*
X158652508Y-86184826D02*
X158713877Y-86105406D01*
X158713877Y-86105406D02*
X158767488Y-86074454D01*
X158767488Y-86074454D02*
X158866952Y-86061016D01*
X158866952Y-86061016D02*
X158912805Y-86078532D01*
X159515960Y-86566083D02*
X159115960Y-85873263D01*
X159306436Y-86203177D02*
X159628103Y-86017463D01*
X159837626Y-86380369D02*
X159437626Y-85687549D01*
X159716971Y-85614246D02*
X159724729Y-85565778D01*
X159724729Y-85565778D02*
X159759293Y-85501835D01*
X159759293Y-85501835D02*
X159893320Y-85424454D01*
X159893320Y-85424454D02*
X159965979Y-85426493D01*
X159965979Y-85426493D02*
X160011832Y-85444008D01*
X160011832Y-85444008D02*
X160076733Y-85494515D01*
X160076733Y-85494515D02*
X160114828Y-85560498D01*
X160114828Y-85560498D02*
X160145166Y-85674948D01*
X160145166Y-85674948D02*
X160052070Y-86256560D01*
X160052070Y-86256560D02*
X160400543Y-86055369D01*
X159236615Y-78939386D02*
X159228857Y-78987854D01*
X159228857Y-78987854D02*
X159167488Y-79067274D01*
X159167488Y-79067274D02*
X159113877Y-79098226D01*
X159113877Y-79098226D02*
X159014412Y-79111663D01*
X159014412Y-79111663D02*
X158922706Y-79076633D01*
X158922706Y-79076633D02*
X158857805Y-79026126D01*
X158857805Y-79026126D02*
X158754809Y-78909637D01*
X158754809Y-78909637D02*
X158697666Y-78810662D01*
X158697666Y-78810662D02*
X158648281Y-78663220D01*
X158648281Y-78663220D02*
X158636992Y-78581761D01*
X158636992Y-78581761D02*
X158652508Y-78484826D01*
X158652508Y-78484826D02*
X158713877Y-78405406D01*
X158713877Y-78405406D02*
X158767488Y-78374454D01*
X158767488Y-78374454D02*
X158866952Y-78361016D01*
X158866952Y-78361016D02*
X158912805Y-78378532D01*
X159515960Y-78866083D02*
X159115960Y-78173263D01*
X159306436Y-78503177D02*
X159628103Y-78317463D01*
X159837626Y-78680369D02*
X159437626Y-77987549D01*
X159973737Y-77678025D02*
X159705682Y-77832787D01*
X159705682Y-77832787D02*
X159869352Y-78178178D01*
X159869352Y-78178178D02*
X159877110Y-78129710D01*
X159877110Y-78129710D02*
X159911674Y-78065766D01*
X159911674Y-78065766D02*
X160045701Y-77988385D01*
X160045701Y-77988385D02*
X160118360Y-77990424D01*
X160118360Y-77990424D02*
X160164213Y-78007940D01*
X160164213Y-78007940D02*
X160229114Y-78058446D01*
X160229114Y-78058446D02*
X160324352Y-78223404D01*
X160324352Y-78223404D02*
X160335642Y-78304863D01*
X160335642Y-78304863D02*
X160327884Y-78353330D01*
X160327884Y-78353330D02*
X160293320Y-78417274D01*
X160293320Y-78417274D02*
X160159293Y-78494655D01*
X160159293Y-78494655D02*
X160086634Y-78492616D01*
X160086634Y-78492616D02*
X160040781Y-78475101D01*
X159236615Y-81539386D02*
X159228857Y-81587854D01*
X159228857Y-81587854D02*
X159167488Y-81667274D01*
X159167488Y-81667274D02*
X159113877Y-81698226D01*
X159113877Y-81698226D02*
X159014412Y-81711663D01*
X159014412Y-81711663D02*
X158922706Y-81676633D01*
X158922706Y-81676633D02*
X158857805Y-81626126D01*
X158857805Y-81626126D02*
X158754809Y-81509637D01*
X158754809Y-81509637D02*
X158697666Y-81410662D01*
X158697666Y-81410662D02*
X158648281Y-81263220D01*
X158648281Y-81263220D02*
X158636992Y-81181761D01*
X158636992Y-81181761D02*
X158652508Y-81084826D01*
X158652508Y-81084826D02*
X158713877Y-81005406D01*
X158713877Y-81005406D02*
X158767488Y-80974454D01*
X158767488Y-80974454D02*
X158866952Y-80961016D01*
X158866952Y-80961016D02*
X158912805Y-80978532D01*
X159515960Y-81466083D02*
X159115960Y-80773263D01*
X159306436Y-81103177D02*
X159628103Y-80917463D01*
X159837626Y-81280369D02*
X159437626Y-80587549D01*
X160080265Y-80524441D02*
X160346932Y-80986322D01*
X159793856Y-80337891D02*
X159945543Y-80910143D01*
X159945543Y-80910143D02*
X160294015Y-80708953D01*
X159236615Y-73939386D02*
X159228857Y-73987854D01*
X159228857Y-73987854D02*
X159167488Y-74067274D01*
X159167488Y-74067274D02*
X159113877Y-74098226D01*
X159113877Y-74098226D02*
X159014412Y-74111663D01*
X159014412Y-74111663D02*
X158922706Y-74076633D01*
X158922706Y-74076633D02*
X158857805Y-74026126D01*
X158857805Y-74026126D02*
X158754809Y-73909637D01*
X158754809Y-73909637D02*
X158697666Y-73810662D01*
X158697666Y-73810662D02*
X158648281Y-73663220D01*
X158648281Y-73663220D02*
X158636992Y-73581761D01*
X158636992Y-73581761D02*
X158652508Y-73484826D01*
X158652508Y-73484826D02*
X158713877Y-73405406D01*
X158713877Y-73405406D02*
X158767488Y-73374454D01*
X158767488Y-73374454D02*
X158866952Y-73361016D01*
X158866952Y-73361016D02*
X158912805Y-73378532D01*
X159515960Y-73866083D02*
X159115960Y-73173263D01*
X159306436Y-73503177D02*
X159628103Y-73317463D01*
X159837626Y-73680369D02*
X159437626Y-72987549D01*
X159652070Y-72863739D02*
X160027348Y-72647073D01*
X160027348Y-72647073D02*
X160186098Y-73479179D01*
X159634399Y-106455445D02*
X159319410Y-106652272D01*
X159476905Y-106553858D02*
X159052969Y-105875420D01*
X159052969Y-105875420D02*
X159061033Y-106005144D01*
X159061033Y-106005144D02*
X159048910Y-106102562D01*
X159048910Y-106102562D02*
X159016599Y-106167673D01*
X159709142Y-106049371D02*
X160129128Y-105786935D01*
X159236615Y-76439386D02*
X159228857Y-76487854D01*
X159228857Y-76487854D02*
X159167488Y-76567274D01*
X159167488Y-76567274D02*
X159113877Y-76598226D01*
X159113877Y-76598226D02*
X159014412Y-76611663D01*
X159014412Y-76611663D02*
X158922706Y-76576633D01*
X158922706Y-76576633D02*
X158857805Y-76526126D01*
X158857805Y-76526126D02*
X158754809Y-76409637D01*
X158754809Y-76409637D02*
X158697666Y-76310662D01*
X158697666Y-76310662D02*
X158648281Y-76163220D01*
X158648281Y-76163220D02*
X158636992Y-76081761D01*
X158636992Y-76081761D02*
X158652508Y-75984826D01*
X158652508Y-75984826D02*
X158713877Y-75905406D01*
X158713877Y-75905406D02*
X158767488Y-75874454D01*
X158767488Y-75874454D02*
X158866952Y-75861016D01*
X158866952Y-75861016D02*
X158912805Y-75878532D01*
X159515960Y-76366083D02*
X159115960Y-75673263D01*
X159306436Y-76003177D02*
X159628103Y-75817463D01*
X159837626Y-76180369D02*
X159437626Y-75487549D01*
X159946932Y-75193501D02*
X159839709Y-75255406D01*
X159839709Y-75255406D02*
X159805146Y-75319350D01*
X159805146Y-75319350D02*
X159797388Y-75367818D01*
X159797388Y-75367818D02*
X159800920Y-75497744D01*
X159800920Y-75497744D02*
X159850305Y-75645186D01*
X159850305Y-75645186D02*
X160002686Y-75909118D01*
X160002686Y-75909118D02*
X160067586Y-75959624D01*
X160067586Y-75959624D02*
X160113439Y-75977140D01*
X160113439Y-75977140D02*
X160186098Y-75979179D01*
X160186098Y-75979179D02*
X160293320Y-75917274D01*
X160293320Y-75917274D02*
X160327884Y-75853330D01*
X160327884Y-75853330D02*
X160335642Y-75804863D01*
X160335642Y-75804863D02*
X160324352Y-75723404D01*
X160324352Y-75723404D02*
X160229114Y-75558446D01*
X160229114Y-75558446D02*
X160164213Y-75507940D01*
X160164213Y-75507940D02*
X160118360Y-75490424D01*
X160118360Y-75490424D02*
X160045701Y-75488385D01*
X160045701Y-75488385D02*
X159938479Y-75550290D01*
X159938479Y-75550290D02*
X159903916Y-75614234D01*
X159903916Y-75614234D02*
X159896158Y-75662701D01*
X159896158Y-75662701D02*
X159907447Y-75744161D01*
X158264333Y-93579722D02*
X158272091Y-93531254D01*
X158272091Y-93531254D02*
X158306654Y-93467311D01*
X158306654Y-93467311D02*
X158440682Y-93389930D01*
X158440682Y-93389930D02*
X158513341Y-93391969D01*
X158513341Y-93391969D02*
X158559194Y-93409484D01*
X158559194Y-93409484D02*
X158624095Y-93459991D01*
X158624095Y-93459991D02*
X158662190Y-93525974D01*
X158662190Y-93525974D02*
X158692527Y-93640424D01*
X158692527Y-93640424D02*
X158599432Y-94222036D01*
X158599432Y-94222036D02*
X158947904Y-94020845D01*
X159151059Y-93815576D02*
X159196913Y-93833092D01*
X159196913Y-93833092D02*
X159189155Y-93881559D01*
X159189155Y-93881559D02*
X159143301Y-93864044D01*
X159143301Y-93864044D02*
X159151059Y-93815576D01*
X159151059Y-93815576D02*
X159189155Y-93881559D01*
X159325266Y-92879215D02*
X159057210Y-93033977D01*
X159057210Y-93033977D02*
X159220881Y-93379368D01*
X159220881Y-93379368D02*
X159228639Y-93330900D01*
X159228639Y-93330900D02*
X159263202Y-93266956D01*
X159263202Y-93266956D02*
X159397230Y-93189575D01*
X159397230Y-93189575D02*
X159469889Y-93191614D01*
X159469889Y-93191614D02*
X159515742Y-93209130D01*
X159515742Y-93209130D02*
X159580643Y-93259636D01*
X159580643Y-93259636D02*
X159675881Y-93424594D01*
X159675881Y-93424594D02*
X159687171Y-93506053D01*
X159687171Y-93506053D02*
X159679413Y-93554520D01*
X159679413Y-93554520D02*
X159644849Y-93618464D01*
X159644849Y-93618464D02*
X159510821Y-93695845D01*
X159510821Y-93695845D02*
X159438163Y-93693806D01*
X159438163Y-93693806D02*
X159392309Y-93676291D01*
X159512905Y-92770882D02*
X160100544Y-93355369D01*
X160100544Y-93355369D02*
X159888183Y-92554215D01*
X159035849Y-111238446D02*
X159041911Y-111189738D01*
X159041911Y-111189738D02*
X159074222Y-111124626D01*
X159074222Y-111124626D02*
X159205467Y-111042615D01*
X159205467Y-111042615D02*
X159278153Y-111042117D01*
X159278153Y-111042117D02*
X159324589Y-111058022D01*
X159324589Y-111058022D02*
X159391213Y-111106232D01*
X159391213Y-111106232D02*
X159431588Y-111170846D01*
X159431588Y-111170846D02*
X159465901Y-111284168D01*
X159465901Y-111284168D02*
X159393161Y-111868674D01*
X159393161Y-111868674D02*
X159734399Y-111655445D01*
X159809142Y-111249371D02*
X160229128Y-110986935D01*
D11*
X148076085Y-91579941D02*
X148076085Y-91937084D01*
X147818942Y-91508512D02*
X148718942Y-91758512D01*
X148718942Y-91758512D02*
X147818942Y-92008512D01*
X147818942Y-92258512D02*
X148718942Y-92258512D01*
X148290371Y-92258512D02*
X148290371Y-92687083D01*
X147818942Y-92687083D02*
X148718942Y-92687083D01*
X147904657Y-93472797D02*
X147861800Y-93437083D01*
X147861800Y-93437083D02*
X147818942Y-93329940D01*
X147818942Y-93329940D02*
X147818942Y-93258512D01*
X147818942Y-93258512D02*
X147861800Y-93151369D01*
X147861800Y-93151369D02*
X147947514Y-93079940D01*
X147947514Y-93079940D02*
X148033228Y-93044226D01*
X148033228Y-93044226D02*
X148204657Y-93008512D01*
X148204657Y-93008512D02*
X148333228Y-93008512D01*
X148333228Y-93008512D02*
X148504657Y-93044226D01*
X148504657Y-93044226D02*
X148590371Y-93079940D01*
X148590371Y-93079940D02*
X148676085Y-93151369D01*
X148676085Y-93151369D02*
X148718942Y-93258512D01*
X148718942Y-93258512D02*
X148718942Y-93329940D01*
X148718942Y-93329940D02*
X148676085Y-93437083D01*
X148676085Y-93437083D02*
X148633228Y-93472797D01*
D10*
X159313615Y-89175986D02*
X159305857Y-89224454D01*
X159305857Y-89224454D02*
X159244488Y-89303874D01*
X159244488Y-89303874D02*
X159190877Y-89334826D01*
X159190877Y-89334826D02*
X159091412Y-89348263D01*
X159091412Y-89348263D02*
X158999706Y-89313233D01*
X158999706Y-89313233D02*
X158934805Y-89262726D01*
X158934805Y-89262726D02*
X158831809Y-89146237D01*
X158831809Y-89146237D02*
X158774666Y-89047262D01*
X158774666Y-89047262D02*
X158725281Y-88899820D01*
X158725281Y-88899820D02*
X158713992Y-88818361D01*
X158713992Y-88818361D02*
X158729508Y-88721426D01*
X158729508Y-88721426D02*
X158790877Y-88642006D01*
X158790877Y-88642006D02*
X158844488Y-88611054D01*
X158844488Y-88611054D02*
X158943952Y-88597616D01*
X158943952Y-88597616D02*
X158989805Y-88615132D01*
X159592960Y-89102683D02*
X159192960Y-88409863D01*
X159383436Y-88739777D02*
X159705103Y-88554063D01*
X159914626Y-88916969D02*
X159514626Y-88224149D01*
X160477543Y-88591969D02*
X160155876Y-88777684D01*
X160316709Y-88684826D02*
X159916709Y-87992006D01*
X159916709Y-87992006D02*
X159920241Y-88121933D01*
X159920241Y-88121933D02*
X159904725Y-88218868D01*
X159904725Y-88218868D02*
X159870162Y-88282812D01*
X159399277Y-120885957D02*
X159681901Y-121338249D01*
X159106533Y-120709515D02*
X159278098Y-121276126D01*
X159278098Y-121276126D02*
X159619337Y-121062896D01*
X159809142Y-120899371D02*
X160229128Y-120636935D01*
X158866952Y-70761016D02*
X158794293Y-70758977D01*
X158794293Y-70758977D02*
X158713877Y-70805406D01*
X158713877Y-70805406D02*
X158652508Y-70884826D01*
X158652508Y-70884826D02*
X158636992Y-70981761D01*
X158636992Y-70981761D02*
X158648281Y-71063220D01*
X158648281Y-71063220D02*
X158697666Y-71210662D01*
X158697666Y-71210662D02*
X158754809Y-71309637D01*
X158754809Y-71309637D02*
X158857805Y-71426126D01*
X158857805Y-71426126D02*
X158922706Y-71476633D01*
X158922706Y-71476633D02*
X159014412Y-71511663D01*
X159014412Y-71511663D02*
X159113877Y-71498226D01*
X159113877Y-71498226D02*
X159167488Y-71467274D01*
X159167488Y-71467274D02*
X159228857Y-71387854D01*
X159228857Y-71387854D02*
X159236615Y-71339386D01*
X159236615Y-71339386D02*
X159103281Y-71108446D01*
X159103281Y-71108446D02*
X158996059Y-71170351D01*
X159515960Y-71266083D02*
X159115960Y-70573263D01*
X159115960Y-70573263D02*
X159837626Y-71080369D01*
X159837626Y-71080369D02*
X159437626Y-70387549D01*
X160105682Y-70925607D02*
X159705682Y-70232787D01*
X159705682Y-70232787D02*
X159839709Y-70155406D01*
X159839709Y-70155406D02*
X159939174Y-70141969D01*
X159939174Y-70141969D02*
X160030880Y-70176999D01*
X160030880Y-70176999D02*
X160095781Y-70227506D01*
X160095781Y-70227506D02*
X160198777Y-70343996D01*
X160198777Y-70343996D02*
X160255920Y-70442970D01*
X160255920Y-70442970D02*
X160305305Y-70590412D01*
X160305305Y-70590412D02*
X160316594Y-70671871D01*
X160316594Y-70671871D02*
X160301078Y-70768806D01*
X160301078Y-70768806D02*
X160239709Y-70848226D01*
X160239709Y-70848226D02*
X160105682Y-70925607D01*
X158869225Y-116190236D02*
X159210464Y-115977006D01*
X159210464Y-115977006D02*
X159188219Y-116350275D01*
X159188219Y-116350275D02*
X159266967Y-116301068D01*
X159266967Y-116301068D02*
X159339652Y-116300570D01*
X159339652Y-116300570D02*
X159386089Y-116316474D01*
X159386089Y-116316474D02*
X159452713Y-116364685D01*
X159452713Y-116364685D02*
X159553650Y-116526218D01*
X159553650Y-116526218D02*
X159567775Y-116607234D01*
X159567775Y-116607234D02*
X159561714Y-116655943D01*
X159561714Y-116655943D02*
X159529403Y-116721054D01*
X159529403Y-116721054D02*
X159371908Y-116819467D01*
X159371908Y-116819467D02*
X159299223Y-116819965D01*
X159299223Y-116819965D02*
X159252786Y-116804061D01*
X159709142Y-116249371D02*
X160129128Y-115986935D01*
X147303750Y-78026004D02*
X147275178Y-78064100D01*
X147275178Y-78064100D02*
X147189464Y-78102195D01*
X147189464Y-78102195D02*
X147132321Y-78102195D01*
X147132321Y-78102195D02*
X147046607Y-78064100D01*
X147046607Y-78064100D02*
X146989464Y-77987909D01*
X146989464Y-77987909D02*
X146960893Y-77911719D01*
X146960893Y-77911719D02*
X146932321Y-77759338D01*
X146932321Y-77759338D02*
X146932321Y-77645052D01*
X146932321Y-77645052D02*
X146960893Y-77492671D01*
X146960893Y-77492671D02*
X146989464Y-77416480D01*
X146989464Y-77416480D02*
X147046607Y-77340290D01*
X147046607Y-77340290D02*
X147132321Y-77302195D01*
X147132321Y-77302195D02*
X147189464Y-77302195D01*
X147189464Y-77302195D02*
X147275178Y-77340290D01*
X147275178Y-77340290D02*
X147303750Y-77378385D01*
X147675178Y-77302195D02*
X147789464Y-77302195D01*
X147789464Y-77302195D02*
X147846607Y-77340290D01*
X147846607Y-77340290D02*
X147903750Y-77416480D01*
X147903750Y-77416480D02*
X147932321Y-77568861D01*
X147932321Y-77568861D02*
X147932321Y-77835528D01*
X147932321Y-77835528D02*
X147903750Y-77987909D01*
X147903750Y-77987909D02*
X147846607Y-78064100D01*
X147846607Y-78064100D02*
X147789464Y-78102195D01*
X147789464Y-78102195D02*
X147675178Y-78102195D01*
X147675178Y-78102195D02*
X147618036Y-78064100D01*
X147618036Y-78064100D02*
X147560893Y-77987909D01*
X147560893Y-77987909D02*
X147532321Y-77835528D01*
X147532321Y-77835528D02*
X147532321Y-77568861D01*
X147532321Y-77568861D02*
X147560893Y-77416480D01*
X147560893Y-77416480D02*
X147618036Y-77340290D01*
X147618036Y-77340290D02*
X147675178Y-77302195D01*
X148189464Y-78102195D02*
X148189464Y-77302195D01*
X148189464Y-77302195D02*
X148418035Y-77302195D01*
X148418035Y-77302195D02*
X148475178Y-77340290D01*
X148475178Y-77340290D02*
X148503749Y-77378385D01*
X148503749Y-77378385D02*
X148532321Y-77454576D01*
X148532321Y-77454576D02*
X148532321Y-77568861D01*
X148532321Y-77568861D02*
X148503749Y-77645052D01*
X148503749Y-77645052D02*
X148475178Y-77683147D01*
X148475178Y-77683147D02*
X148418035Y-77721242D01*
X148418035Y-77721242D02*
X148189464Y-77721242D01*
X148789464Y-78102195D02*
X148789464Y-77302195D01*
X158935849Y-108638446D02*
X158941911Y-108589738D01*
X158941911Y-108589738D02*
X158974222Y-108524626D01*
X158974222Y-108524626D02*
X159105467Y-108442615D01*
X159105467Y-108442615D02*
X159178153Y-108442117D01*
X159178153Y-108442117D02*
X159224589Y-108458022D01*
X159224589Y-108458022D02*
X159291213Y-108506232D01*
X159291213Y-108506232D02*
X159331588Y-108570846D01*
X159331588Y-108570846D02*
X159365901Y-108684168D01*
X159365901Y-108684168D02*
X159293161Y-109268674D01*
X159293161Y-109268674D02*
X159634399Y-109055445D01*
X159709142Y-108649371D02*
X160129128Y-108386935D01*
X160080634Y-108776606D02*
X159757636Y-108259700D01*
X147032340Y-87385995D02*
X147249007Y-88185995D01*
X147249007Y-88185995D02*
X147465674Y-87385995D01*
X147682340Y-88185995D02*
X147682340Y-87385995D01*
X147682340Y-87385995D02*
X147837102Y-87385995D01*
X147837102Y-87385995D02*
X147929959Y-87424090D01*
X147929959Y-87424090D02*
X147991864Y-87500280D01*
X147991864Y-87500280D02*
X148022817Y-87576471D01*
X148022817Y-87576471D02*
X148053769Y-87728852D01*
X148053769Y-87728852D02*
X148053769Y-87843138D01*
X148053769Y-87843138D02*
X148022817Y-87995519D01*
X148022817Y-87995519D02*
X147991864Y-88071709D01*
X147991864Y-88071709D02*
X147929959Y-88147900D01*
X147929959Y-88147900D02*
X147837102Y-88185995D01*
X147837102Y-88185995D02*
X147682340Y-88185995D01*
X148332340Y-88185995D02*
X148332340Y-87385995D01*
X148332340Y-87385995D02*
X148487102Y-87385995D01*
X148487102Y-87385995D02*
X148579959Y-87424090D01*
X148579959Y-87424090D02*
X148641864Y-87500280D01*
X148641864Y-87500280D02*
X148672817Y-87576471D01*
X148672817Y-87576471D02*
X148703769Y-87728852D01*
X148703769Y-87728852D02*
X148703769Y-87843138D01*
X148703769Y-87843138D02*
X148672817Y-87995519D01*
X148672817Y-87995519D02*
X148641864Y-88071709D01*
X148641864Y-88071709D02*
X148579959Y-88147900D01*
X148579959Y-88147900D02*
X148487102Y-88185995D01*
X148487102Y-88185995D02*
X148332340Y-88185995D01*
X159634399Y-103955445D02*
X159319410Y-104152272D01*
X159476905Y-104053858D02*
X159052969Y-103375420D01*
X159052969Y-103375420D02*
X159061033Y-103505144D01*
X159061033Y-103505144D02*
X159048910Y-103602562D01*
X159048910Y-103602562D02*
X159016599Y-103667673D01*
X159709142Y-103549371D02*
X160129128Y-103286935D01*
X160080634Y-103676606D02*
X159757636Y-103159700D01*
X159299277Y-118735957D02*
X159581901Y-119188249D01*
X159006533Y-118559515D02*
X159178098Y-119126126D01*
X159178098Y-119126126D02*
X159519337Y-118912896D01*
X159709142Y-118749371D02*
X160129128Y-118486935D01*
X160080634Y-118876606D02*
X159757636Y-118359700D01*
X147318826Y-80489804D02*
X147287874Y-80527900D01*
X147287874Y-80527900D02*
X147195016Y-80565995D01*
X147195016Y-80565995D02*
X147133112Y-80565995D01*
X147133112Y-80565995D02*
X147040255Y-80527900D01*
X147040255Y-80527900D02*
X146978350Y-80451709D01*
X146978350Y-80451709D02*
X146947397Y-80375519D01*
X146947397Y-80375519D02*
X146916445Y-80223138D01*
X146916445Y-80223138D02*
X146916445Y-80108852D01*
X146916445Y-80108852D02*
X146947397Y-79956471D01*
X146947397Y-79956471D02*
X146978350Y-79880280D01*
X146978350Y-79880280D02*
X147040255Y-79804090D01*
X147040255Y-79804090D02*
X147133112Y-79765995D01*
X147133112Y-79765995D02*
X147195016Y-79765995D01*
X147195016Y-79765995D02*
X147287874Y-79804090D01*
X147287874Y-79804090D02*
X147318826Y-79842185D01*
X147566445Y-80527900D02*
X147659302Y-80565995D01*
X147659302Y-80565995D02*
X147814064Y-80565995D01*
X147814064Y-80565995D02*
X147875969Y-80527900D01*
X147875969Y-80527900D02*
X147906921Y-80489804D01*
X147906921Y-80489804D02*
X147937874Y-80413614D01*
X147937874Y-80413614D02*
X147937874Y-80337423D01*
X147937874Y-80337423D02*
X147906921Y-80261233D01*
X147906921Y-80261233D02*
X147875969Y-80223138D01*
X147875969Y-80223138D02*
X147814064Y-80185042D01*
X147814064Y-80185042D02*
X147690255Y-80146947D01*
X147690255Y-80146947D02*
X147628350Y-80108852D01*
X147628350Y-80108852D02*
X147597397Y-80070757D01*
X147597397Y-80070757D02*
X147566445Y-79994566D01*
X147566445Y-79994566D02*
X147566445Y-79918376D01*
X147566445Y-79918376D02*
X147597397Y-79842185D01*
X147597397Y-79842185D02*
X147628350Y-79804090D01*
X147628350Y-79804090D02*
X147690255Y-79765995D01*
X147690255Y-79765995D02*
X147845016Y-79765995D01*
X147845016Y-79765995D02*
X147937874Y-79804090D01*
X146941845Y-85582500D02*
X147034702Y-85620595D01*
X147034702Y-85620595D02*
X147189464Y-85620595D01*
X147189464Y-85620595D02*
X147251369Y-85582500D01*
X147251369Y-85582500D02*
X147282321Y-85544404D01*
X147282321Y-85544404D02*
X147313274Y-85468214D01*
X147313274Y-85468214D02*
X147313274Y-85392023D01*
X147313274Y-85392023D02*
X147282321Y-85315833D01*
X147282321Y-85315833D02*
X147251369Y-85277738D01*
X147251369Y-85277738D02*
X147189464Y-85239642D01*
X147189464Y-85239642D02*
X147065655Y-85201547D01*
X147065655Y-85201547D02*
X147003750Y-85163452D01*
X147003750Y-85163452D02*
X146972797Y-85125357D01*
X146972797Y-85125357D02*
X146941845Y-85049166D01*
X146941845Y-85049166D02*
X146941845Y-84972976D01*
X146941845Y-84972976D02*
X146972797Y-84896785D01*
X146972797Y-84896785D02*
X147003750Y-84858690D01*
X147003750Y-84858690D02*
X147065655Y-84820595D01*
X147065655Y-84820595D02*
X147220416Y-84820595D01*
X147220416Y-84820595D02*
X147313274Y-84858690D01*
X147963274Y-85544404D02*
X147932322Y-85582500D01*
X147932322Y-85582500D02*
X147839464Y-85620595D01*
X147839464Y-85620595D02*
X147777560Y-85620595D01*
X147777560Y-85620595D02*
X147684703Y-85582500D01*
X147684703Y-85582500D02*
X147622798Y-85506309D01*
X147622798Y-85506309D02*
X147591845Y-85430119D01*
X147591845Y-85430119D02*
X147560893Y-85277738D01*
X147560893Y-85277738D02*
X147560893Y-85163452D01*
X147560893Y-85163452D02*
X147591845Y-85011071D01*
X147591845Y-85011071D02*
X147622798Y-84934880D01*
X147622798Y-84934880D02*
X147684703Y-84858690D01*
X147684703Y-84858690D02*
X147777560Y-84820595D01*
X147777560Y-84820595D02*
X147839464Y-84820595D01*
X147839464Y-84820595D02*
X147932322Y-84858690D01*
X147932322Y-84858690D02*
X147963274Y-84896785D01*
X148551369Y-85620595D02*
X148241845Y-85620595D01*
X148241845Y-85620595D02*
X148241845Y-84820595D01*
X148768035Y-85620595D02*
X148768035Y-84820595D01*
X149139464Y-85620595D02*
X148860893Y-85163452D01*
X149139464Y-84820595D02*
X148768035Y-85277738D01*
D12*
%TO.C,R32*%
X154977500Y-79937258D02*
X154977500Y-79462742D01*
X156022500Y-79937258D02*
X156022500Y-79462742D01*
%TO.C,C4*%
X145858620Y-119581200D02*
X146139780Y-119581200D01*
X145858620Y-120601200D02*
X146139780Y-120601200D01*
%TO.C,R30*%
X151826700Y-95424258D02*
X151826700Y-94949742D01*
X152871700Y-95424258D02*
X152871700Y-94949742D01*
%TO.C,C2*%
X150010400Y-90716980D02*
X150010400Y-90435820D01*
X151030400Y-90716980D02*
X151030400Y-90435820D01*
%TO.C,R40*%
X156687500Y-79977258D02*
X156687500Y-79502742D01*
X157732500Y-79977258D02*
X157732500Y-79502742D01*
%TO.C,C3*%
X150824020Y-105204800D02*
X151105180Y-105204800D01*
X150824020Y-106224800D02*
X151105180Y-106224800D01*
%TO.C,U3*%
X149215000Y-100962500D02*
X149215000Y-98762500D01*
X149215000Y-100962500D02*
X149215000Y-103162500D01*
X157285000Y-100962500D02*
X157285000Y-98762500D01*
X157285000Y-100962500D02*
X157285000Y-103162500D01*
X149915000Y-105152500D02*
X149435000Y-105152500D01*
X149675000Y-104822500D01*
X149915000Y-105152500D01*
G36*
X149915000Y-105152500D02*
G01*
X149435000Y-105152500D01*
X149675000Y-104822500D01*
X149915000Y-105152500D01*
G37*
%TO.C,R42*%
X157727500Y-103062258D02*
X157727500Y-102587742D01*
X158772500Y-103062258D02*
X158772500Y-102587742D01*
%TO.C,U1*%
X150390000Y-74000000D02*
X150390000Y-71800000D01*
X150390000Y-74000000D02*
X150390000Y-76200000D01*
X158460000Y-74000000D02*
X158460000Y-71800000D01*
X158460000Y-74000000D02*
X158460000Y-76200000D01*
X151090000Y-78190000D02*
X150610000Y-78190000D01*
X150850000Y-77860000D01*
X151090000Y-78190000D01*
G36*
X151090000Y-78190000D02*
G01*
X150610000Y-78190000D01*
X150850000Y-77860000D01*
X151090000Y-78190000D01*
G37*
%TO.C,R2*%
X147777500Y-101212258D02*
X147777500Y-100737742D01*
X148822500Y-101212258D02*
X148822500Y-100737742D01*
%TO.C,R19*%
X152944300Y-90212142D02*
X152944300Y-90686658D01*
X153989300Y-90212142D02*
X153989300Y-90686658D01*
%TO.C,U4*%
X145790000Y-115200000D02*
X145790000Y-113000000D01*
X145790000Y-115200000D02*
X145790000Y-117400000D01*
X153860000Y-115200000D02*
X153860000Y-113000000D01*
X153860000Y-115200000D02*
X153860000Y-117400000D01*
X146490000Y-119390000D02*
X146010000Y-119390000D01*
X146250000Y-119060000D01*
X146490000Y-119390000D01*
G36*
X146490000Y-119390000D02*
G01*
X146010000Y-119390000D01*
X146250000Y-119060000D01*
X146490000Y-119390000D01*
G37*
%TO.C,R3*%
X151471100Y-90212142D02*
X151471100Y-90686658D01*
X152516100Y-90212142D02*
X152516100Y-90686658D01*
%TO.C,R21*%
X149187258Y-119327500D02*
X148712742Y-119327500D01*
X149187258Y-120372500D02*
X148712742Y-120372500D01*
%TO.C,C1*%
X148943600Y-73608020D02*
X148943600Y-73889180D01*
X149963600Y-73608020D02*
X149963600Y-73889180D01*
%TO.C,R1*%
X148956500Y-78088258D02*
X148956500Y-77613742D01*
X150001500Y-78088258D02*
X150001500Y-77613742D01*
%TO.C,R31*%
X153401500Y-95627458D02*
X153401500Y-95152942D01*
X154446500Y-95627458D02*
X154446500Y-95152942D01*
%TO.C,R25*%
X148377500Y-109812258D02*
X148377500Y-109337742D01*
X149422500Y-109812258D02*
X149422500Y-109337742D01*
%TO.C,R27*%
X151577500Y-110062258D02*
X151577500Y-109587742D01*
X152622500Y-110062258D02*
X152622500Y-109587742D01*
%TO.C,R23*%
X154442900Y-90225342D02*
X154442900Y-90699858D01*
X155487900Y-90225342D02*
X155487900Y-90699858D01*
%TO.C,R38*%
X152702500Y-106087742D02*
X152702500Y-106562258D01*
X153747500Y-106087742D02*
X153747500Y-106562258D01*
%TO.C,R29*%
X151577500Y-79937258D02*
X151577500Y-79462742D01*
X152622500Y-79937258D02*
X152622500Y-79462742D01*
%TO.C,R35*%
X155777500Y-117037258D02*
X155777500Y-116562742D01*
X156822500Y-117037258D02*
X156822500Y-116562742D01*
%TO.C,R34*%
X157637500Y-98232742D02*
X157637500Y-98707258D01*
X158682500Y-98232742D02*
X158682500Y-98707258D01*
%TO.C,R39*%
X154502500Y-106487742D02*
X154502500Y-106962258D01*
X155547500Y-106487742D02*
X155547500Y-106962258D01*
%TO.C,R41*%
X156102500Y-106562742D02*
X156102500Y-107037258D01*
X157147500Y-106562742D02*
X157147500Y-107037258D01*
%TO.C,R36*%
X154202500Y-116187258D02*
X154202500Y-115712742D01*
X155247500Y-116187258D02*
X155247500Y-115712742D01*
%TO.C,R24*%
X149977500Y-110062258D02*
X149977500Y-109587742D01*
X151022500Y-110062258D02*
X151022500Y-109587742D01*
%TO.C,R20*%
X155912742Y-119327500D02*
X156387258Y-119327500D01*
X155912742Y-120372500D02*
X156387258Y-120372500D01*
%TO.C,R37*%
X153077500Y-79912258D02*
X153077500Y-79437742D01*
X154122500Y-79912258D02*
X154122500Y-79437742D01*
%TO.C,R22*%
X155966900Y-90237542D02*
X155966900Y-90712058D01*
X157011900Y-90237542D02*
X157011900Y-90712058D01*
%TO.C,R26*%
X157490900Y-90212142D02*
X157490900Y-90686658D01*
X158535900Y-90212142D02*
X158535900Y-90686658D01*
%TO.C,R33*%
X154976300Y-95792058D02*
X154976300Y-95317542D01*
X156021300Y-95792058D02*
X156021300Y-95317542D01*
%TO.C,U2*%
X149939800Y-85090000D02*
X149939800Y-82890000D01*
X149939800Y-85090000D02*
X149939800Y-87290000D01*
X158009800Y-85090000D02*
X158009800Y-82890000D01*
X158009800Y-85090000D02*
X158009800Y-87290000D01*
X150639800Y-89280000D02*
X150159800Y-89280000D01*
X150399800Y-88950000D01*
X150639800Y-89280000D01*
G36*
X150639800Y-89280000D02*
G01*
X150159800Y-89280000D01*
X150399800Y-88950000D01*
X150639800Y-89280000D01*
G37*
%TO.C,R28*%
X154227500Y-112687742D02*
X154227500Y-113162258D01*
X155272500Y-112687742D02*
X155272500Y-113162258D01*
%TD*%
%LPC*%
D13*
%TO.C,R32*%
X155500000Y-80525000D03*
X155500000Y-78875000D03*
%TD*%
D14*
%TO.C,C4*%
X145224200Y-120091200D03*
X146774200Y-120091200D03*
%TD*%
D13*
%TO.C,R30*%
X152349200Y-96012000D03*
X152349200Y-94362000D03*
%TD*%
D15*
%TO.C,C2*%
X150520400Y-91351400D03*
X150520400Y-89801400D03*
%TD*%
D13*
%TO.C,R40*%
X157210000Y-80565000D03*
X157210000Y-78915000D03*
%TD*%
D14*
%TO.C,C3*%
X150189600Y-105714800D03*
X151739600Y-105714800D03*
%TD*%
D16*
%TO.C,U3*%
X149675000Y-103825000D03*
X150325000Y-103825000D03*
X150975000Y-103825000D03*
X151625000Y-103825000D03*
X152275000Y-103825000D03*
X152925000Y-103825000D03*
X153575000Y-103825000D03*
X154225000Y-103825000D03*
X154875000Y-103825000D03*
X155525000Y-103825000D03*
X156175000Y-103825000D03*
X156825000Y-103825000D03*
X156825000Y-98100000D03*
X156175000Y-98100000D03*
X155525000Y-98100000D03*
X154875000Y-98100000D03*
X154225000Y-98100000D03*
X153575000Y-98100000D03*
X152925000Y-98100000D03*
X152275000Y-98100000D03*
X151625000Y-98100000D03*
X150975000Y-98100000D03*
X150325000Y-98100000D03*
X149675000Y-98100000D03*
%TD*%
D13*
%TO.C,R42*%
X158250000Y-103650000D03*
X158250000Y-102000000D03*
%TD*%
D16*
%TO.C,U1*%
X150850000Y-76862500D03*
X151500000Y-76862500D03*
X152150000Y-76862500D03*
X152800000Y-76862500D03*
X153450000Y-76862500D03*
X154100000Y-76862500D03*
X154750000Y-76862500D03*
X155400000Y-76862500D03*
X156050000Y-76862500D03*
X156700000Y-76862500D03*
X157350000Y-76862500D03*
X158000000Y-76862500D03*
X158000000Y-71137500D03*
X157350000Y-71137500D03*
X156700000Y-71137500D03*
X156050000Y-71137500D03*
X155400000Y-71137500D03*
X154750000Y-71137500D03*
X154100000Y-71137500D03*
X153450000Y-71137500D03*
X152800000Y-71137500D03*
X152150000Y-71137500D03*
X151500000Y-71137500D03*
X150850000Y-71137500D03*
%TD*%
D13*
%TO.C,R2*%
X148300000Y-101800000D03*
X148300000Y-100150000D03*
%TD*%
D17*
%TO.C,R19*%
X153466800Y-89624400D03*
X153466800Y-91274400D03*
%TD*%
D16*
%TO.C,U4*%
X146250000Y-118062500D03*
X146900000Y-118062500D03*
X147550000Y-118062500D03*
X148200000Y-118062500D03*
X148850000Y-118062500D03*
X149500000Y-118062500D03*
X150150000Y-118062500D03*
X150800000Y-118062500D03*
X151450000Y-118062500D03*
X152100000Y-118062500D03*
X152750000Y-118062500D03*
X153400000Y-118062500D03*
X153400000Y-112337500D03*
X152750000Y-112337500D03*
X152100000Y-112337500D03*
X151450000Y-112337500D03*
X150800000Y-112337500D03*
X150150000Y-112337500D03*
X149500000Y-112337500D03*
X148850000Y-112337500D03*
X148200000Y-112337500D03*
X147550000Y-112337500D03*
X146900000Y-112337500D03*
X146250000Y-112337500D03*
%TD*%
D17*
%TO.C,R3*%
X151993600Y-89624400D03*
X151993600Y-91274400D03*
%TD*%
D18*
%TO.C,R21*%
X149775000Y-119850000D03*
X148125000Y-119850000D03*
%TD*%
D19*
%TO.C,C1*%
X149453600Y-72973600D03*
X149453600Y-74523600D03*
%TD*%
D13*
%TO.C,R1*%
X149479000Y-78676000D03*
X149479000Y-77026000D03*
%TD*%
%TO.C,R31*%
X153924000Y-96215200D03*
X153924000Y-94565200D03*
%TD*%
%TO.C,R25*%
X148900000Y-110400000D03*
X148900000Y-108750000D03*
%TD*%
%TO.C,R27*%
X152100000Y-110650000D03*
X152100000Y-109000000D03*
%TD*%
D17*
%TO.C,R23*%
X154965400Y-89637600D03*
X154965400Y-91287600D03*
%TD*%
%TO.C,R38*%
X153225000Y-105500000D03*
X153225000Y-107150000D03*
%TD*%
D13*
%TO.C,R29*%
X152100000Y-80525000D03*
X152100000Y-78875000D03*
%TD*%
%TO.C,R35*%
X156300000Y-117625000D03*
X156300000Y-115975000D03*
%TD*%
D17*
%TO.C,R34*%
X158160000Y-97645000D03*
X158160000Y-99295000D03*
%TD*%
%TO.C,R39*%
X155025000Y-105900000D03*
X155025000Y-107550000D03*
%TD*%
%TO.C,R41*%
X156625000Y-105975000D03*
X156625000Y-107625000D03*
%TD*%
D13*
%TO.C,R36*%
X154725000Y-116775000D03*
X154725000Y-115125000D03*
%TD*%
%TO.C,R24*%
X150500000Y-110650000D03*
X150500000Y-109000000D03*
%TD*%
D20*
%TO.C,R20*%
X155325000Y-119850000D03*
X156975000Y-119850000D03*
%TD*%
D13*
%TO.C,R37*%
X153600000Y-80500000D03*
X153600000Y-78850000D03*
%TD*%
D17*
%TO.C,R22*%
X156489400Y-89649800D03*
X156489400Y-91299800D03*
%TD*%
%TO.C,R26*%
X158013400Y-89624400D03*
X158013400Y-91274400D03*
%TD*%
D13*
%TO.C,R33*%
X155498800Y-96379800D03*
X155498800Y-94729800D03*
%TD*%
D16*
%TO.C,U2*%
X150399800Y-87952500D03*
X151049800Y-87952500D03*
X151699800Y-87952500D03*
X152349800Y-87952500D03*
X152999800Y-87952500D03*
X153649800Y-87952500D03*
X154299800Y-87952500D03*
X154949800Y-87952500D03*
X155599800Y-87952500D03*
X156249800Y-87952500D03*
X156899800Y-87952500D03*
X157549800Y-87952500D03*
X157549800Y-82227500D03*
X156899800Y-82227500D03*
X156249800Y-82227500D03*
X155599800Y-82227500D03*
X154949800Y-82227500D03*
X154299800Y-82227500D03*
X153649800Y-82227500D03*
X152999800Y-82227500D03*
X152349800Y-82227500D03*
X151699800Y-82227500D03*
X151049800Y-82227500D03*
X150399800Y-82227500D03*
%TD*%
D17*
%TO.C,R28*%
X154750000Y-112100000D03*
X154750000Y-113750000D03*
%TD*%
D21*
%TO.C,J4*%
X161190000Y-92840000D03*
D22*
X161190000Y-90300000D03*
X161190000Y-87760000D03*
X161190000Y-85220000D03*
X161190000Y-82680000D03*
X161190000Y-80140000D03*
X161190000Y-77600000D03*
X161190000Y-75060000D03*
X161190000Y-72520000D03*
X161190000Y-69980000D03*
%TD*%
D21*
%TO.C,J2*%
X145923000Y-87731600D03*
D22*
X145923000Y-85191600D03*
X145923000Y-82651600D03*
X145923000Y-80111600D03*
X145923000Y-77571600D03*
%TD*%
D21*
%TO.C,J1*%
X161250000Y-120630000D03*
D22*
X161250000Y-118090000D03*
X161250000Y-115550000D03*
X161250000Y-113010000D03*
X161250000Y-110470000D03*
X161250000Y-107930000D03*
X161250000Y-105390000D03*
X161250000Y-102850000D03*
%TD*%
%LPD*%
M02*
