M48
; DRILL file {KiCad 9.0.9-9.0.9~ubuntu24.04.1} date 2026-06-26T16:55:06-0400
; FORMAT={-:-/ absolute / inch / decimal}
; #@! TF.CreationDate,2026-06-26T16:55:06-04:00
; #@! TF.GenerationSoftware,Kicad,Pcbnew,9.0.9-9.0.9~ubuntu24.04.1
; #@! TF.FileFunction,MixedPlating,1,2
FMAT,2
INCH
; #@! TA.AperFunction,Plated,PTH,ViaDrill
T1C0.0120
; #@! TA.AperFunction,Plated,PTH,ComponentDrill
T2C0.0394
%
G90
G05
T1
X5.73Y-4.702
X5.7457Y-4.6382
X5.7498Y-2.9977
X5.75Y-3.519
X5.7567Y-4.3904
X5.7835Y-4.4582
X5.8091Y-4.6127
X5.824Y-4.744
X5.8346Y-4.4582
X5.8375Y-3.6872
X5.8549Y-2.9035
X5.8589Y-4.1105
X5.8622Y-4.2598
X5.8644Y-2.9534
X5.886Y-2.85
X5.8904Y-3.8622
X5.907Y-2.9975
X5.91Y-3.09
X5.9114Y-3.4626
X5.9116Y-3.2816
X5.9131Y-3.5579
X5.9169Y-3.617
X5.9174Y-3.8251
X5.9213Y-4.2657
X5.9265Y-3.1781
X5.9322Y-4.1838
X5.933Y-3.3054
X5.9367Y-2.8307
X5.9439Y-4.0176
X5.9439Y-4.0521
X5.9504Y-3.1551
X5.9603Y-3.2887
X5.9646Y-2.7652
X5.9695Y-3.8977
X5.9806Y-4.2695
X5.9935Y-2.9639
X5.9947Y-3.3233
X6.006Y-3.738
X6.009Y-3.4034
X6.0157Y-2.8362
X6.0419Y-4.2402
X6.0684Y-3.748
X6.0914Y-3.1419
X6.0915Y-4.5
X6.1073Y-4.2569
X6.126Y-3.752
X6.1549Y-3.0802
X6.1555Y-4.5866
X6.1594Y-4.7146
X6.1693Y-4.2598
X6.2268Y-3.9331
T2
X5.745Y-3.054
X5.745Y-3.154
X5.745Y-3.254
X5.745Y-3.354
X5.745Y-3.454
X6.3461Y-2.7551
X6.3461Y-2.8551
X6.3461Y-2.9551
X6.3461Y-3.0551
X6.3461Y-3.1551
X6.3461Y-3.2551
X6.3461Y-3.3551
X6.3461Y-3.4551
X6.3461Y-3.5551
X6.3461Y-3.6551
X6.3484Y-4.0492
X6.3484Y-4.1492
X6.3484Y-4.2492
X6.3484Y-4.3492
X6.3484Y-4.4492
X6.3484Y-4.5492
X6.3484Y-4.6492
X6.3484Y-4.7492
M30
