%TF.GenerationSoftware,KiCad,Pcbnew,9.0.9-9.0.9~ubuntu24.04.1*%
%TF.CreationDate,2026-06-26T16:54:57-04:00*%
%TF.ProjectId,WB_Breakout,57425f42-7265-4616-9b6f-75742e6b6963,rev?*%
%TF.SameCoordinates,Original*%
%TF.FileFunction,Copper,L1,Top*%
%TF.FilePolarity,Positive*%
%FSLAX46Y46*%
G04 Gerber Fmt 4.6, Leading zero omitted, Abs format (unit mm)*
G04 Created by KiCad (PCBNEW 9.0.9-9.0.9~ubuntu24.04.1) date 2026-06-26 16:54:57*
%MOMM*%
%LPD*%
G01*
G04 APERTURE LIST*
G04 Aperture macros list*
%AMRoundRect*
0 Rectangle with rounded corners*
0 $1 Rounding radius*
0 $2 $3 $4 $5 $6 $7 $8 $9 X,Y pos of 4 corners*
0 Add a 4 corners polygon primitive as box body*
4,1,4,$2,$3,$4,$5,$6,$7,$8,$9,$2,$3,0*
0 Add four circle primitives for the rounded corners*
1,1,$1+$1,$2,$3*
1,1,$1+$1,$4,$5*
1,1,$1+$1,$6,$7*
1,1,$1+$1,$8,$9*
0 Add four rect primitives between the rounded corners*
20,1,$1+$1,$2,$3,$4,$5,0*
20,1,$1+$1,$4,$5,$6,$7,0*
20,1,$1+$1,$6,$7,$8,$9,0*
20,1,$1+$1,$8,$9,$2,$3,0*%
G04 Aperture macros list end*
%TA.AperFunction,SMDPad,CuDef*%
%ADD10RoundRect,0.200000X0.275000X-0.200000X0.275000X0.200000X-0.275000X0.200000X-0.275000X-0.200000X0*%
%TD*%
%TA.AperFunction,SMDPad,CuDef*%
%ADD11RoundRect,0.225000X-0.225000X-0.250000X0.225000X-0.250000X0.225000X0.250000X-0.225000X0.250000X0*%
%TD*%
%TA.AperFunction,SMDPad,CuDef*%
%ADD12RoundRect,0.225000X0.250000X-0.225000X0.250000X0.225000X-0.250000X0.225000X-0.250000X-0.225000X0*%
%TD*%
%TA.AperFunction,SMDPad,CuDef*%
%ADD13RoundRect,0.100000X0.100000X-0.637500X0.100000X0.637500X-0.100000X0.637500X-0.100000X-0.637500X0*%
%TD*%
%TA.AperFunction,SMDPad,CuDef*%
%ADD14RoundRect,0.200000X-0.275000X0.200000X-0.275000X-0.200000X0.275000X-0.200000X0.275000X0.200000X0*%
%TD*%
%TA.AperFunction,SMDPad,CuDef*%
%ADD15RoundRect,0.200000X0.200000X0.275000X-0.200000X0.275000X-0.200000X-0.275000X0.200000X-0.275000X0*%
%TD*%
%TA.AperFunction,SMDPad,CuDef*%
%ADD16RoundRect,0.225000X-0.250000X0.225000X-0.250000X-0.225000X0.250000X-0.225000X0.250000X0.225000X0*%
%TD*%
%TA.AperFunction,SMDPad,CuDef*%
%ADD17RoundRect,0.200000X-0.200000X-0.275000X0.200000X-0.275000X0.200000X0.275000X-0.200000X0.275000X0*%
%TD*%
%TA.AperFunction,ComponentPad*%
%ADD18R,1.700000X1.700000*%
%TD*%
%TA.AperFunction,ComponentPad*%
%ADD19C,1.700000*%
%TD*%
%TA.AperFunction,ViaPad*%
%ADD20C,0.609600*%
%TD*%
%TA.AperFunction,Conductor*%
%ADD21C,0.152400*%
%TD*%
%TA.AperFunction,Conductor*%
%ADD22C,0.254000*%
%TD*%
%TA.AperFunction,Conductor*%
%ADD23C,0.203200*%
%TD*%
%TA.AperFunction,Conductor*%
%ADD24C,0.200000*%
%TD*%
G04 APERTURE END LIST*
D10*
%TO.P,R32,1*%
%TO.N,/RC2*%
X155500000Y-80525000D03*
%TO.P,R32,2*%
%TO.N,/HB_OUT1-*%
X155500000Y-78875000D03*
%TD*%
D11*
%TO.P,C4,1*%
%TO.N,GND*%
X145224200Y-120091200D03*
%TO.P,C4,2*%
%TO.N,/VDD*%
X146774200Y-120091200D03*
%TD*%
D10*
%TO.P,R30,1*%
%TO.N,/RE2*%
X152349200Y-96012000D03*
%TO.P,R30,2*%
%TO.N,GND*%
X152349200Y-94362000D03*
%TD*%
D12*
%TO.P,C2,1*%
%TO.N,GND*%
X150520400Y-91351400D03*
%TO.P,C2,2*%
%TO.N,/VDD*%
X150520400Y-89801400D03*
%TD*%
D10*
%TO.P,R40,1*%
%TO.N,/RC1*%
X157210000Y-80565000D03*
%TO.P,R40,2*%
%TO.N,/HB_OUT1-*%
X157210000Y-78915000D03*
%TD*%
D11*
%TO.P,C3,1*%
%TO.N,GND*%
X150189600Y-105714800D03*
%TO.P,C3,2*%
%TO.N,/VDD*%
X151739600Y-105714800D03*
%TD*%
D13*
%TO.P,U3,1,SCLK*%
%TO.N,/SCLK*%
X149675000Y-103825000D03*
%TO.P,U3,2,VDD*%
%TO.N,/VDD*%
X150325000Y-103825000D03*
%TO.P,U3,3,DIN*%
%TO.N,Net-(U2-DOUT)*%
X150975000Y-103825000D03*
%TO.P,U3,4,GND*%
%TO.N,GND*%
X151625000Y-103825000D03*
%TO.P,U3,5,S1*%
%TO.N,/HB_OUT2-*%
X152275000Y-103825000D03*
%TO.P,U3,6,D1*%
%TO.N,/RE1*%
X152925000Y-103825000D03*
%TO.P,U3,7,S2*%
%TO.N,/HB_OUT2+*%
X153575000Y-103825000D03*
%TO.P,U3,8,D2*%
%TO.N,/RD1*%
X154225000Y-103825000D03*
%TO.P,U3,9,S3*%
%TO.N,/HB_OUT1-*%
X154875000Y-103825000D03*
%TO.P,U3,10,D3*%
%TO.N,/RB1*%
X155525000Y-103825000D03*
%TO.P,U3,11,S4*%
%TO.N,/HB_OUT1+*%
X156175000Y-103825000D03*
%TO.P,U3,12,D4*%
%TO.N,/RA1*%
X156825000Y-103825000D03*
%TO.P,U3,13,D5*%
%TO.N,/RA2*%
X156825000Y-98100000D03*
%TO.P,U3,14,S5*%
%TO.N,/HB_OUT1+*%
X156175000Y-98100000D03*
%TO.P,U3,15,D6*%
%TO.N,/RB2*%
X155525000Y-98100000D03*
%TO.P,U3,16,S6*%
%TO.N,/HB_OUT1-*%
X154875000Y-98100000D03*
%TO.P,U3,17,D7*%
%TO.N,/RD2*%
X154225000Y-98100000D03*
%TO.P,U3,18,S7*%
%TO.N,/HB_OUT2+*%
X153575000Y-98100000D03*
%TO.P,U3,19,D8*%
%TO.N,/RE2*%
X152925000Y-98100000D03*
%TO.P,U3,20,S8*%
%TO.N,/HB_OUT2-*%
X152275000Y-98100000D03*
%TO.P,U3,21,VSS*%
%TO.N,GND*%
X151625000Y-98100000D03*
%TO.P,U3,22,DOUT*%
%TO.N,Net-(U3-DOUT)*%
X150975000Y-98100000D03*
%TO.P,U3,23,~{RESET}*%
%TO.N,/RESET*%
X150325000Y-98100000D03*
%TO.P,U3,24,SYNC*%
%TO.N,/CS*%
X149675000Y-98100000D03*
%TD*%
D10*
%TO.P,R42,1*%
%TO.N,/RA1*%
X158250000Y-103650000D03*
%TO.P,R42,2*%
%TO.N,GND*%
X158250000Y-102000000D03*
%TD*%
D13*
%TO.P,U1,1,SCLK*%
%TO.N,/SCLK*%
X150850000Y-76862500D03*
%TO.P,U1,2,VDD*%
%TO.N,/VDD*%
X151500000Y-76862500D03*
%TO.P,U1,3,DIN*%
%TO.N,/COPI*%
X152150000Y-76862500D03*
%TO.P,U1,4,GND*%
%TO.N,GND*%
X152800000Y-76862500D03*
%TO.P,U1,5,S1*%
%TO.N,/HB_OUT2-*%
X153450000Y-76862500D03*
%TO.P,U1,6,D1*%
%TO.N,/ADC_IN2-*%
X154100000Y-76862500D03*
%TO.P,U1,7,S2*%
%TO.N,/HB_OUT2+*%
X154750000Y-76862500D03*
%TO.P,U1,8,D2*%
%TO.N,/ADC_IN2+*%
X155400000Y-76862500D03*
%TO.P,U1,9,S3*%
%TO.N,/HB_OUT1-*%
X156050000Y-76862500D03*
%TO.P,U1,10,D3*%
%TO.N,/ADC_IN1-*%
X156700000Y-76862500D03*
%TO.P,U1,11,S4*%
%TO.N,/HB_OUT1+*%
X157350000Y-76862500D03*
%TO.P,U1,12,D4*%
%TO.N,/ADC_IN1+*%
X158000000Y-76862500D03*
%TO.P,U1,13,D5*%
%TO.N,/ADC_IN4-*%
X158000000Y-71137500D03*
%TO.P,U1,14,S5*%
%TO.N,/HB_OUT4-*%
X157350000Y-71137500D03*
%TO.P,U1,15,D6*%
%TO.N,/ADC_IN4+*%
X156700000Y-71137500D03*
%TO.P,U1,16,S6*%
%TO.N,/HB_OUT4+*%
X156050000Y-71137500D03*
%TO.P,U1,17,D7*%
%TO.N,/ADC_IN3-*%
X155400000Y-71137500D03*
%TO.P,U1,18,S7*%
%TO.N,/HB_OUT3-*%
X154750000Y-71137500D03*
%TO.P,U1,19,D8*%
%TO.N,/ADC_IN3+*%
X154100000Y-71137500D03*
%TO.P,U1,20,S8*%
%TO.N,/HB_OUT3+*%
X153450000Y-71137500D03*
%TO.P,U1,21,VSS*%
%TO.N,GND*%
X152800000Y-71137500D03*
%TO.P,U1,22,DOUT*%
%TO.N,Net-(U1-DOUT)*%
X152150000Y-71137500D03*
%TO.P,U1,23,~{RESET}*%
%TO.N,/RESET*%
X151500000Y-71137500D03*
%TO.P,U1,24,SYNC*%
%TO.N,/CS*%
X150850000Y-71137500D03*
%TD*%
D10*
%TO.P,R2,1*%
%TO.N,/VDD*%
X148300000Y-101800000D03*
%TO.P,R2,2*%
%TO.N,Net-(U3-DOUT)*%
X148300000Y-100150000D03*
%TD*%
D14*
%TO.P,R19,1*%
%TO.N,/RI1*%
X153466800Y-89624400D03*
%TO.P,R19,2*%
%TO.N,/HB_OUT3-*%
X153466800Y-91274400D03*
%TD*%
D13*
%TO.P,U4,1,SCLK*%
%TO.N,/SCLK*%
X146250000Y-118062500D03*
%TO.P,U4,2,VDD*%
%TO.N,/VDD*%
X146900000Y-118062500D03*
%TO.P,U4,3,DIN*%
%TO.N,Net-(U3-DOUT)*%
X147550000Y-118062500D03*
%TO.P,U4,4,GND*%
%TO.N,GND*%
X148200000Y-118062500D03*
%TO.P,U4,5,S1*%
%TO.N,/HB_OUT4-*%
X148850000Y-118062500D03*
%TO.P,U4,6,D1*%
%TO.N,/RK1*%
X149500000Y-118062500D03*
%TO.P,U4,7,S2*%
%TO.N,/HB_OUT4+*%
X150150000Y-118062500D03*
%TO.P,U4,8,D2*%
%TO.N,/RJ1*%
X150800000Y-118062500D03*
%TO.P,U4,9,S3*%
%TO.N,/HB_OUT3-*%
X151450000Y-118062500D03*
%TO.P,U4,10,D3*%
%TO.N,/RH1*%
X152100000Y-118062500D03*
%TO.P,U4,11,S4*%
%TO.N,/HB_OUT3+*%
X152750000Y-118062500D03*
%TO.P,U4,12,D4*%
%TO.N,/RG1*%
X153400000Y-118062500D03*
%TO.P,U4,13,D5*%
%TO.N,/RG2*%
X153400000Y-112337500D03*
%TO.P,U4,14,S5*%
%TO.N,/HB_OUT3+*%
X152750000Y-112337500D03*
%TO.P,U4,15,D6*%
%TO.N,/RH2*%
X152100000Y-112337500D03*
%TO.P,U4,16,S6*%
%TO.N,/HB_OUT3-*%
X151450000Y-112337500D03*
%TO.P,U4,17,D7*%
%TO.N,/RJ2*%
X150800000Y-112337500D03*
%TO.P,U4,18,S7*%
%TO.N,/HB_OUT4+*%
X150150000Y-112337500D03*
%TO.P,U4,19,D8*%
%TO.N,/RK2*%
X149500000Y-112337500D03*
%TO.P,U4,20,S8*%
%TO.N,/HB_OUT4-*%
X148850000Y-112337500D03*
%TO.P,U4,21,VSS*%
%TO.N,GND*%
X148200000Y-112337500D03*
%TO.P,U4,22,DOUT*%
%TO.N,unconnected-(U4-DOUT-Pad22)*%
X147550000Y-112337500D03*
%TO.P,U4,23,~{RESET}*%
%TO.N,/RESET*%
X146900000Y-112337500D03*
%TO.P,U4,24,SYNC*%
%TO.N,/CS*%
X146250000Y-112337500D03*
%TD*%
D14*
%TO.P,R3,1*%
%TO.N,Net-(U1-DOUT)*%
X151993600Y-89624400D03*
%TO.P,R3,2*%
%TO.N,/VDD*%
X151993600Y-91274400D03*
%TD*%
D15*
%TO.P,R21,1*%
%TO.N,/RK1*%
X149775000Y-119850000D03*
%TO.P,R21,2*%
%TO.N,GND*%
X148125000Y-119850000D03*
%TD*%
D16*
%TO.P,C1,1*%
%TO.N,GND*%
X149453600Y-72973600D03*
%TO.P,C1,2*%
%TO.N,/VDD*%
X149453600Y-74523600D03*
%TD*%
D10*
%TO.P,R1,1*%
%TO.N,Net-(U2-DOUT)*%
X149479000Y-78676000D03*
%TO.P,R1,2*%
%TO.N,/VDD*%
X149479000Y-77026000D03*
%TD*%
%TO.P,R31,1*%
%TO.N,/RD2*%
X153924000Y-96215200D03*
%TO.P,R31,2*%
%TO.N,GND*%
X153924000Y-94565200D03*
%TD*%
%TO.P,R25,1*%
%TO.N,/RK2*%
X148900000Y-110400000D03*
%TO.P,R25,2*%
%TO.N,GND*%
X148900000Y-108750000D03*
%TD*%
%TO.P,R27,1*%
%TO.N,/RH2*%
X152100000Y-110650000D03*
%TO.P,R27,2*%
%TO.N,GND*%
X152100000Y-109000000D03*
%TD*%
D14*
%TO.P,R23,1*%
%TO.N,/RI2*%
X154965400Y-89637600D03*
%TO.P,R23,2*%
%TO.N,/HB_OUT3-*%
X154965400Y-91287600D03*
%TD*%
%TO.P,R38,1*%
%TO.N,/RE1*%
X153225000Y-105500000D03*
%TO.P,R38,2*%
%TO.N,GND*%
X153225000Y-107150000D03*
%TD*%
D10*
%TO.P,R29,1*%
%TO.N,/RF2*%
X152100000Y-80525000D03*
%TO.P,R29,2*%
%TO.N,/HB_OUT2-*%
X152100000Y-78875000D03*
%TD*%
%TO.P,R35,1*%
%TO.N,/RH1*%
X156300000Y-117625000D03*
%TO.P,R35,2*%
%TO.N,GND*%
X156300000Y-115975000D03*
%TD*%
D14*
%TO.P,R34,1*%
%TO.N,/RA2*%
X158160000Y-97645000D03*
%TO.P,R34,2*%
%TO.N,GND*%
X158160000Y-99295000D03*
%TD*%
%TO.P,R39,1*%
%TO.N,/RD1*%
X155025000Y-105900000D03*
%TO.P,R39,2*%
%TO.N,GND*%
X155025000Y-107550000D03*
%TD*%
%TO.P,R41,1*%
%TO.N,/RB1*%
X156625000Y-105975000D03*
%TO.P,R41,2*%
%TO.N,GND*%
X156625000Y-107625000D03*
%TD*%
D10*
%TO.P,R36,1*%
%TO.N,/RG1*%
X154725000Y-116775000D03*
%TO.P,R36,2*%
%TO.N,GND*%
X154725000Y-115125000D03*
%TD*%
%TO.P,R24,1*%
%TO.N,/RJ2*%
X150500000Y-110650000D03*
%TO.P,R24,2*%
%TO.N,GND*%
X150500000Y-109000000D03*
%TD*%
D17*
%TO.P,R20,1*%
%TO.N,/RJ1*%
X155325000Y-119850000D03*
%TO.P,R20,2*%
%TO.N,GND*%
X156975000Y-119850000D03*
%TD*%
D10*
%TO.P,R37,1*%
%TO.N,/RF1*%
X153600000Y-80500000D03*
%TO.P,R37,2*%
%TO.N,/HB_OUT2-*%
X153600000Y-78850000D03*
%TD*%
D14*
%TO.P,R22,1*%
%TO.N,/RL1*%
X156489400Y-89649800D03*
%TO.P,R22,2*%
%TO.N,/HB_OUT4-*%
X156489400Y-91299800D03*
%TD*%
%TO.P,R26,1*%
%TO.N,/RL2*%
X158013400Y-89624400D03*
%TO.P,R26,2*%
%TO.N,/HB_OUT4-*%
X158013400Y-91274400D03*
%TD*%
D10*
%TO.P,R33,1*%
%TO.N,/RB2*%
X155498800Y-96379800D03*
%TO.P,R33,2*%
%TO.N,GND*%
X155498800Y-94729800D03*
%TD*%
D13*
%TO.P,U2,1,SCLK*%
%TO.N,/SCLK*%
X150399800Y-87952500D03*
%TO.P,U2,2,VDD*%
%TO.N,/VDD*%
X151049800Y-87952500D03*
%TO.P,U2,3,DIN*%
%TO.N,Net-(U1-DOUT)*%
X151699800Y-87952500D03*
%TO.P,U2,4,GND*%
%TO.N,GND*%
X152349800Y-87952500D03*
%TO.P,U2,5,S1*%
%TO.N,/RI1*%
X152999800Y-87952500D03*
%TO.P,U2,6,D1*%
%TO.N,/2.5V*%
X153649800Y-87952500D03*
%TO.P,U2,7,S2*%
%TO.N,/RI2*%
X154299800Y-87952500D03*
%TO.P,U2,8,D2*%
%TO.N,/2.5V*%
X154949800Y-87952500D03*
%TO.P,U2,9,S3*%
%TO.N,/RL1*%
X155599800Y-87952500D03*
%TO.P,U2,10,D3*%
%TO.N,/2.5V*%
X156249800Y-87952500D03*
%TO.P,U2,11,S4*%
%TO.N,/RL2*%
X156899800Y-87952500D03*
%TO.P,U2,12,D4*%
%TO.N,/2.5V*%
X157549800Y-87952500D03*
%TO.P,U2,13,D5*%
%TO.N,/RC1*%
X157549800Y-82227500D03*
%TO.P,U2,14,S5*%
%TO.N,/2.5V*%
X156899800Y-82227500D03*
%TO.P,U2,15,D6*%
%TO.N,/RC2*%
X156249800Y-82227500D03*
%TO.P,U2,16,S6*%
%TO.N,/2.5V*%
X155599800Y-82227500D03*
%TO.P,U2,17,D7*%
%TO.N,/RF1*%
X154949800Y-82227500D03*
%TO.P,U2,18,S7*%
%TO.N,/2.5V*%
X154299800Y-82227500D03*
%TO.P,U2,19,D8*%
%TO.N,/RF2*%
X153649800Y-82227500D03*
%TO.P,U2,20,S8*%
%TO.N,/2.5V*%
X152999800Y-82227500D03*
%TO.P,U2,21,VSS*%
%TO.N,GND*%
X152349800Y-82227500D03*
%TO.P,U2,22,DOUT*%
%TO.N,Net-(U2-DOUT)*%
X151699800Y-82227500D03*
%TO.P,U2,23,~{RESET}*%
%TO.N,/RESET*%
X151049800Y-82227500D03*
%TO.P,U2,24,SYNC*%
%TO.N,/CS*%
X150399800Y-82227500D03*
%TD*%
D14*
%TO.P,R28,1*%
%TO.N,/RG2*%
X154750000Y-112100000D03*
%TO.P,R28,2*%
%TO.N,GND*%
X154750000Y-113750000D03*
%TD*%
D18*
%TO.P,J4,1,Pin_1*%
%TO.N,/2.5V*%
X161190000Y-92840000D03*
D19*
%TO.P,J4,2,Pin_2*%
%TO.N,/ADC_IN1+*%
X161190000Y-90300000D03*
%TO.P,J4,3,Pin_3*%
%TO.N,/ADC_IN1-*%
X161190000Y-87760000D03*
%TO.P,J4,4,Pin_4*%
%TO.N,/ADC_IN2+*%
X161190000Y-85220000D03*
%TO.P,J4,5,Pin_5*%
%TO.N,/ADC_IN2-*%
X161190000Y-82680000D03*
%TO.P,J4,6,Pin_6*%
%TO.N,/ADC_IN3+*%
X161190000Y-80140000D03*
%TO.P,J4,7,Pin_7*%
%TO.N,/ADC_IN3-*%
X161190000Y-77600000D03*
%TO.P,J4,8,Pin_8*%
%TO.N,/ADC_IN4+*%
X161190000Y-75060000D03*
%TO.P,J4,9,Pin_9*%
%TO.N,/ADC_IN4-*%
X161190000Y-72520000D03*
%TO.P,J4,10,Pin_10*%
%TO.N,GND*%
X161190000Y-69980000D03*
%TD*%
D18*
%TO.P,J2,1,Pin_1*%
%TO.N,/VDD*%
X145923000Y-87731600D03*
D19*
%TO.P,J2,2,Pin_2*%
%TO.N,/SCLK*%
X145923000Y-85191600D03*
%TO.P,J2,3,Pin_3*%
%TO.N,/RESET*%
X145923000Y-82651600D03*
%TO.P,J2,4,Pin_4*%
%TO.N,/CS*%
X145923000Y-80111600D03*
%TO.P,J2,5,Pin_5*%
%TO.N,/COPI*%
X145923000Y-77571600D03*
%TD*%
D18*
%TO.P,J1,1,Pin_1*%
%TO.N,/HB_OUT4-*%
X161250000Y-120630000D03*
D19*
%TO.P,J1,2,Pin_2*%
%TO.N,/HB_OUT4+*%
X161250000Y-118090000D03*
%TO.P,J1,3,Pin_3*%
%TO.N,/HB_OUT3-*%
X161250000Y-115550000D03*
%TO.P,J1,4,Pin_4*%
%TO.N,/HB_OUT3+*%
X161250000Y-113010000D03*
%TO.P,J1,5,Pin_5*%
%TO.N,/HB_OUT2-*%
X161250000Y-110470000D03*
%TO.P,J1,6,Pin_6*%
%TO.N,/HB_OUT2+*%
X161250000Y-107930000D03*
%TO.P,J1,7,Pin_7*%
%TO.N,/HB_OUT1-*%
X161250000Y-105390000D03*
%TO.P,J1,8,Pin_8*%
%TO.N,/HB_OUT1+*%
X161250000Y-102850000D03*
%TD*%
D20*
%TO.N,Net-(U2-DOUT)*%
X150114000Y-78486000D03*
X150975001Y-102924186D03*
X151390800Y-83533400D03*
%TO.N,Net-(U3-DOUT)*%
X147549999Y-117161686D03*
X150975000Y-102048251D03*
%TO.N,GND*%
X148200001Y-113238314D03*
X148900000Y-108200000D03*
X155600400Y-95300800D03*
X156350000Y-116500000D03*
X150289800Y-91871800D03*
X152552400Y-94945200D03*
X158160000Y-99900000D03*
X149504400Y-72390000D03*
X154138600Y-95199200D03*
X156700000Y-108200000D03*
X150400000Y-108350000D03*
X150677477Y-106268923D03*
X155125592Y-108124408D03*
X154725000Y-114300000D03*
X152629202Y-86446521D03*
X151624999Y-99000814D03*
X153464800Y-107700000D03*
X147929600Y-120497600D03*
X152799999Y-72038314D03*
X145542000Y-119430800D03*
X156450000Y-119750000D03*
X151908199Y-108445319D03*
%TO.N,/HB_OUT1-*%
X154720992Y-79805192D03*
X151140079Y-80139600D03*
%TO.N,/HB_OUT1+*%
X156334227Y-78237873D03*
X150533542Y-80723800D03*
%TO.N,/RESET*%
X151500001Y-70236686D03*
X146899999Y-113238314D03*
X150301732Y-97157062D03*
X150697569Y-83957756D03*
%TO.N,/VDD*%
X146050000Y-89382500D03*
X148272252Y-93653932D03*
X150191817Y-90369583D03*
X146046000Y-76141998D03*
X148956608Y-75017208D03*
%TO.N,/SCLK*%
X150036908Y-76136908D03*
X148815800Y-104407247D03*
X145939750Y-117810250D03*
X150150000Y-87950000D03*
%TO.N,/CS*%
X146219228Y-111515001D03*
X150792000Y-71900000D03*
X149617000Y-98100000D03*
X150155652Y-83351972D03*
%TO.N,/COPI*%
X148713226Y-73748600D03*
%TO.N,Net-(U1-DOUT)*%
X152235001Y-75282839D03*
X152265000Y-84410777D03*
%TD*%
D21*
%TO.N,Net-(U2-DOUT)*%
X150975001Y-102924186D02*
X150975000Y-103825000D01*
X151699800Y-82227500D02*
X151699800Y-83224400D01*
X149991780Y-78608220D02*
X149546780Y-78608220D01*
X150114000Y-78486000D02*
X149991780Y-78608220D01*
X151699800Y-83224400D02*
X151390800Y-83533400D01*
X149546780Y-78608220D02*
X149479000Y-78676000D01*
%TO.N,Net-(U3-DOUT)*%
X149662499Y-100150000D02*
X150975000Y-98837499D01*
X147550000Y-118062500D02*
X147549999Y-117161686D01*
X148300000Y-100150000D02*
X149662499Y-100150000D01*
X150975000Y-98837499D02*
X150975000Y-98100000D01*
X150975000Y-102048251D02*
X150975000Y-98100000D01*
%TO.N,GND*%
X155125592Y-108124408D02*
X155125592Y-107675592D01*
X153464800Y-107700000D02*
X153464800Y-107414800D01*
D22*
X152629202Y-86446521D02*
X152629202Y-86490921D01*
D23*
X150400000Y-108350000D02*
X150400000Y-108900000D01*
D21*
X155498800Y-95199200D02*
X155498800Y-94729800D01*
D23*
X151908199Y-108808199D02*
X152100000Y-109000000D01*
D22*
X148200000Y-112337500D02*
X148200000Y-118062500D01*
X150520400Y-91351400D02*
X150520400Y-91641200D01*
D21*
X153225000Y-107175000D02*
X153225000Y-107150000D01*
X148900000Y-108200000D02*
X148900000Y-108750000D01*
D24*
X158160000Y-101910000D02*
X158250000Y-102000000D01*
D23*
X156350000Y-116025000D02*
X156300000Y-115975000D01*
D21*
X155600400Y-95300800D02*
X155498800Y-95199200D01*
X151625000Y-98100000D02*
X151624999Y-99000814D01*
D22*
X152900000Y-84123527D02*
X152349800Y-83573327D01*
X150189600Y-105781046D02*
X150677477Y-106268923D01*
X151625000Y-103825000D02*
X151625000Y-98100000D01*
D21*
X149453600Y-72440800D02*
X149504400Y-72390000D01*
D23*
X150400000Y-108900000D02*
X150500000Y-109000000D01*
D21*
X155125592Y-107675592D02*
X155025000Y-107575000D01*
X148125000Y-120302200D02*
X147929600Y-120497600D01*
X148200001Y-113238314D02*
X148200000Y-112337500D01*
X152552400Y-94945200D02*
X152349200Y-94742000D01*
D22*
X152870000Y-71207500D02*
X152800000Y-71137500D01*
X152629202Y-86490921D02*
X152349800Y-86770323D01*
X152870000Y-76792500D02*
X152870000Y-71207500D01*
D23*
X156350000Y-116500000D02*
X156350000Y-116025000D01*
D21*
X152349200Y-94742000D02*
X152349200Y-94362000D01*
X153464800Y-107414800D02*
X153225000Y-107175000D01*
X156550000Y-119850000D02*
X156450000Y-119750000D01*
X155025000Y-107575000D02*
X155025000Y-107550000D01*
D22*
X145224200Y-120091200D02*
X145224200Y-119748600D01*
D21*
X154138600Y-95199200D02*
X154138600Y-95159800D01*
D22*
X152349800Y-86770323D02*
X152349800Y-87952500D01*
D21*
X156700000Y-107700000D02*
X156700000Y-108200000D01*
D22*
X145224200Y-119748600D02*
X145542000Y-119430800D01*
X150189600Y-105714800D02*
X150189600Y-105781046D01*
X152900000Y-86175723D02*
X152900000Y-84123527D01*
D21*
X156975000Y-119850000D02*
X156550000Y-119850000D01*
D22*
X152349800Y-83573327D02*
X152349800Y-82227500D01*
D21*
X152800000Y-71137500D02*
X152799999Y-72038314D01*
D22*
X152800000Y-76862500D02*
X152870000Y-76792500D01*
D21*
X153924000Y-94945200D02*
X153924000Y-94565200D01*
D24*
X158160000Y-99900000D02*
X158160000Y-101910000D01*
D21*
X154138600Y-95159800D02*
X153924000Y-94945200D01*
D22*
X150520400Y-91641200D02*
X150289800Y-91871800D01*
D23*
X151908199Y-108445319D02*
X151908199Y-108808199D01*
D24*
X154725000Y-114300000D02*
X154725000Y-115125000D01*
D21*
X148125000Y-119850000D02*
X148125000Y-120302200D01*
X156625000Y-107625000D02*
X156700000Y-107700000D01*
X149453600Y-72973600D02*
X149453600Y-72440800D01*
D22*
X152629202Y-86446521D02*
X152900000Y-86175723D01*
D21*
%TO.N,/HB_OUT4-*%
X148850000Y-120100000D02*
X149764800Y-121014800D01*
X157772600Y-91299800D02*
X157784800Y-91287600D01*
X148850000Y-111539064D02*
X147850000Y-110539064D01*
X162500000Y-114864308D02*
X162856600Y-114507708D01*
X162856600Y-98840300D02*
X158013400Y-93997100D01*
X155451556Y-68581686D02*
X157350000Y-70480130D01*
X148850000Y-118062500D02*
X148850000Y-112337500D01*
X147059000Y-92475783D02*
X147059000Y-71919830D01*
X145750000Y-104006725D02*
X145750000Y-93784784D01*
X147059000Y-71919830D02*
X150397144Y-68581686D01*
X162856600Y-114507708D02*
X162856600Y-98840300D01*
X160800000Y-121020000D02*
X162500000Y-119320000D01*
X147850000Y-110539064D02*
X147850000Y-106106725D01*
X148850000Y-112337500D02*
X148850000Y-111539064D01*
X149764800Y-121014800D02*
X160794800Y-121014800D01*
X162500000Y-119320000D02*
X162500000Y-114864308D01*
X156489400Y-91299800D02*
X157772600Y-91299800D01*
X147850000Y-106106725D02*
X145750000Y-104006725D01*
X160794800Y-121014800D02*
X160800000Y-121020000D01*
X145750000Y-93784784D02*
X147059000Y-92475783D01*
X148850000Y-118062500D02*
X148850000Y-120100000D01*
X157350000Y-70480130D02*
X157350000Y-71137500D01*
X158013400Y-93997100D02*
X158013400Y-91274400D01*
X150397144Y-68581686D02*
X155451556Y-68581686D01*
D23*
%TO.N,/2.5V*%
X157549800Y-87952500D02*
X157549800Y-87215001D01*
D21*
X154164801Y-86700000D02*
X154200000Y-86700000D01*
X152999800Y-82227500D02*
X152999800Y-82964999D01*
X155599800Y-82949800D02*
X156100000Y-83450000D01*
D23*
X154800000Y-83450000D02*
X153550000Y-83450000D01*
D21*
X153649800Y-87952500D02*
X153649800Y-87215001D01*
D23*
X157269399Y-86934600D02*
X157117400Y-86782600D01*
X157034800Y-86700000D02*
X156700000Y-86700000D01*
D21*
X156899800Y-82227500D02*
X156899800Y-83750000D01*
D23*
X156700000Y-86700000D02*
X155550000Y-86700000D01*
X157117400Y-86782600D02*
X157034800Y-86700000D01*
X156899800Y-86565001D02*
X156899800Y-83750000D01*
X160000000Y-90402700D02*
X160000000Y-91600000D01*
X157117400Y-86782600D02*
X156899800Y-86565001D01*
X157549800Y-87952500D02*
X160000000Y-90402700D01*
X156899800Y-83750000D02*
X156599800Y-83450000D01*
D21*
X152999800Y-82964999D02*
X153484801Y-83450000D01*
D23*
X160000000Y-91600000D02*
X161190000Y-92790000D01*
D21*
X154299800Y-82227500D02*
X154299800Y-82949800D01*
X153649800Y-87215001D02*
X154164801Y-86700000D01*
D23*
X156100000Y-83450000D02*
X154800000Y-83450000D01*
D21*
X154299800Y-82949800D02*
X154800000Y-83450000D01*
D23*
X155550000Y-86700000D02*
X154200000Y-86700000D01*
X157549800Y-87215001D02*
X157269399Y-86934600D01*
D21*
X156249800Y-87952500D02*
X156249800Y-87150200D01*
X154949800Y-87300200D02*
X155550000Y-86700000D01*
X154949800Y-87952500D02*
X154949800Y-87300200D01*
D23*
X156599800Y-83450000D02*
X156100000Y-83450000D01*
D21*
X153484801Y-83450000D02*
X153550000Y-83450000D01*
X155599800Y-82227500D02*
X155599800Y-82949800D01*
X156249800Y-87150200D02*
X156700000Y-86700000D01*
%TO.N,/HB_OUT2+*%
X154600000Y-79100000D02*
X154144600Y-79555400D01*
X154049000Y-107874000D02*
X155275000Y-109100000D01*
X154049000Y-104956370D02*
X154049000Y-107874000D01*
X148842000Y-81139321D02*
X148842000Y-92809601D01*
X150265530Y-79555400D02*
X148844000Y-80976930D01*
X153148000Y-93966000D02*
X153148000Y-96935501D01*
X148844000Y-80976930D02*
X148844000Y-81137321D01*
X148844000Y-81137321D02*
X148842000Y-81139321D01*
X152755600Y-93573600D02*
X153148000Y-93966000D01*
X154750000Y-76862500D02*
X154600000Y-77012500D01*
X148842000Y-92809601D02*
X149606000Y-93573600D01*
X150896680Y-79555401D02*
X150265530Y-79555400D01*
X149606000Y-93573600D02*
X152755600Y-93573600D01*
X154600000Y-77012500D02*
X154600000Y-79100000D01*
X160140000Y-109100000D02*
X161290000Y-107950000D01*
X153575000Y-103825000D02*
X153575000Y-98100000D01*
X151383477Y-79555400D02*
X151382477Y-79554400D01*
X153575000Y-103825000D02*
X153575000Y-104482370D01*
X153575000Y-97362501D02*
X153575000Y-98100000D01*
X154144600Y-79555400D02*
X151383477Y-79555400D01*
X153148000Y-96935501D02*
X153575000Y-97362501D01*
X151382477Y-79554400D02*
X150897681Y-79554400D01*
X150897681Y-79554400D02*
X150896680Y-79555401D01*
X153575000Y-104482370D02*
X154049000Y-104956370D01*
X155275000Y-109100000D02*
X160140000Y-109100000D01*
%TO.N,/HB_OUT2-*%
X148640800Y-93116400D02*
X151593800Y-96069400D01*
X160920000Y-110860000D02*
X161290000Y-110490000D01*
X152275000Y-103825000D02*
X152275000Y-105054222D01*
X151531186Y-79198800D02*
X151530185Y-79197800D01*
X151530185Y-79197800D02*
X150749972Y-79197800D01*
X150749972Y-79197800D02*
X150748972Y-79198800D01*
X150748972Y-79198800D02*
X150117821Y-79198800D01*
X153600000Y-78200000D02*
X153600000Y-78850000D01*
D24*
X153600000Y-78850000D02*
X153700000Y-78750000D01*
D21*
X152100000Y-78875000D02*
X152575000Y-78875000D01*
X151869670Y-96692400D02*
X151992600Y-96692400D01*
X151776200Y-79198800D02*
X151531186Y-79198800D01*
X150117821Y-79198800D02*
X148485400Y-80831222D01*
X155745936Y-110860000D02*
X160920000Y-110860000D01*
X152275000Y-105054222D02*
X152470000Y-105249222D01*
X152470000Y-107584064D02*
X152478268Y-107592332D01*
X153450000Y-76200000D02*
X153450000Y-76862500D01*
X153450000Y-78050000D02*
X153600000Y-78200000D01*
X153450000Y-78000000D02*
X153450000Y-76862500D01*
X148640800Y-93112710D02*
X148640800Y-93116400D01*
X152575000Y-78875000D02*
X153450000Y-78000000D01*
X151593800Y-96069400D02*
X151593800Y-96416530D01*
X152478268Y-107592332D02*
X155745936Y-110860000D01*
D24*
X152100000Y-78875000D02*
X152125000Y-78875000D01*
D21*
X148485400Y-80831222D02*
X148485400Y-92957309D01*
X153450000Y-78000000D02*
X153450000Y-78050000D01*
X151593800Y-96416530D02*
X151869670Y-96692400D01*
X151992600Y-97014538D02*
X152275000Y-97296938D01*
D24*
X153675000Y-78875000D02*
X153650000Y-78850000D01*
D21*
X152275000Y-103825000D02*
X152275000Y-98100000D01*
X152100000Y-78875000D02*
X151776200Y-79198800D01*
X148485400Y-92957309D02*
X148640800Y-93112710D01*
D24*
X153650000Y-78850000D02*
X153600000Y-78850000D01*
D21*
X152470000Y-105249222D02*
X152470000Y-107584064D01*
X152275000Y-97296938D02*
X152275000Y-98100000D01*
X151992600Y-96692400D02*
X151992600Y-97014538D01*
%TO.N,/HB_OUT1-*%
X155849000Y-105536499D02*
X155849000Y-106388064D01*
X157140000Y-78915000D02*
X157210000Y-78915000D01*
X150775940Y-80138600D02*
X150291144Y-80138600D01*
X156385936Y-106925000D02*
X159775000Y-106925000D01*
X154875000Y-103825000D02*
X154875000Y-98100000D01*
X155500000Y-78875000D02*
X155500000Y-79026184D01*
X149704908Y-93168200D02*
X154026600Y-93168200D01*
X150291144Y-80138600D02*
X150290144Y-80139600D01*
X159775000Y-106925000D02*
X161290000Y-105410000D01*
X154722800Y-93864400D02*
X154722800Y-97210301D01*
X154875000Y-103825000D02*
X154875000Y-104562499D01*
X157210000Y-78915000D02*
X157150000Y-78975000D01*
X155849000Y-106388064D02*
X156385936Y-106925000D01*
X154875000Y-97362501D02*
X154875000Y-98100000D01*
X151140079Y-80139600D02*
X150776940Y-80139600D01*
X149198600Y-92661892D02*
X149704908Y-93168200D01*
X157100000Y-78875000D02*
X157140000Y-78915000D01*
X150290144Y-80139600D02*
X150248430Y-80139600D01*
X157150000Y-78975000D02*
X155600000Y-78975000D01*
X155500000Y-79026184D02*
X154720992Y-79805192D01*
X150776940Y-80139600D02*
X150775940Y-80138600D01*
X156050000Y-77490738D02*
X156050000Y-76862500D01*
X155500000Y-78040738D02*
X156050000Y-77490738D01*
X150248430Y-80139600D02*
X149198600Y-81189430D01*
X154026600Y-93168200D02*
X154722800Y-93864400D01*
X154722800Y-97210301D02*
X154875000Y-97362501D01*
X155500000Y-78875000D02*
X155500000Y-78040738D01*
X155600000Y-78975000D02*
X155500000Y-78875000D01*
X149198600Y-81189430D02*
X149198600Y-92661892D01*
X154875000Y-104562499D02*
X155849000Y-105536499D01*
%TO.N,/HB_OUT3-*%
X161290000Y-115584000D02*
X161290000Y-115570000D01*
X151450000Y-111525000D02*
X151325000Y-111400000D01*
X151450000Y-112337500D02*
X151450000Y-111525000D01*
X162500000Y-114360000D02*
X161290000Y-115570000D01*
X149966292Y-107214400D02*
X146463200Y-103711309D01*
X155709670Y-118305400D02*
X158544600Y-118305400D01*
X151450000Y-118799999D02*
X152538001Y-119888000D01*
X154127070Y-119888000D02*
X155709670Y-118305400D01*
X154736800Y-91287600D02*
X153480000Y-91287600D01*
X151450000Y-118062500D02*
X151450000Y-112337500D01*
X153480000Y-91287600D02*
X153466800Y-91274400D01*
X154736800Y-91287600D02*
X154965400Y-91287600D01*
X154724600Y-91299800D02*
X154736800Y-91287600D01*
X151325000Y-111064064D02*
X151324000Y-111063064D01*
X146463200Y-103711309D02*
X146463200Y-94080200D01*
X158544600Y-118305400D02*
X161280000Y-115570000D01*
X153644885Y-69294886D02*
X154750000Y-70400001D01*
X161280000Y-115570000D02*
X161290000Y-115570000D01*
X151324000Y-108308730D02*
X150229670Y-107214400D01*
X154750000Y-70400001D02*
X154750000Y-71137500D01*
X150229670Y-107214400D02*
X149966292Y-107214400D01*
X151450000Y-118062500D02*
X151450000Y-118799999D01*
X151325000Y-111400000D02*
X151325000Y-111064064D01*
X147772200Y-92771201D02*
X147772200Y-72340830D01*
X161290000Y-115824000D02*
X161290000Y-115570000D01*
X152538001Y-119888000D02*
X154127070Y-119888000D01*
X162500000Y-99050800D02*
X154736800Y-91287600D01*
X151324000Y-111063064D02*
X151324000Y-108308730D01*
X146463200Y-94080200D02*
X147772200Y-92771201D01*
X150818144Y-69294886D02*
X153644885Y-69294886D01*
X147772200Y-72340830D02*
X150818144Y-69294886D01*
X162500000Y-99050800D02*
X162500000Y-114360000D01*
%TO.N,/HB_OUT1+*%
X149852616Y-92811600D02*
X154886600Y-92811600D01*
X150533542Y-80723800D02*
X150231330Y-80723800D01*
X156334227Y-78237873D02*
X156602865Y-78237873D01*
X156274800Y-98000200D02*
X156175000Y-98100000D01*
X150231330Y-80723800D02*
X149555200Y-81399930D01*
X154886600Y-92811600D02*
X156274800Y-94199800D01*
X149555200Y-92514184D02*
X149852616Y-92811600D01*
X156556130Y-104863500D02*
X159296500Y-104863500D01*
X156602865Y-78237873D02*
X157350000Y-77490738D01*
X156175000Y-103825000D02*
X156175000Y-104482370D01*
X156274800Y-94199800D02*
X156274800Y-98000200D01*
X156175000Y-103825000D02*
X156175000Y-98100000D01*
X159296500Y-104863500D02*
X161290000Y-102870000D01*
X149555200Y-81399930D02*
X149555200Y-92514184D01*
X156175000Y-104482370D02*
X156556130Y-104863500D01*
X157350000Y-77490738D02*
X157350000Y-76862500D01*
%TO.N,/HB_OUT3+*%
X152876000Y-112211500D02*
X152876000Y-108586936D01*
X152876000Y-108586936D02*
X151146864Y-106857800D01*
X152701485Y-69651486D02*
X153450000Y-70400001D01*
X154329130Y-115826000D02*
X155274000Y-115826000D01*
X153450000Y-70400001D02*
X153450000Y-71137500D01*
X148128800Y-72551330D02*
X151028644Y-69651486D01*
X146819800Y-94280200D02*
X148128800Y-92971200D01*
X160800000Y-113400000D02*
X160920000Y-113400000D01*
X152750000Y-118062500D02*
X152750000Y-117405130D01*
X152750000Y-112337500D02*
X152876000Y-112211500D01*
X146819800Y-103563600D02*
X146819800Y-94280200D01*
X151028644Y-69651486D02*
X152701485Y-69651486D01*
X151146864Y-106857800D02*
X150114000Y-106857800D01*
X148128800Y-92971200D02*
X148128800Y-72551330D01*
X157700000Y-113400000D02*
X160920000Y-113400000D01*
X150114000Y-106857800D02*
X146819800Y-103563600D01*
X160920000Y-113400000D02*
X161290000Y-113030000D01*
X152750000Y-112337500D02*
X152750000Y-118062500D01*
X152750000Y-117405130D02*
X154329130Y-115826000D01*
X155274000Y-115826000D02*
X157700000Y-113400000D01*
%TO.N,/HB_OUT4+*%
X150150000Y-111600001D02*
X149724000Y-111174001D01*
X147415600Y-72130330D02*
X150607644Y-68938286D01*
X150150000Y-112337500D02*
X150150000Y-118062500D01*
X152000001Y-120650000D02*
X150150000Y-118799999D01*
X146106600Y-93932492D02*
X147415600Y-92623492D01*
X161290000Y-118110000D02*
X158750000Y-120650000D01*
X149724000Y-107476417D02*
X146106600Y-103859017D01*
X147415600Y-92623492D02*
X147415600Y-72130330D01*
X150150000Y-112337500D02*
X150150000Y-111600001D01*
X150607644Y-68938286D02*
X154508156Y-68938286D01*
X146106600Y-103859017D02*
X146106600Y-93932492D01*
X150150000Y-118799999D02*
X150150000Y-118062500D01*
X149724000Y-111174001D02*
X149724000Y-107476417D01*
X154508156Y-68938286D02*
X156050000Y-70480130D01*
X156050000Y-70480130D02*
X156050000Y-71137500D01*
X158750000Y-120650000D02*
X152000001Y-120650000D01*
%TO.N,/RESET*%
X150301732Y-97157062D02*
X150301732Y-98076732D01*
X146899999Y-113238314D02*
X146900000Y-112337500D01*
X150698951Y-83836102D02*
X150698951Y-83793849D01*
X151049800Y-83046802D02*
X151049800Y-82227500D01*
X150697569Y-83957756D02*
X150697569Y-83837484D01*
X150805600Y-83291002D02*
X151049800Y-83046802D01*
X150698951Y-83793849D02*
X150805600Y-83687200D01*
X150301732Y-98076732D02*
X150325000Y-98100000D01*
X150805600Y-83687200D02*
X150805600Y-83291002D01*
X150697569Y-83837484D02*
X150698951Y-83836102D01*
X151500001Y-70236686D02*
X151500000Y-71137500D01*
D22*
%TO.N,/VDD*%
X149200000Y-101800000D02*
X150325000Y-102925000D01*
X151500000Y-76862500D02*
X151500000Y-76125001D01*
X146050000Y-89382500D02*
X146050000Y-88210000D01*
X150191817Y-90369583D02*
X150289800Y-90271600D01*
X146900000Y-119647600D02*
X146900000Y-118062500D01*
X150520400Y-89801400D02*
X150520600Y-89801400D01*
X148300000Y-101800000D02*
X149200000Y-101800000D01*
X146900000Y-114590000D02*
X146900000Y-118062500D01*
X149898599Y-74523600D02*
X149453600Y-74523600D01*
X145821400Y-87981400D02*
X145821400Y-87833200D01*
X149400000Y-77300000D02*
X149400000Y-77105000D01*
X151514720Y-105714800D02*
X150325000Y-104525080D01*
X144678400Y-77139800D02*
X144678400Y-86838400D01*
X149450216Y-74523600D02*
X149453600Y-74523600D01*
X146050000Y-89382500D02*
X146566200Y-89898700D01*
X151739600Y-105714800D02*
X151514720Y-105714800D01*
X145676202Y-76141998D02*
X144678400Y-77139800D01*
X150325000Y-104525080D02*
X150325000Y-103825000D01*
X145821400Y-87833200D02*
X145923000Y-87731600D01*
X146774200Y-120091200D02*
X146774200Y-119773400D01*
X151049800Y-87952500D02*
X151049800Y-89195800D01*
X150325000Y-102925000D02*
X150325000Y-103825000D01*
X148300000Y-101800000D02*
X147227200Y-100727200D01*
X146046000Y-76141998D02*
X145676202Y-76141998D01*
X150289800Y-90271600D02*
X150289800Y-89955800D01*
X151500000Y-76125001D02*
X149898599Y-74523600D01*
X148918508Y-75864726D02*
X149400000Y-76346218D01*
X146566200Y-92383800D02*
X145342600Y-93607400D01*
X149400000Y-77105000D02*
X149479000Y-77026000D01*
X150444200Y-89801400D02*
X150520400Y-89801400D01*
X144678400Y-86838400D02*
X145571600Y-87731600D01*
X147227200Y-100727200D02*
X147227200Y-94698984D01*
X148956608Y-75017208D02*
X148918508Y-75055308D01*
X148956608Y-75017208D02*
X149450216Y-74523600D01*
X145571600Y-87731600D02*
X145923000Y-87731600D01*
X147227200Y-94698984D02*
X148272252Y-93653932D01*
X148918508Y-75055308D02*
X148918508Y-75864726D01*
X146050000Y-88210000D02*
X145821400Y-87981400D01*
X150289800Y-89955800D02*
X150444200Y-89801400D01*
X146774200Y-119773400D02*
X146900000Y-119647600D01*
X151049800Y-89195800D02*
X150520400Y-89725200D01*
X150520600Y-89801400D02*
X151993600Y-91274400D01*
X145342600Y-113032600D02*
X146900000Y-114590000D01*
X150520400Y-89725200D02*
X150520400Y-89801400D01*
X146566200Y-89898700D02*
X146566200Y-92383800D01*
X149400000Y-76947000D02*
X149479000Y-77026000D01*
X149400000Y-76346218D02*
X149400000Y-76947000D01*
X145342600Y-93607400D02*
X145342600Y-113032600D01*
D21*
%TO.N,/SCLK*%
X150152500Y-87952500D02*
X150399800Y-87952500D01*
X149675000Y-103825000D02*
X149398047Y-103825000D01*
X150762500Y-76862500D02*
X150036908Y-76136908D01*
X145939750Y-117810250D02*
X145997750Y-117810250D01*
X145997750Y-117810250D02*
X146250000Y-118062500D01*
X150850000Y-76862500D02*
X150762500Y-76862500D01*
X150150000Y-87950000D02*
X150152500Y-87952500D01*
X149398047Y-103825000D02*
X148815800Y-104407247D01*
%TO.N,/CS*%
X150792000Y-71900000D02*
X150792000Y-71195500D01*
X150155652Y-83351972D02*
X150155652Y-83231729D01*
X150155652Y-83231729D02*
X150399800Y-82987581D01*
X146219228Y-112306728D02*
X146250000Y-112337500D01*
X150399800Y-82987581D02*
X150399800Y-82227500D01*
X150792000Y-71195500D02*
X150850000Y-71137500D01*
X146219228Y-111515001D02*
X146219228Y-112306728D01*
X150155652Y-83315531D02*
X150155652Y-83351972D01*
X150025000Y-83184879D02*
X150155652Y-83315531D01*
%TO.N,/COPI*%
X148750199Y-73785573D02*
X149911551Y-73785573D01*
X149911551Y-73785573D02*
X152150000Y-76024022D01*
X148713226Y-73748600D02*
X148750199Y-73785573D01*
X152150000Y-76024022D02*
X152150000Y-76862500D01*
%TO.N,/RI1*%
X152999800Y-87952500D02*
X152999800Y-89157400D01*
X152999800Y-89157400D02*
X153466800Y-89624400D01*
%TO.N,/RJ1*%
X150800000Y-118880000D02*
X151880000Y-119960000D01*
X150800000Y-118062500D02*
X150800000Y-118880000D01*
X152164800Y-120262400D02*
X154912600Y-120262400D01*
X151880000Y-119977600D02*
X152164800Y-120262400D01*
X151880000Y-119960000D02*
X151880000Y-119977600D01*
X154912600Y-120262400D02*
X155325000Y-119850000D01*
%TO.N,/RK1*%
X149500000Y-119575000D02*
X149775000Y-119850000D01*
X149500000Y-118062500D02*
X149500000Y-119575000D01*
%TO.N,/RL1*%
X155599800Y-87952500D02*
X155599800Y-88760200D01*
X155599800Y-88760200D02*
X156489400Y-89649800D01*
%TO.N,/RI2*%
X154299800Y-88972000D02*
X154965400Y-89637600D01*
X154299800Y-87952500D02*
X154299800Y-88972000D01*
D24*
%TO.N,/RJ2*%
X150800000Y-111550000D02*
X150800000Y-112337500D01*
X150500000Y-110650000D02*
X150500000Y-111250000D01*
X150500000Y-111250000D02*
X150800000Y-111550000D01*
%TO.N,/RK2*%
X148900000Y-111000000D02*
X149500000Y-111600000D01*
X149500000Y-111600000D02*
X149500000Y-112337500D01*
X148900000Y-110400000D02*
X148900000Y-111000000D01*
D21*
%TO.N,/RL2*%
X157771600Y-89624400D02*
X158013400Y-89624400D01*
X156899800Y-88752600D02*
X156899800Y-87952500D01*
X156899800Y-88752600D02*
X157771600Y-89624400D01*
D24*
%TO.N,/RH2*%
X152100000Y-110650000D02*
X152100000Y-112337500D01*
%TO.N,/RG2*%
X153637500Y-112100000D02*
X153400000Y-112337500D01*
X154750000Y-112100000D02*
X153637500Y-112100000D01*
D21*
%TO.N,/RF2*%
X153340199Y-81180400D02*
X152755400Y-81180400D01*
D23*
X152100000Y-80525000D02*
X152299999Y-80525000D01*
D21*
X152755400Y-81180400D02*
X152100000Y-80525000D01*
X153649800Y-82227500D02*
X153649800Y-81490001D01*
X153649800Y-81490001D02*
X153340199Y-81180400D01*
X152190738Y-80525000D02*
X152100000Y-80525000D01*
%TO.N,/RE2*%
X152349200Y-96012000D02*
X152349200Y-96866830D01*
X152925000Y-97442630D02*
X152925000Y-98100000D01*
X152349200Y-96866830D02*
X152925000Y-97442630D01*
%TO.N,/RD2*%
X153924000Y-96215200D02*
X154225000Y-96516200D01*
X154225000Y-96516200D02*
X154225000Y-98100000D01*
%TO.N,/RC2*%
X156249800Y-81274800D02*
X155500000Y-80525000D01*
X156249800Y-82227500D02*
X156249800Y-81274800D01*
%TO.N,/RB2*%
X155498800Y-98073800D02*
X155525000Y-98100000D01*
X155498800Y-96379800D02*
X155498800Y-98073800D01*
D24*
%TO.N,/RA2*%
X157280000Y-97645000D02*
X156825000Y-98100000D01*
X158160000Y-97645000D02*
X157280000Y-97645000D01*
D21*
%TO.N,/RH1*%
X152100000Y-118799999D02*
X152750001Y-119450000D01*
X152100000Y-118062500D02*
X152100000Y-118799999D01*
X154000000Y-119450000D02*
X155825000Y-117625000D01*
X152750001Y-119450000D02*
X154000000Y-119450000D01*
X155825000Y-117625000D02*
X156300000Y-117625000D01*
D24*
%TO.N,/RG1*%
X153437500Y-118062500D02*
X154725000Y-116775000D01*
X153400000Y-118062500D02*
X153437500Y-118062500D01*
D21*
%TO.N,/RF1*%
X153959799Y-80500000D02*
X153600000Y-80500000D01*
X154949800Y-81490001D02*
X153959799Y-80500000D01*
X154949800Y-82227500D02*
X154949800Y-81490001D01*
D24*
%TO.N,/RE1*%
X152925000Y-105200000D02*
X152925000Y-103825000D01*
X153225000Y-105500000D02*
X152925000Y-105200000D01*
%TO.N,/RD1*%
X154225000Y-104500000D02*
X155025000Y-105300000D01*
X154225000Y-103825000D02*
X154225000Y-104500000D01*
X155025000Y-105300000D02*
X155025000Y-105900000D01*
D21*
%TO.N,/RC1*%
X157549800Y-80904800D02*
X157210000Y-80565000D01*
X157210000Y-80565000D02*
X157200000Y-80575000D01*
X157549800Y-82227500D02*
X157549800Y-80904800D01*
D24*
%TO.N,/RB1*%
X156625000Y-105662499D02*
X155525000Y-104562499D01*
X156625000Y-105975000D02*
X156625000Y-105662499D01*
X155525000Y-104562499D02*
X155525000Y-103825000D01*
%TO.N,/RA1*%
X156825000Y-103825000D02*
X158075000Y-103825000D01*
X158075000Y-103825000D02*
X158250000Y-103650000D01*
D21*
%TO.N,/ADC_IN3+*%
X159810000Y-78710000D02*
X161190000Y-80090000D01*
X156890401Y-74665400D02*
X158599708Y-74665400D01*
X154100000Y-71137500D02*
X154100000Y-71874999D01*
X154100000Y-71874999D02*
X156890401Y-74665400D01*
X159810000Y-75875692D02*
X159810000Y-78710000D01*
X158599708Y-74665400D02*
X159810000Y-75875692D01*
%TO.N,/ADC_IN3-*%
X155400000Y-71800000D02*
X155400000Y-71137500D01*
X160180000Y-76540000D02*
X160180000Y-75741384D01*
X158747416Y-74308800D02*
X157908800Y-74308800D01*
X161190000Y-77550000D02*
X160180000Y-76540000D01*
X157908800Y-74308800D02*
X155400000Y-71800000D01*
X158769309Y-74330692D02*
X158747416Y-74308800D01*
X160180000Y-75741384D02*
X158769309Y-74330692D01*
%TO.N,/ADC_IN2+*%
X156182130Y-75423000D02*
X158343000Y-75423000D01*
X158343000Y-75423000D02*
X159054800Y-76134800D01*
X159054800Y-76134800D02*
X159054800Y-83034800D01*
X159054800Y-83034800D02*
X161190000Y-85170000D01*
X155400000Y-76205130D02*
X156182130Y-75423000D01*
X155400000Y-76862500D02*
X155400000Y-76205130D01*
%TO.N,/ADC_IN4-*%
X158000000Y-71137500D02*
X158000000Y-70775000D01*
X159332500Y-72470000D02*
X161190000Y-72470000D01*
X158000000Y-71137500D02*
X159332500Y-72470000D01*
%TO.N,/ADC_IN2-*%
X159450000Y-80890000D02*
X161190000Y-82630000D01*
X154100000Y-76150000D02*
X155228000Y-75022000D01*
X155228000Y-75022000D02*
X158452000Y-75022000D01*
X158452000Y-75022000D02*
X159450000Y-76020000D01*
X159450000Y-76020000D02*
X159450000Y-80890000D01*
X154100000Y-76862500D02*
X154100000Y-76150000D01*
%TO.N,/ADC_IN4+*%
X159952924Y-75010000D02*
X161190000Y-75010000D01*
X159125906Y-74182981D02*
X159952924Y-75010000D01*
X156700000Y-71137500D02*
X156700000Y-71800000D01*
X156700000Y-71765738D02*
X156700000Y-71137500D01*
X159125906Y-74182976D02*
X159125906Y-74182981D01*
X157622109Y-72679184D02*
X157613446Y-72679184D01*
X158990816Y-74047891D02*
X159125906Y-74182976D01*
X157613446Y-72679184D02*
X156700000Y-71765738D01*
X157622109Y-72679184D02*
X158990816Y-74047891D01*
%TO.N,/ADC_IN1-*%
X158699200Y-83189200D02*
X159610000Y-84100000D01*
X158257035Y-75844600D02*
X158260338Y-75844600D01*
X158699200Y-76286765D02*
X158699200Y-83189200D01*
X159610000Y-84100000D02*
X159610000Y-86130000D01*
X156700000Y-76862500D02*
X156700000Y-76050000D01*
X158480400Y-76067965D02*
X158699200Y-76286765D01*
X158260338Y-75844600D02*
X158480400Y-76064662D01*
X156700000Y-76050000D02*
X156926000Y-75824000D01*
X158480400Y-76064662D02*
X158480400Y-76067965D01*
X158236435Y-75824000D02*
X158257035Y-75844600D01*
X156926000Y-75824000D02*
X158236435Y-75824000D01*
X159610000Y-86130000D02*
X161190000Y-87710000D01*
%TO.N,/ADC_IN1+*%
X159250000Y-88310000D02*
X159250000Y-84244308D01*
X159250000Y-84244308D02*
X158343600Y-83337908D01*
X158343600Y-83337908D02*
X158343600Y-77206100D01*
X161190000Y-90250000D02*
X159250000Y-88310000D01*
X158343600Y-77206100D02*
X158000000Y-76862500D01*
%TO.N,Net-(U1-DOUT)*%
X152150000Y-75197838D02*
X152150000Y-71137500D01*
X152265000Y-84410777D02*
X152189223Y-84410777D01*
X151800000Y-84800000D02*
X151800000Y-87852300D01*
X151800000Y-88052700D02*
X151699800Y-87952500D01*
X151800000Y-87852300D02*
X151699800Y-87952500D01*
X151699800Y-89330600D02*
X151993600Y-89624400D01*
X152235001Y-75282839D02*
X152150000Y-75197838D01*
X151699800Y-87952500D02*
X151699800Y-89330600D01*
X152189223Y-84410777D02*
X151800000Y-84800000D01*
%TD*%
M02*
