%TF.GenerationSoftware,KiCad,Pcbnew,9.0.9-9.0.9~ubuntu24.04.1*%
%TF.CreationDate,2026-06-26T16:54:57-04:00*%
%TF.ProjectId,WB_Breakout,57425f42-7265-4616-9b6f-75742e6b6963,rev?*%
%TF.SameCoordinates,Original*%
%TF.FileFunction,Paste,Top*%
%TF.FilePolarity,Positive*%
%FSLAX46Y46*%
G04 Gerber Fmt 4.6, Leading zero omitted, Abs format (unit mm)*
G04 Created by KiCad (PCBNEW 9.0.9-9.0.9~ubuntu24.04.1) date 2026-06-26 16:54:57*
%MOMM*%
%LPD*%
G01*
G04 APERTURE LIST*
G04 Aperture macros list*
%AMRoundRect*
0 Rectangle with rounded corners*
0 $1 Rounding radius*
0 $2 $3 $4 $5 $6 $7 $8 $9 X,Y pos of 4 corners*
0 Add a 4 corners polygon primitive as box body*
4,1,4,$2,$3,$4,$5,$6,$7,$8,$9,$2,$3,0*
0 Add four circle primitives for the rounded corners*
1,1,$1+$1,$2,$3*
1,1,$1+$1,$4,$5*
1,1,$1+$1,$6,$7*
1,1,$1+$1,$8,$9*
0 Add four rect primitives between the rounded corners*
20,1,$1+$1,$2,$3,$4,$5,0*
20,1,$1+$1,$4,$5,$6,$7,0*
20,1,$1+$1,$6,$7,$8,$9,0*
20,1,$1+$1,$8,$9,$2,$3,0*%
G04 Aperture macros list end*
%ADD10RoundRect,0.200000X0.275000X-0.200000X0.275000X0.200000X-0.275000X0.200000X-0.275000X-0.200000X0*%
%ADD11RoundRect,0.225000X-0.225000X-0.250000X0.225000X-0.250000X0.225000X0.250000X-0.225000X0.250000X0*%
%ADD12RoundRect,0.225000X0.250000X-0.225000X0.250000X0.225000X-0.250000X0.225000X-0.250000X-0.225000X0*%
%ADD13RoundRect,0.100000X0.100000X-0.637500X0.100000X0.637500X-0.100000X0.637500X-0.100000X-0.637500X0*%
%ADD14RoundRect,0.200000X-0.275000X0.200000X-0.275000X-0.200000X0.275000X-0.200000X0.275000X0.200000X0*%
%ADD15RoundRect,0.200000X0.200000X0.275000X-0.200000X0.275000X-0.200000X-0.275000X0.200000X-0.275000X0*%
%ADD16RoundRect,0.225000X-0.250000X0.225000X-0.250000X-0.225000X0.250000X-0.225000X0.250000X0.225000X0*%
%ADD17RoundRect,0.200000X-0.200000X-0.275000X0.200000X-0.275000X0.200000X0.275000X-0.200000X0.275000X0*%
G04 APERTURE END LIST*
D10*
%TO.C,R32*%
X155500000Y-80525000D03*
X155500000Y-78875000D03*
%TD*%
D11*
%TO.C,C4*%
X145224200Y-120091200D03*
X146774200Y-120091200D03*
%TD*%
D10*
%TO.C,R30*%
X152349200Y-96012000D03*
X152349200Y-94362000D03*
%TD*%
D12*
%TO.C,C2*%
X150520400Y-91351400D03*
X150520400Y-89801400D03*
%TD*%
D10*
%TO.C,R40*%
X157210000Y-80565000D03*
X157210000Y-78915000D03*
%TD*%
D11*
%TO.C,C3*%
X150189600Y-105714800D03*
X151739600Y-105714800D03*
%TD*%
D13*
%TO.C,U3*%
X149675000Y-103825000D03*
X150325000Y-103825000D03*
X150975000Y-103825000D03*
X151625000Y-103825000D03*
X152275000Y-103825000D03*
X152925000Y-103825000D03*
X153575000Y-103825000D03*
X154225000Y-103825000D03*
X154875000Y-103825000D03*
X155525000Y-103825000D03*
X156175000Y-103825000D03*
X156825000Y-103825000D03*
X156825000Y-98100000D03*
X156175000Y-98100000D03*
X155525000Y-98100000D03*
X154875000Y-98100000D03*
X154225000Y-98100000D03*
X153575000Y-98100000D03*
X152925000Y-98100000D03*
X152275000Y-98100000D03*
X151625000Y-98100000D03*
X150975000Y-98100000D03*
X150325000Y-98100000D03*
X149675000Y-98100000D03*
%TD*%
D10*
%TO.C,R42*%
X158250000Y-103650000D03*
X158250000Y-102000000D03*
%TD*%
D13*
%TO.C,U1*%
X150850000Y-76862500D03*
X151500000Y-76862500D03*
X152150000Y-76862500D03*
X152800000Y-76862500D03*
X153450000Y-76862500D03*
X154100000Y-76862500D03*
X154750000Y-76862500D03*
X155400000Y-76862500D03*
X156050000Y-76862500D03*
X156700000Y-76862500D03*
X157350000Y-76862500D03*
X158000000Y-76862500D03*
X158000000Y-71137500D03*
X157350000Y-71137500D03*
X156700000Y-71137500D03*
X156050000Y-71137500D03*
X155400000Y-71137500D03*
X154750000Y-71137500D03*
X154100000Y-71137500D03*
X153450000Y-71137500D03*
X152800000Y-71137500D03*
X152150000Y-71137500D03*
X151500000Y-71137500D03*
X150850000Y-71137500D03*
%TD*%
D10*
%TO.C,R2*%
X148300000Y-101800000D03*
X148300000Y-100150000D03*
%TD*%
D14*
%TO.C,R19*%
X153466800Y-89624400D03*
X153466800Y-91274400D03*
%TD*%
D13*
%TO.C,U4*%
X146250000Y-118062500D03*
X146900000Y-118062500D03*
X147550000Y-118062500D03*
X148200000Y-118062500D03*
X148850000Y-118062500D03*
X149500000Y-118062500D03*
X150150000Y-118062500D03*
X150800000Y-118062500D03*
X151450000Y-118062500D03*
X152100000Y-118062500D03*
X152750000Y-118062500D03*
X153400000Y-118062500D03*
X153400000Y-112337500D03*
X152750000Y-112337500D03*
X152100000Y-112337500D03*
X151450000Y-112337500D03*
X150800000Y-112337500D03*
X150150000Y-112337500D03*
X149500000Y-112337500D03*
X148850000Y-112337500D03*
X148200000Y-112337500D03*
X147550000Y-112337500D03*
X146900000Y-112337500D03*
X146250000Y-112337500D03*
%TD*%
D14*
%TO.C,R3*%
X151993600Y-89624400D03*
X151993600Y-91274400D03*
%TD*%
D15*
%TO.C,R21*%
X149775000Y-119850000D03*
X148125000Y-119850000D03*
%TD*%
D16*
%TO.C,C1*%
X149453600Y-72973600D03*
X149453600Y-74523600D03*
%TD*%
D10*
%TO.C,R1*%
X149479000Y-78676000D03*
X149479000Y-77026000D03*
%TD*%
%TO.C,R31*%
X153924000Y-96215200D03*
X153924000Y-94565200D03*
%TD*%
%TO.C,R25*%
X148900000Y-110400000D03*
X148900000Y-108750000D03*
%TD*%
%TO.C,R27*%
X152100000Y-110650000D03*
X152100000Y-109000000D03*
%TD*%
D14*
%TO.C,R23*%
X154965400Y-89637600D03*
X154965400Y-91287600D03*
%TD*%
%TO.C,R38*%
X153225000Y-105500000D03*
X153225000Y-107150000D03*
%TD*%
D10*
%TO.C,R29*%
X152100000Y-80525000D03*
X152100000Y-78875000D03*
%TD*%
%TO.C,R35*%
X156300000Y-117625000D03*
X156300000Y-115975000D03*
%TD*%
D14*
%TO.C,R34*%
X158160000Y-97645000D03*
X158160000Y-99295000D03*
%TD*%
%TO.C,R39*%
X155025000Y-105900000D03*
X155025000Y-107550000D03*
%TD*%
%TO.C,R41*%
X156625000Y-105975000D03*
X156625000Y-107625000D03*
%TD*%
D10*
%TO.C,R36*%
X154725000Y-116775000D03*
X154725000Y-115125000D03*
%TD*%
%TO.C,R24*%
X150500000Y-110650000D03*
X150500000Y-109000000D03*
%TD*%
D17*
%TO.C,R20*%
X155325000Y-119850000D03*
X156975000Y-119850000D03*
%TD*%
D10*
%TO.C,R37*%
X153600000Y-80500000D03*
X153600000Y-78850000D03*
%TD*%
D14*
%TO.C,R22*%
X156489400Y-89649800D03*
X156489400Y-91299800D03*
%TD*%
%TO.C,R26*%
X158013400Y-89624400D03*
X158013400Y-91274400D03*
%TD*%
D10*
%TO.C,R33*%
X155498800Y-96379800D03*
X155498800Y-94729800D03*
%TD*%
D13*
%TO.C,U2*%
X150399800Y-87952500D03*
X151049800Y-87952500D03*
X151699800Y-87952500D03*
X152349800Y-87952500D03*
X152999800Y-87952500D03*
X153649800Y-87952500D03*
X154299800Y-87952500D03*
X154949800Y-87952500D03*
X155599800Y-87952500D03*
X156249800Y-87952500D03*
X156899800Y-87952500D03*
X157549800Y-87952500D03*
X157549800Y-82227500D03*
X156899800Y-82227500D03*
X156249800Y-82227500D03*
X155599800Y-82227500D03*
X154949800Y-82227500D03*
X154299800Y-82227500D03*
X153649800Y-82227500D03*
X152999800Y-82227500D03*
X152349800Y-82227500D03*
X151699800Y-82227500D03*
X151049800Y-82227500D03*
X150399800Y-82227500D03*
%TD*%
D14*
%TO.C,R28*%
X154750000Y-112100000D03*
X154750000Y-113750000D03*
%TD*%
M02*
