%TF.GenerationSoftware,KiCad,Pcbnew,9.0.9-9.0.9~ubuntu24.04.1*%
%TF.CreationDate,2026-06-26T16:54:57-04:00*%
%TF.ProjectId,WB_Breakout,57425f42-7265-4616-9b6f-75742e6b6963,rev?*%
%TF.SameCoordinates,Original*%
%TF.FileFunction,Copper,L2,Bot*%
%TF.FilePolarity,Positive*%
%FSLAX46Y46*%
G04 Gerber Fmt 4.6, Leading zero omitted, Abs format (unit mm)*
G04 Created by KiCad (PCBNEW 9.0.9-9.0.9~ubuntu24.04.1) date 2026-06-26 16:54:57*
%MOMM*%
%LPD*%
G01*
G04 APERTURE LIST*
%TA.AperFunction,ComponentPad*%
%ADD10R,1.700000X1.700000*%
%TD*%
%TA.AperFunction,ComponentPad*%
%ADD11C,1.700000*%
%TD*%
%TA.AperFunction,ViaPad*%
%ADD12C,0.609600*%
%TD*%
%TA.AperFunction,Conductor*%
%ADD13C,0.152400*%
%TD*%
%TA.AperFunction,Conductor*%
%ADD14C,0.254000*%
%TD*%
G04 APERTURE END LIST*
D10*
%TO.P,J4,1,Pin_1*%
%TO.N,/2.5V*%
X161190000Y-92840000D03*
D11*
%TO.P,J4,2,Pin_2*%
%TO.N,/ADC_IN1+*%
X161190000Y-90300000D03*
%TO.P,J4,3,Pin_3*%
%TO.N,/ADC_IN1-*%
X161190000Y-87760000D03*
%TO.P,J4,4,Pin_4*%
%TO.N,/ADC_IN2+*%
X161190000Y-85220000D03*
%TO.P,J4,5,Pin_5*%
%TO.N,/ADC_IN2-*%
X161190000Y-82680000D03*
%TO.P,J4,6,Pin_6*%
%TO.N,/ADC_IN3+*%
X161190000Y-80140000D03*
%TO.P,J4,7,Pin_7*%
%TO.N,/ADC_IN3-*%
X161190000Y-77600000D03*
%TO.P,J4,8,Pin_8*%
%TO.N,/ADC_IN4+*%
X161190000Y-75060000D03*
%TO.P,J4,9,Pin_9*%
%TO.N,/ADC_IN4-*%
X161190000Y-72520000D03*
%TO.P,J4,10,Pin_10*%
%TO.N,GND*%
X161190000Y-69980000D03*
%TD*%
D10*
%TO.P,J2,1,Pin_1*%
%TO.N,/VDD*%
X145923000Y-87731600D03*
D11*
%TO.P,J2,2,Pin_2*%
%TO.N,/SCLK*%
X145923000Y-85191600D03*
%TO.P,J2,3,Pin_3*%
%TO.N,/RESET*%
X145923000Y-82651600D03*
%TO.P,J2,4,Pin_4*%
%TO.N,/CS*%
X145923000Y-80111600D03*
%TO.P,J2,5,Pin_5*%
%TO.N,/COPI*%
X145923000Y-77571600D03*
%TD*%
D10*
%TO.P,J1,1,Pin_1*%
%TO.N,/HB_OUT4-*%
X161250000Y-120630000D03*
D11*
%TO.P,J1,2,Pin_2*%
%TO.N,/HB_OUT4+*%
X161250000Y-118090000D03*
%TO.P,J1,3,Pin_3*%
%TO.N,/HB_OUT3-*%
X161250000Y-115550000D03*
%TO.P,J1,4,Pin_4*%
%TO.N,/HB_OUT3+*%
X161250000Y-113010000D03*
%TO.P,J1,5,Pin_5*%
%TO.N,/HB_OUT2-*%
X161250000Y-110470000D03*
%TO.P,J1,6,Pin_6*%
%TO.N,/HB_OUT2+*%
X161250000Y-107930000D03*
%TO.P,J1,7,Pin_7*%
%TO.N,/HB_OUT1-*%
X161250000Y-105390000D03*
%TO.P,J1,8,Pin_8*%
%TO.N,/HB_OUT1+*%
X161250000Y-102850000D03*
%TD*%
D12*
%TO.N,Net-(U2-DOUT)*%
X150114000Y-78486000D03*
X150975001Y-102924186D03*
X151390800Y-83533400D03*
%TO.N,Net-(U3-DOUT)*%
X147549999Y-117161686D03*
X150975000Y-102048251D03*
%TO.N,GND*%
X148200001Y-113238314D03*
X148900000Y-108200000D03*
X155600400Y-95300800D03*
X156350000Y-116500000D03*
X150289800Y-91871800D03*
X152552400Y-94945200D03*
X158160000Y-99900000D03*
X149504400Y-72390000D03*
X154138600Y-95199200D03*
X156700000Y-108200000D03*
X150400000Y-108350000D03*
X150677477Y-106268923D03*
X155125592Y-108124408D03*
X154725000Y-114300000D03*
X152629202Y-86446521D03*
X151624999Y-99000814D03*
X153464800Y-107700000D03*
X147929600Y-120497600D03*
X152799999Y-72038314D03*
X145542000Y-119430800D03*
X156450000Y-119750000D03*
X151908199Y-108445319D03*
%TO.N,/HB_OUT1-*%
X154720992Y-79805192D03*
X151140079Y-80139600D03*
%TO.N,/HB_OUT1+*%
X156334227Y-78237873D03*
X150533542Y-80723800D03*
%TO.N,/RESET*%
X151500001Y-70236686D03*
X146899999Y-113238314D03*
X150301732Y-97157062D03*
X150697569Y-83957756D03*
%TO.N,/VDD*%
X146050000Y-89382500D03*
X148272252Y-93653932D03*
X150191817Y-90369583D03*
X146046000Y-76141998D03*
X148956608Y-75017208D03*
%TO.N,/SCLK*%
X150036908Y-76136908D03*
X148815800Y-104407247D03*
X145939750Y-117810250D03*
X150150000Y-87950000D03*
%TO.N,/CS*%
X146219228Y-111515001D03*
X150792000Y-71900000D03*
X149617000Y-98100000D03*
X150155652Y-83351972D03*
%TO.N,/COPI*%
X148713226Y-73748600D03*
%TO.N,Net-(U1-DOUT)*%
X152235001Y-75282839D03*
X152265000Y-84410777D03*
%TD*%
D13*
%TO.N,Net-(U2-DOUT)*%
X151300000Y-84547984D02*
X151993600Y-85241584D01*
X149800633Y-81613947D02*
X149809639Y-81613947D01*
X151300000Y-83624200D02*
X151300000Y-84547984D01*
X151967200Y-94702802D02*
X151967200Y-95187598D01*
X151993600Y-94676402D02*
X151967200Y-94702802D01*
X151300000Y-97000000D02*
X150658332Y-97641668D01*
X151300000Y-96339812D02*
X151300000Y-97000000D01*
X151967200Y-95187598D02*
X151993600Y-95213998D01*
X149591742Y-81405056D02*
X149800633Y-81613947D01*
X149917534Y-78682466D02*
X149917534Y-78962376D01*
X151993600Y-95646212D02*
X151300000Y-96339812D01*
X149809639Y-81613947D02*
X151390800Y-83195108D01*
X150250000Y-98954308D02*
X150250000Y-102199185D01*
X150658332Y-98545976D02*
X150250000Y-98954308D01*
X149917534Y-78962376D02*
X149591742Y-79288168D01*
X151993600Y-85241584D02*
X151993600Y-94676402D01*
X151993600Y-95213998D02*
X151993600Y-95646212D01*
X151390800Y-83533400D02*
X151300000Y-83624200D01*
X150658332Y-97641668D02*
X150658332Y-98545976D01*
X150250000Y-102199185D02*
X150975001Y-102924186D01*
X150114000Y-78486000D02*
X149917534Y-78682466D01*
X151390800Y-83195108D02*
X151390800Y-83533400D01*
X149591742Y-79288168D02*
X149591742Y-81405056D01*
%TO.N,Net-(U3-DOUT)*%
X151560201Y-103709799D02*
X147549999Y-107720001D01*
X150975000Y-102048251D02*
X151560201Y-102633452D01*
X147549999Y-107720001D02*
X147549999Y-117161686D01*
X151560201Y-102633452D02*
X151560201Y-103709799D01*
%TO.N,/HB_OUT1-*%
X151474487Y-79805192D02*
X151140079Y-80139600D01*
X154720992Y-79805192D02*
X151474487Y-79805192D01*
%TO.N,/HB_OUT1+*%
X150533542Y-79918539D02*
X151252081Y-79200000D01*
X155372100Y-79200000D02*
X156334227Y-78237873D01*
X151252081Y-79200000D02*
X155372100Y-79200000D01*
X150533542Y-80723800D02*
X150533542Y-79918539D01*
%TO.N,/RESET*%
X148780410Y-81098032D02*
X148780410Y-78723898D01*
X150799800Y-83117422D02*
X148780410Y-81098032D01*
X150650000Y-84402292D02*
X151587200Y-85339492D01*
X146715291Y-78680400D02*
X146719600Y-78680400D01*
X150697569Y-83837484D02*
X150799800Y-83735253D01*
X149800000Y-104958308D02*
X146899999Y-107858309D01*
X147330200Y-77469800D02*
X150200000Y-74600000D01*
X149800000Y-98900000D02*
X149800000Y-104958308D01*
X150200000Y-70901902D02*
X150865216Y-70236686D01*
X146719600Y-78680400D02*
X147330200Y-78069800D01*
X150301732Y-96833772D02*
X150301732Y-97157062D01*
X145700000Y-82580000D02*
X144780000Y-81660000D01*
X150200000Y-74600000D02*
X150200000Y-70901902D01*
X150301732Y-98398268D02*
X149800000Y-98900000D01*
X150697569Y-83957756D02*
X150697569Y-83837484D01*
X150650000Y-84005325D02*
X150650000Y-84402292D01*
X150865216Y-70236686D02*
X151500001Y-70236686D01*
X148780410Y-78723898D02*
X151148600Y-76355709D01*
X144780000Y-79603600D02*
X145433600Y-78950000D01*
X151148600Y-76355709D02*
X151148600Y-72389713D01*
X151587200Y-85339492D02*
X151587200Y-95548304D01*
X146445692Y-78950000D02*
X146715291Y-78680400D01*
X150697569Y-83957756D02*
X150650000Y-84005325D01*
X151148600Y-72389713D02*
X151500001Y-72038312D01*
X145433600Y-78950000D02*
X146445692Y-78950000D01*
X147330200Y-78069800D02*
X147330200Y-77469800D01*
X150301732Y-97157062D02*
X150301732Y-98398268D01*
X151500001Y-72038312D02*
X151500001Y-70236686D01*
X151587200Y-95548304D02*
X150301732Y-96833772D01*
X144780000Y-81660000D02*
X144780000Y-79603600D01*
X150799800Y-83735253D02*
X150799800Y-83117422D01*
X146899999Y-107858309D02*
X146899999Y-113238314D01*
D14*
%TO.N,/VDD*%
X147037083Y-92418763D02*
X148272252Y-93653932D01*
X148956608Y-75017208D02*
X148513799Y-75460017D01*
X147037083Y-90369583D02*
X147037083Y-92418763D01*
X148513799Y-75460017D02*
X146688383Y-75460017D01*
X146046000Y-76102400D02*
X146046000Y-76141998D01*
X146688383Y-75460017D02*
X146046000Y-76102400D01*
X146050000Y-89382500D02*
X147037083Y-90369583D01*
X150191817Y-90369583D02*
X147037083Y-90369583D01*
D13*
%TO.N,/SCLK*%
X145700000Y-85120000D02*
X146000000Y-85120000D01*
X150874000Y-88523900D02*
X150874000Y-95252888D01*
X150530200Y-85291109D02*
X148315691Y-83076600D01*
X148043400Y-81743400D02*
X148043400Y-78130416D01*
X148043400Y-83076600D02*
X148315691Y-83076600D01*
X150150000Y-87950000D02*
X150305100Y-87950000D01*
X150530200Y-87724900D02*
X150530200Y-85291109D01*
X150305100Y-87950000D02*
X150530200Y-87724900D01*
X145606800Y-117477300D02*
X145606800Y-108142892D01*
X149000000Y-97126888D02*
X149000000Y-104223047D01*
X145939750Y-117810250D02*
X145606800Y-117477300D01*
X148315691Y-83072291D02*
X148043400Y-82800000D01*
X148043400Y-78130416D02*
X150036908Y-76136908D01*
X150300100Y-87950000D02*
X150874000Y-88523900D01*
X150874000Y-95252888D02*
X149000000Y-97126888D01*
X150150000Y-87950000D02*
X150300100Y-87950000D01*
X148815800Y-104933892D02*
X148815800Y-104407247D01*
X146000000Y-85120000D02*
X148043400Y-83076600D01*
X148315691Y-83076600D02*
X148315691Y-83072291D01*
X149000000Y-104223047D02*
X148815800Y-104407247D01*
X148043400Y-82800000D02*
X148043400Y-81743400D01*
X145606800Y-108142892D02*
X148815800Y-104933892D01*
X148043400Y-83076600D02*
X148043400Y-82800000D01*
%TO.N,/CS*%
X150155652Y-83351972D02*
X150070226Y-83437398D01*
X150792000Y-75500000D02*
X150792000Y-71900000D01*
X150035409Y-83351972D02*
X150000000Y-83387381D01*
X146863000Y-79037000D02*
X145860000Y-80040000D01*
X150155652Y-83351972D02*
X150155652Y-83315531D01*
X151230600Y-95400596D02*
X149700000Y-96931196D01*
X146192000Y-108062000D02*
X149400000Y-104854000D01*
X147686800Y-78217509D02*
X146867308Y-79037000D01*
X149700000Y-98017000D02*
X149617000Y-98100000D01*
X150070226Y-83437398D02*
X150070226Y-84326826D01*
X146867308Y-79037000D02*
X146863000Y-79037000D01*
X150792000Y-76208000D02*
X150792000Y-75500000D01*
X150792000Y-75500000D02*
X149846218Y-75500000D01*
X151230600Y-85487200D02*
X151230600Y-95400596D01*
X145860000Y-80040000D02*
X145700000Y-80040000D01*
X146192000Y-111487773D02*
X146192000Y-108062000D01*
X150070226Y-84326826D02*
X151230600Y-85487200D01*
X149700000Y-96931196D02*
X149700000Y-98017000D01*
X148400000Y-81559879D02*
X148400000Y-78600000D01*
X149400000Y-98317000D02*
X149617000Y-98100000D01*
X150155652Y-83351972D02*
X150035409Y-83351972D01*
X148400000Y-78600000D02*
X150792000Y-76208000D01*
X146219228Y-111515001D02*
X146192000Y-111487773D01*
X149400000Y-104854000D02*
X149400000Y-98317000D01*
X150155652Y-83315531D02*
X148400000Y-81559879D01*
X149846218Y-75500000D02*
X147686800Y-77659418D01*
X147686800Y-77659418D02*
X147686800Y-78217509D01*
%TO.N,/COPI*%
X148713226Y-73748600D02*
X148676253Y-73785573D01*
X147574827Y-73785573D02*
X145440400Y-75920000D01*
X145440400Y-77440400D02*
X145571600Y-77571600D01*
X145571600Y-77571600D02*
X145923000Y-77571600D01*
X145440400Y-75920000D02*
X145440400Y-77440400D01*
X148676253Y-73785573D02*
X147574827Y-73785573D01*
%TO.N,Net-(U1-DOUT)*%
X149948342Y-79951658D02*
X149948342Y-81257347D01*
X152215800Y-77684200D02*
X149948342Y-79951658D01*
X151976000Y-84098967D02*
X152265000Y-84387967D01*
X149957347Y-81257347D02*
X151976000Y-83276000D01*
X152235001Y-75282839D02*
X152215800Y-75302040D01*
X152215800Y-75302040D02*
X152215800Y-77684200D01*
X152265000Y-84387967D02*
X152265000Y-84410777D01*
X149948342Y-81257347D02*
X149957347Y-81257347D01*
X151976000Y-83276000D02*
X151976000Y-84098967D01*
%TD*%
%TA.AperFunction,Conductor*%
%TO.N,GND*%
G36*
X163189718Y-68294354D02*
G01*
X163235541Y-68347099D01*
X163246813Y-68398757D01*
X163246184Y-122355501D01*
X163226499Y-122422541D01*
X163173694Y-122468295D01*
X163122184Y-122479500D01*
X144499500Y-122479500D01*
X144432461Y-122459815D01*
X144386706Y-122407011D01*
X144375500Y-122355500D01*
X144375500Y-88831010D01*
X144395185Y-88763971D01*
X144447989Y-88718216D01*
X144517147Y-88708272D01*
X144580703Y-88737297D01*
X144615682Y-88787678D01*
X144629201Y-88823926D01*
X144629206Y-88823935D01*
X144715452Y-88939144D01*
X144715455Y-88939147D01*
X144830664Y-89025393D01*
X144830671Y-89025397D01*
X144857255Y-89035312D01*
X144965517Y-89075691D01*
X145025127Y-89082100D01*
X145137583Y-89082099D01*
X145204621Y-89101783D01*
X145250376Y-89154587D01*
X145260320Y-89223745D01*
X145259199Y-89230290D01*
X145244700Y-89303180D01*
X145244700Y-89461819D01*
X145275644Y-89617389D01*
X145275647Y-89617398D01*
X145336348Y-89763946D01*
X145336355Y-89763959D01*
X145424481Y-89895848D01*
X145424484Y-89895852D01*
X145536647Y-90008015D01*
X145536651Y-90008018D01*
X145668540Y-90096144D01*
X145668553Y-90096151D01*
X145756480Y-90132571D01*
X145815103Y-90156853D01*
X145930294Y-90179765D01*
X145992201Y-90212148D01*
X145993781Y-90213700D01*
X146373264Y-90593183D01*
X146406749Y-90654506D01*
X146409583Y-90680864D01*
X146409583Y-92480570D01*
X146433695Y-92601790D01*
X146433697Y-92601798D01*
X146467145Y-92682548D01*
X146480999Y-92715994D01*
X146481001Y-92715998D01*
X146498008Y-92741451D01*
X146498010Y-92741454D01*
X146498014Y-92741459D01*
X146536671Y-92799313D01*
X146549673Y-92818773D01*
X146549674Y-92818774D01*
X147441050Y-93710149D01*
X147474535Y-93771472D01*
X147474986Y-93773639D01*
X147497896Y-93888821D01*
X147497899Y-93888830D01*
X147558600Y-94035378D01*
X147558607Y-94035391D01*
X147646733Y-94167280D01*
X147646736Y-94167284D01*
X147758899Y-94279447D01*
X147758903Y-94279450D01*
X147890792Y-94367576D01*
X147890805Y-94367583D01*
X148000716Y-94413108D01*
X148037355Y-94428285D01*
X148037357Y-94428285D01*
X148037362Y-94428287D01*
X148192932Y-94459231D01*
X148192936Y-94459232D01*
X148192937Y-94459232D01*
X148351568Y-94459232D01*
X148351569Y-94459231D01*
X148403427Y-94448916D01*
X148507141Y-94428287D01*
X148507144Y-94428285D01*
X148507149Y-94428285D01*
X148653705Y-94367580D01*
X148785601Y-94279450D01*
X148897770Y-94167281D01*
X148985900Y-94035385D01*
X149046605Y-93888829D01*
X149077552Y-93733247D01*
X149077552Y-93574617D01*
X149077276Y-93573230D01*
X149046607Y-93419042D01*
X149046604Y-93419033D01*
X148985903Y-93272485D01*
X148985896Y-93272472D01*
X148897770Y-93140583D01*
X148897767Y-93140579D01*
X148785604Y-93028416D01*
X148785600Y-93028413D01*
X148653711Y-92940287D01*
X148653698Y-92940280D01*
X148507150Y-92879579D01*
X148507141Y-92879576D01*
X148391959Y-92856666D01*
X148330048Y-92824281D01*
X148328469Y-92822730D01*
X147700902Y-92195163D01*
X147667417Y-92133840D01*
X147664583Y-92107482D01*
X147664583Y-91121083D01*
X147684268Y-91054044D01*
X147737072Y-91008289D01*
X147788583Y-90997083D01*
X149643819Y-90997083D01*
X149710858Y-91016768D01*
X149712709Y-91017981D01*
X149810353Y-91083224D01*
X149810356Y-91083225D01*
X149810364Y-91083231D01*
X149956920Y-91143936D01*
X149956922Y-91143936D01*
X149956927Y-91143938D01*
X150112497Y-91174882D01*
X150112501Y-91174883D01*
X150173300Y-91174883D01*
X150240339Y-91194568D01*
X150286094Y-91247372D01*
X150297300Y-91298883D01*
X150297300Y-94962649D01*
X150277615Y-95029688D01*
X150260981Y-95050330D01*
X148538527Y-96772783D01*
X148538522Y-96772789D01*
X148462602Y-96904286D01*
X148462602Y-96904287D01*
X148462601Y-96904289D01*
X148462601Y-96904290D01*
X148423300Y-97050964D01*
X148423300Y-103634700D01*
X148403615Y-103701739D01*
X148368191Y-103737802D01*
X148302451Y-103781728D01*
X148302447Y-103781731D01*
X148190284Y-103893894D01*
X148190281Y-103893898D01*
X148102155Y-104025787D01*
X148102148Y-104025800D01*
X148041447Y-104172348D01*
X148041444Y-104172357D01*
X148010500Y-104327927D01*
X148010500Y-104486566D01*
X148041444Y-104642136D01*
X148041447Y-104642145D01*
X148083116Y-104742744D01*
X148090585Y-104812214D01*
X148059309Y-104874693D01*
X148056236Y-104877877D01*
X145252698Y-107681417D01*
X145145327Y-107788787D01*
X145145322Y-107788793D01*
X145069402Y-107920290D01*
X145069402Y-107920291D01*
X145069401Y-107920293D01*
X145069401Y-107920294D01*
X145030100Y-108066968D01*
X145030100Y-117401376D01*
X145030100Y-117553224D01*
X145061987Y-117672229D01*
X145069402Y-117699900D01*
X145069403Y-117699903D01*
X145117836Y-117783789D01*
X145134450Y-117845790D01*
X145134450Y-117889569D01*
X145165394Y-118045139D01*
X145165397Y-118045148D01*
X145226098Y-118191696D01*
X145226105Y-118191709D01*
X145314231Y-118323598D01*
X145314234Y-118323602D01*
X145426397Y-118435765D01*
X145426401Y-118435768D01*
X145558290Y-118523894D01*
X145558303Y-118523901D01*
X145668214Y-118569426D01*
X145704853Y-118584603D01*
X145704855Y-118584603D01*
X145704860Y-118584605D01*
X145860430Y-118615549D01*
X145860434Y-118615550D01*
X145860435Y-118615550D01*
X146019066Y-118615550D01*
X146019067Y-118615549D01*
X146070925Y-118605234D01*
X146174639Y-118584605D01*
X146174642Y-118584603D01*
X146174647Y-118584603D01*
X146321203Y-118523898D01*
X146453099Y-118435768D01*
X146565268Y-118323599D01*
X146653398Y-118191703D01*
X146714103Y-118045147D01*
X146745050Y-117889565D01*
X146745050Y-117794967D01*
X146764735Y-117727928D01*
X146817539Y-117682173D01*
X146886697Y-117672229D01*
X146950253Y-117701254D01*
X146956731Y-117707286D01*
X147036646Y-117787201D01*
X147036650Y-117787204D01*
X147168539Y-117875330D01*
X147168552Y-117875337D01*
X147278463Y-117920862D01*
X147315102Y-117936039D01*
X147315104Y-117936039D01*
X147315109Y-117936041D01*
X147470679Y-117966985D01*
X147470683Y-117966986D01*
X147470684Y-117966986D01*
X147629315Y-117966986D01*
X147629316Y-117966985D01*
X147681174Y-117956670D01*
X147784888Y-117936041D01*
X147784891Y-117936039D01*
X147784896Y-117936039D01*
X147931452Y-117875334D01*
X148063348Y-117787204D01*
X148175517Y-117675035D01*
X148263647Y-117543139D01*
X148324352Y-117396583D01*
X148355299Y-117241001D01*
X148355299Y-117082371D01*
X148353091Y-117071270D01*
X148324354Y-116926796D01*
X148324351Y-116926787D01*
X148263650Y-116780239D01*
X148263643Y-116780226D01*
X148175517Y-116648337D01*
X148175514Y-116648333D01*
X148163018Y-116635837D01*
X148129533Y-116574514D01*
X148126699Y-116548156D01*
X148126699Y-108010240D01*
X148146384Y-107943201D01*
X148163018Y-107922559D01*
X149987761Y-106097816D01*
X152021676Y-104063901D01*
X152097600Y-103932397D01*
X152136901Y-103785723D01*
X152136901Y-103633875D01*
X152136901Y-102743713D01*
X159899500Y-102743713D01*
X159899500Y-102956286D01*
X159932753Y-103166239D01*
X159998444Y-103368414D01*
X160094951Y-103557820D01*
X160219890Y-103729786D01*
X160370213Y-103880109D01*
X160542182Y-104005050D01*
X160550946Y-104009516D01*
X160601742Y-104057491D01*
X160618536Y-104125312D01*
X160595998Y-104191447D01*
X160550946Y-104230484D01*
X160542182Y-104234949D01*
X160370213Y-104359890D01*
X160219890Y-104510213D01*
X160094951Y-104682179D01*
X159998444Y-104871585D01*
X159932753Y-105073760D01*
X159899500Y-105283713D01*
X159899500Y-105496286D01*
X159932753Y-105706239D01*
X159998444Y-105908414D01*
X160094951Y-106097820D01*
X160219890Y-106269786D01*
X160370213Y-106420109D01*
X160542182Y-106545050D01*
X160550946Y-106549516D01*
X160601742Y-106597491D01*
X160618536Y-106665312D01*
X160595998Y-106731447D01*
X160550946Y-106770484D01*
X160542182Y-106774949D01*
X160370213Y-106899890D01*
X160219890Y-107050213D01*
X160094951Y-107222179D01*
X159998444Y-107411585D01*
X159932753Y-107613760D01*
X159905032Y-107788787D01*
X159899500Y-107823713D01*
X159899500Y-108036287D01*
X159909534Y-108099644D01*
X159932753Y-108246239D01*
X159998444Y-108448414D01*
X160094951Y-108637820D01*
X160219890Y-108809786D01*
X160370213Y-108960109D01*
X160542182Y-109085050D01*
X160550946Y-109089516D01*
X160601742Y-109137491D01*
X160618536Y-109205312D01*
X160595998Y-109271447D01*
X160550946Y-109310484D01*
X160542182Y-109314949D01*
X160370213Y-109439890D01*
X160219890Y-109590213D01*
X160094951Y-109762179D01*
X159998444Y-109951585D01*
X159932753Y-110153760D01*
X159899500Y-110363713D01*
X159899500Y-110576286D01*
X159932753Y-110786239D01*
X159998444Y-110988414D01*
X160094951Y-111177820D01*
X160219890Y-111349786D01*
X160370213Y-111500109D01*
X160542182Y-111625050D01*
X160550946Y-111629516D01*
X160601742Y-111677491D01*
X160618536Y-111745312D01*
X160595998Y-111811447D01*
X160550946Y-111850484D01*
X160542182Y-111854949D01*
X160370213Y-111979890D01*
X160219890Y-112130213D01*
X160094951Y-112302179D01*
X159998444Y-112491585D01*
X159932753Y-112693760D01*
X159899500Y-112903713D01*
X159899500Y-113116286D01*
X159932753Y-113326239D01*
X159998444Y-113528414D01*
X160094951Y-113717820D01*
X160219890Y-113889786D01*
X160370213Y-114040109D01*
X160542182Y-114165050D01*
X160550946Y-114169516D01*
X160601742Y-114217491D01*
X160618536Y-114285312D01*
X160595998Y-114351447D01*
X160550946Y-114390484D01*
X160542182Y-114394949D01*
X160370213Y-114519890D01*
X160219890Y-114670213D01*
X160094951Y-114842179D01*
X159998444Y-115031585D01*
X159932753Y-115233760D01*
X159899500Y-115443713D01*
X159899500Y-115656286D01*
X159932753Y-115866239D01*
X159998444Y-116068414D01*
X160094951Y-116257820D01*
X160219890Y-116429786D01*
X160370213Y-116580109D01*
X160542182Y-116705050D01*
X160550946Y-116709516D01*
X160601742Y-116757491D01*
X160618536Y-116825312D01*
X160595998Y-116891447D01*
X160550946Y-116930484D01*
X160542182Y-116934949D01*
X160370213Y-117059890D01*
X160219890Y-117210213D01*
X160094951Y-117382179D01*
X159998444Y-117571585D01*
X159932753Y-117773760D01*
X159902149Y-117966985D01*
X159899500Y-117983713D01*
X159899500Y-118196287D01*
X159932754Y-118406243D01*
X159970981Y-118523894D01*
X159998444Y-118608414D01*
X160094951Y-118797820D01*
X160219890Y-118969786D01*
X160333430Y-119083326D01*
X160366915Y-119144649D01*
X160361931Y-119214341D01*
X160320059Y-119270274D01*
X160289083Y-119287189D01*
X160157669Y-119336203D01*
X160157664Y-119336206D01*
X160042455Y-119422452D01*
X160042452Y-119422455D01*
X159956206Y-119537664D01*
X159956202Y-119537671D01*
X159905908Y-119672517D01*
X159899501Y-119732116D01*
X159899501Y-119732123D01*
X159899500Y-119732135D01*
X159899500Y-121527870D01*
X159899501Y-121527876D01*
X159905908Y-121587483D01*
X159956202Y-121722328D01*
X159956206Y-121722335D01*
X160042452Y-121837544D01*
X160042455Y-121837547D01*
X160157664Y-121923793D01*
X160157671Y-121923797D01*
X160292517Y-121974091D01*
X160292516Y-121974091D01*
X160299444Y-121974835D01*
X160352127Y-121980500D01*
X162147872Y-121980499D01*
X162207483Y-121974091D01*
X162342331Y-121923796D01*
X162457546Y-121837546D01*
X162543796Y-121722331D01*
X162594091Y-121587483D01*
X162600500Y-121527873D01*
X162600499Y-119732128D01*
X162594091Y-119672517D01*
X162543796Y-119537669D01*
X162543795Y-119537668D01*
X162543793Y-119537664D01*
X162457547Y-119422455D01*
X162457544Y-119422452D01*
X162342335Y-119336206D01*
X162342328Y-119336202D01*
X162210917Y-119287189D01*
X162154983Y-119245318D01*
X162130566Y-119179853D01*
X162145418Y-119111580D01*
X162166563Y-119083332D01*
X162280104Y-118969792D01*
X162405051Y-118797816D01*
X162501557Y-118608412D01*
X162567246Y-118406243D01*
X162600500Y-118196287D01*
X162600500Y-117983713D01*
X162567246Y-117773757D01*
X162501557Y-117571588D01*
X162405051Y-117382184D01*
X162405049Y-117382181D01*
X162405048Y-117382179D01*
X162280109Y-117210213D01*
X162129786Y-117059890D01*
X161957820Y-116934951D01*
X161957115Y-116934591D01*
X161949054Y-116930485D01*
X161898259Y-116882512D01*
X161881463Y-116814692D01*
X161903999Y-116748556D01*
X161949054Y-116709515D01*
X161957816Y-116705051D01*
X162035877Y-116648337D01*
X162129786Y-116580109D01*
X162129788Y-116580106D01*
X162129792Y-116580104D01*
X162280104Y-116429792D01*
X162280106Y-116429788D01*
X162280109Y-116429786D01*
X162405048Y-116257820D01*
X162405047Y-116257820D01*
X162405051Y-116257816D01*
X162501557Y-116068412D01*
X162567246Y-115866243D01*
X162600500Y-115656287D01*
X162600500Y-115443713D01*
X162567246Y-115233757D01*
X162501557Y-115031588D01*
X162405051Y-114842184D01*
X162405049Y-114842181D01*
X162405048Y-114842179D01*
X162280109Y-114670213D01*
X162129786Y-114519890D01*
X161957820Y-114394951D01*
X161957115Y-114394591D01*
X161949054Y-114390485D01*
X161898259Y-114342512D01*
X161881463Y-114274692D01*
X161903999Y-114208556D01*
X161949054Y-114169515D01*
X161957816Y-114165051D01*
X162097867Y-114063299D01*
X162129786Y-114040109D01*
X162129788Y-114040106D01*
X162129792Y-114040104D01*
X162280104Y-113889792D01*
X162280106Y-113889788D01*
X162280109Y-113889786D01*
X162405048Y-113717820D01*
X162405047Y-113717820D01*
X162405051Y-113717816D01*
X162501557Y-113528412D01*
X162567246Y-113326243D01*
X162600500Y-113116287D01*
X162600500Y-112903713D01*
X162567246Y-112693757D01*
X162501557Y-112491588D01*
X162405051Y-112302184D01*
X162405049Y-112302181D01*
X162405048Y-112302179D01*
X162280109Y-112130213D01*
X162129786Y-111979890D01*
X161957820Y-111854951D01*
X161957115Y-111854591D01*
X161949054Y-111850485D01*
X161898259Y-111802512D01*
X161881463Y-111734692D01*
X161903999Y-111668556D01*
X161949054Y-111629515D01*
X161957816Y-111625051D01*
X161979789Y-111609086D01*
X162129786Y-111500109D01*
X162129788Y-111500106D01*
X162129792Y-111500104D01*
X162280104Y-111349792D01*
X162280106Y-111349788D01*
X162280109Y-111349786D01*
X162405048Y-111177820D01*
X162405047Y-111177820D01*
X162405051Y-111177816D01*
X162501557Y-110988412D01*
X162567246Y-110786243D01*
X162600500Y-110576287D01*
X162600500Y-110363713D01*
X162567246Y-110153757D01*
X162501557Y-109951588D01*
X162405051Y-109762184D01*
X162405049Y-109762181D01*
X162405048Y-109762179D01*
X162280109Y-109590213D01*
X162129786Y-109439890D01*
X161957820Y-109314951D01*
X161957115Y-109314591D01*
X161949054Y-109310485D01*
X161898259Y-109262512D01*
X161881463Y-109194692D01*
X161903999Y-109128556D01*
X161949054Y-109089515D01*
X161957816Y-109085051D01*
X161979789Y-109069086D01*
X162129786Y-108960109D01*
X162129788Y-108960106D01*
X162129792Y-108960104D01*
X162280104Y-108809792D01*
X162280106Y-108809788D01*
X162280109Y-108809786D01*
X162405048Y-108637820D01*
X162405047Y-108637820D01*
X162405051Y-108637816D01*
X162501557Y-108448412D01*
X162567246Y-108246243D01*
X162600500Y-108036287D01*
X162600500Y-107823713D01*
X162567246Y-107613757D01*
X162501557Y-107411588D01*
X162405051Y-107222184D01*
X162405049Y-107222181D01*
X162405048Y-107222179D01*
X162280109Y-107050213D01*
X162129786Y-106899890D01*
X161957820Y-106774951D01*
X161957115Y-106774591D01*
X161949054Y-106770485D01*
X161898259Y-106722512D01*
X161881463Y-106654692D01*
X161903999Y-106588556D01*
X161949054Y-106549515D01*
X161957816Y-106545051D01*
X161979789Y-106529086D01*
X162129786Y-106420109D01*
X162129788Y-106420106D01*
X162129792Y-106420104D01*
X162280104Y-106269792D01*
X162280106Y-106269788D01*
X162280109Y-106269786D01*
X162405048Y-106097820D01*
X162405047Y-106097820D01*
X162405051Y-106097816D01*
X162501557Y-105908412D01*
X162567246Y-105706243D01*
X162600500Y-105496287D01*
X162600500Y-105283713D01*
X162567246Y-105073757D01*
X162501557Y-104871588D01*
X162405051Y-104682184D01*
X162405049Y-104682181D01*
X162405048Y-104682179D01*
X162280109Y-104510213D01*
X162129786Y-104359890D01*
X161957820Y-104234951D01*
X161957115Y-104234591D01*
X161949054Y-104230485D01*
X161898259Y-104182512D01*
X161881463Y-104114692D01*
X161903999Y-104048556D01*
X161949054Y-104009515D01*
X161957816Y-104005051D01*
X161979789Y-103989086D01*
X162129786Y-103880109D01*
X162129788Y-103880106D01*
X162129792Y-103880104D01*
X162280104Y-103729792D01*
X162280106Y-103729788D01*
X162280109Y-103729786D01*
X162405048Y-103557820D01*
X162405047Y-103557820D01*
X162405051Y-103557816D01*
X162501557Y-103368412D01*
X162567246Y-103166243D01*
X162600500Y-102956287D01*
X162600500Y-102743713D01*
X162567246Y-102533757D01*
X162501557Y-102331588D01*
X162405051Y-102142184D01*
X162405049Y-102142181D01*
X162405048Y-102142179D01*
X162280109Y-101970213D01*
X162129786Y-101819890D01*
X161957820Y-101694951D01*
X161768414Y-101598444D01*
X161768413Y-101598443D01*
X161768412Y-101598443D01*
X161566243Y-101532754D01*
X161566241Y-101532753D01*
X161566240Y-101532753D01*
X161404957Y-101507208D01*
X161356287Y-101499500D01*
X161143713Y-101499500D01*
X161095042Y-101507208D01*
X160933760Y-101532753D01*
X160731585Y-101598444D01*
X160542179Y-101694951D01*
X160370213Y-101819890D01*
X160219890Y-101970213D01*
X160094951Y-102142179D01*
X159998444Y-102331585D01*
X159932753Y-102533760D01*
X159899500Y-102743713D01*
X152136901Y-102743713D01*
X152136901Y-102557528D01*
X152097600Y-102410854D01*
X152021676Y-102279350D01*
X151914303Y-102171977D01*
X151816619Y-102074293D01*
X151783134Y-102012970D01*
X151780300Y-101986612D01*
X151780300Y-101968935D01*
X151780299Y-101968931D01*
X151749355Y-101813361D01*
X151749352Y-101813352D01*
X151688651Y-101666804D01*
X151688644Y-101666791D01*
X151600518Y-101534902D01*
X151600515Y-101534898D01*
X151488352Y-101422735D01*
X151488348Y-101422732D01*
X151356459Y-101334606D01*
X151356446Y-101334599D01*
X151209898Y-101273898D01*
X151209889Y-101273895D01*
X151054319Y-101242951D01*
X151054315Y-101242951D01*
X150950700Y-101242951D01*
X150883661Y-101223266D01*
X150837906Y-101170462D01*
X150826700Y-101118951D01*
X150826700Y-99244547D01*
X150846385Y-99177508D01*
X150863019Y-99156866D01*
X151119807Y-98900078D01*
X151195731Y-98768574D01*
X151235032Y-98621900D01*
X151235032Y-98470052D01*
X151235032Y-97931907D01*
X151254717Y-97864868D01*
X151271351Y-97844226D01*
X151761475Y-97354102D01*
X151837399Y-97222598D01*
X151876700Y-97075924D01*
X151876700Y-96924076D01*
X151876700Y-96630051D01*
X151896385Y-96563012D01*
X151913019Y-96542370D01*
X152455075Y-96000314D01*
X152530999Y-95868810D01*
X152570300Y-95722136D01*
X152570300Y-95570287D01*
X152570300Y-95138074D01*
X152548125Y-95055315D01*
X152543900Y-95023222D01*
X152543900Y-94867177D01*
X152548125Y-94835084D01*
X152570300Y-94752326D01*
X152570300Y-94600478D01*
X152570300Y-85238822D01*
X152589985Y-85171783D01*
X152641159Y-85127439D01*
X152641082Y-85127295D01*
X152641720Y-85126953D01*
X152642789Y-85126028D01*
X152646371Y-85124467D01*
X152646441Y-85124429D01*
X152646453Y-85124425D01*
X152778349Y-85036295D01*
X152890518Y-84924126D01*
X152978648Y-84792230D01*
X153039353Y-84645674D01*
X153070300Y-84490092D01*
X153070300Y-84331462D01*
X153042140Y-84189890D01*
X153039355Y-84175887D01*
X153039352Y-84175878D01*
X153033392Y-84161490D01*
X152993405Y-84064951D01*
X152978651Y-84029330D01*
X152978644Y-84029317D01*
X152890518Y-83897428D01*
X152890515Y-83897424D01*
X152778352Y-83785261D01*
X152778348Y-83785258D01*
X152646459Y-83697132D01*
X152646450Y-83697127D01*
X152629244Y-83690000D01*
X152574842Y-83646157D01*
X152552779Y-83579862D01*
X152552700Y-83575440D01*
X152552700Y-83200078D01*
X152552700Y-83200076D01*
X152513399Y-83053402D01*
X152464001Y-82967843D01*
X152437477Y-82921901D01*
X152437472Y-82921895D01*
X151043574Y-81527997D01*
X151010089Y-81466674D01*
X151015073Y-81396982D01*
X151043574Y-81352634D01*
X151046887Y-81349320D01*
X151046891Y-81349318D01*
X151159060Y-81237149D01*
X151247190Y-81105253D01*
X151282589Y-81019792D01*
X151297009Y-80984979D01*
X151340849Y-80930575D01*
X151369520Y-80916701D01*
X151369348Y-80916284D01*
X151521525Y-80853251D01*
X151521525Y-80853250D01*
X151521532Y-80853248D01*
X151653428Y-80765118D01*
X151765597Y-80652949D01*
X151853727Y-80521053D01*
X151879663Y-80458437D01*
X151923502Y-80404036D01*
X151989796Y-80381971D01*
X151994223Y-80381892D01*
X154107462Y-80381892D01*
X154174501Y-80401577D01*
X154195143Y-80418211D01*
X154207639Y-80430707D01*
X154207643Y-80430710D01*
X154339532Y-80518836D01*
X154339545Y-80518843D01*
X154449456Y-80564368D01*
X154486095Y-80579545D01*
X154486097Y-80579545D01*
X154486102Y-80579547D01*
X154641672Y-80610491D01*
X154641676Y-80610492D01*
X154641677Y-80610492D01*
X154800308Y-80610492D01*
X154800309Y-80610491D01*
X154852167Y-80600176D01*
X154955881Y-80579547D01*
X154955884Y-80579545D01*
X154955889Y-80579545D01*
X155097088Y-80521059D01*
X155102438Y-80518843D01*
X155102438Y-80518842D01*
X155102445Y-80518840D01*
X155234341Y-80430710D01*
X155346510Y-80318541D01*
X155434640Y-80186645D01*
X155495345Y-80040089D01*
X155496614Y-80033713D01*
X155526291Y-79884511D01*
X155526292Y-79884508D01*
X155526292Y-79848484D01*
X155545977Y-79781445D01*
X155588292Y-79741097D01*
X155594696Y-79737399D01*
X155594698Y-79737399D01*
X155726202Y-79661475D01*
X156308185Y-79079492D01*
X156369508Y-79046007D01*
X156395866Y-79043173D01*
X156413543Y-79043173D01*
X156413544Y-79043172D01*
X156465402Y-79032857D01*
X156569116Y-79012228D01*
X156569119Y-79012226D01*
X156569124Y-79012226D01*
X156715680Y-78951521D01*
X156847576Y-78863391D01*
X156959745Y-78751222D01*
X157047875Y-78619326D01*
X157108580Y-78472770D01*
X157112833Y-78451392D01*
X157139526Y-78317192D01*
X157139527Y-78317189D01*
X157139527Y-78158557D01*
X157139526Y-78158553D01*
X157108582Y-78002983D01*
X157108579Y-78002974D01*
X157047878Y-77856426D01*
X157047871Y-77856413D01*
X156959745Y-77724524D01*
X156959742Y-77724520D01*
X156847579Y-77612357D01*
X156847575Y-77612354D01*
X156715686Y-77524228D01*
X156715673Y-77524221D01*
X156569125Y-77463520D01*
X156569116Y-77463517D01*
X156413546Y-77432573D01*
X156413542Y-77432573D01*
X156254912Y-77432573D01*
X156254907Y-77432573D01*
X156099337Y-77463517D01*
X156099328Y-77463520D01*
X155952780Y-77524221D01*
X155952767Y-77524228D01*
X155820878Y-77612354D01*
X155820874Y-77612357D01*
X155708711Y-77724520D01*
X155708708Y-77724524D01*
X155620582Y-77856413D01*
X155620575Y-77856426D01*
X155559874Y-78002974D01*
X155559871Y-78002983D01*
X155528927Y-78158553D01*
X155528927Y-78176234D01*
X155509242Y-78243273D01*
X155492608Y-78263915D01*
X155169542Y-78586981D01*
X155108219Y-78620466D01*
X155081861Y-78623300D01*
X152391639Y-78623300D01*
X152324600Y-78603615D01*
X152278845Y-78550811D01*
X152268901Y-78481653D01*
X152297926Y-78418097D01*
X152303958Y-78411619D01*
X152487981Y-78227596D01*
X152677275Y-78038302D01*
X152753199Y-77906798D01*
X152792500Y-77760124D01*
X152792500Y-77608276D01*
X152792500Y-75915569D01*
X152812185Y-75848530D01*
X152828820Y-75827887D01*
X152860516Y-75796191D01*
X152860519Y-75796188D01*
X152948649Y-75664292D01*
X153009354Y-75517736D01*
X153040301Y-75362154D01*
X153040301Y-75203524D01*
X153032894Y-75166286D01*
X153009356Y-75047949D01*
X153009353Y-75047940D01*
X152948652Y-74901392D01*
X152948645Y-74901379D01*
X152860519Y-74769490D01*
X152860516Y-74769486D01*
X152748353Y-74657323D01*
X152748349Y-74657320D01*
X152616460Y-74569194D01*
X152616447Y-74569187D01*
X152469899Y-74508486D01*
X152469890Y-74508483D01*
X152314320Y-74477539D01*
X152314316Y-74477539D01*
X152155686Y-74477539D01*
X152155681Y-74477539D01*
X152000111Y-74508483D01*
X152000102Y-74508486D01*
X151896752Y-74551295D01*
X151827282Y-74558764D01*
X151764803Y-74527488D01*
X151729152Y-74467399D01*
X151725300Y-74436734D01*
X151725300Y-72679952D01*
X151744985Y-72612913D01*
X151761619Y-72592271D01*
X151940177Y-72413713D01*
X159839500Y-72413713D01*
X159839500Y-72626287D01*
X159872754Y-72836243D01*
X159937317Y-73034948D01*
X159938444Y-73038414D01*
X160034951Y-73227820D01*
X160159890Y-73399786D01*
X160310213Y-73550109D01*
X160482182Y-73675050D01*
X160490946Y-73679516D01*
X160541742Y-73727491D01*
X160558536Y-73795312D01*
X160535998Y-73861447D01*
X160490946Y-73900484D01*
X160482182Y-73904949D01*
X160310213Y-74029890D01*
X160159890Y-74180213D01*
X160034951Y-74352179D01*
X159938444Y-74541585D01*
X159938443Y-74541587D01*
X159938443Y-74541588D01*
X159929474Y-74569191D01*
X159872753Y-74743760D01*
X159839500Y-74953713D01*
X159839500Y-75166286D01*
X159870522Y-75362155D01*
X159872754Y-75376243D01*
X159918728Y-75517737D01*
X159938444Y-75578414D01*
X160034951Y-75767820D01*
X160159890Y-75939786D01*
X160310213Y-76090109D01*
X160482182Y-76215050D01*
X160490946Y-76219516D01*
X160541742Y-76267491D01*
X160558536Y-76335312D01*
X160535998Y-76401447D01*
X160490946Y-76440484D01*
X160482182Y-76444949D01*
X160310213Y-76569890D01*
X160159890Y-76720213D01*
X160034951Y-76892179D01*
X159938444Y-77081585D01*
X159872753Y-77283760D01*
X159871388Y-77292379D01*
X159839500Y-77493713D01*
X159839500Y-77706287D01*
X159843759Y-77733174D01*
X159871258Y-77906801D01*
X159872754Y-77916243D01*
X159929215Y-78090012D01*
X159938444Y-78118414D01*
X160034951Y-78307820D01*
X160159890Y-78479786D01*
X160310213Y-78630109D01*
X160482182Y-78755050D01*
X160490946Y-78759516D01*
X160541742Y-78807491D01*
X160558536Y-78875312D01*
X160535998Y-78941447D01*
X160490946Y-78980484D01*
X160482182Y-78984949D01*
X160310213Y-79109890D01*
X160159890Y-79260213D01*
X160034951Y-79432179D01*
X159938444Y-79621585D01*
X159872753Y-79823760D01*
X159839500Y-80033713D01*
X159839500Y-80246286D01*
X159864095Y-80401577D01*
X159872754Y-80456243D01*
X159929215Y-80630012D01*
X159938444Y-80658414D01*
X160034951Y-80847820D01*
X160159890Y-81019786D01*
X160310213Y-81170109D01*
X160482182Y-81295050D01*
X160490946Y-81299516D01*
X160541742Y-81347491D01*
X160558536Y-81415312D01*
X160535998Y-81481447D01*
X160490946Y-81520484D01*
X160482182Y-81524949D01*
X160310213Y-81649890D01*
X160159890Y-81800213D01*
X160034951Y-81972179D01*
X159938444Y-82161585D01*
X159872753Y-82363760D01*
X159843998Y-82545313D01*
X159839500Y-82573713D01*
X159839500Y-82786287D01*
X159847647Y-82837723D01*
X159872370Y-82993823D01*
X159872754Y-82996243D01*
X159929215Y-83170012D01*
X159938444Y-83198414D01*
X160034951Y-83387820D01*
X160159890Y-83559786D01*
X160310213Y-83710109D01*
X160482182Y-83835050D01*
X160490946Y-83839516D01*
X160541742Y-83887491D01*
X160558536Y-83955312D01*
X160535998Y-84021447D01*
X160490946Y-84060484D01*
X160482182Y-84064949D01*
X160310213Y-84189890D01*
X160159890Y-84340213D01*
X160034951Y-84512179D01*
X159938444Y-84701585D01*
X159872753Y-84903760D01*
X159839500Y-85113713D01*
X159839500Y-85326286D01*
X159869398Y-85515058D01*
X159872754Y-85536243D01*
X159929215Y-85710012D01*
X159938444Y-85738414D01*
X160034951Y-85927820D01*
X160159890Y-86099786D01*
X160310213Y-86250109D01*
X160482182Y-86375050D01*
X160490946Y-86379516D01*
X160541742Y-86427491D01*
X160558536Y-86495312D01*
X160535998Y-86561447D01*
X160490946Y-86600484D01*
X160482182Y-86604949D01*
X160310213Y-86729890D01*
X160159890Y-86880213D01*
X160034951Y-87052179D01*
X159938444Y-87241585D01*
X159872753Y-87443760D01*
X159852990Y-87568540D01*
X159839500Y-87653713D01*
X159839500Y-87866287D01*
X159872754Y-88076243D01*
X159908058Y-88184898D01*
X159938444Y-88278414D01*
X160034951Y-88467820D01*
X160159890Y-88639786D01*
X160310213Y-88790109D01*
X160482182Y-88915050D01*
X160490946Y-88919516D01*
X160541742Y-88967491D01*
X160558536Y-89035312D01*
X160535998Y-89101447D01*
X160490946Y-89140484D01*
X160482182Y-89144949D01*
X160310213Y-89269890D01*
X160159890Y-89420213D01*
X160034951Y-89592179D01*
X159938444Y-89781585D01*
X159872753Y-89983760D01*
X159839500Y-90193713D01*
X159839500Y-90406286D01*
X159869101Y-90593183D01*
X159872754Y-90616243D01*
X159885186Y-90654506D01*
X159938444Y-90818414D01*
X160034951Y-91007820D01*
X160159890Y-91179786D01*
X160273430Y-91293326D01*
X160306915Y-91354649D01*
X160301931Y-91424341D01*
X160260059Y-91480274D01*
X160229083Y-91497189D01*
X160097669Y-91546203D01*
X160097664Y-91546206D01*
X159982455Y-91632452D01*
X159982452Y-91632455D01*
X159896206Y-91747664D01*
X159896202Y-91747671D01*
X159845908Y-91882517D01*
X159839501Y-91942116D01*
X159839501Y-91942123D01*
X159839500Y-91942135D01*
X159839500Y-93737870D01*
X159839501Y-93737876D01*
X159845908Y-93797483D01*
X159896202Y-93932328D01*
X159896206Y-93932335D01*
X159982452Y-94047544D01*
X159982455Y-94047547D01*
X160097664Y-94133793D01*
X160097671Y-94133797D01*
X160232517Y-94184091D01*
X160232516Y-94184091D01*
X160239444Y-94184835D01*
X160292127Y-94190500D01*
X162087872Y-94190499D01*
X162147483Y-94184091D01*
X162282331Y-94133796D01*
X162397546Y-94047546D01*
X162483796Y-93932331D01*
X162534091Y-93797483D01*
X162540500Y-93737873D01*
X162540499Y-91942128D01*
X162534091Y-91882517D01*
X162483796Y-91747669D01*
X162483795Y-91747668D01*
X162483793Y-91747664D01*
X162397547Y-91632455D01*
X162397544Y-91632452D01*
X162282335Y-91546206D01*
X162282328Y-91546202D01*
X162150917Y-91497189D01*
X162094983Y-91455318D01*
X162070566Y-91389853D01*
X162085418Y-91321580D01*
X162106563Y-91293332D01*
X162220104Y-91179792D01*
X162246156Y-91143935D01*
X162345048Y-91007820D01*
X162345047Y-91007820D01*
X162345051Y-91007816D01*
X162441557Y-90818412D01*
X162507246Y-90616243D01*
X162540500Y-90406287D01*
X162540500Y-90193713D01*
X162507246Y-89983757D01*
X162441557Y-89781588D01*
X162345051Y-89592184D01*
X162345049Y-89592181D01*
X162345048Y-89592179D01*
X162220109Y-89420213D01*
X162069786Y-89269890D01*
X161897820Y-89144951D01*
X161897115Y-89144591D01*
X161889054Y-89140485D01*
X161838259Y-89092512D01*
X161821463Y-89024692D01*
X161843999Y-88958556D01*
X161889054Y-88919515D01*
X161897816Y-88915051D01*
X161919789Y-88899086D01*
X162069786Y-88790109D01*
X162069788Y-88790106D01*
X162069792Y-88790104D01*
X162220104Y-88639792D01*
X162220106Y-88639788D01*
X162220109Y-88639786D01*
X162345048Y-88467820D01*
X162345047Y-88467820D01*
X162345051Y-88467816D01*
X162441557Y-88278412D01*
X162507246Y-88076243D01*
X162540500Y-87866287D01*
X162540500Y-87653713D01*
X162507246Y-87443757D01*
X162441557Y-87241588D01*
X162345051Y-87052184D01*
X162345049Y-87052181D01*
X162345048Y-87052179D01*
X162220109Y-86880213D01*
X162069786Y-86729890D01*
X161897820Y-86604951D01*
X161897115Y-86604591D01*
X161889054Y-86600485D01*
X161838259Y-86552512D01*
X161821463Y-86484692D01*
X161843999Y-86418556D01*
X161889054Y-86379515D01*
X161897816Y-86375051D01*
X162026644Y-86281453D01*
X162069786Y-86250109D01*
X162069788Y-86250106D01*
X162069792Y-86250104D01*
X162220104Y-86099792D01*
X162220106Y-86099788D01*
X162220109Y-86099786D01*
X162345048Y-85927820D01*
X162345047Y-85927820D01*
X162345051Y-85927816D01*
X162441557Y-85738412D01*
X162507246Y-85536243D01*
X162540500Y-85326287D01*
X162540500Y-85113713D01*
X162507246Y-84903757D01*
X162441557Y-84701588D01*
X162345051Y-84512184D01*
X162345049Y-84512181D01*
X162345048Y-84512179D01*
X162220109Y-84340213D01*
X162069786Y-84189890D01*
X161897820Y-84064951D01*
X161897115Y-84064591D01*
X161889054Y-84060485D01*
X161838259Y-84012512D01*
X161821463Y-83944692D01*
X161843999Y-83878556D01*
X161889054Y-83839515D01*
X161897816Y-83835051D01*
X161966347Y-83785261D01*
X162069786Y-83710109D01*
X162069788Y-83710106D01*
X162069792Y-83710104D01*
X162220104Y-83559792D01*
X162220106Y-83559788D01*
X162220109Y-83559786D01*
X162345048Y-83387820D01*
X162345047Y-83387820D01*
X162345051Y-83387816D01*
X162441557Y-83198412D01*
X162507246Y-82996243D01*
X162540500Y-82786287D01*
X162540500Y-82573713D01*
X162507246Y-82363757D01*
X162441557Y-82161588D01*
X162345051Y-81972184D01*
X162345049Y-81972181D01*
X162345048Y-81972179D01*
X162220109Y-81800213D01*
X162069786Y-81649890D01*
X161897820Y-81524951D01*
X161897115Y-81524591D01*
X161889054Y-81520485D01*
X161838259Y-81472512D01*
X161821463Y-81404692D01*
X161843999Y-81338556D01*
X161889054Y-81299515D01*
X161897816Y-81295051D01*
X161977515Y-81237147D01*
X162069786Y-81170109D01*
X162069788Y-81170106D01*
X162069792Y-81170104D01*
X162220104Y-81019792D01*
X162220106Y-81019788D01*
X162220109Y-81019786D01*
X162345048Y-80847820D01*
X162345047Y-80847820D01*
X162345051Y-80847816D01*
X162441557Y-80658412D01*
X162507246Y-80456243D01*
X162540500Y-80246287D01*
X162540500Y-80033713D01*
X162507246Y-79823757D01*
X162441557Y-79621588D01*
X162345051Y-79432184D01*
X162345049Y-79432181D01*
X162345048Y-79432179D01*
X162220109Y-79260213D01*
X162069786Y-79109890D01*
X161897820Y-78984951D01*
X161897115Y-78984591D01*
X161889054Y-78980485D01*
X161838259Y-78932512D01*
X161821463Y-78864692D01*
X161843999Y-78798556D01*
X161889054Y-78759515D01*
X161897816Y-78755051D01*
X162041114Y-78650940D01*
X162069786Y-78630109D01*
X162069788Y-78630106D01*
X162069792Y-78630104D01*
X162220104Y-78479792D01*
X162220106Y-78479788D01*
X162220109Y-78479786D01*
X162345048Y-78307820D01*
X162345047Y-78307820D01*
X162345051Y-78307816D01*
X162441557Y-78118412D01*
X162507246Y-77916243D01*
X162540500Y-77706287D01*
X162540500Y-77493713D01*
X162507246Y-77283757D01*
X162441557Y-77081588D01*
X162345051Y-76892184D01*
X162345049Y-76892181D01*
X162345048Y-76892179D01*
X162220109Y-76720213D01*
X162069786Y-76569890D01*
X161897820Y-76444951D01*
X161897115Y-76444591D01*
X161889054Y-76440485D01*
X161838259Y-76392512D01*
X161821463Y-76324692D01*
X161843999Y-76258556D01*
X161889054Y-76219515D01*
X161897816Y-76215051D01*
X161939840Y-76184519D01*
X162069786Y-76090109D01*
X162069788Y-76090106D01*
X162069792Y-76090104D01*
X162220104Y-75939792D01*
X162220106Y-75939788D01*
X162220109Y-75939786D01*
X162345048Y-75767820D01*
X162345047Y-75767820D01*
X162345051Y-75767816D01*
X162441557Y-75578412D01*
X162507246Y-75376243D01*
X162540500Y-75166287D01*
X162540500Y-74953713D01*
X162507246Y-74743757D01*
X162441557Y-74541588D01*
X162345051Y-74352184D01*
X162345049Y-74352181D01*
X162345048Y-74352179D01*
X162220109Y-74180213D01*
X162069786Y-74029890D01*
X161897820Y-73904951D01*
X161897115Y-73904591D01*
X161889054Y-73900485D01*
X161838259Y-73852512D01*
X161821463Y-73784692D01*
X161843999Y-73718556D01*
X161889054Y-73679515D01*
X161897816Y-73675051D01*
X161919789Y-73659086D01*
X162069786Y-73550109D01*
X162069788Y-73550106D01*
X162069792Y-73550104D01*
X162220104Y-73399792D01*
X162220106Y-73399788D01*
X162220109Y-73399786D01*
X162345048Y-73227820D01*
X162345047Y-73227820D01*
X162345051Y-73227816D01*
X162441557Y-73038412D01*
X162507246Y-72836243D01*
X162540500Y-72626287D01*
X162540500Y-72413713D01*
X162507246Y-72203757D01*
X162441557Y-72001588D01*
X162345051Y-71812184D01*
X162345049Y-71812181D01*
X162345048Y-71812179D01*
X162220109Y-71640213D01*
X162069786Y-71489890D01*
X161897817Y-71364949D01*
X161888504Y-71360204D01*
X161837707Y-71312230D01*
X161820912Y-71244409D01*
X161843449Y-71178274D01*
X161888507Y-71139232D01*
X161897555Y-71134622D01*
X161951716Y-71095270D01*
X161951717Y-71095270D01*
X161319408Y-70462962D01*
X161382993Y-70445925D01*
X161497007Y-70380099D01*
X161590099Y-70287007D01*
X161655925Y-70172993D01*
X161672962Y-70109408D01*
X162305270Y-70741717D01*
X162305270Y-70741716D01*
X162344622Y-70687554D01*
X162441095Y-70498217D01*
X162506757Y-70296130D01*
X162506757Y-70296127D01*
X162540000Y-70086246D01*
X162540000Y-69873753D01*
X162506757Y-69663872D01*
X162506757Y-69663869D01*
X162441095Y-69461782D01*
X162344624Y-69272449D01*
X162305270Y-69218282D01*
X162305269Y-69218282D01*
X161672962Y-69850590D01*
X161655925Y-69787007D01*
X161590099Y-69672993D01*
X161497007Y-69579901D01*
X161382993Y-69514075D01*
X161319409Y-69497037D01*
X161951716Y-68864728D01*
X161897550Y-68825375D01*
X161708217Y-68728904D01*
X161506129Y-68663242D01*
X161296246Y-68630000D01*
X161083754Y-68630000D01*
X160873872Y-68663242D01*
X160873869Y-68663242D01*
X160671782Y-68728904D01*
X160482439Y-68825380D01*
X160428282Y-68864727D01*
X160428282Y-68864728D01*
X161060591Y-69497037D01*
X160997007Y-69514075D01*
X160882993Y-69579901D01*
X160789901Y-69672993D01*
X160724075Y-69787007D01*
X160707037Y-69850591D01*
X160074728Y-69218282D01*
X160074727Y-69218282D01*
X160035380Y-69272439D01*
X159938904Y-69461782D01*
X159873242Y-69663869D01*
X159873242Y-69663872D01*
X159840000Y-69873753D01*
X159840000Y-70086246D01*
X159873242Y-70296127D01*
X159873242Y-70296130D01*
X159938904Y-70498217D01*
X160035375Y-70687550D01*
X160074728Y-70741716D01*
X160707037Y-70109408D01*
X160724075Y-70172993D01*
X160789901Y-70287007D01*
X160882993Y-70380099D01*
X160997007Y-70445925D01*
X161060590Y-70462962D01*
X160428282Y-71095269D01*
X160428282Y-71095270D01*
X160482452Y-71134626D01*
X160482451Y-71134626D01*
X160491495Y-71139234D01*
X160542292Y-71187208D01*
X160559087Y-71255029D01*
X160536550Y-71321164D01*
X160491499Y-71360202D01*
X160482182Y-71364949D01*
X160310213Y-71489890D01*
X160159890Y-71640213D01*
X160034951Y-71812179D01*
X159938444Y-72001585D01*
X159872753Y-72203760D01*
X159863701Y-72260912D01*
X159839500Y-72413713D01*
X151940177Y-72413713D01*
X151961476Y-72392414D01*
X152037400Y-72260910D01*
X152076701Y-72114236D01*
X152076701Y-71962388D01*
X152076701Y-70850215D01*
X152096386Y-70783176D01*
X152113017Y-70762536D01*
X152125519Y-70750035D01*
X152213649Y-70618139D01*
X152274354Y-70471583D01*
X152280552Y-70440427D01*
X152294985Y-70367861D01*
X152305301Y-70316001D01*
X152305301Y-70157371D01*
X152305025Y-70155984D01*
X152274356Y-70001796D01*
X152274354Y-70001793D01*
X152274354Y-70001789D01*
X152213649Y-69855233D01*
X152213648Y-69855232D01*
X152213645Y-69855226D01*
X152125519Y-69723337D01*
X152125516Y-69723333D01*
X152013353Y-69611170D01*
X152013349Y-69611167D01*
X151881460Y-69523041D01*
X151881447Y-69523034D01*
X151734899Y-69462333D01*
X151734890Y-69462330D01*
X151579320Y-69431386D01*
X151579316Y-69431386D01*
X151420686Y-69431386D01*
X151420681Y-69431386D01*
X151265111Y-69462330D01*
X151265102Y-69462333D01*
X151118554Y-69523034D01*
X151118541Y-69523041D01*
X150986652Y-69611167D01*
X150986648Y-69611170D01*
X150974152Y-69623667D01*
X150912829Y-69657152D01*
X150886471Y-69659986D01*
X150789291Y-69659986D01*
X150654641Y-69696065D01*
X150642614Y-69699288D01*
X150511117Y-69775208D01*
X150511111Y-69775213D01*
X149738527Y-70547797D01*
X149738522Y-70547803D01*
X149662602Y-70679300D01*
X149662602Y-70679301D01*
X149662601Y-70679303D01*
X149662601Y-70679304D01*
X149634769Y-70783176D01*
X149623300Y-70825978D01*
X149623300Y-73252345D01*
X149603615Y-73319384D01*
X149550811Y-73365139D01*
X149481653Y-73375083D01*
X149418097Y-73346058D01*
X149396198Y-73321236D01*
X149338744Y-73235251D01*
X149338741Y-73235247D01*
X149226578Y-73123084D01*
X149226574Y-73123081D01*
X149094685Y-73034955D01*
X149094672Y-73034948D01*
X148948124Y-72974247D01*
X148948115Y-72974244D01*
X148792545Y-72943300D01*
X148792541Y-72943300D01*
X148633911Y-72943300D01*
X148633906Y-72943300D01*
X148478336Y-72974244D01*
X148478327Y-72974247D01*
X148331779Y-73034948D01*
X148331766Y-73034955D01*
X148199877Y-73123081D01*
X148199873Y-73123084D01*
X148150406Y-73172553D01*
X148089083Y-73206039D01*
X148062724Y-73208873D01*
X147650751Y-73208873D01*
X147498903Y-73208873D01*
X147352229Y-73248174D01*
X147352228Y-73248174D01*
X147352226Y-73248175D01*
X147352225Y-73248175D01*
X147220728Y-73324095D01*
X147220722Y-73324100D01*
X144978927Y-75565895D01*
X144978922Y-75565901D01*
X144903002Y-75697398D01*
X144903002Y-75697399D01*
X144903001Y-75697401D01*
X144903001Y-75697402D01*
X144876531Y-75796191D01*
X144863700Y-75844076D01*
X144863700Y-76691703D01*
X144844015Y-76758742D01*
X144840018Y-76764588D01*
X144767951Y-76863780D01*
X144671444Y-77053185D01*
X144617431Y-77219420D01*
X144577993Y-77277096D01*
X144513635Y-77304294D01*
X144444788Y-77292379D01*
X144393313Y-77245135D01*
X144375500Y-77181102D01*
X144375500Y-68422741D01*
X144395185Y-68355702D01*
X144447989Y-68309947D01*
X144499333Y-68298742D01*
X163122656Y-68274756D01*
X163189718Y-68294354D01*
G37*
%TD.AperFunction*%
%TD*%
M02*
