%TF.GenerationSoftware,KiCad,Pcbnew,9.0.9-9.0.9~ubuntu24.04.1*%
%TF.CreationDate,2026-05-14T17:22:04-04:00*%
%TF.ProjectId,mcp3562rbreakout,6d637033-3536-4327-9262-7265616b6f75,rev?*%
%TF.SameCoordinates,Original*%
%TF.FileFunction,Copper,L2,Bot*%
%TF.FilePolarity,Positive*%
%FSLAX46Y46*%
G04 Gerber Fmt 4.6, Leading zero omitted, Abs format (unit mm)*
G04 Created by KiCad (PCBNEW 9.0.9-9.0.9~ubuntu24.04.1) date 2026-05-14 17:22:04*
%MOMM*%
%LPD*%
G01*
G04 APERTURE LIST*
%TA.AperFunction,ComponentPad*%
%ADD10C,1.700000*%
%TD*%
%TA.AperFunction,ComponentPad*%
%ADD11R,1.700000X1.700000*%
%TD*%
%TA.AperFunction,ViaPad*%
%ADD12C,0.609600*%
%TD*%
%TA.AperFunction,Conductor*%
%ADD13C,0.635000*%
%TD*%
G04 APERTURE END LIST*
D10*
%TO.P,J1,18,Pin_18*%
%TO.N,GND*%
X118110000Y-116205000D03*
%TO.P,J1,17,Pin_17*%
%TO.N,/VREF_BUF*%
X118110000Y-113665000D03*
%TO.P,J1,16,Pin_16*%
%TO.N,/VREF*%
X118110000Y-111125000D03*
%TO.P,J1,15,Pin_15*%
%TO.N,/REFIN+{slash}OUT*%
X118110000Y-108585000D03*
%TO.P,J1,14,Pin_14*%
%TO.N,/CH0*%
X118110000Y-106045000D03*
%TO.P,J1,13,Pin_13*%
%TO.N,/CH1*%
X118110000Y-103505000D03*
%TO.P,J1,12,Pin_12*%
%TO.N,/CH2*%
X118110000Y-100965000D03*
%TO.P,J1,11,Pin_11*%
%TO.N,/CH3*%
X118110000Y-98425000D03*
%TO.P,J1,10,Pin_10*%
%TO.N,GND*%
X118110000Y-95885000D03*
%TO.P,J1,9,Pin_9*%
%TO.N,+3V3*%
X118110000Y-93345000D03*
%TO.P,J1,8,Pin_8*%
%TO.N,GND*%
X118110000Y-90805000D03*
%TO.P,J1,7,Pin_7*%
%TO.N,/MCLK_ENA*%
X118110000Y-88265000D03*
%TO.P,J1,6,Pin_6*%
%TO.N,/MCLK*%
X118110000Y-85725000D03*
%TO.P,J1,5,Pin_5*%
%TO.N,/~{IRQ}{slash}MDAT*%
X118110000Y-83185000D03*
%TO.P,J1,4,Pin_4*%
%TO.N,/MISO*%
X118110000Y-80645000D03*
%TO.P,J1,3,Pin_3*%
%TO.N,/MOSI*%
X118110000Y-78105000D03*
%TO.P,J1,2,Pin_2*%
%TO.N,/SCK*%
X118110000Y-75565000D03*
D11*
%TO.P,J1,1,Pin_1*%
%TO.N,/~{CS}*%
X118110000Y-73025000D03*
%TD*%
D12*
%TO.N,GND*%
X126441200Y-96139000D03*
X125831600Y-92075000D03*
X122428000Y-92227400D03*
X122428000Y-95808800D03*
X130505200Y-111633000D03*
X130505200Y-106426000D03*
X124790200Y-107086400D03*
X130505200Y-107391200D03*
X129565400Y-108966000D03*
X124917200Y-114173000D03*
%TO.N,+3V3*%
X135496600Y-97282000D03*
X128649814Y-97282000D03*
%TO.N,GND*%
X134467600Y-94107000D03*
X133985000Y-95326200D03*
X128778000Y-94107000D03*
X128244600Y-95326200D03*
X137541000Y-95148400D03*
%TD*%
D13*
%TO.N,+3V3*%
X135496600Y-97282000D02*
X128649814Y-97282000D01*
%TD*%
%TA.AperFunction,Conductor*%
%TO.N,GND*%
G36*
X117644075Y-116397993D02*
G01*
X117709901Y-116512007D01*
X117802993Y-116605099D01*
X117917007Y-116670925D01*
X117985051Y-116689157D01*
X117311613Y-117362596D01*
X117284238Y-117377543D01*
X117258016Y-117394396D01*
X117251717Y-117395301D01*
X117249301Y-117396621D01*
X117222518Y-117399500D01*
X117041500Y-117399500D01*
X116973379Y-117379498D01*
X116926886Y-117325842D01*
X116915500Y-117273500D01*
X116915500Y-117092480D01*
X116935502Y-117024359D01*
X116952405Y-117003384D01*
X117625841Y-116329947D01*
X117644075Y-116397993D01*
G37*
%TD.AperFunction*%
%TA.AperFunction,Conductor*%
G36*
X139566621Y-71850502D02*
G01*
X139613114Y-71904158D01*
X139624500Y-71956500D01*
X139624500Y-117273500D01*
X139604498Y-117341621D01*
X139550842Y-117388114D01*
X139498500Y-117399500D01*
X118997481Y-117399500D01*
X118929360Y-117379498D01*
X118908386Y-117362595D01*
X118234948Y-116689157D01*
X118302993Y-116670925D01*
X118417007Y-116605099D01*
X118510099Y-116512007D01*
X118575925Y-116397993D01*
X118594157Y-116329948D01*
X119233376Y-116969167D01*
X119233378Y-116969167D01*
X119271463Y-116916750D01*
X119368506Y-116726292D01*
X119368509Y-116726286D01*
X119434559Y-116523003D01*
X119468000Y-116311873D01*
X119468000Y-116098126D01*
X119434559Y-115886996D01*
X119368509Y-115683713D01*
X119368506Y-115683707D01*
X119271464Y-115493251D01*
X119271463Y-115493249D01*
X119233378Y-115440831D01*
X118594157Y-116080051D01*
X118575925Y-116012007D01*
X118510099Y-115897993D01*
X118417007Y-115804901D01*
X118302993Y-115739075D01*
X118234947Y-115720841D01*
X118874168Y-115081621D01*
X118874167Y-115081620D01*
X118821750Y-115043536D01*
X118821748Y-115043535D01*
X118689752Y-114976279D01*
X118638137Y-114927530D01*
X118621071Y-114858615D01*
X118643972Y-114791414D01*
X118689750Y-114751747D01*
X118755447Y-114718273D01*
X118912268Y-114604336D01*
X119049336Y-114467268D01*
X119163273Y-114310447D01*
X119251276Y-114137732D01*
X119311176Y-113953377D01*
X119341500Y-113761921D01*
X119341500Y-113568079D01*
X119311176Y-113376623D01*
X119251276Y-113192268D01*
X119163273Y-113019553D01*
X119049336Y-112862732D01*
X119049333Y-112862729D01*
X119049331Y-112862726D01*
X118912273Y-112725668D01*
X118912270Y-112725666D01*
X118912268Y-112725664D01*
X118755447Y-112611727D01*
X118582732Y-112523724D01*
X118582729Y-112523723D01*
X118582727Y-112523722D01*
X118568425Y-112519075D01*
X118555366Y-112514832D01*
X118496761Y-112474760D01*
X118469124Y-112409363D01*
X118481231Y-112339407D01*
X118529236Y-112287100D01*
X118555364Y-112275168D01*
X118582732Y-112266276D01*
X118755447Y-112178273D01*
X118912268Y-112064336D01*
X119049336Y-111927268D01*
X119163273Y-111770447D01*
X119251276Y-111597732D01*
X119311176Y-111413377D01*
X119341500Y-111221921D01*
X119341500Y-111028079D01*
X119311176Y-110836623D01*
X119251276Y-110652268D01*
X119163273Y-110479553D01*
X119049336Y-110322732D01*
X119049333Y-110322729D01*
X119049331Y-110322726D01*
X118912273Y-110185668D01*
X118912270Y-110185666D01*
X118912268Y-110185664D01*
X118755447Y-110071727D01*
X118582732Y-109983724D01*
X118582729Y-109983723D01*
X118582727Y-109983722D01*
X118568425Y-109979075D01*
X118555366Y-109974832D01*
X118496761Y-109934760D01*
X118469124Y-109869363D01*
X118481231Y-109799407D01*
X118529236Y-109747100D01*
X118555364Y-109735168D01*
X118582732Y-109726276D01*
X118755447Y-109638273D01*
X118912268Y-109524336D01*
X119049336Y-109387268D01*
X119163273Y-109230447D01*
X119251276Y-109057732D01*
X119311176Y-108873377D01*
X119341500Y-108681921D01*
X119341500Y-108488079D01*
X119311176Y-108296623D01*
X119251276Y-108112268D01*
X119163273Y-107939553D01*
X119049336Y-107782732D01*
X119049333Y-107782729D01*
X119049331Y-107782726D01*
X118912273Y-107645668D01*
X118912270Y-107645666D01*
X118912268Y-107645664D01*
X118755447Y-107531727D01*
X118582732Y-107443724D01*
X118582729Y-107443723D01*
X118582727Y-107443722D01*
X118568425Y-107439075D01*
X118555366Y-107434832D01*
X118496761Y-107394760D01*
X118469124Y-107329363D01*
X118481231Y-107259407D01*
X118529236Y-107207100D01*
X118555364Y-107195168D01*
X118582732Y-107186276D01*
X118755447Y-107098273D01*
X118912268Y-106984336D01*
X119049336Y-106847268D01*
X119163273Y-106690447D01*
X119251276Y-106517732D01*
X119311176Y-106333377D01*
X119341500Y-106141921D01*
X119341500Y-105948079D01*
X119311176Y-105756623D01*
X119251276Y-105572268D01*
X119163273Y-105399553D01*
X119049336Y-105242732D01*
X119049333Y-105242729D01*
X119049331Y-105242726D01*
X118912273Y-105105668D01*
X118912270Y-105105666D01*
X118912268Y-105105664D01*
X118755447Y-104991727D01*
X118582732Y-104903724D01*
X118582729Y-104903723D01*
X118582727Y-104903722D01*
X118568425Y-104899075D01*
X118555366Y-104894832D01*
X118496761Y-104854760D01*
X118469124Y-104789363D01*
X118481231Y-104719407D01*
X118529236Y-104667100D01*
X118555364Y-104655168D01*
X118582732Y-104646276D01*
X118755447Y-104558273D01*
X118912268Y-104444336D01*
X119049336Y-104307268D01*
X119163273Y-104150447D01*
X119251276Y-103977732D01*
X119311176Y-103793377D01*
X119341500Y-103601921D01*
X119341500Y-103408079D01*
X119311176Y-103216623D01*
X119251276Y-103032268D01*
X119163273Y-102859553D01*
X119049336Y-102702732D01*
X119049333Y-102702729D01*
X119049331Y-102702726D01*
X118912273Y-102565668D01*
X118912270Y-102565666D01*
X118912268Y-102565664D01*
X118755447Y-102451727D01*
X118582732Y-102363724D01*
X118582729Y-102363723D01*
X118582727Y-102363722D01*
X118568425Y-102359075D01*
X118555366Y-102354832D01*
X118496761Y-102314760D01*
X118469124Y-102249363D01*
X118481231Y-102179407D01*
X118529236Y-102127100D01*
X118555364Y-102115168D01*
X118582732Y-102106276D01*
X118755447Y-102018273D01*
X118912268Y-101904336D01*
X119049336Y-101767268D01*
X119163273Y-101610447D01*
X119251276Y-101437732D01*
X119311176Y-101253377D01*
X119341500Y-101061921D01*
X119341500Y-100868079D01*
X119311176Y-100676623D01*
X119251276Y-100492268D01*
X119163273Y-100319553D01*
X119049336Y-100162732D01*
X119049333Y-100162729D01*
X119049331Y-100162726D01*
X118912273Y-100025668D01*
X118912270Y-100025666D01*
X118912268Y-100025664D01*
X118755447Y-99911727D01*
X118582732Y-99823724D01*
X118582729Y-99823723D01*
X118582727Y-99823722D01*
X118568425Y-99819075D01*
X118555366Y-99814832D01*
X118496761Y-99774760D01*
X118469124Y-99709363D01*
X118481231Y-99639407D01*
X118529236Y-99587100D01*
X118555364Y-99575168D01*
X118582732Y-99566276D01*
X118755447Y-99478273D01*
X118912268Y-99364336D01*
X119049336Y-99227268D01*
X119163273Y-99070447D01*
X119251276Y-98897732D01*
X119311176Y-98713377D01*
X119341500Y-98521921D01*
X119341500Y-98328079D01*
X119311176Y-98136623D01*
X119251276Y-97952268D01*
X119163273Y-97779553D01*
X119049336Y-97622732D01*
X119049333Y-97622729D01*
X119049331Y-97622726D01*
X118912273Y-97485668D01*
X118912270Y-97485666D01*
X118912268Y-97485664D01*
X118755447Y-97371727D01*
X118689751Y-97338253D01*
X118680451Y-97329469D01*
X118668596Y-97324658D01*
X118655127Y-97305552D01*
X118638137Y-97289505D01*
X118635061Y-97277087D01*
X118627690Y-97266630D01*
X118626689Y-97243277D01*
X118621071Y-97220591D01*
X118623606Y-97213152D01*
X127950814Y-97213152D01*
X127950814Y-97350847D01*
X127954968Y-97371729D01*
X127977676Y-97485891D01*
X128030368Y-97613101D01*
X128061844Y-97660208D01*
X128106864Y-97727585D01*
X128106869Y-97727591D01*
X128204222Y-97824944D01*
X128204228Y-97824949D01*
X128318713Y-97901446D01*
X128445923Y-97954138D01*
X128580969Y-97981000D01*
X128580970Y-97981000D01*
X135565444Y-97981000D01*
X135565445Y-97981000D01*
X135700491Y-97954138D01*
X135827701Y-97901446D01*
X135942186Y-97824949D01*
X136039549Y-97727586D01*
X136116046Y-97613101D01*
X136168738Y-97485891D01*
X136195600Y-97350845D01*
X136195600Y-97213155D01*
X136168738Y-97078109D01*
X136116046Y-96950899D01*
X136039549Y-96836414D01*
X136039544Y-96836408D01*
X135942191Y-96739055D01*
X135942185Y-96739050D01*
X135890266Y-96704359D01*
X135827701Y-96662554D01*
X135700491Y-96609862D01*
X135565447Y-96583000D01*
X135565445Y-96583000D01*
X128580969Y-96583000D01*
X128580966Y-96583000D01*
X128445922Y-96609862D01*
X128445917Y-96609864D01*
X128318713Y-96662554D01*
X128204228Y-96739050D01*
X128204222Y-96739055D01*
X128106869Y-96836408D01*
X128106864Y-96836414D01*
X128030368Y-96950899D01*
X127977678Y-97078103D01*
X127977676Y-97078108D01*
X127950814Y-97213152D01*
X118623606Y-97213152D01*
X118625197Y-97208481D01*
X118624650Y-97195699D01*
X118636432Y-97175512D01*
X118643972Y-97153389D01*
X118654846Y-97143966D01*
X118660440Y-97134383D01*
X118689752Y-97113720D01*
X118727085Y-97094698D01*
X118821750Y-97046463D01*
X118874167Y-97008378D01*
X118874167Y-97008376D01*
X118234948Y-96369157D01*
X118302993Y-96350925D01*
X118417007Y-96285099D01*
X118510099Y-96192007D01*
X118575925Y-96077993D01*
X118594157Y-96009948D01*
X119233376Y-96649167D01*
X119233378Y-96649167D01*
X119271463Y-96596750D01*
X119368506Y-96406292D01*
X119368509Y-96406286D01*
X119434559Y-96203003D01*
X119468000Y-95991873D01*
X119468000Y-95778126D01*
X119434559Y-95566996D01*
X119368509Y-95363713D01*
X119368506Y-95363707D01*
X119271464Y-95173251D01*
X119271463Y-95173249D01*
X119233378Y-95120831D01*
X118594157Y-95760051D01*
X118575925Y-95692007D01*
X118510099Y-95577993D01*
X118417007Y-95484901D01*
X118302993Y-95419075D01*
X118234947Y-95400841D01*
X118874168Y-94761621D01*
X118874167Y-94761620D01*
X118821750Y-94723536D01*
X118821748Y-94723535D01*
X118689752Y-94656279D01*
X118638137Y-94607530D01*
X118621071Y-94538615D01*
X118643972Y-94471414D01*
X118689750Y-94431747D01*
X118755447Y-94398273D01*
X118912268Y-94284336D01*
X119049336Y-94147268D01*
X119163273Y-93990447D01*
X119251276Y-93817732D01*
X119311176Y-93633377D01*
X119341500Y-93441921D01*
X119341500Y-93248079D01*
X119311176Y-93056623D01*
X119251276Y-92872268D01*
X119163273Y-92699553D01*
X119049336Y-92542732D01*
X119049333Y-92542729D01*
X119049331Y-92542726D01*
X118912273Y-92405668D01*
X118912270Y-92405666D01*
X118912268Y-92405664D01*
X118755447Y-92291727D01*
X118689751Y-92258253D01*
X118638137Y-92209505D01*
X118621071Y-92140591D01*
X118643972Y-92073389D01*
X118689752Y-92033720D01*
X118821750Y-91966463D01*
X118874167Y-91928378D01*
X118874167Y-91928376D01*
X118234948Y-91289157D01*
X118302993Y-91270925D01*
X118417007Y-91205099D01*
X118510099Y-91112007D01*
X118575925Y-90997993D01*
X118594157Y-90929948D01*
X119233376Y-91569167D01*
X119233378Y-91569167D01*
X119271463Y-91516750D01*
X119368506Y-91326292D01*
X119368509Y-91326286D01*
X119434559Y-91123003D01*
X119468000Y-90911873D01*
X119468000Y-90698126D01*
X119434559Y-90486996D01*
X119368509Y-90283713D01*
X119368506Y-90283707D01*
X119271464Y-90093251D01*
X119271463Y-90093249D01*
X119233378Y-90040831D01*
X118594157Y-90680051D01*
X118575925Y-90612007D01*
X118510099Y-90497993D01*
X118417007Y-90404901D01*
X118302993Y-90339075D01*
X118234947Y-90320841D01*
X118874168Y-89681621D01*
X118874167Y-89681620D01*
X118821750Y-89643536D01*
X118821748Y-89643535D01*
X118689752Y-89576279D01*
X118638137Y-89527530D01*
X118621071Y-89458615D01*
X118643972Y-89391414D01*
X118689750Y-89351747D01*
X118755447Y-89318273D01*
X118912268Y-89204336D01*
X119049336Y-89067268D01*
X119163273Y-88910447D01*
X119251276Y-88737732D01*
X119311176Y-88553377D01*
X119341500Y-88361921D01*
X119341500Y-88168079D01*
X119311176Y-87976623D01*
X119251276Y-87792268D01*
X119163273Y-87619553D01*
X119049336Y-87462732D01*
X119049333Y-87462729D01*
X119049331Y-87462726D01*
X118912273Y-87325668D01*
X118912270Y-87325666D01*
X118912268Y-87325664D01*
X118755447Y-87211727D01*
X118582732Y-87123724D01*
X118582729Y-87123723D01*
X118582727Y-87123722D01*
X118568425Y-87119075D01*
X118555366Y-87114832D01*
X118496761Y-87074760D01*
X118469124Y-87009363D01*
X118481231Y-86939407D01*
X118529236Y-86887100D01*
X118555364Y-86875168D01*
X118582732Y-86866276D01*
X118755447Y-86778273D01*
X118912268Y-86664336D01*
X119049336Y-86527268D01*
X119163273Y-86370447D01*
X119251276Y-86197732D01*
X119311176Y-86013377D01*
X119341500Y-85821921D01*
X119341500Y-85628079D01*
X119311176Y-85436623D01*
X119251276Y-85252268D01*
X119163273Y-85079553D01*
X119049336Y-84922732D01*
X119049333Y-84922729D01*
X119049331Y-84922726D01*
X118912273Y-84785668D01*
X118912270Y-84785666D01*
X118912268Y-84785664D01*
X118755447Y-84671727D01*
X118582732Y-84583724D01*
X118582729Y-84583723D01*
X118582727Y-84583722D01*
X118568425Y-84579075D01*
X118555366Y-84574832D01*
X118496761Y-84534760D01*
X118469124Y-84469363D01*
X118481231Y-84399407D01*
X118529236Y-84347100D01*
X118555364Y-84335168D01*
X118582732Y-84326276D01*
X118755447Y-84238273D01*
X118912268Y-84124336D01*
X119049336Y-83987268D01*
X119163273Y-83830447D01*
X119251276Y-83657732D01*
X119311176Y-83473377D01*
X119341500Y-83281921D01*
X119341500Y-83088079D01*
X119311176Y-82896623D01*
X119251276Y-82712268D01*
X119163273Y-82539553D01*
X119049336Y-82382732D01*
X119049333Y-82382729D01*
X119049331Y-82382726D01*
X118912273Y-82245668D01*
X118912270Y-82245666D01*
X118912268Y-82245664D01*
X118755447Y-82131727D01*
X118582732Y-82043724D01*
X118582729Y-82043723D01*
X118582727Y-82043722D01*
X118568425Y-82039075D01*
X118555366Y-82034832D01*
X118496761Y-81994760D01*
X118469124Y-81929363D01*
X118481231Y-81859407D01*
X118529236Y-81807100D01*
X118555364Y-81795168D01*
X118582732Y-81786276D01*
X118755447Y-81698273D01*
X118912268Y-81584336D01*
X119049336Y-81447268D01*
X119163273Y-81290447D01*
X119251276Y-81117732D01*
X119311176Y-80933377D01*
X119341500Y-80741921D01*
X119341500Y-80548079D01*
X119311176Y-80356623D01*
X119251276Y-80172268D01*
X119163273Y-79999553D01*
X119049336Y-79842732D01*
X119049333Y-79842729D01*
X119049331Y-79842726D01*
X118912273Y-79705668D01*
X118912270Y-79705666D01*
X118912268Y-79705664D01*
X118755447Y-79591727D01*
X118582732Y-79503724D01*
X118582729Y-79503723D01*
X118582727Y-79503722D01*
X118568425Y-79499075D01*
X118555366Y-79494832D01*
X118496761Y-79454760D01*
X118469124Y-79389363D01*
X118481231Y-79319407D01*
X118529236Y-79267100D01*
X118555364Y-79255168D01*
X118582732Y-79246276D01*
X118755447Y-79158273D01*
X118912268Y-79044336D01*
X119049336Y-78907268D01*
X119163273Y-78750447D01*
X119251276Y-78577732D01*
X119311176Y-78393377D01*
X119341500Y-78201921D01*
X119341500Y-78008079D01*
X119311176Y-77816623D01*
X119251276Y-77632268D01*
X119163273Y-77459553D01*
X119049336Y-77302732D01*
X119049333Y-77302729D01*
X119049331Y-77302726D01*
X118912273Y-77165668D01*
X118912270Y-77165666D01*
X118912268Y-77165664D01*
X118755447Y-77051727D01*
X118582732Y-76963724D01*
X118582729Y-76963723D01*
X118582727Y-76963722D01*
X118568425Y-76959075D01*
X118555366Y-76954832D01*
X118496761Y-76914760D01*
X118469124Y-76849363D01*
X118481231Y-76779407D01*
X118529236Y-76727100D01*
X118555364Y-76715168D01*
X118582732Y-76706276D01*
X118755447Y-76618273D01*
X118912268Y-76504336D01*
X119049336Y-76367268D01*
X119163273Y-76210447D01*
X119251276Y-76037732D01*
X119311176Y-75853377D01*
X119341500Y-75661921D01*
X119341500Y-75468079D01*
X119311176Y-75276623D01*
X119251276Y-75092268D01*
X119163273Y-74919553D01*
X119049336Y-74762732D01*
X119049333Y-74762729D01*
X119049331Y-74762726D01*
X118912273Y-74625668D01*
X118912270Y-74625666D01*
X118912268Y-74625664D01*
X118755447Y-74511727D01*
X118722158Y-74494765D01*
X118670545Y-74446019D01*
X118653479Y-74377104D01*
X118676380Y-74309902D01*
X118731977Y-74265750D01*
X118779363Y-74256500D01*
X118996200Y-74256500D01*
X118996206Y-74256500D01*
X119070361Y-74245696D01*
X119184746Y-74189776D01*
X119274776Y-74099746D01*
X119330696Y-73985361D01*
X119341500Y-73911206D01*
X119341500Y-72138794D01*
X119330696Y-72064639D01*
X119318709Y-72040120D01*
X119304884Y-72011839D01*
X119292935Y-71941855D01*
X119320719Y-71876521D01*
X119379415Y-71836579D01*
X119418081Y-71830500D01*
X139498500Y-71830500D01*
X139566621Y-71850502D01*
G37*
%TD.AperFunction*%
%TA.AperFunction,Conductor*%
G36*
X117124012Y-114408628D02*
G01*
X117143432Y-114429787D01*
X117170664Y-114467268D01*
X117170668Y-114467273D01*
X117307726Y-114604331D01*
X117307729Y-114604333D01*
X117307732Y-114604336D01*
X117464553Y-114718273D01*
X117530246Y-114751745D01*
X117581862Y-114800493D01*
X117598928Y-114869408D01*
X117576028Y-114936609D01*
X117530248Y-114976278D01*
X117398255Y-115043532D01*
X117345831Y-115081621D01*
X117345831Y-115081622D01*
X117985051Y-115720842D01*
X117917007Y-115739075D01*
X117802993Y-115804901D01*
X117709901Y-115897993D01*
X117644075Y-116012007D01*
X117625842Y-116080051D01*
X116952405Y-115406614D01*
X116918379Y-115344302D01*
X116915500Y-115317519D01*
X116915500Y-114503852D01*
X116935502Y-114435731D01*
X116989158Y-114389238D01*
X117059432Y-114379134D01*
X117124012Y-114408628D01*
G37*
%TD.AperFunction*%
%TA.AperFunction,Conductor*%
G36*
X117644075Y-96077993D02*
G01*
X117709901Y-96192007D01*
X117802993Y-96285099D01*
X117917007Y-96350925D01*
X117985051Y-96369157D01*
X117345831Y-97008378D01*
X117398249Y-97046463D01*
X117398251Y-97046464D01*
X117530247Y-97113720D01*
X117581862Y-97162468D01*
X117598928Y-97231383D01*
X117576027Y-97298585D01*
X117530248Y-97338253D01*
X117464552Y-97371727D01*
X117307729Y-97485666D01*
X117307726Y-97485668D01*
X117170665Y-97622729D01*
X117143436Y-97660208D01*
X117087213Y-97703562D01*
X117016477Y-97709637D01*
X116953685Y-97676505D01*
X116918774Y-97614685D01*
X116915500Y-97586147D01*
X116915500Y-96772480D01*
X116935502Y-96704359D01*
X116952405Y-96683384D01*
X117625841Y-96009947D01*
X117644075Y-96077993D01*
G37*
%TD.AperFunction*%
%TA.AperFunction,Conductor*%
G36*
X117124012Y-94088628D02*
G01*
X117143432Y-94109787D01*
X117170664Y-94147268D01*
X117170668Y-94147273D01*
X117307726Y-94284331D01*
X117307729Y-94284333D01*
X117307732Y-94284336D01*
X117464553Y-94398273D01*
X117530246Y-94431745D01*
X117581862Y-94480493D01*
X117598928Y-94549408D01*
X117576028Y-94616609D01*
X117530248Y-94656278D01*
X117398255Y-94723532D01*
X117345831Y-94761621D01*
X117345831Y-94761622D01*
X117985051Y-95400842D01*
X117917007Y-95419075D01*
X117802993Y-95484901D01*
X117709901Y-95577993D01*
X117644075Y-95692007D01*
X117625842Y-95760051D01*
X116952405Y-95086614D01*
X116918379Y-95024302D01*
X116915500Y-94997519D01*
X116915500Y-94183852D01*
X116935502Y-94115731D01*
X116989158Y-94069238D01*
X117059432Y-94059134D01*
X117124012Y-94088628D01*
G37*
%TD.AperFunction*%
%TA.AperFunction,Conductor*%
G36*
X117644075Y-90997993D02*
G01*
X117709901Y-91112007D01*
X117802993Y-91205099D01*
X117917007Y-91270925D01*
X117985051Y-91289157D01*
X117345831Y-91928378D01*
X117398249Y-91966463D01*
X117398251Y-91966464D01*
X117530247Y-92033720D01*
X117581862Y-92082468D01*
X117598928Y-92151383D01*
X117576027Y-92218585D01*
X117530248Y-92258253D01*
X117464552Y-92291727D01*
X117307729Y-92405666D01*
X117307726Y-92405668D01*
X117170665Y-92542729D01*
X117143436Y-92580208D01*
X117087213Y-92623562D01*
X117016477Y-92629637D01*
X116953685Y-92596505D01*
X116918774Y-92534685D01*
X116915500Y-92506147D01*
X116915500Y-91692480D01*
X116935502Y-91624359D01*
X116952405Y-91603384D01*
X117625841Y-90929947D01*
X117644075Y-90997993D01*
G37*
%TD.AperFunction*%
%TA.AperFunction,Conductor*%
G36*
X117124012Y-89008628D02*
G01*
X117143432Y-89029787D01*
X117170664Y-89067268D01*
X117170668Y-89067273D01*
X117307726Y-89204331D01*
X117307729Y-89204333D01*
X117307732Y-89204336D01*
X117464553Y-89318273D01*
X117530246Y-89351745D01*
X117581862Y-89400493D01*
X117598928Y-89469408D01*
X117576028Y-89536609D01*
X117530248Y-89576278D01*
X117398255Y-89643532D01*
X117345831Y-89681621D01*
X117345831Y-89681622D01*
X117985051Y-90320842D01*
X117917007Y-90339075D01*
X117802993Y-90404901D01*
X117709901Y-90497993D01*
X117644075Y-90612007D01*
X117625842Y-90680051D01*
X116952405Y-90006614D01*
X116918379Y-89944302D01*
X116915500Y-89917519D01*
X116915500Y-89103852D01*
X116935502Y-89035731D01*
X116989158Y-88989238D01*
X117059432Y-88979134D01*
X117124012Y-89008628D01*
G37*
%TD.AperFunction*%
%TD*%
M02*
