M48
; DRILL file {KiCad 9.0.9-9.0.9~ubuntu24.04.1} date 2026-05-14T17:22:09-0400
; FORMAT={-:-/ absolute / inch / decimal}
; #@! TF.CreationDate,2026-05-14T17:22:09-04:00
; #@! TF.GenerationSoftware,Kicad,Pcbnew,9.0.9-9.0.9~ubuntu24.04.1
; #@! TF.FileFunction,MixedPlating,1,2
FMAT,2
INCH
; #@! TA.AperFunction,Plated,PTH,ViaDrill
T1C0.0120
; #@! TA.AperFunction,Plated,PTH,ComponentDrill
T2C0.0394
%
G90
G05
T1
X4.82Y-3.631
X4.82Y-3.772
X4.913Y-4.216
X4.918Y-4.495
X4.954Y-3.625
X4.978Y-3.785
X5.049Y-3.753
X5.065Y-3.83
X5.07Y-3.705
X5.101Y-4.29
X5.138Y-4.19
X5.138Y-4.228
X5.138Y-4.395
X5.275Y-3.753
X5.294Y-3.705
X5.3345Y-3.83
X5.415Y-3.746
T2
X4.65Y-2.875
X4.65Y-2.975
X4.65Y-3.075
X4.65Y-3.175
X4.65Y-3.275
X4.65Y-3.375
X4.65Y-3.475
X4.65Y-3.575
X4.65Y-3.675
X4.65Y-3.775
X4.65Y-3.875
X4.65Y-3.975
X4.65Y-4.075
X4.65Y-4.175
X4.65Y-4.275
X4.65Y-4.375
X4.65Y-4.475
X4.65Y-4.575
M30
