%TF.GenerationSoftware,KiCad,Pcbnew,9.0.9-9.0.9~ubuntu24.04.1*%
%TF.CreationDate,2026-05-14T17:22:04-04:00*%
%TF.ProjectId,mcp3562rbreakout,6d637033-3536-4327-9262-7265616b6f75,rev?*%
%TF.SameCoordinates,Original*%
%TF.FileFunction,Soldermask,Top*%
%TF.FilePolarity,Negative*%
%FSLAX46Y46*%
G04 Gerber Fmt 4.6, Leading zero omitted, Abs format (unit mm)*
G04 Created by KiCad (PCBNEW 9.0.9-9.0.9~ubuntu24.04.1) date 2026-05-14 17:22:04*
%MOMM*%
%LPD*%
G01*
G04 APERTURE LIST*
G04 Aperture macros list*
%AMRoundRect*
0 Rectangle with rounded corners*
0 $1 Rounding radius*
0 $2 $3 $4 $5 $6 $7 $8 $9 X,Y pos of 4 corners*
0 Add a 4 corners polygon primitive as box body*
4,1,4,$2,$3,$4,$5,$6,$7,$8,$9,$2,$3,0*
0 Add four circle primitives for the rounded corners*
1,1,$1+$1,$2,$3*
1,1,$1+$1,$4,$5*
1,1,$1+$1,$6,$7*
1,1,$1+$1,$8,$9*
0 Add four rect primitives between the rounded corners*
20,1,$1+$1,$2,$3,$4,$5,0*
20,1,$1+$1,$4,$5,$6,$7,0*
20,1,$1+$1,$6,$7,$8,$9,0*
20,1,$1+$1,$8,$9,$2,$3,0*%
G04 Aperture macros list end*
%ADD10RoundRect,0.225000X-0.250000X0.225000X-0.250000X-0.225000X0.250000X-0.225000X0.250000X0.225000X0*%
%ADD11RoundRect,0.150000X0.512500X0.150000X-0.512500X0.150000X-0.512500X-0.150000X0.512500X-0.150000X0*%
%ADD12RoundRect,0.225000X0.225000X0.250000X-0.225000X0.250000X-0.225000X-0.250000X0.225000X-0.250000X0*%
%ADD13RoundRect,0.225000X-0.225000X-0.250000X0.225000X-0.250000X0.225000X0.250000X-0.225000X0.250000X0*%
%ADD14C,1.700000*%
%ADD15R,1.700000X1.700000*%
%ADD16RoundRect,0.250000X-0.325000X-0.250000X0.325000X-0.250000X0.325000X0.250000X-0.325000X0.250000X0*%
%ADD17RoundRect,0.250000X-0.450000X-0.350000X0.450000X-0.350000X0.450000X0.350000X-0.450000X0.350000X0*%
%ADD18RoundRect,0.100000X0.637500X0.100000X-0.637500X0.100000X-0.637500X-0.100000X0.637500X-0.100000X0*%
G04 APERTURE END LIST*
D10*
%TO.C,C8*%
X122428000Y-95009000D03*
X122428000Y-93459000D03*
%TD*%
D11*
%TO.C,U3*%
X127259500Y-112583000D03*
X127259500Y-110683000D03*
X129534500Y-110683000D03*
X129534500Y-111633000D03*
X129534500Y-112583000D03*
%TD*%
D12*
%TO.C,C6*%
X125717000Y-114173000D03*
X127267000Y-114173000D03*
%TD*%
D10*
%TO.C,C4*%
X125603000Y-105524000D03*
X125603000Y-107074000D03*
%TD*%
D11*
%TO.C,U1*%
X129534500Y-107376000D03*
X129534500Y-106426000D03*
X129534500Y-105476000D03*
X127259500Y-105476000D03*
X127259500Y-106426000D03*
X127259500Y-107376000D03*
%TD*%
D13*
%TO.C,C5*%
X127241000Y-108966000D03*
X128791000Y-108966000D03*
%TD*%
D14*
%TO.C,J1*%
X118110000Y-116205000D03*
X118110000Y-113665000D03*
X118110000Y-111125000D03*
X118110000Y-108585000D03*
X118110000Y-106045000D03*
X118110000Y-103505000D03*
X118110000Y-100965000D03*
X118110000Y-98425000D03*
X118110000Y-95885000D03*
X118110000Y-93345000D03*
X118110000Y-90805000D03*
X118110000Y-88265000D03*
X118110000Y-85725000D03*
X118110000Y-83185000D03*
X118110000Y-80645000D03*
X118110000Y-78105000D03*
X118110000Y-75565000D03*
D15*
X118110000Y-73025000D03*
%TD*%
D16*
%TO.C,X2*%
X124093000Y-91251000D03*
X125843000Y-91251000D03*
X125843000Y-89851000D03*
X124093000Y-89851000D03*
%TD*%
D17*
%TO.C,X1*%
X124249000Y-95211000D03*
X126449000Y-95211000D03*
X126449000Y-93511000D03*
X124249000Y-93511000D03*
%TD*%
D12*
%TO.C,C1*%
X129807000Y-96139000D03*
X128257000Y-96139000D03*
%TD*%
D18*
%TO.C,U2*%
X135577500Y-94746000D03*
X135577500Y-94096000D03*
X135577500Y-93446000D03*
X135577500Y-92796000D03*
X135577500Y-92146000D03*
X135577500Y-91496000D03*
X135577500Y-90846000D03*
X135577500Y-90196000D03*
X135577500Y-89546000D03*
X135577500Y-88896000D03*
X129852500Y-88896000D03*
X129852500Y-89546000D03*
X129852500Y-90196000D03*
X129852500Y-90846000D03*
X129852500Y-91496000D03*
X129852500Y-92146000D03*
X129852500Y-92796000D03*
X129852500Y-93446000D03*
X129852500Y-94096000D03*
X129852500Y-94746000D03*
%TD*%
D10*
%TO.C,C7*%
X122428000Y-91416000D03*
X122428000Y-89866000D03*
%TD*%
%TO.C,C3*%
X137541000Y-92824000D03*
X137541000Y-94374000D03*
%TD*%
D12*
%TO.C,C2*%
X135522000Y-96139000D03*
X133972000Y-96139000D03*
%TD*%
M02*
