%TF.GenerationSoftware,KiCad,Pcbnew,9.0.9-9.0.9~ubuntu24.04.1*%
%TF.CreationDate,2026-06-02T22:00:36-04:00*%
%TF.ProjectId,mcp3564rbreakout,6d637033-3536-4347-9262-7265616b6f75,rev?*%
%TF.SameCoordinates,Original*%
%TF.FileFunction,Legend,Top*%
%TF.FilePolarity,Positive*%
%FSLAX46Y46*%
G04 Gerber Fmt 4.6, Leading zero omitted, Abs format (unit mm)*
G04 Created by KiCad (PCBNEW 9.0.9-9.0.9~ubuntu24.04.1) date 2026-06-02 22:00:36*
%MOMM*%
%LPD*%
G01*
G04 APERTURE LIST*
G04 Aperture macros list*
%AMRoundRect*
0 Rectangle with rounded corners*
0 $1 Rounding radius*
0 $2 $3 $4 $5 $6 $7 $8 $9 X,Y pos of 4 corners*
0 Add a 4 corners polygon primitive as box body*
4,1,4,$2,$3,$4,$5,$6,$7,$8,$9,$2,$3,0*
0 Add four circle primitives for the rounded corners*
1,1,$1+$1,$2,$3*
1,1,$1+$1,$4,$5*
1,1,$1+$1,$6,$7*
1,1,$1+$1,$8,$9*
0 Add four rect primitives between the rounded corners*
20,1,$1+$1,$2,$3,$4,$5,0*
20,1,$1+$1,$4,$5,$6,$7,0*
20,1,$1+$1,$6,$7,$8,$9,0*
20,1,$1+$1,$8,$9,$2,$3,0*%
G04 Aperture macros list end*
%ADD10C,0.152400*%
%ADD11C,0.000000*%
%ADD12C,0.120000*%
%ADD13RoundRect,0.200000X0.200000X0.275000X-0.200000X0.275000X-0.200000X-0.275000X0.200000X-0.275000X0*%
%ADD14RoundRect,0.225000X0.225000X0.250000X-0.225000X0.250000X-0.225000X-0.250000X0.225000X-0.250000X0*%
%ADD15RoundRect,0.225000X-0.250000X0.225000X-0.250000X-0.225000X0.250000X-0.225000X0.250000X0.225000X0*%
%ADD16RoundRect,0.250000X-0.325000X-0.250000X0.325000X-0.250000X0.325000X0.250000X-0.325000X0.250000X0*%
%ADD17RoundRect,0.100000X0.637500X0.100000X-0.637500X0.100000X-0.637500X-0.100000X0.637500X-0.100000X0*%
%ADD18RoundRect,0.225000X-0.225000X-0.250000X0.225000X-0.250000X0.225000X0.250000X-0.225000X0.250000X0*%
%ADD19RoundRect,0.250000X-0.450000X-0.350000X0.450000X-0.350000X0.450000X0.350000X-0.450000X0.350000X0*%
%ADD20RoundRect,0.225000X0.250000X-0.225000X0.250000X0.225000X-0.250000X0.225000X-0.250000X-0.225000X0*%
%ADD21RoundRect,0.150000X0.512500X0.150000X-0.512500X0.150000X-0.512500X-0.150000X0.512500X-0.150000X0*%
%ADD22R,1.700000X1.700000*%
%ADD23C,1.700000*%
G04 APERTURE END LIST*
D10*
X119661691Y-58129590D02*
X119661691Y-57367590D01*
X119661691Y-57367590D02*
X119843120Y-57367590D01*
X119843120Y-57367590D02*
X119951977Y-57403876D01*
X119951977Y-57403876D02*
X120024548Y-57476447D01*
X120024548Y-57476447D02*
X120060834Y-57549019D01*
X120060834Y-57549019D02*
X120097120Y-57694162D01*
X120097120Y-57694162D02*
X120097120Y-57803019D01*
X120097120Y-57803019D02*
X120060834Y-57948162D01*
X120060834Y-57948162D02*
X120024548Y-58020733D01*
X120024548Y-58020733D02*
X119951977Y-58093305D01*
X119951977Y-58093305D02*
X119843120Y-58129590D01*
X119843120Y-58129590D02*
X119661691Y-58129590D01*
X120387405Y-57911876D02*
X120750263Y-57911876D01*
X120314834Y-58129590D02*
X120568834Y-57367590D01*
X120568834Y-57367590D02*
X120822834Y-58129590D01*
X121512263Y-58057019D02*
X121475977Y-58093305D01*
X121475977Y-58093305D02*
X121367120Y-58129590D01*
X121367120Y-58129590D02*
X121294548Y-58129590D01*
X121294548Y-58129590D02*
X121185691Y-58093305D01*
X121185691Y-58093305D02*
X121113120Y-58020733D01*
X121113120Y-58020733D02*
X121076834Y-57948162D01*
X121076834Y-57948162D02*
X121040548Y-57803019D01*
X121040548Y-57803019D02*
X121040548Y-57694162D01*
X121040548Y-57694162D02*
X121076834Y-57549019D01*
X121076834Y-57549019D02*
X121113120Y-57476447D01*
X121113120Y-57476447D02*
X121185691Y-57403876D01*
X121185691Y-57403876D02*
X121294548Y-57367590D01*
X121294548Y-57367590D02*
X121367120Y-57367590D01*
X121367120Y-57367590D02*
X121475977Y-57403876D01*
X121475977Y-57403876D02*
X121512263Y-57440162D01*
X122237977Y-58129590D02*
X121802548Y-58129590D01*
X122020263Y-58129590D02*
X122020263Y-57367590D01*
X122020263Y-57367590D02*
X121947691Y-57476447D01*
X121947691Y-57476447D02*
X121875120Y-57549019D01*
X121875120Y-57549019D02*
X121802548Y-57585305D01*
X122383120Y-58202162D02*
X122963691Y-58202162D01*
X123580548Y-58057019D02*
X123544262Y-58093305D01*
X123544262Y-58093305D02*
X123435405Y-58129590D01*
X123435405Y-58129590D02*
X123362833Y-58129590D01*
X123362833Y-58129590D02*
X123253976Y-58093305D01*
X123253976Y-58093305D02*
X123181405Y-58020733D01*
X123181405Y-58020733D02*
X123145119Y-57948162D01*
X123145119Y-57948162D02*
X123108833Y-57803019D01*
X123108833Y-57803019D02*
X123108833Y-57694162D01*
X123108833Y-57694162D02*
X123145119Y-57549019D01*
X123145119Y-57549019D02*
X123181405Y-57476447D01*
X123181405Y-57476447D02*
X123253976Y-57403876D01*
X123253976Y-57403876D02*
X123362833Y-57367590D01*
X123362833Y-57367590D02*
X123435405Y-57367590D01*
X123435405Y-57367590D02*
X123544262Y-57403876D01*
X123544262Y-57403876D02*
X123580548Y-57440162D01*
X123870833Y-58093305D02*
X123979691Y-58129590D01*
X123979691Y-58129590D02*
X124161119Y-58129590D01*
X124161119Y-58129590D02*
X124233691Y-58093305D01*
X124233691Y-58093305D02*
X124269976Y-58057019D01*
X124269976Y-58057019D02*
X124306262Y-57984447D01*
X124306262Y-57984447D02*
X124306262Y-57911876D01*
X124306262Y-57911876D02*
X124269976Y-57839305D01*
X124269976Y-57839305D02*
X124233691Y-57803019D01*
X124233691Y-57803019D02*
X124161119Y-57766733D01*
X124161119Y-57766733D02*
X124015976Y-57730447D01*
X124015976Y-57730447D02*
X123943405Y-57694162D01*
X123943405Y-57694162D02*
X123907119Y-57657876D01*
X123907119Y-57657876D02*
X123870833Y-57585305D01*
X123870833Y-57585305D02*
X123870833Y-57512733D01*
X123870833Y-57512733D02*
X123907119Y-57440162D01*
X123907119Y-57440162D02*
X123943405Y-57403876D01*
X123943405Y-57403876D02*
X124015976Y-57367590D01*
X124015976Y-57367590D02*
X124197405Y-57367590D01*
X124197405Y-57367590D02*
X124306262Y-57403876D01*
X119556463Y-57156045D02*
X124375205Y-57156045D01*
X120024548Y-63209590D02*
X119661691Y-63209590D01*
X119661691Y-63209590D02*
X119661691Y-62447590D01*
X120278548Y-63209590D02*
X120278548Y-62447590D01*
X120278548Y-62447590D02*
X120459977Y-62447590D01*
X120459977Y-62447590D02*
X120568834Y-62483876D01*
X120568834Y-62483876D02*
X120641405Y-62556447D01*
X120641405Y-62556447D02*
X120677691Y-62629019D01*
X120677691Y-62629019D02*
X120713977Y-62774162D01*
X120713977Y-62774162D02*
X120713977Y-62883019D01*
X120713977Y-62883019D02*
X120677691Y-63028162D01*
X120677691Y-63028162D02*
X120641405Y-63100733D01*
X120641405Y-63100733D02*
X120568834Y-63173305D01*
X120568834Y-63173305D02*
X120459977Y-63209590D01*
X120459977Y-63209590D02*
X120278548Y-63209590D01*
X121004262Y-62991876D02*
X121367120Y-62991876D01*
X120931691Y-63209590D02*
X121185691Y-62447590D01*
X121185691Y-62447590D02*
X121439691Y-63209590D01*
X122129120Y-63137019D02*
X122092834Y-63173305D01*
X122092834Y-63173305D02*
X121983977Y-63209590D01*
X121983977Y-63209590D02*
X121911405Y-63209590D01*
X121911405Y-63209590D02*
X121802548Y-63173305D01*
X121802548Y-63173305D02*
X121729977Y-63100733D01*
X121729977Y-63100733D02*
X121693691Y-63028162D01*
X121693691Y-63028162D02*
X121657405Y-62883019D01*
X121657405Y-62883019D02*
X121657405Y-62774162D01*
X121657405Y-62774162D02*
X121693691Y-62629019D01*
X121693691Y-62629019D02*
X121729977Y-62556447D01*
X121729977Y-62556447D02*
X121802548Y-62483876D01*
X121802548Y-62483876D02*
X121911405Y-62447590D01*
X121911405Y-62447590D02*
X121983977Y-62447590D01*
X121983977Y-62447590D02*
X122092834Y-62483876D01*
X122092834Y-62483876D02*
X122129120Y-62520162D01*
X119556463Y-62236045D02*
X122198063Y-62236045D01*
X119661691Y-60669590D02*
X119661691Y-59907590D01*
X119661691Y-59907590D02*
X119843120Y-59907590D01*
X119843120Y-59907590D02*
X119951977Y-59943876D01*
X119951977Y-59943876D02*
X120024548Y-60016447D01*
X120024548Y-60016447D02*
X120060834Y-60089019D01*
X120060834Y-60089019D02*
X120097120Y-60234162D01*
X120097120Y-60234162D02*
X120097120Y-60343019D01*
X120097120Y-60343019D02*
X120060834Y-60488162D01*
X120060834Y-60488162D02*
X120024548Y-60560733D01*
X120024548Y-60560733D02*
X119951977Y-60633305D01*
X119951977Y-60633305D02*
X119843120Y-60669590D01*
X119843120Y-60669590D02*
X119661691Y-60669590D01*
X120387405Y-60451876D02*
X120750263Y-60451876D01*
X120314834Y-60669590D02*
X120568834Y-59907590D01*
X120568834Y-59907590D02*
X120822834Y-60669590D01*
X121512263Y-60597019D02*
X121475977Y-60633305D01*
X121475977Y-60633305D02*
X121367120Y-60669590D01*
X121367120Y-60669590D02*
X121294548Y-60669590D01*
X121294548Y-60669590D02*
X121185691Y-60633305D01*
X121185691Y-60633305D02*
X121113120Y-60560733D01*
X121113120Y-60560733D02*
X121076834Y-60488162D01*
X121076834Y-60488162D02*
X121040548Y-60343019D01*
X121040548Y-60343019D02*
X121040548Y-60234162D01*
X121040548Y-60234162D02*
X121076834Y-60089019D01*
X121076834Y-60089019D02*
X121113120Y-60016447D01*
X121113120Y-60016447D02*
X121185691Y-59943876D01*
X121185691Y-59943876D02*
X121294548Y-59907590D01*
X121294548Y-59907590D02*
X121367120Y-59907590D01*
X121367120Y-59907590D02*
X121475977Y-59943876D01*
X121475977Y-59943876D02*
X121512263Y-59980162D01*
X121802548Y-59980162D02*
X121838834Y-59943876D01*
X121838834Y-59943876D02*
X121911406Y-59907590D01*
X121911406Y-59907590D02*
X122092834Y-59907590D01*
X122092834Y-59907590D02*
X122165406Y-59943876D01*
X122165406Y-59943876D02*
X122201691Y-59980162D01*
X122201691Y-59980162D02*
X122237977Y-60052733D01*
X122237977Y-60052733D02*
X122237977Y-60125305D01*
X122237977Y-60125305D02*
X122201691Y-60234162D01*
X122201691Y-60234162D02*
X121766263Y-60669590D01*
X121766263Y-60669590D02*
X122237977Y-60669590D01*
X122383120Y-60742162D02*
X122963691Y-60742162D01*
X123580548Y-60597019D02*
X123544262Y-60633305D01*
X123544262Y-60633305D02*
X123435405Y-60669590D01*
X123435405Y-60669590D02*
X123362833Y-60669590D01*
X123362833Y-60669590D02*
X123253976Y-60633305D01*
X123253976Y-60633305D02*
X123181405Y-60560733D01*
X123181405Y-60560733D02*
X123145119Y-60488162D01*
X123145119Y-60488162D02*
X123108833Y-60343019D01*
X123108833Y-60343019D02*
X123108833Y-60234162D01*
X123108833Y-60234162D02*
X123145119Y-60089019D01*
X123145119Y-60089019D02*
X123181405Y-60016447D01*
X123181405Y-60016447D02*
X123253976Y-59943876D01*
X123253976Y-59943876D02*
X123362833Y-59907590D01*
X123362833Y-59907590D02*
X123435405Y-59907590D01*
X123435405Y-59907590D02*
X123544262Y-59943876D01*
X123544262Y-59943876D02*
X123580548Y-59980162D01*
X123870833Y-60633305D02*
X123979691Y-60669590D01*
X123979691Y-60669590D02*
X124161119Y-60669590D01*
X124161119Y-60669590D02*
X124233691Y-60633305D01*
X124233691Y-60633305D02*
X124269976Y-60597019D01*
X124269976Y-60597019D02*
X124306262Y-60524447D01*
X124306262Y-60524447D02*
X124306262Y-60451876D01*
X124306262Y-60451876D02*
X124269976Y-60379305D01*
X124269976Y-60379305D02*
X124233691Y-60343019D01*
X124233691Y-60343019D02*
X124161119Y-60306733D01*
X124161119Y-60306733D02*
X124015976Y-60270447D01*
X124015976Y-60270447D02*
X123943405Y-60234162D01*
X123943405Y-60234162D02*
X123907119Y-60197876D01*
X123907119Y-60197876D02*
X123870833Y-60125305D01*
X123870833Y-60125305D02*
X123870833Y-60052733D01*
X123870833Y-60052733D02*
X123907119Y-59980162D01*
X123907119Y-59980162D02*
X123943405Y-59943876D01*
X123943405Y-59943876D02*
X124015976Y-59907590D01*
X124015976Y-59907590D02*
X124197405Y-59907590D01*
X124197405Y-59907590D02*
X124306262Y-59943876D01*
X119556463Y-59696045D02*
X124375205Y-59696045D01*
X119625405Y-65531876D02*
X119988263Y-65531876D01*
X119552834Y-65749590D02*
X119806834Y-64987590D01*
X119806834Y-64987590D02*
X120060834Y-65749590D01*
X120314834Y-65749590D02*
X120314834Y-64987590D01*
X120314834Y-64987590D02*
X120496263Y-64987590D01*
X120496263Y-64987590D02*
X120605120Y-65023876D01*
X120605120Y-65023876D02*
X120677691Y-65096447D01*
X120677691Y-65096447D02*
X120713977Y-65169019D01*
X120713977Y-65169019D02*
X120750263Y-65314162D01*
X120750263Y-65314162D02*
X120750263Y-65423019D01*
X120750263Y-65423019D02*
X120713977Y-65568162D01*
X120713977Y-65568162D02*
X120677691Y-65640733D01*
X120677691Y-65640733D02*
X120605120Y-65713305D01*
X120605120Y-65713305D02*
X120496263Y-65749590D01*
X120496263Y-65749590D02*
X120314834Y-65749590D01*
X121512263Y-65677019D02*
X121475977Y-65713305D01*
X121475977Y-65713305D02*
X121367120Y-65749590D01*
X121367120Y-65749590D02*
X121294548Y-65749590D01*
X121294548Y-65749590D02*
X121185691Y-65713305D01*
X121185691Y-65713305D02*
X121113120Y-65640733D01*
X121113120Y-65640733D02*
X121076834Y-65568162D01*
X121076834Y-65568162D02*
X121040548Y-65423019D01*
X121040548Y-65423019D02*
X121040548Y-65314162D01*
X121040548Y-65314162D02*
X121076834Y-65169019D01*
X121076834Y-65169019D02*
X121113120Y-65096447D01*
X121113120Y-65096447D02*
X121185691Y-65023876D01*
X121185691Y-65023876D02*
X121294548Y-64987590D01*
X121294548Y-64987590D02*
X121367120Y-64987590D01*
X121367120Y-64987590D02*
X121475977Y-65023876D01*
X121475977Y-65023876D02*
X121512263Y-65060162D01*
X121657406Y-65822162D02*
X122237977Y-65822162D01*
X122854834Y-65677019D02*
X122818548Y-65713305D01*
X122818548Y-65713305D02*
X122709691Y-65749590D01*
X122709691Y-65749590D02*
X122637119Y-65749590D01*
X122637119Y-65749590D02*
X122528262Y-65713305D01*
X122528262Y-65713305D02*
X122455691Y-65640733D01*
X122455691Y-65640733D02*
X122419405Y-65568162D01*
X122419405Y-65568162D02*
X122383119Y-65423019D01*
X122383119Y-65423019D02*
X122383119Y-65314162D01*
X122383119Y-65314162D02*
X122419405Y-65169019D01*
X122419405Y-65169019D02*
X122455691Y-65096447D01*
X122455691Y-65096447D02*
X122528262Y-65023876D01*
X122528262Y-65023876D02*
X122637119Y-64987590D01*
X122637119Y-64987590D02*
X122709691Y-64987590D01*
X122709691Y-64987590D02*
X122818548Y-65023876D01*
X122818548Y-65023876D02*
X122854834Y-65060162D01*
X123145119Y-65713305D02*
X123253977Y-65749590D01*
X123253977Y-65749590D02*
X123435405Y-65749590D01*
X123435405Y-65749590D02*
X123507977Y-65713305D01*
X123507977Y-65713305D02*
X123544262Y-65677019D01*
X123544262Y-65677019D02*
X123580548Y-65604447D01*
X123580548Y-65604447D02*
X123580548Y-65531876D01*
X123580548Y-65531876D02*
X123544262Y-65459305D01*
X123544262Y-65459305D02*
X123507977Y-65423019D01*
X123507977Y-65423019D02*
X123435405Y-65386733D01*
X123435405Y-65386733D02*
X123290262Y-65350447D01*
X123290262Y-65350447D02*
X123217691Y-65314162D01*
X123217691Y-65314162D02*
X123181405Y-65277876D01*
X123181405Y-65277876D02*
X123145119Y-65205305D01*
X123145119Y-65205305D02*
X123145119Y-65132733D01*
X123145119Y-65132733D02*
X123181405Y-65060162D01*
X123181405Y-65060162D02*
X123217691Y-65023876D01*
X123217691Y-65023876D02*
X123290262Y-64987590D01*
X123290262Y-64987590D02*
X123471691Y-64987590D01*
X123471691Y-64987590D02*
X123580548Y-65023876D01*
X119556463Y-64776045D02*
X123649491Y-64776045D01*
X119625405Y-68253305D02*
X119734263Y-68289590D01*
X119734263Y-68289590D02*
X119915691Y-68289590D01*
X119915691Y-68289590D02*
X119988263Y-68253305D01*
X119988263Y-68253305D02*
X120024548Y-68217019D01*
X120024548Y-68217019D02*
X120060834Y-68144447D01*
X120060834Y-68144447D02*
X120060834Y-68071876D01*
X120060834Y-68071876D02*
X120024548Y-67999305D01*
X120024548Y-67999305D02*
X119988263Y-67963019D01*
X119988263Y-67963019D02*
X119915691Y-67926733D01*
X119915691Y-67926733D02*
X119770548Y-67890447D01*
X119770548Y-67890447D02*
X119697977Y-67854162D01*
X119697977Y-67854162D02*
X119661691Y-67817876D01*
X119661691Y-67817876D02*
X119625405Y-67745305D01*
X119625405Y-67745305D02*
X119625405Y-67672733D01*
X119625405Y-67672733D02*
X119661691Y-67600162D01*
X119661691Y-67600162D02*
X119697977Y-67563876D01*
X119697977Y-67563876D02*
X119770548Y-67527590D01*
X119770548Y-67527590D02*
X119951977Y-67527590D01*
X119951977Y-67527590D02*
X120060834Y-67563876D01*
X120822834Y-68217019D02*
X120786548Y-68253305D01*
X120786548Y-68253305D02*
X120677691Y-68289590D01*
X120677691Y-68289590D02*
X120605119Y-68289590D01*
X120605119Y-68289590D02*
X120496262Y-68253305D01*
X120496262Y-68253305D02*
X120423691Y-68180733D01*
X120423691Y-68180733D02*
X120387405Y-68108162D01*
X120387405Y-68108162D02*
X120351119Y-67963019D01*
X120351119Y-67963019D02*
X120351119Y-67854162D01*
X120351119Y-67854162D02*
X120387405Y-67709019D01*
X120387405Y-67709019D02*
X120423691Y-67636447D01*
X120423691Y-67636447D02*
X120496262Y-67563876D01*
X120496262Y-67563876D02*
X120605119Y-67527590D01*
X120605119Y-67527590D02*
X120677691Y-67527590D01*
X120677691Y-67527590D02*
X120786548Y-67563876D01*
X120786548Y-67563876D02*
X120822834Y-67600162D01*
X121149405Y-68289590D02*
X121149405Y-67527590D01*
X121584834Y-68289590D02*
X121258262Y-67854162D01*
X121584834Y-67527590D02*
X121149405Y-67963019D01*
X119661691Y-70829590D02*
X119661691Y-70067590D01*
X119661691Y-70067590D02*
X119915691Y-70611876D01*
X119915691Y-70611876D02*
X120169691Y-70067590D01*
X120169691Y-70067590D02*
X120169691Y-70829590D01*
X120677691Y-70067590D02*
X120822834Y-70067590D01*
X120822834Y-70067590D02*
X120895405Y-70103876D01*
X120895405Y-70103876D02*
X120967977Y-70176447D01*
X120967977Y-70176447D02*
X121004262Y-70321590D01*
X121004262Y-70321590D02*
X121004262Y-70575590D01*
X121004262Y-70575590D02*
X120967977Y-70720733D01*
X120967977Y-70720733D02*
X120895405Y-70793305D01*
X120895405Y-70793305D02*
X120822834Y-70829590D01*
X120822834Y-70829590D02*
X120677691Y-70829590D01*
X120677691Y-70829590D02*
X120605120Y-70793305D01*
X120605120Y-70793305D02*
X120532548Y-70720733D01*
X120532548Y-70720733D02*
X120496262Y-70575590D01*
X120496262Y-70575590D02*
X120496262Y-70321590D01*
X120496262Y-70321590D02*
X120532548Y-70176447D01*
X120532548Y-70176447D02*
X120605120Y-70103876D01*
X120605120Y-70103876D02*
X120677691Y-70067590D01*
X121294548Y-70793305D02*
X121403406Y-70829590D01*
X121403406Y-70829590D02*
X121584834Y-70829590D01*
X121584834Y-70829590D02*
X121657406Y-70793305D01*
X121657406Y-70793305D02*
X121693691Y-70757019D01*
X121693691Y-70757019D02*
X121729977Y-70684447D01*
X121729977Y-70684447D02*
X121729977Y-70611876D01*
X121729977Y-70611876D02*
X121693691Y-70539305D01*
X121693691Y-70539305D02*
X121657406Y-70503019D01*
X121657406Y-70503019D02*
X121584834Y-70466733D01*
X121584834Y-70466733D02*
X121439691Y-70430447D01*
X121439691Y-70430447D02*
X121367120Y-70394162D01*
X121367120Y-70394162D02*
X121330834Y-70357876D01*
X121330834Y-70357876D02*
X121294548Y-70285305D01*
X121294548Y-70285305D02*
X121294548Y-70212733D01*
X121294548Y-70212733D02*
X121330834Y-70140162D01*
X121330834Y-70140162D02*
X121367120Y-70103876D01*
X121367120Y-70103876D02*
X121439691Y-70067590D01*
X121439691Y-70067590D02*
X121621120Y-70067590D01*
X121621120Y-70067590D02*
X121729977Y-70103876D01*
X122056548Y-70829590D02*
X122056548Y-70067590D01*
X119661691Y-73369590D02*
X119661691Y-72607590D01*
X119661691Y-72607590D02*
X119915691Y-73151876D01*
X119915691Y-73151876D02*
X120169691Y-72607590D01*
X120169691Y-72607590D02*
X120169691Y-73369590D01*
X120532548Y-73369590D02*
X120532548Y-72607590D01*
X120859119Y-73333305D02*
X120967977Y-73369590D01*
X120967977Y-73369590D02*
X121149405Y-73369590D01*
X121149405Y-73369590D02*
X121221977Y-73333305D01*
X121221977Y-73333305D02*
X121258262Y-73297019D01*
X121258262Y-73297019D02*
X121294548Y-73224447D01*
X121294548Y-73224447D02*
X121294548Y-73151876D01*
X121294548Y-73151876D02*
X121258262Y-73079305D01*
X121258262Y-73079305D02*
X121221977Y-73043019D01*
X121221977Y-73043019D02*
X121149405Y-73006733D01*
X121149405Y-73006733D02*
X121004262Y-72970447D01*
X121004262Y-72970447D02*
X120931691Y-72934162D01*
X120931691Y-72934162D02*
X120895405Y-72897876D01*
X120895405Y-72897876D02*
X120859119Y-72825305D01*
X120859119Y-72825305D02*
X120859119Y-72752733D01*
X120859119Y-72752733D02*
X120895405Y-72680162D01*
X120895405Y-72680162D02*
X120931691Y-72643876D01*
X120931691Y-72643876D02*
X121004262Y-72607590D01*
X121004262Y-72607590D02*
X121185691Y-72607590D01*
X121185691Y-72607590D02*
X121294548Y-72643876D01*
X121766262Y-72607590D02*
X121911405Y-72607590D01*
X121911405Y-72607590D02*
X121983976Y-72643876D01*
X121983976Y-72643876D02*
X122056548Y-72716447D01*
X122056548Y-72716447D02*
X122092833Y-72861590D01*
X122092833Y-72861590D02*
X122092833Y-73115590D01*
X122092833Y-73115590D02*
X122056548Y-73260733D01*
X122056548Y-73260733D02*
X121983976Y-73333305D01*
X121983976Y-73333305D02*
X121911405Y-73369590D01*
X121911405Y-73369590D02*
X121766262Y-73369590D01*
X121766262Y-73369590D02*
X121693691Y-73333305D01*
X121693691Y-73333305D02*
X121621119Y-73260733D01*
X121621119Y-73260733D02*
X121584833Y-73115590D01*
X121584833Y-73115590D02*
X121584833Y-72861590D01*
X121584833Y-72861590D02*
X121621119Y-72716447D01*
X121621119Y-72716447D02*
X121693691Y-72643876D01*
X121693691Y-72643876D02*
X121766262Y-72607590D01*
X119661691Y-75909590D02*
X119661691Y-75147590D01*
X120459977Y-75909590D02*
X120205977Y-75546733D01*
X120024548Y-75909590D02*
X120024548Y-75147590D01*
X120024548Y-75147590D02*
X120314834Y-75147590D01*
X120314834Y-75147590D02*
X120387405Y-75183876D01*
X120387405Y-75183876D02*
X120423691Y-75220162D01*
X120423691Y-75220162D02*
X120459977Y-75292733D01*
X120459977Y-75292733D02*
X120459977Y-75401590D01*
X120459977Y-75401590D02*
X120423691Y-75474162D01*
X120423691Y-75474162D02*
X120387405Y-75510447D01*
X120387405Y-75510447D02*
X120314834Y-75546733D01*
X120314834Y-75546733D02*
X120024548Y-75546733D01*
X121294548Y-75982162D02*
X121221977Y-75945876D01*
X121221977Y-75945876D02*
X121149405Y-75873305D01*
X121149405Y-75873305D02*
X121040548Y-75764447D01*
X121040548Y-75764447D02*
X120967977Y-75728162D01*
X120967977Y-75728162D02*
X120895405Y-75728162D01*
X120931691Y-75909590D02*
X120859120Y-75873305D01*
X120859120Y-75873305D02*
X120786548Y-75800733D01*
X120786548Y-75800733D02*
X120750262Y-75655590D01*
X120750262Y-75655590D02*
X120750262Y-75401590D01*
X120750262Y-75401590D02*
X120786548Y-75256447D01*
X120786548Y-75256447D02*
X120859120Y-75183876D01*
X120859120Y-75183876D02*
X120931691Y-75147590D01*
X120931691Y-75147590D02*
X121076834Y-75147590D01*
X121076834Y-75147590D02*
X121149405Y-75183876D01*
X121149405Y-75183876D02*
X121221977Y-75256447D01*
X121221977Y-75256447D02*
X121258262Y-75401590D01*
X121258262Y-75401590D02*
X121258262Y-75655590D01*
X121258262Y-75655590D02*
X121221977Y-75800733D01*
X121221977Y-75800733D02*
X121149405Y-75873305D01*
X121149405Y-75873305D02*
X121076834Y-75909590D01*
X121076834Y-75909590D02*
X120931691Y-75909590D01*
X119556463Y-74936045D02*
X121327206Y-74936045D01*
X122129120Y-75111305D02*
X121475977Y-76091019D01*
X122383120Y-75909590D02*
X122383120Y-75147590D01*
X122383120Y-75147590D02*
X122637120Y-75691876D01*
X122637120Y-75691876D02*
X122891120Y-75147590D01*
X122891120Y-75147590D02*
X122891120Y-75909590D01*
X123253977Y-75909590D02*
X123253977Y-75147590D01*
X123253977Y-75147590D02*
X123435406Y-75147590D01*
X123435406Y-75147590D02*
X123544263Y-75183876D01*
X123544263Y-75183876D02*
X123616834Y-75256447D01*
X123616834Y-75256447D02*
X123653120Y-75329019D01*
X123653120Y-75329019D02*
X123689406Y-75474162D01*
X123689406Y-75474162D02*
X123689406Y-75583019D01*
X123689406Y-75583019D02*
X123653120Y-75728162D01*
X123653120Y-75728162D02*
X123616834Y-75800733D01*
X123616834Y-75800733D02*
X123544263Y-75873305D01*
X123544263Y-75873305D02*
X123435406Y-75909590D01*
X123435406Y-75909590D02*
X123253977Y-75909590D01*
X123979691Y-75691876D02*
X124342549Y-75691876D01*
X123907120Y-75909590D02*
X124161120Y-75147590D01*
X124161120Y-75147590D02*
X124415120Y-75909590D01*
X124560263Y-75147590D02*
X124995692Y-75147590D01*
X124777977Y-75909590D02*
X124777977Y-75147590D01*
X119661691Y-78449590D02*
X119661691Y-77687590D01*
X119661691Y-77687590D02*
X119915691Y-78231876D01*
X119915691Y-78231876D02*
X120169691Y-77687590D01*
X120169691Y-77687590D02*
X120169691Y-78449590D01*
X120967977Y-78377019D02*
X120931691Y-78413305D01*
X120931691Y-78413305D02*
X120822834Y-78449590D01*
X120822834Y-78449590D02*
X120750262Y-78449590D01*
X120750262Y-78449590D02*
X120641405Y-78413305D01*
X120641405Y-78413305D02*
X120568834Y-78340733D01*
X120568834Y-78340733D02*
X120532548Y-78268162D01*
X120532548Y-78268162D02*
X120496262Y-78123019D01*
X120496262Y-78123019D02*
X120496262Y-78014162D01*
X120496262Y-78014162D02*
X120532548Y-77869019D01*
X120532548Y-77869019D02*
X120568834Y-77796447D01*
X120568834Y-77796447D02*
X120641405Y-77723876D01*
X120641405Y-77723876D02*
X120750262Y-77687590D01*
X120750262Y-77687590D02*
X120822834Y-77687590D01*
X120822834Y-77687590D02*
X120931691Y-77723876D01*
X120931691Y-77723876D02*
X120967977Y-77760162D01*
X121657405Y-78449590D02*
X121294548Y-78449590D01*
X121294548Y-78449590D02*
X121294548Y-77687590D01*
X121911405Y-78449590D02*
X121911405Y-77687590D01*
X122346834Y-78449590D02*
X122020262Y-78014162D01*
X122346834Y-77687590D02*
X121911405Y-78123019D01*
X119661691Y-80590447D02*
X119915691Y-80590447D01*
X120024548Y-80989590D02*
X119661691Y-80989590D01*
X119661691Y-80989590D02*
X119661691Y-80227590D01*
X119661691Y-80227590D02*
X120024548Y-80227590D01*
X120351120Y-80989590D02*
X120351120Y-80227590D01*
X120351120Y-80227590D02*
X120786549Y-80989590D01*
X120786549Y-80989590D02*
X120786549Y-80227590D01*
X121113120Y-80771876D02*
X121475978Y-80771876D01*
X121040549Y-80989590D02*
X121294549Y-80227590D01*
X121294549Y-80227590D02*
X121548549Y-80989590D01*
X120060834Y-82803876D02*
X119988263Y-82767590D01*
X119988263Y-82767590D02*
X119879405Y-82767590D01*
X119879405Y-82767590D02*
X119770548Y-82803876D01*
X119770548Y-82803876D02*
X119697977Y-82876447D01*
X119697977Y-82876447D02*
X119661691Y-82949019D01*
X119661691Y-82949019D02*
X119625405Y-83094162D01*
X119625405Y-83094162D02*
X119625405Y-83203019D01*
X119625405Y-83203019D02*
X119661691Y-83348162D01*
X119661691Y-83348162D02*
X119697977Y-83420733D01*
X119697977Y-83420733D02*
X119770548Y-83493305D01*
X119770548Y-83493305D02*
X119879405Y-83529590D01*
X119879405Y-83529590D02*
X119951977Y-83529590D01*
X119951977Y-83529590D02*
X120060834Y-83493305D01*
X120060834Y-83493305D02*
X120097120Y-83457019D01*
X120097120Y-83457019D02*
X120097120Y-83203019D01*
X120097120Y-83203019D02*
X119951977Y-83203019D01*
X120423691Y-83529590D02*
X120423691Y-82767590D01*
X120423691Y-82767590D02*
X120859120Y-83529590D01*
X120859120Y-83529590D02*
X120859120Y-82767590D01*
X121221977Y-83529590D02*
X121221977Y-82767590D01*
X121221977Y-82767590D02*
X121403406Y-82767590D01*
X121403406Y-82767590D02*
X121512263Y-82803876D01*
X121512263Y-82803876D02*
X121584834Y-82876447D01*
X121584834Y-82876447D02*
X121621120Y-82949019D01*
X121621120Y-82949019D02*
X121657406Y-83094162D01*
X121657406Y-83094162D02*
X121657406Y-83203019D01*
X121657406Y-83203019D02*
X121621120Y-83348162D01*
X121621120Y-83348162D02*
X121584834Y-83420733D01*
X121584834Y-83420733D02*
X121512263Y-83493305D01*
X121512263Y-83493305D02*
X121403406Y-83529590D01*
X121403406Y-83529590D02*
X121221977Y-83529590D01*
X119589120Y-85307590D02*
X120060834Y-85307590D01*
X120060834Y-85307590D02*
X119806834Y-85597876D01*
X119806834Y-85597876D02*
X119915691Y-85597876D01*
X119915691Y-85597876D02*
X119988263Y-85634162D01*
X119988263Y-85634162D02*
X120024548Y-85670447D01*
X120024548Y-85670447D02*
X120060834Y-85743019D01*
X120060834Y-85743019D02*
X120060834Y-85924447D01*
X120060834Y-85924447D02*
X120024548Y-85997019D01*
X120024548Y-85997019D02*
X119988263Y-86033305D01*
X119988263Y-86033305D02*
X119915691Y-86069590D01*
X119915691Y-86069590D02*
X119697977Y-86069590D01*
X119697977Y-86069590D02*
X119625405Y-86033305D01*
X119625405Y-86033305D02*
X119589120Y-85997019D01*
X120278548Y-85307590D02*
X120532548Y-86069590D01*
X120532548Y-86069590D02*
X120786548Y-85307590D01*
X120967977Y-85307590D02*
X121439691Y-85307590D01*
X121439691Y-85307590D02*
X121185691Y-85597876D01*
X121185691Y-85597876D02*
X121294548Y-85597876D01*
X121294548Y-85597876D02*
X121367120Y-85634162D01*
X121367120Y-85634162D02*
X121403405Y-85670447D01*
X121403405Y-85670447D02*
X121439691Y-85743019D01*
X121439691Y-85743019D02*
X121439691Y-85924447D01*
X121439691Y-85924447D02*
X121403405Y-85997019D01*
X121403405Y-85997019D02*
X121367120Y-86033305D01*
X121367120Y-86033305D02*
X121294548Y-86069590D01*
X121294548Y-86069590D02*
X121076834Y-86069590D01*
X121076834Y-86069590D02*
X121004262Y-86033305D01*
X121004262Y-86033305D02*
X120967977Y-85997019D01*
X120060834Y-87883876D02*
X119988263Y-87847590D01*
X119988263Y-87847590D02*
X119879405Y-87847590D01*
X119879405Y-87847590D02*
X119770548Y-87883876D01*
X119770548Y-87883876D02*
X119697977Y-87956447D01*
X119697977Y-87956447D02*
X119661691Y-88029019D01*
X119661691Y-88029019D02*
X119625405Y-88174162D01*
X119625405Y-88174162D02*
X119625405Y-88283019D01*
X119625405Y-88283019D02*
X119661691Y-88428162D01*
X119661691Y-88428162D02*
X119697977Y-88500733D01*
X119697977Y-88500733D02*
X119770548Y-88573305D01*
X119770548Y-88573305D02*
X119879405Y-88609590D01*
X119879405Y-88609590D02*
X119951977Y-88609590D01*
X119951977Y-88609590D02*
X120060834Y-88573305D01*
X120060834Y-88573305D02*
X120097120Y-88537019D01*
X120097120Y-88537019D02*
X120097120Y-88283019D01*
X120097120Y-88283019D02*
X119951977Y-88283019D01*
X120423691Y-88609590D02*
X120423691Y-87847590D01*
X120423691Y-87847590D02*
X120859120Y-88609590D01*
X120859120Y-88609590D02*
X120859120Y-87847590D01*
X121221977Y-88609590D02*
X121221977Y-87847590D01*
X121221977Y-87847590D02*
X121403406Y-87847590D01*
X121403406Y-87847590D02*
X121512263Y-87883876D01*
X121512263Y-87883876D02*
X121584834Y-87956447D01*
X121584834Y-87956447D02*
X121621120Y-88029019D01*
X121621120Y-88029019D02*
X121657406Y-88174162D01*
X121657406Y-88174162D02*
X121657406Y-88283019D01*
X121657406Y-88283019D02*
X121621120Y-88428162D01*
X121621120Y-88428162D02*
X121584834Y-88500733D01*
X121584834Y-88500733D02*
X121512263Y-88573305D01*
X121512263Y-88573305D02*
X121403406Y-88609590D01*
X121403406Y-88609590D02*
X121221977Y-88609590D01*
X120097120Y-91077019D02*
X120060834Y-91113305D01*
X120060834Y-91113305D02*
X119951977Y-91149590D01*
X119951977Y-91149590D02*
X119879405Y-91149590D01*
X119879405Y-91149590D02*
X119770548Y-91113305D01*
X119770548Y-91113305D02*
X119697977Y-91040733D01*
X119697977Y-91040733D02*
X119661691Y-90968162D01*
X119661691Y-90968162D02*
X119625405Y-90823019D01*
X119625405Y-90823019D02*
X119625405Y-90714162D01*
X119625405Y-90714162D02*
X119661691Y-90569019D01*
X119661691Y-90569019D02*
X119697977Y-90496447D01*
X119697977Y-90496447D02*
X119770548Y-90423876D01*
X119770548Y-90423876D02*
X119879405Y-90387590D01*
X119879405Y-90387590D02*
X119951977Y-90387590D01*
X119951977Y-90387590D02*
X120060834Y-90423876D01*
X120060834Y-90423876D02*
X120097120Y-90460162D01*
X120423691Y-91149590D02*
X120423691Y-90387590D01*
X120423691Y-90750447D02*
X120859120Y-90750447D01*
X120859120Y-91149590D02*
X120859120Y-90387590D01*
X121149406Y-90387590D02*
X121657406Y-90387590D01*
X121657406Y-90387590D02*
X121330834Y-91149590D01*
X120097120Y-93617019D02*
X120060834Y-93653305D01*
X120060834Y-93653305D02*
X119951977Y-93689590D01*
X119951977Y-93689590D02*
X119879405Y-93689590D01*
X119879405Y-93689590D02*
X119770548Y-93653305D01*
X119770548Y-93653305D02*
X119697977Y-93580733D01*
X119697977Y-93580733D02*
X119661691Y-93508162D01*
X119661691Y-93508162D02*
X119625405Y-93363019D01*
X119625405Y-93363019D02*
X119625405Y-93254162D01*
X119625405Y-93254162D02*
X119661691Y-93109019D01*
X119661691Y-93109019D02*
X119697977Y-93036447D01*
X119697977Y-93036447D02*
X119770548Y-92963876D01*
X119770548Y-92963876D02*
X119879405Y-92927590D01*
X119879405Y-92927590D02*
X119951977Y-92927590D01*
X119951977Y-92927590D02*
X120060834Y-92963876D01*
X120060834Y-92963876D02*
X120097120Y-93000162D01*
X120423691Y-93689590D02*
X120423691Y-92927590D01*
X120423691Y-93290447D02*
X120859120Y-93290447D01*
X120859120Y-93689590D02*
X120859120Y-92927590D01*
X121548549Y-92927590D02*
X121403406Y-92927590D01*
X121403406Y-92927590D02*
X121330834Y-92963876D01*
X121330834Y-92963876D02*
X121294549Y-93000162D01*
X121294549Y-93000162D02*
X121221977Y-93109019D01*
X121221977Y-93109019D02*
X121185691Y-93254162D01*
X121185691Y-93254162D02*
X121185691Y-93544447D01*
X121185691Y-93544447D02*
X121221977Y-93617019D01*
X121221977Y-93617019D02*
X121258263Y-93653305D01*
X121258263Y-93653305D02*
X121330834Y-93689590D01*
X121330834Y-93689590D02*
X121475977Y-93689590D01*
X121475977Y-93689590D02*
X121548549Y-93653305D01*
X121548549Y-93653305D02*
X121584834Y-93617019D01*
X121584834Y-93617019D02*
X121621120Y-93544447D01*
X121621120Y-93544447D02*
X121621120Y-93363019D01*
X121621120Y-93363019D02*
X121584834Y-93290447D01*
X121584834Y-93290447D02*
X121548549Y-93254162D01*
X121548549Y-93254162D02*
X121475977Y-93217876D01*
X121475977Y-93217876D02*
X121330834Y-93217876D01*
X121330834Y-93217876D02*
X121258263Y-93254162D01*
X121258263Y-93254162D02*
X121221977Y-93290447D01*
X121221977Y-93290447D02*
X121185691Y-93363019D01*
X120097120Y-96157019D02*
X120060834Y-96193305D01*
X120060834Y-96193305D02*
X119951977Y-96229590D01*
X119951977Y-96229590D02*
X119879405Y-96229590D01*
X119879405Y-96229590D02*
X119770548Y-96193305D01*
X119770548Y-96193305D02*
X119697977Y-96120733D01*
X119697977Y-96120733D02*
X119661691Y-96048162D01*
X119661691Y-96048162D02*
X119625405Y-95903019D01*
X119625405Y-95903019D02*
X119625405Y-95794162D01*
X119625405Y-95794162D02*
X119661691Y-95649019D01*
X119661691Y-95649019D02*
X119697977Y-95576447D01*
X119697977Y-95576447D02*
X119770548Y-95503876D01*
X119770548Y-95503876D02*
X119879405Y-95467590D01*
X119879405Y-95467590D02*
X119951977Y-95467590D01*
X119951977Y-95467590D02*
X120060834Y-95503876D01*
X120060834Y-95503876D02*
X120097120Y-95540162D01*
X120423691Y-96229590D02*
X120423691Y-95467590D01*
X120423691Y-95830447D02*
X120859120Y-95830447D01*
X120859120Y-96229590D02*
X120859120Y-95467590D01*
X121584834Y-95467590D02*
X121221977Y-95467590D01*
X121221977Y-95467590D02*
X121185691Y-95830447D01*
X121185691Y-95830447D02*
X121221977Y-95794162D01*
X121221977Y-95794162D02*
X121294549Y-95757876D01*
X121294549Y-95757876D02*
X121475977Y-95757876D01*
X121475977Y-95757876D02*
X121548549Y-95794162D01*
X121548549Y-95794162D02*
X121584834Y-95830447D01*
X121584834Y-95830447D02*
X121621120Y-95903019D01*
X121621120Y-95903019D02*
X121621120Y-96084447D01*
X121621120Y-96084447D02*
X121584834Y-96157019D01*
X121584834Y-96157019D02*
X121548549Y-96193305D01*
X121548549Y-96193305D02*
X121475977Y-96229590D01*
X121475977Y-96229590D02*
X121294549Y-96229590D01*
X121294549Y-96229590D02*
X121221977Y-96193305D01*
X121221977Y-96193305D02*
X121185691Y-96157019D01*
X120097120Y-98697019D02*
X120060834Y-98733305D01*
X120060834Y-98733305D02*
X119951977Y-98769590D01*
X119951977Y-98769590D02*
X119879405Y-98769590D01*
X119879405Y-98769590D02*
X119770548Y-98733305D01*
X119770548Y-98733305D02*
X119697977Y-98660733D01*
X119697977Y-98660733D02*
X119661691Y-98588162D01*
X119661691Y-98588162D02*
X119625405Y-98443019D01*
X119625405Y-98443019D02*
X119625405Y-98334162D01*
X119625405Y-98334162D02*
X119661691Y-98189019D01*
X119661691Y-98189019D02*
X119697977Y-98116447D01*
X119697977Y-98116447D02*
X119770548Y-98043876D01*
X119770548Y-98043876D02*
X119879405Y-98007590D01*
X119879405Y-98007590D02*
X119951977Y-98007590D01*
X119951977Y-98007590D02*
X120060834Y-98043876D01*
X120060834Y-98043876D02*
X120097120Y-98080162D01*
X120423691Y-98769590D02*
X120423691Y-98007590D01*
X120423691Y-98370447D02*
X120859120Y-98370447D01*
X120859120Y-98769590D02*
X120859120Y-98007590D01*
X121548549Y-98261590D02*
X121548549Y-98769590D01*
X121367120Y-97971305D02*
X121185691Y-98515590D01*
X121185691Y-98515590D02*
X121657406Y-98515590D01*
X120097120Y-101237019D02*
X120060834Y-101273305D01*
X120060834Y-101273305D02*
X119951977Y-101309590D01*
X119951977Y-101309590D02*
X119879405Y-101309590D01*
X119879405Y-101309590D02*
X119770548Y-101273305D01*
X119770548Y-101273305D02*
X119697977Y-101200733D01*
X119697977Y-101200733D02*
X119661691Y-101128162D01*
X119661691Y-101128162D02*
X119625405Y-100983019D01*
X119625405Y-100983019D02*
X119625405Y-100874162D01*
X119625405Y-100874162D02*
X119661691Y-100729019D01*
X119661691Y-100729019D02*
X119697977Y-100656447D01*
X119697977Y-100656447D02*
X119770548Y-100583876D01*
X119770548Y-100583876D02*
X119879405Y-100547590D01*
X119879405Y-100547590D02*
X119951977Y-100547590D01*
X119951977Y-100547590D02*
X120060834Y-100583876D01*
X120060834Y-100583876D02*
X120097120Y-100620162D01*
X120423691Y-101309590D02*
X120423691Y-100547590D01*
X120423691Y-100910447D02*
X120859120Y-100910447D01*
X120859120Y-101309590D02*
X120859120Y-100547590D01*
X121149406Y-100547590D02*
X121621120Y-100547590D01*
X121621120Y-100547590D02*
X121367120Y-100837876D01*
X121367120Y-100837876D02*
X121475977Y-100837876D01*
X121475977Y-100837876D02*
X121548549Y-100874162D01*
X121548549Y-100874162D02*
X121584834Y-100910447D01*
X121584834Y-100910447D02*
X121621120Y-100983019D01*
X121621120Y-100983019D02*
X121621120Y-101164447D01*
X121621120Y-101164447D02*
X121584834Y-101237019D01*
X121584834Y-101237019D02*
X121548549Y-101273305D01*
X121548549Y-101273305D02*
X121475977Y-101309590D01*
X121475977Y-101309590D02*
X121258263Y-101309590D01*
X121258263Y-101309590D02*
X121185691Y-101273305D01*
X121185691Y-101273305D02*
X121149406Y-101237019D01*
X120097120Y-103777019D02*
X120060834Y-103813305D01*
X120060834Y-103813305D02*
X119951977Y-103849590D01*
X119951977Y-103849590D02*
X119879405Y-103849590D01*
X119879405Y-103849590D02*
X119770548Y-103813305D01*
X119770548Y-103813305D02*
X119697977Y-103740733D01*
X119697977Y-103740733D02*
X119661691Y-103668162D01*
X119661691Y-103668162D02*
X119625405Y-103523019D01*
X119625405Y-103523019D02*
X119625405Y-103414162D01*
X119625405Y-103414162D02*
X119661691Y-103269019D01*
X119661691Y-103269019D02*
X119697977Y-103196447D01*
X119697977Y-103196447D02*
X119770548Y-103123876D01*
X119770548Y-103123876D02*
X119879405Y-103087590D01*
X119879405Y-103087590D02*
X119951977Y-103087590D01*
X119951977Y-103087590D02*
X120060834Y-103123876D01*
X120060834Y-103123876D02*
X120097120Y-103160162D01*
X120423691Y-103849590D02*
X120423691Y-103087590D01*
X120423691Y-103450447D02*
X120859120Y-103450447D01*
X120859120Y-103849590D02*
X120859120Y-103087590D01*
X121185691Y-103160162D02*
X121221977Y-103123876D01*
X121221977Y-103123876D02*
X121294549Y-103087590D01*
X121294549Y-103087590D02*
X121475977Y-103087590D01*
X121475977Y-103087590D02*
X121548549Y-103123876D01*
X121548549Y-103123876D02*
X121584834Y-103160162D01*
X121584834Y-103160162D02*
X121621120Y-103232733D01*
X121621120Y-103232733D02*
X121621120Y-103305305D01*
X121621120Y-103305305D02*
X121584834Y-103414162D01*
X121584834Y-103414162D02*
X121149406Y-103849590D01*
X121149406Y-103849590D02*
X121621120Y-103849590D01*
X120097120Y-106317019D02*
X120060834Y-106353305D01*
X120060834Y-106353305D02*
X119951977Y-106389590D01*
X119951977Y-106389590D02*
X119879405Y-106389590D01*
X119879405Y-106389590D02*
X119770548Y-106353305D01*
X119770548Y-106353305D02*
X119697977Y-106280733D01*
X119697977Y-106280733D02*
X119661691Y-106208162D01*
X119661691Y-106208162D02*
X119625405Y-106063019D01*
X119625405Y-106063019D02*
X119625405Y-105954162D01*
X119625405Y-105954162D02*
X119661691Y-105809019D01*
X119661691Y-105809019D02*
X119697977Y-105736447D01*
X119697977Y-105736447D02*
X119770548Y-105663876D01*
X119770548Y-105663876D02*
X119879405Y-105627590D01*
X119879405Y-105627590D02*
X119951977Y-105627590D01*
X119951977Y-105627590D02*
X120060834Y-105663876D01*
X120060834Y-105663876D02*
X120097120Y-105700162D01*
X120423691Y-106389590D02*
X120423691Y-105627590D01*
X120423691Y-105990447D02*
X120859120Y-105990447D01*
X120859120Y-106389590D02*
X120859120Y-105627590D01*
X121621120Y-106389590D02*
X121185691Y-106389590D01*
X121403406Y-106389590D02*
X121403406Y-105627590D01*
X121403406Y-105627590D02*
X121330834Y-105736447D01*
X121330834Y-105736447D02*
X121258263Y-105809019D01*
X121258263Y-105809019D02*
X121185691Y-105845305D01*
X120097120Y-108857019D02*
X120060834Y-108893305D01*
X120060834Y-108893305D02*
X119951977Y-108929590D01*
X119951977Y-108929590D02*
X119879405Y-108929590D01*
X119879405Y-108929590D02*
X119770548Y-108893305D01*
X119770548Y-108893305D02*
X119697977Y-108820733D01*
X119697977Y-108820733D02*
X119661691Y-108748162D01*
X119661691Y-108748162D02*
X119625405Y-108603019D01*
X119625405Y-108603019D02*
X119625405Y-108494162D01*
X119625405Y-108494162D02*
X119661691Y-108349019D01*
X119661691Y-108349019D02*
X119697977Y-108276447D01*
X119697977Y-108276447D02*
X119770548Y-108203876D01*
X119770548Y-108203876D02*
X119879405Y-108167590D01*
X119879405Y-108167590D02*
X119951977Y-108167590D01*
X119951977Y-108167590D02*
X120060834Y-108203876D01*
X120060834Y-108203876D02*
X120097120Y-108240162D01*
X120423691Y-108929590D02*
X120423691Y-108167590D01*
X120423691Y-108530447D02*
X120859120Y-108530447D01*
X120859120Y-108929590D02*
X120859120Y-108167590D01*
X121367120Y-108167590D02*
X121439691Y-108167590D01*
X121439691Y-108167590D02*
X121512263Y-108203876D01*
X121512263Y-108203876D02*
X121548549Y-108240162D01*
X121548549Y-108240162D02*
X121584834Y-108312733D01*
X121584834Y-108312733D02*
X121621120Y-108457876D01*
X121621120Y-108457876D02*
X121621120Y-108639305D01*
X121621120Y-108639305D02*
X121584834Y-108784447D01*
X121584834Y-108784447D02*
X121548549Y-108857019D01*
X121548549Y-108857019D02*
X121512263Y-108893305D01*
X121512263Y-108893305D02*
X121439691Y-108929590D01*
X121439691Y-108929590D02*
X121367120Y-108929590D01*
X121367120Y-108929590D02*
X121294549Y-108893305D01*
X121294549Y-108893305D02*
X121258263Y-108857019D01*
X121258263Y-108857019D02*
X121221977Y-108784447D01*
X121221977Y-108784447D02*
X121185691Y-108639305D01*
X121185691Y-108639305D02*
X121185691Y-108457876D01*
X121185691Y-108457876D02*
X121221977Y-108312733D01*
X121221977Y-108312733D02*
X121258263Y-108240162D01*
X121258263Y-108240162D02*
X121294549Y-108203876D01*
X121294549Y-108203876D02*
X121367120Y-108167590D01*
X120097120Y-111469590D02*
X119843120Y-111106733D01*
X119661691Y-111469590D02*
X119661691Y-110707590D01*
X119661691Y-110707590D02*
X119951977Y-110707590D01*
X119951977Y-110707590D02*
X120024548Y-110743876D01*
X120024548Y-110743876D02*
X120060834Y-110780162D01*
X120060834Y-110780162D02*
X120097120Y-110852733D01*
X120097120Y-110852733D02*
X120097120Y-110961590D01*
X120097120Y-110961590D02*
X120060834Y-111034162D01*
X120060834Y-111034162D02*
X120024548Y-111070447D01*
X120024548Y-111070447D02*
X119951977Y-111106733D01*
X119951977Y-111106733D02*
X119661691Y-111106733D01*
X120423691Y-111070447D02*
X120677691Y-111070447D01*
X120786548Y-111469590D02*
X120423691Y-111469590D01*
X120423691Y-111469590D02*
X120423691Y-110707590D01*
X120423691Y-110707590D02*
X120786548Y-110707590D01*
X121367120Y-111070447D02*
X121113120Y-111070447D01*
X121113120Y-111469590D02*
X121113120Y-110707590D01*
X121113120Y-110707590D02*
X121475977Y-110707590D01*
X121766263Y-111469590D02*
X121766263Y-110707590D01*
X122129120Y-111469590D02*
X122129120Y-110707590D01*
X122129120Y-110707590D02*
X122564549Y-111469590D01*
X122564549Y-111469590D02*
X122564549Y-110707590D01*
X122927406Y-111179305D02*
X123507978Y-111179305D01*
X123217692Y-111469590D02*
X123217692Y-110889019D01*
X124415121Y-110671305D02*
X123761978Y-111651019D01*
X124814264Y-110707590D02*
X124959407Y-110707590D01*
X124959407Y-110707590D02*
X125031978Y-110743876D01*
X125031978Y-110743876D02*
X125104550Y-110816447D01*
X125104550Y-110816447D02*
X125140835Y-110961590D01*
X125140835Y-110961590D02*
X125140835Y-111215590D01*
X125140835Y-111215590D02*
X125104550Y-111360733D01*
X125104550Y-111360733D02*
X125031978Y-111433305D01*
X125031978Y-111433305D02*
X124959407Y-111469590D01*
X124959407Y-111469590D02*
X124814264Y-111469590D01*
X124814264Y-111469590D02*
X124741693Y-111433305D01*
X124741693Y-111433305D02*
X124669121Y-111360733D01*
X124669121Y-111360733D02*
X124632835Y-111215590D01*
X124632835Y-111215590D02*
X124632835Y-110961590D01*
X124632835Y-110961590D02*
X124669121Y-110816447D01*
X124669121Y-110816447D02*
X124741693Y-110743876D01*
X124741693Y-110743876D02*
X124814264Y-110707590D01*
X125467407Y-110707590D02*
X125467407Y-111324447D01*
X125467407Y-111324447D02*
X125503693Y-111397019D01*
X125503693Y-111397019D02*
X125539979Y-111433305D01*
X125539979Y-111433305D02*
X125612550Y-111469590D01*
X125612550Y-111469590D02*
X125757693Y-111469590D01*
X125757693Y-111469590D02*
X125830264Y-111433305D01*
X125830264Y-111433305D02*
X125866550Y-111397019D01*
X125866550Y-111397019D02*
X125902836Y-111324447D01*
X125902836Y-111324447D02*
X125902836Y-110707590D01*
X126156836Y-110707590D02*
X126592265Y-110707590D01*
X126374550Y-111469590D02*
X126374550Y-110707590D01*
X119552834Y-113247590D02*
X119806834Y-114009590D01*
X119806834Y-114009590D02*
X120060834Y-113247590D01*
X120750263Y-114009590D02*
X120496263Y-113646733D01*
X120314834Y-114009590D02*
X120314834Y-113247590D01*
X120314834Y-113247590D02*
X120605120Y-113247590D01*
X120605120Y-113247590D02*
X120677691Y-113283876D01*
X120677691Y-113283876D02*
X120713977Y-113320162D01*
X120713977Y-113320162D02*
X120750263Y-113392733D01*
X120750263Y-113392733D02*
X120750263Y-113501590D01*
X120750263Y-113501590D02*
X120713977Y-113574162D01*
X120713977Y-113574162D02*
X120677691Y-113610447D01*
X120677691Y-113610447D02*
X120605120Y-113646733D01*
X120605120Y-113646733D02*
X120314834Y-113646733D01*
X121076834Y-113610447D02*
X121330834Y-113610447D01*
X121439691Y-114009590D02*
X121076834Y-114009590D01*
X121076834Y-114009590D02*
X121076834Y-113247590D01*
X121076834Y-113247590D02*
X121439691Y-113247590D01*
X122020263Y-113610447D02*
X121766263Y-113610447D01*
X121766263Y-114009590D02*
X121766263Y-113247590D01*
X121766263Y-113247590D02*
X122129120Y-113247590D01*
X119552834Y-115787590D02*
X119806834Y-116549590D01*
X119806834Y-116549590D02*
X120060834Y-115787590D01*
X120750263Y-116549590D02*
X120496263Y-116186733D01*
X120314834Y-116549590D02*
X120314834Y-115787590D01*
X120314834Y-115787590D02*
X120605120Y-115787590D01*
X120605120Y-115787590D02*
X120677691Y-115823876D01*
X120677691Y-115823876D02*
X120713977Y-115860162D01*
X120713977Y-115860162D02*
X120750263Y-115932733D01*
X120750263Y-115932733D02*
X120750263Y-116041590D01*
X120750263Y-116041590D02*
X120713977Y-116114162D01*
X120713977Y-116114162D02*
X120677691Y-116150447D01*
X120677691Y-116150447D02*
X120605120Y-116186733D01*
X120605120Y-116186733D02*
X120314834Y-116186733D01*
X121076834Y-116150447D02*
X121330834Y-116150447D01*
X121439691Y-116549590D02*
X121076834Y-116549590D01*
X121076834Y-116549590D02*
X121076834Y-115787590D01*
X121076834Y-115787590D02*
X121439691Y-115787590D01*
X122020263Y-116150447D02*
X121766263Y-116150447D01*
X121766263Y-116549590D02*
X121766263Y-115787590D01*
X121766263Y-115787590D02*
X122129120Y-115787590D01*
X122237978Y-116622162D02*
X122818549Y-116622162D01*
X123253977Y-116150447D02*
X123362834Y-116186733D01*
X123362834Y-116186733D02*
X123399120Y-116223019D01*
X123399120Y-116223019D02*
X123435406Y-116295590D01*
X123435406Y-116295590D02*
X123435406Y-116404447D01*
X123435406Y-116404447D02*
X123399120Y-116477019D01*
X123399120Y-116477019D02*
X123362834Y-116513305D01*
X123362834Y-116513305D02*
X123290263Y-116549590D01*
X123290263Y-116549590D02*
X122999977Y-116549590D01*
X122999977Y-116549590D02*
X122999977Y-115787590D01*
X122999977Y-115787590D02*
X123253977Y-115787590D01*
X123253977Y-115787590D02*
X123326549Y-115823876D01*
X123326549Y-115823876D02*
X123362834Y-115860162D01*
X123362834Y-115860162D02*
X123399120Y-115932733D01*
X123399120Y-115932733D02*
X123399120Y-116005305D01*
X123399120Y-116005305D02*
X123362834Y-116077876D01*
X123362834Y-116077876D02*
X123326549Y-116114162D01*
X123326549Y-116114162D02*
X123253977Y-116150447D01*
X123253977Y-116150447D02*
X122999977Y-116150447D01*
X123761977Y-115787590D02*
X123761977Y-116404447D01*
X123761977Y-116404447D02*
X123798263Y-116477019D01*
X123798263Y-116477019D02*
X123834549Y-116513305D01*
X123834549Y-116513305D02*
X123907120Y-116549590D01*
X123907120Y-116549590D02*
X124052263Y-116549590D01*
X124052263Y-116549590D02*
X124124834Y-116513305D01*
X124124834Y-116513305D02*
X124161120Y-116477019D01*
X124161120Y-116477019D02*
X124197406Y-116404447D01*
X124197406Y-116404447D02*
X124197406Y-115787590D01*
X124814263Y-116150447D02*
X124560263Y-116150447D01*
X124560263Y-116549590D02*
X124560263Y-115787590D01*
X124560263Y-115787590D02*
X124923120Y-115787590D01*
X138375447Y-116304308D02*
X138411733Y-116195451D01*
X138411733Y-116195451D02*
X138448019Y-116159165D01*
X138448019Y-116159165D02*
X138520590Y-116122879D01*
X138520590Y-116122879D02*
X138629447Y-116122879D01*
X138629447Y-116122879D02*
X138702019Y-116159165D01*
X138702019Y-116159165D02*
X138738305Y-116195451D01*
X138738305Y-116195451D02*
X138774590Y-116268022D01*
X138774590Y-116268022D02*
X138774590Y-116558308D01*
X138774590Y-116558308D02*
X138012590Y-116558308D01*
X138012590Y-116558308D02*
X138012590Y-116304308D01*
X138012590Y-116304308D02*
X138048876Y-116231737D01*
X138048876Y-116231737D02*
X138085162Y-116195451D01*
X138085162Y-116195451D02*
X138157733Y-116159165D01*
X138157733Y-116159165D02*
X138230305Y-116159165D01*
X138230305Y-116159165D02*
X138302876Y-116195451D01*
X138302876Y-116195451D02*
X138339162Y-116231737D01*
X138339162Y-116231737D02*
X138375447Y-116304308D01*
X138375447Y-116304308D02*
X138375447Y-116558308D01*
X138556876Y-115832594D02*
X138556876Y-115469737D01*
X138774590Y-115905165D02*
X138012590Y-115651165D01*
X138012590Y-115651165D02*
X138774590Y-115397165D01*
X138774590Y-115143165D02*
X138012590Y-115143165D01*
X138012590Y-115143165D02*
X138556876Y-114889165D01*
X138556876Y-114889165D02*
X138012590Y-114635165D01*
X138012590Y-114635165D02*
X138774590Y-114635165D01*
X139282590Y-116231737D02*
X139282590Y-116376879D01*
X139282590Y-116376879D02*
X139318876Y-116449451D01*
X139318876Y-116449451D02*
X139355162Y-116485737D01*
X139355162Y-116485737D02*
X139464019Y-116558308D01*
X139464019Y-116558308D02*
X139609162Y-116594594D01*
X139609162Y-116594594D02*
X139899447Y-116594594D01*
X139899447Y-116594594D02*
X139972019Y-116558308D01*
X139972019Y-116558308D02*
X140008305Y-116522022D01*
X140008305Y-116522022D02*
X140044590Y-116449451D01*
X140044590Y-116449451D02*
X140044590Y-116304308D01*
X140044590Y-116304308D02*
X140008305Y-116231737D01*
X140008305Y-116231737D02*
X139972019Y-116195451D01*
X139972019Y-116195451D02*
X139899447Y-116159165D01*
X139899447Y-116159165D02*
X139718019Y-116159165D01*
X139718019Y-116159165D02*
X139645447Y-116195451D01*
X139645447Y-116195451D02*
X139609162Y-116231737D01*
X139609162Y-116231737D02*
X139572876Y-116304308D01*
X139572876Y-116304308D02*
X139572876Y-116449451D01*
X139572876Y-116449451D02*
X139609162Y-116522022D01*
X139609162Y-116522022D02*
X139645447Y-116558308D01*
X139645447Y-116558308D02*
X139718019Y-116594594D01*
X139246305Y-115288308D02*
X140226019Y-115941451D01*
X139355162Y-115070594D02*
X139318876Y-115034308D01*
X139318876Y-115034308D02*
X139282590Y-114961737D01*
X139282590Y-114961737D02*
X139282590Y-114780308D01*
X139282590Y-114780308D02*
X139318876Y-114707737D01*
X139318876Y-114707737D02*
X139355162Y-114671451D01*
X139355162Y-114671451D02*
X139427733Y-114635165D01*
X139427733Y-114635165D02*
X139500305Y-114635165D01*
X139500305Y-114635165D02*
X139609162Y-114671451D01*
X139609162Y-114671451D02*
X140044590Y-115106879D01*
X140044590Y-115106879D02*
X140044590Y-114635165D01*
X139246305Y-113764308D02*
X140226019Y-114417451D01*
X139355162Y-113546594D02*
X139318876Y-113510308D01*
X139318876Y-113510308D02*
X139282590Y-113437737D01*
X139282590Y-113437737D02*
X139282590Y-113256308D01*
X139282590Y-113256308D02*
X139318876Y-113183737D01*
X139318876Y-113183737D02*
X139355162Y-113147451D01*
X139355162Y-113147451D02*
X139427733Y-113111165D01*
X139427733Y-113111165D02*
X139500305Y-113111165D01*
X139500305Y-113111165D02*
X139609162Y-113147451D01*
X139609162Y-113147451D02*
X140044590Y-113582879D01*
X140044590Y-113582879D02*
X140044590Y-113111165D01*
X139282590Y-112639451D02*
X139282590Y-112566880D01*
X139282590Y-112566880D02*
X139318876Y-112494308D01*
X139318876Y-112494308D02*
X139355162Y-112458023D01*
X139355162Y-112458023D02*
X139427733Y-112421737D01*
X139427733Y-112421737D02*
X139572876Y-112385451D01*
X139572876Y-112385451D02*
X139754305Y-112385451D01*
X139754305Y-112385451D02*
X139899447Y-112421737D01*
X139899447Y-112421737D02*
X139972019Y-112458023D01*
X139972019Y-112458023D02*
X140008305Y-112494308D01*
X140008305Y-112494308D02*
X140044590Y-112566880D01*
X140044590Y-112566880D02*
X140044590Y-112639451D01*
X140044590Y-112639451D02*
X140008305Y-112712023D01*
X140008305Y-112712023D02*
X139972019Y-112748308D01*
X139972019Y-112748308D02*
X139899447Y-112784594D01*
X139899447Y-112784594D02*
X139754305Y-112820880D01*
X139754305Y-112820880D02*
X139572876Y-112820880D01*
X139572876Y-112820880D02*
X139427733Y-112784594D01*
X139427733Y-112784594D02*
X139355162Y-112748308D01*
X139355162Y-112748308D02*
X139318876Y-112712023D01*
X139318876Y-112712023D02*
X139282590Y-112639451D01*
X139355162Y-112095166D02*
X139318876Y-112058880D01*
X139318876Y-112058880D02*
X139282590Y-111986309D01*
X139282590Y-111986309D02*
X139282590Y-111804880D01*
X139282590Y-111804880D02*
X139318876Y-111732309D01*
X139318876Y-111732309D02*
X139355162Y-111696023D01*
X139355162Y-111696023D02*
X139427733Y-111659737D01*
X139427733Y-111659737D02*
X139500305Y-111659737D01*
X139500305Y-111659737D02*
X139609162Y-111696023D01*
X139609162Y-111696023D02*
X140044590Y-112131451D01*
X140044590Y-112131451D02*
X140044590Y-111659737D01*
X139282590Y-111006595D02*
X139282590Y-111151737D01*
X139282590Y-111151737D02*
X139318876Y-111224309D01*
X139318876Y-111224309D02*
X139355162Y-111260595D01*
X139355162Y-111260595D02*
X139464019Y-111333166D01*
X139464019Y-111333166D02*
X139609162Y-111369452D01*
X139609162Y-111369452D02*
X139899447Y-111369452D01*
X139899447Y-111369452D02*
X139972019Y-111333166D01*
X139972019Y-111333166D02*
X140008305Y-111296880D01*
X140008305Y-111296880D02*
X140044590Y-111224309D01*
X140044590Y-111224309D02*
X140044590Y-111079166D01*
X140044590Y-111079166D02*
X140008305Y-111006595D01*
X140008305Y-111006595D02*
X139972019Y-110970309D01*
X139972019Y-110970309D02*
X139899447Y-110934023D01*
X139899447Y-110934023D02*
X139718019Y-110934023D01*
X139718019Y-110934023D02*
X139645447Y-110970309D01*
X139645447Y-110970309D02*
X139609162Y-111006595D01*
X139609162Y-111006595D02*
X139572876Y-111079166D01*
X139572876Y-111079166D02*
X139572876Y-111224309D01*
X139572876Y-111224309D02*
X139609162Y-111296880D01*
X139609162Y-111296880D02*
X139645447Y-111333166D01*
X139645447Y-111333166D02*
X139718019Y-111369452D01*
X141314590Y-116558308D02*
X140552590Y-116558308D01*
X140552590Y-116558308D02*
X141096876Y-116304308D01*
X141096876Y-116304308D02*
X140552590Y-116050308D01*
X140552590Y-116050308D02*
X141314590Y-116050308D01*
X141242019Y-115252022D02*
X141278305Y-115288308D01*
X141278305Y-115288308D02*
X141314590Y-115397165D01*
X141314590Y-115397165D02*
X141314590Y-115469737D01*
X141314590Y-115469737D02*
X141278305Y-115578594D01*
X141278305Y-115578594D02*
X141205733Y-115651165D01*
X141205733Y-115651165D02*
X141133162Y-115687451D01*
X141133162Y-115687451D02*
X140988019Y-115723737D01*
X140988019Y-115723737D02*
X140879162Y-115723737D01*
X140879162Y-115723737D02*
X140734019Y-115687451D01*
X140734019Y-115687451D02*
X140661447Y-115651165D01*
X140661447Y-115651165D02*
X140588876Y-115578594D01*
X140588876Y-115578594D02*
X140552590Y-115469737D01*
X140552590Y-115469737D02*
X140552590Y-115397165D01*
X140552590Y-115397165D02*
X140588876Y-115288308D01*
X140588876Y-115288308D02*
X140625162Y-115252022D01*
X141314590Y-114925451D02*
X140552590Y-114925451D01*
X140552590Y-114925451D02*
X140552590Y-114635165D01*
X140552590Y-114635165D02*
X140588876Y-114562594D01*
X140588876Y-114562594D02*
X140625162Y-114526308D01*
X140625162Y-114526308D02*
X140697733Y-114490022D01*
X140697733Y-114490022D02*
X140806590Y-114490022D01*
X140806590Y-114490022D02*
X140879162Y-114526308D01*
X140879162Y-114526308D02*
X140915447Y-114562594D01*
X140915447Y-114562594D02*
X140951733Y-114635165D01*
X140951733Y-114635165D02*
X140951733Y-114925451D01*
X140552590Y-114236022D02*
X140552590Y-113764308D01*
X140552590Y-113764308D02*
X140842876Y-114018308D01*
X140842876Y-114018308D02*
X140842876Y-113909451D01*
X140842876Y-113909451D02*
X140879162Y-113836880D01*
X140879162Y-113836880D02*
X140915447Y-113800594D01*
X140915447Y-113800594D02*
X140988019Y-113764308D01*
X140988019Y-113764308D02*
X141169447Y-113764308D01*
X141169447Y-113764308D02*
X141242019Y-113800594D01*
X141242019Y-113800594D02*
X141278305Y-113836880D01*
X141278305Y-113836880D02*
X141314590Y-113909451D01*
X141314590Y-113909451D02*
X141314590Y-114127165D01*
X141314590Y-114127165D02*
X141278305Y-114199737D01*
X141278305Y-114199737D02*
X141242019Y-114236022D01*
X140552590Y-113074880D02*
X140552590Y-113437737D01*
X140552590Y-113437737D02*
X140915447Y-113474023D01*
X140915447Y-113474023D02*
X140879162Y-113437737D01*
X140879162Y-113437737D02*
X140842876Y-113365166D01*
X140842876Y-113365166D02*
X140842876Y-113183737D01*
X140842876Y-113183737D02*
X140879162Y-113111166D01*
X140879162Y-113111166D02*
X140915447Y-113074880D01*
X140915447Y-113074880D02*
X140988019Y-113038594D01*
X140988019Y-113038594D02*
X141169447Y-113038594D01*
X141169447Y-113038594D02*
X141242019Y-113074880D01*
X141242019Y-113074880D02*
X141278305Y-113111166D01*
X141278305Y-113111166D02*
X141314590Y-113183737D01*
X141314590Y-113183737D02*
X141314590Y-113365166D01*
X141314590Y-113365166D02*
X141278305Y-113437737D01*
X141278305Y-113437737D02*
X141242019Y-113474023D01*
X140552590Y-112385452D02*
X140552590Y-112530594D01*
X140552590Y-112530594D02*
X140588876Y-112603166D01*
X140588876Y-112603166D02*
X140625162Y-112639452D01*
X140625162Y-112639452D02*
X140734019Y-112712023D01*
X140734019Y-112712023D02*
X140879162Y-112748309D01*
X140879162Y-112748309D02*
X141169447Y-112748309D01*
X141169447Y-112748309D02*
X141242019Y-112712023D01*
X141242019Y-112712023D02*
X141278305Y-112675737D01*
X141278305Y-112675737D02*
X141314590Y-112603166D01*
X141314590Y-112603166D02*
X141314590Y-112458023D01*
X141314590Y-112458023D02*
X141278305Y-112385452D01*
X141278305Y-112385452D02*
X141242019Y-112349166D01*
X141242019Y-112349166D02*
X141169447Y-112312880D01*
X141169447Y-112312880D02*
X140988019Y-112312880D01*
X140988019Y-112312880D02*
X140915447Y-112349166D01*
X140915447Y-112349166D02*
X140879162Y-112385452D01*
X140879162Y-112385452D02*
X140842876Y-112458023D01*
X140842876Y-112458023D02*
X140842876Y-112603166D01*
X140842876Y-112603166D02*
X140879162Y-112675737D01*
X140879162Y-112675737D02*
X140915447Y-112712023D01*
X140915447Y-112712023D02*
X140988019Y-112748309D01*
X140806590Y-111659738D02*
X141314590Y-111659738D01*
X140516305Y-111841166D02*
X141060590Y-112022595D01*
X141060590Y-112022595D02*
X141060590Y-111550880D01*
X141314590Y-110825166D02*
X140951733Y-111079166D01*
X141314590Y-111260595D02*
X140552590Y-111260595D01*
X140552590Y-111260595D02*
X140552590Y-110970309D01*
X140552590Y-110970309D02*
X140588876Y-110897738D01*
X140588876Y-110897738D02*
X140625162Y-110861452D01*
X140625162Y-110861452D02*
X140697733Y-110825166D01*
X140697733Y-110825166D02*
X140806590Y-110825166D01*
X140806590Y-110825166D02*
X140879162Y-110861452D01*
X140879162Y-110861452D02*
X140915447Y-110897738D01*
X140915447Y-110897738D02*
X140951733Y-110970309D01*
X140951733Y-110970309D02*
X140951733Y-111260595D01*
X140915447Y-109664024D02*
X140951733Y-109555167D01*
X140951733Y-109555167D02*
X140988019Y-109518881D01*
X140988019Y-109518881D02*
X141060590Y-109482595D01*
X141060590Y-109482595D02*
X141169447Y-109482595D01*
X141169447Y-109482595D02*
X141242019Y-109518881D01*
X141242019Y-109518881D02*
X141278305Y-109555167D01*
X141278305Y-109555167D02*
X141314590Y-109627738D01*
X141314590Y-109627738D02*
X141314590Y-109918024D01*
X141314590Y-109918024D02*
X140552590Y-109918024D01*
X140552590Y-109918024D02*
X140552590Y-109664024D01*
X140552590Y-109664024D02*
X140588876Y-109591453D01*
X140588876Y-109591453D02*
X140625162Y-109555167D01*
X140625162Y-109555167D02*
X140697733Y-109518881D01*
X140697733Y-109518881D02*
X140770305Y-109518881D01*
X140770305Y-109518881D02*
X140842876Y-109555167D01*
X140842876Y-109555167D02*
X140879162Y-109591453D01*
X140879162Y-109591453D02*
X140915447Y-109664024D01*
X140915447Y-109664024D02*
X140915447Y-109918024D01*
X141314590Y-109156024D02*
X140806590Y-109156024D01*
X140951733Y-109156024D02*
X140879162Y-109119738D01*
X140879162Y-109119738D02*
X140842876Y-109083453D01*
X140842876Y-109083453D02*
X140806590Y-109010881D01*
X140806590Y-109010881D02*
X140806590Y-108938310D01*
X141278305Y-108394024D02*
X141314590Y-108466596D01*
X141314590Y-108466596D02*
X141314590Y-108611739D01*
X141314590Y-108611739D02*
X141278305Y-108684310D01*
X141278305Y-108684310D02*
X141205733Y-108720596D01*
X141205733Y-108720596D02*
X140915447Y-108720596D01*
X140915447Y-108720596D02*
X140842876Y-108684310D01*
X140842876Y-108684310D02*
X140806590Y-108611739D01*
X140806590Y-108611739D02*
X140806590Y-108466596D01*
X140806590Y-108466596D02*
X140842876Y-108394024D01*
X140842876Y-108394024D02*
X140915447Y-108357739D01*
X140915447Y-108357739D02*
X140988019Y-108357739D01*
X140988019Y-108357739D02*
X141060590Y-108720596D01*
X141314590Y-107704596D02*
X140915447Y-107704596D01*
X140915447Y-107704596D02*
X140842876Y-107740881D01*
X140842876Y-107740881D02*
X140806590Y-107813453D01*
X140806590Y-107813453D02*
X140806590Y-107958596D01*
X140806590Y-107958596D02*
X140842876Y-108031167D01*
X141278305Y-107704596D02*
X141314590Y-107777167D01*
X141314590Y-107777167D02*
X141314590Y-107958596D01*
X141314590Y-107958596D02*
X141278305Y-108031167D01*
X141278305Y-108031167D02*
X141205733Y-108067453D01*
X141205733Y-108067453D02*
X141133162Y-108067453D01*
X141133162Y-108067453D02*
X141060590Y-108031167D01*
X141060590Y-108031167D02*
X141024305Y-107958596D01*
X141024305Y-107958596D02*
X141024305Y-107777167D01*
X141024305Y-107777167D02*
X140988019Y-107704596D01*
X141314590Y-107341738D02*
X140552590Y-107341738D01*
X141024305Y-107269167D02*
X141314590Y-107051452D01*
X140806590Y-107051452D02*
X141096876Y-107341738D01*
X141314590Y-106616024D02*
X141278305Y-106688595D01*
X141278305Y-106688595D02*
X141242019Y-106724881D01*
X141242019Y-106724881D02*
X141169447Y-106761167D01*
X141169447Y-106761167D02*
X140951733Y-106761167D01*
X140951733Y-106761167D02*
X140879162Y-106724881D01*
X140879162Y-106724881D02*
X140842876Y-106688595D01*
X140842876Y-106688595D02*
X140806590Y-106616024D01*
X140806590Y-106616024D02*
X140806590Y-106507167D01*
X140806590Y-106507167D02*
X140842876Y-106434595D01*
X140842876Y-106434595D02*
X140879162Y-106398310D01*
X140879162Y-106398310D02*
X140951733Y-106362024D01*
X140951733Y-106362024D02*
X141169447Y-106362024D01*
X141169447Y-106362024D02*
X141242019Y-106398310D01*
X141242019Y-106398310D02*
X141278305Y-106434595D01*
X141278305Y-106434595D02*
X141314590Y-106507167D01*
X141314590Y-106507167D02*
X141314590Y-106616024D01*
X140806590Y-105708881D02*
X141314590Y-105708881D01*
X140806590Y-106035452D02*
X141205733Y-106035452D01*
X141205733Y-106035452D02*
X141278305Y-105999166D01*
X141278305Y-105999166D02*
X141314590Y-105926595D01*
X141314590Y-105926595D02*
X141314590Y-105817738D01*
X141314590Y-105817738D02*
X141278305Y-105745166D01*
X141278305Y-105745166D02*
X141242019Y-105708881D01*
X140806590Y-105454880D02*
X140806590Y-105164594D01*
X140552590Y-105346023D02*
X141205733Y-105346023D01*
X141205733Y-105346023D02*
X141278305Y-105309737D01*
X141278305Y-105309737D02*
X141314590Y-105237166D01*
X141314590Y-105237166D02*
X141314590Y-105164594D01*
D11*
%TO.C,svg2mod*%
G36*
X133329823Y-56479877D02*
G01*
X133342853Y-56496945D01*
X133355855Y-56514085D01*
X133368828Y-56531299D01*
X133381774Y-56548585D01*
X133394692Y-56565943D01*
X133407581Y-56583374D01*
X133420443Y-56600877D01*
X133433276Y-56618451D01*
X133446081Y-56636097D01*
X133458858Y-56653815D01*
X133471606Y-56671604D01*
X133484326Y-56689463D01*
X133497018Y-56707394D01*
X133509681Y-56725395D01*
X133522315Y-56743467D01*
X133534921Y-56761608D01*
X133547499Y-56779820D01*
X133560047Y-56798102D01*
X133572567Y-56816453D01*
X133585058Y-56834874D01*
X133597521Y-56853364D01*
X133609954Y-56871923D01*
X133622359Y-56890551D01*
X133634734Y-56909247D01*
X133647080Y-56928012D01*
X133659398Y-56946845D01*
X133671686Y-56965746D01*
X133683945Y-56984715D01*
X133696174Y-57003751D01*
X133708375Y-57022856D01*
X133720546Y-57042027D01*
X133732688Y-57061265D01*
X133744800Y-57080570D01*
X133756883Y-57099942D01*
X133768936Y-57119380D01*
X133780959Y-57138885D01*
X133792953Y-57158455D01*
X133804917Y-57178092D01*
X133816852Y-57197794D01*
X133828757Y-57217561D01*
X133840631Y-57237394D01*
X133852476Y-57257292D01*
X133864291Y-57277254D01*
X133876076Y-57297281D01*
X133887831Y-57317373D01*
X133899556Y-57337529D01*
X133911250Y-57357749D01*
X133922915Y-57378033D01*
X133934549Y-57398381D01*
X133946153Y-57418792D01*
X133957726Y-57439266D01*
X133969269Y-57459804D01*
X133980782Y-57480404D01*
X133992264Y-57501067D01*
X134003716Y-57521792D01*
X134015137Y-57542580D01*
X134026527Y-57563430D01*
X134037887Y-57584341D01*
X134049215Y-57605315D01*
X134060513Y-57626349D01*
X134071780Y-57647446D01*
X134083017Y-57668603D01*
X134094222Y-57689821D01*
X134105396Y-57711099D01*
X134116539Y-57732439D01*
X134127651Y-57753838D01*
X134138732Y-57775298D01*
X134149782Y-57796817D01*
X134160800Y-57818396D01*
X134171787Y-57840035D01*
X134182743Y-57861733D01*
X134193667Y-57883490D01*
X134204560Y-57905306D01*
X134215422Y-57927181D01*
X134226251Y-57949114D01*
X134237049Y-57971105D01*
X134247816Y-57993155D01*
X134258550Y-58015262D01*
X134269253Y-58037427D01*
X134279925Y-58059650D01*
X134290564Y-58081930D01*
X134301171Y-58104267D01*
X134311746Y-58126661D01*
X134322290Y-58149112D01*
X134332801Y-58171619D01*
X134343280Y-58194183D01*
X134353727Y-58216802D01*
X134364142Y-58239478D01*
X134374524Y-58262209D01*
X134384874Y-58284996D01*
X134395192Y-58307838D01*
X134405477Y-58330735D01*
X134415730Y-58353688D01*
X134425950Y-58376695D01*
X134436138Y-58399756D01*
X134446293Y-58422872D01*
X134456415Y-58446042D01*
X134466505Y-58469265D01*
X134476562Y-58492543D01*
X134486586Y-58515874D01*
X134496577Y-58539259D01*
X134506535Y-58562696D01*
X134516460Y-58586187D01*
X134526353Y-58609730D01*
X134536212Y-58633326D01*
X134546038Y-58656974D01*
X134555830Y-58680674D01*
X134565590Y-58704426D01*
X134575316Y-58728230D01*
X134585009Y-58752086D01*
X134594669Y-58775993D01*
X134604295Y-58799951D01*
X134613887Y-58823960D01*
X134623446Y-58848019D01*
X134632972Y-58872130D01*
X134642464Y-58896290D01*
X134651922Y-58920501D01*
X134661346Y-58944762D01*
X134670737Y-58969072D01*
X134680093Y-58993433D01*
X134689416Y-59017842D01*
X134698705Y-59042301D01*
X134707960Y-59066808D01*
X134717181Y-59091365D01*
X134726367Y-59115969D01*
X134735520Y-59140623D01*
X134744638Y-59165324D01*
X134753722Y-59190074D01*
X134762772Y-59214871D01*
X134771788Y-59239716D01*
X134780769Y-59264608D01*
X134789715Y-59289547D01*
X134798628Y-59314533D01*
X134807505Y-59339567D01*
X134816348Y-59364646D01*
X134825156Y-59389772D01*
X134833930Y-59414945D01*
X134842669Y-59440163D01*
X134851373Y-59465427D01*
X134860042Y-59490736D01*
X134868676Y-59516091D01*
X134877276Y-59541492D01*
X134885840Y-59566937D01*
X134894369Y-59592427D01*
X134902864Y-59617961D01*
X134911323Y-59643540D01*
X134919746Y-59669164D01*
X134928135Y-59694831D01*
X134936488Y-59720542D01*
X134944806Y-59746296D01*
X134953088Y-59772094D01*
X134961335Y-59797936D01*
X134969547Y-59823820D01*
X134977723Y-59849747D01*
X134985863Y-59875716D01*
X134993968Y-59901729D01*
X135002037Y-59927783D01*
X135010070Y-59953879D01*
X135018067Y-59980017D01*
X135026028Y-60006197D01*
X135033954Y-60032418D01*
X135041844Y-60058680D01*
X135049697Y-60084984D01*
X135057515Y-60111328D01*
X135065296Y-60137713D01*
X135073041Y-60164138D01*
X135080750Y-60190603D01*
X135088423Y-60217109D01*
X135096059Y-60243654D01*
X135103659Y-60270239D01*
X135111223Y-60296864D01*
X135118750Y-60323527D01*
X135126241Y-60350230D01*
X135133695Y-60376971D01*
X135141112Y-60403752D01*
X135148493Y-60430570D01*
X135155837Y-60457427D01*
X135163144Y-60484322D01*
X135170414Y-60511254D01*
X135177648Y-60538225D01*
X135184844Y-60565233D01*
X135192004Y-60592278D01*
X135199127Y-60619360D01*
X135206212Y-60646479D01*
X135213261Y-60673634D01*
X135220272Y-60700826D01*
X135227246Y-60728055D01*
X135234182Y-60755319D01*
X135241082Y-60782619D01*
X135247944Y-60809955D01*
X135254768Y-60837326D01*
X135261555Y-60864733D01*
X135268305Y-60892175D01*
X135275017Y-60919651D01*
X135281691Y-60947162D01*
X135288328Y-60974708D01*
X135294926Y-61002288D01*
X135301488Y-61029902D01*
X135308011Y-61057550D01*
X135314496Y-61085231D01*
X135320944Y-61112946D01*
X135327353Y-61140695D01*
X135333724Y-61168476D01*
X135340058Y-61196290D01*
X135346353Y-61224137D01*
X135352610Y-61252017D01*
X135358828Y-61279928D01*
X135365009Y-61307872D01*
X135371151Y-61335848D01*
X135377255Y-61363855D01*
X135383320Y-61391894D01*
X135389347Y-61419964D01*
X135395335Y-61448065D01*
X135401285Y-61476197D01*
X135407196Y-61504360D01*
X135413068Y-61532554D01*
X135418901Y-61560777D01*
X135424696Y-61589031D01*
X135430452Y-61617314D01*
X135436169Y-61645628D01*
X135441847Y-61673971D01*
X135447486Y-61702343D01*
X135453086Y-61730744D01*
X135458647Y-61759174D01*
X135464169Y-61787633D01*
X135469651Y-61816120D01*
X135475094Y-61844636D01*
X135480498Y-61873179D01*
X135485863Y-61901751D01*
X135491188Y-61930350D01*
X135496474Y-61958977D01*
X135501720Y-61987632D01*
X135506927Y-62016313D01*
X135512094Y-62045021D01*
X135517221Y-62073756D01*
X135522309Y-62102518D01*
X135527357Y-62131305D01*
X135532365Y-62160119D01*
X135537334Y-62188959D01*
X135542262Y-62217825D01*
X135547150Y-62246716D01*
X135551999Y-62275632D01*
X135556807Y-62304574D01*
X135561575Y-62333540D01*
X135566304Y-62362532D01*
X135570991Y-62391547D01*
X135575639Y-62420588D01*
X135580246Y-62449652D01*
X135584813Y-62478740D01*
X135589340Y-62507852D01*
X135593826Y-62536988D01*
X135598271Y-62566146D01*
X135602676Y-62595328D01*
X135607041Y-62624533D01*
X135611364Y-62653761D01*
X135615647Y-62683011D01*
X135619890Y-62712284D01*
X135624091Y-62741578D01*
X135628251Y-62770895D01*
X135632371Y-62800234D01*
X135636450Y-62829594D01*
X135640487Y-62858975D01*
X135644484Y-62888377D01*
X135648439Y-62917801D01*
X135652353Y-62947245D01*
X135656226Y-62976710D01*
X135660058Y-63006195D01*
X135663849Y-63035701D01*
X135667598Y-63065226D01*
X135671305Y-63094771D01*
X135674971Y-63124336D01*
X135678596Y-63153920D01*
X135682179Y-63183523D01*
X135685720Y-63213145D01*
X135689220Y-63242786D01*
X135692678Y-63272445D01*
X135696094Y-63302123D01*
X135699469Y-63331819D01*
X135702801Y-63361533D01*
X135706092Y-63391265D01*
X135709340Y-63421015D01*
X135712547Y-63450782D01*
X135715712Y-63480566D01*
X135718834Y-63510367D01*
X135721914Y-63540184D01*
X135724952Y-63570019D01*
X135727948Y-63599869D01*
X135730901Y-63629736D01*
X135733812Y-63659619D01*
X135736680Y-63689518D01*
X135739506Y-63719433D01*
X135742290Y-63749362D01*
X135745031Y-63779307D01*
X135747729Y-63809267D01*
X135750385Y-63839242D01*
X135752997Y-63869231D01*
X135755567Y-63899235D01*
X135758095Y-63929253D01*
X135760579Y-63959285D01*
X135763020Y-63989331D01*
X135765419Y-64019390D01*
X135767774Y-64049463D01*
X135770086Y-64079549D01*
X135772355Y-64109648D01*
X135774581Y-64139760D01*
X135776764Y-64169885D01*
X135778903Y-64200022D01*
X135780999Y-64230171D01*
X135783052Y-64260332D01*
X135785061Y-64290505D01*
X135787026Y-64320689D01*
X135788949Y-64350886D01*
X135790827Y-64381093D01*
X135792662Y-64411311D01*
X135794453Y-64441540D01*
X135796201Y-64471780D01*
X135797904Y-64502030D01*
X135799564Y-64532291D01*
X135801180Y-64562561D01*
X135802752Y-64592841D01*
X135804280Y-64623131D01*
X135805763Y-64653431D01*
X135807203Y-64683739D01*
X135808599Y-64714057D01*
X135809950Y-64744384D01*
X135811257Y-64774719D01*
X135812520Y-64805062D01*
X135813739Y-64835414D01*
X135814913Y-64865774D01*
X135816042Y-64896142D01*
X135817127Y-64926518D01*
X135818168Y-64956900D01*
X135819164Y-64987291D01*
X135820115Y-65017688D01*
X135821022Y-65048092D01*
X135821884Y-65078503D01*
X135822701Y-65108920D01*
X135823473Y-65139343D01*
X135824200Y-65169773D01*
X135824882Y-65200208D01*
X135825519Y-65230649D01*
X135826112Y-65261096D01*
X135826659Y-65291547D01*
X135827161Y-65322004D01*
X135827617Y-65352466D01*
X135828029Y-65382932D01*
X135828395Y-65413403D01*
X135828716Y-65443878D01*
X135828991Y-65474358D01*
X135829221Y-65504841D01*
X135829405Y-65535328D01*
X135829544Y-65565818D01*
X135829637Y-65596311D01*
X135829684Y-65626808D01*
X135829686Y-65657308D01*
X135829642Y-65687810D01*
X135829552Y-65718315D01*
X135829417Y-65748822D01*
X135829235Y-65779331D01*
X135829007Y-65809842D01*
X135828734Y-65840354D01*
X135828414Y-65870869D01*
X135828048Y-65901384D01*
X135827636Y-65931901D01*
X135827178Y-65962418D01*
X135826673Y-65992936D01*
X135826123Y-66023455D01*
X135825525Y-66053974D01*
X135824882Y-66084493D01*
X135824192Y-66115012D01*
X135823455Y-66145531D01*
X135822672Y-66176049D01*
X135821842Y-66206567D01*
X135820965Y-66237083D01*
X135820042Y-66267599D01*
X135819072Y-66298113D01*
X135818055Y-66328626D01*
X135816991Y-66359137D01*
X135815881Y-66389646D01*
X135814723Y-66420154D01*
X135813518Y-66450658D01*
X135812266Y-66481161D01*
X135810967Y-66511661D01*
X135809621Y-66542157D01*
X135808228Y-66572651D01*
X135806787Y-66603142D01*
X135805299Y-66633629D01*
X135803764Y-66664112D01*
X135802181Y-66694592D01*
X135800551Y-66725067D01*
X135798873Y-66755538D01*
X135797147Y-66786005D01*
X135795374Y-66816467D01*
X135793554Y-66846924D01*
X135791685Y-66877377D01*
X135789769Y-66907823D01*
X135787805Y-66938265D01*
X135785792Y-66968701D01*
X135783732Y-66999131D01*
X135781624Y-67029555D01*
X135779468Y-67059972D01*
X135774124Y-67040318D01*
X135768661Y-67020616D01*
X135763078Y-67000866D01*
X135757375Y-66981070D01*
X135751554Y-66961226D01*
X135745614Y-66941336D01*
X135739557Y-66921400D01*
X135733381Y-66901419D01*
X135727088Y-66881393D01*
X135720677Y-66861323D01*
X135714150Y-66841208D01*
X135707506Y-66821050D01*
X135700746Y-66800849D01*
X135693870Y-66780605D01*
X135686878Y-66760318D01*
X135679771Y-66739990D01*
X135672549Y-66719620D01*
X135665212Y-66699209D01*
X135657761Y-66678758D01*
X135650196Y-66658267D01*
X135642517Y-66637736D01*
X135634724Y-66617166D01*
X135626819Y-66596557D01*
X135618801Y-66575909D01*
X135610670Y-66555224D01*
X135602428Y-66534501D01*
X135594073Y-66513742D01*
X135585607Y-66492945D01*
X135577030Y-66472113D01*
X135568342Y-66451245D01*
X135559543Y-66430342D01*
X135550635Y-66409404D01*
X135541616Y-66388431D01*
X135532488Y-66367425D01*
X135523250Y-66346385D01*
X135513903Y-66325312D01*
X135504448Y-66304207D01*
X135494885Y-66283069D01*
X135485214Y-66261900D01*
X135475434Y-66240699D01*
X135465548Y-66219468D01*
X135455555Y-66198206D01*
X135445454Y-66176914D01*
X135435248Y-66155593D01*
X135424935Y-66134243D01*
X135414517Y-66112864D01*
X135403993Y-66091457D01*
X135393364Y-66070022D01*
X135382630Y-66048560D01*
X135371792Y-66027071D01*
X135360849Y-66005555D01*
X135349803Y-65984014D01*
X135338653Y-65962447D01*
X135327400Y-65940855D01*
X135316044Y-65919239D01*
X135304585Y-65897598D01*
X135293024Y-65875933D01*
X135281362Y-65854245D01*
X135269597Y-65832534D01*
X135257732Y-65810801D01*
X135245765Y-65789046D01*
X135233698Y-65767269D01*
X135221530Y-65745471D01*
X135209262Y-65723653D01*
X135196895Y-65701814D01*
X135184428Y-65679955D01*
X135171862Y-65658077D01*
X135159197Y-65636180D01*
X135146434Y-65614265D01*
X135133573Y-65592331D01*
X135120614Y-65570381D01*
X135107557Y-65548412D01*
X135094404Y-65526428D01*
X135081153Y-65504427D01*
X135067806Y-65482410D01*
X135054363Y-65460377D01*
X135040824Y-65438330D01*
X135027189Y-65416269D01*
X135013459Y-65394193D01*
X134999634Y-65372103D01*
X134985714Y-65350001D01*
X134971700Y-65327886D01*
X134957592Y-65305758D01*
X134943391Y-65283619D01*
X134929096Y-65261468D01*
X134914708Y-65239306D01*
X134900228Y-65217134D01*
X134885655Y-65194952D01*
X134870989Y-65172760D01*
X134856233Y-65150558D01*
X134841384Y-65128348D01*
X134826445Y-65106130D01*
X134811415Y-65083904D01*
X134796294Y-65061670D01*
X134781083Y-65039430D01*
X134765783Y-65017183D01*
X134750392Y-64994929D01*
X134734913Y-64972671D01*
X134719345Y-64950406D01*
X134703688Y-64928138D01*
X134687943Y-64905864D01*
X134672109Y-64883587D01*
X134656189Y-64861307D01*
X134640181Y-64839023D01*
X134624086Y-64816737D01*
X134607904Y-64794448D01*
X134591636Y-64772158D01*
X134575282Y-64749867D01*
X134558842Y-64727575D01*
X134542317Y-64705283D01*
X134525707Y-64682990D01*
X134509012Y-64660698D01*
X134492233Y-64638407D01*
X134475369Y-64616118D01*
X134458422Y-64593830D01*
X134441391Y-64571545D01*
X134424278Y-64549262D01*
X134407081Y-64526983D01*
X134389802Y-64504707D01*
X134372440Y-64482435D01*
X134354997Y-64460167D01*
X134337472Y-64437905D01*
X134319866Y-64415648D01*
X134302178Y-64393396D01*
X134284411Y-64371151D01*
X134266563Y-64348913D01*
X134248635Y-64326682D01*
X134230627Y-64304458D01*
X134212540Y-64282243D01*
X134194374Y-64260035D01*
X134176129Y-64237837D01*
X134157806Y-64215648D01*
X134139405Y-64193469D01*
X134120926Y-64171300D01*
X134102370Y-64149142D01*
X134083736Y-64126995D01*
X134065026Y-64104859D01*
X134046239Y-64082736D01*
X134027376Y-64060625D01*
X134008437Y-64038526D01*
X133989423Y-64016441D01*
X133970334Y-63994370D01*
X133951169Y-63972313D01*
X133931930Y-63950271D01*
X133912617Y-63928243D01*
X133893230Y-63906231D01*
X133873770Y-63884236D01*
X133854236Y-63862256D01*
X133834629Y-63840294D01*
X133814949Y-63818348D01*
X133795197Y-63796421D01*
X133775373Y-63774511D01*
X133755477Y-63752621D01*
X133735510Y-63730749D01*
X133715472Y-63708897D01*
X133695363Y-63687064D01*
X133675184Y-63665252D01*
X133654935Y-63643461D01*
X133634615Y-63621691D01*
X133614227Y-63599943D01*
X133593769Y-63578217D01*
X133573242Y-63556514D01*
X133552647Y-63534833D01*
X133531984Y-63513177D01*
X133511252Y-63491543D01*
X133490454Y-63469935D01*
X133469587Y-63448351D01*
X133448655Y-63426792D01*
X133427655Y-63405259D01*
X133406589Y-63383752D01*
X133385457Y-63362272D01*
X133364260Y-63340819D01*
X133342997Y-63319393D01*
X133321669Y-63297995D01*
X133300276Y-63276625D01*
X133278819Y-63255284D01*
X133257299Y-63233973D01*
X133235714Y-63212691D01*
X133214066Y-63191439D01*
X133192354Y-63170217D01*
X133170580Y-63149027D01*
X133148744Y-63127868D01*
X133126845Y-63106740D01*
X133104885Y-63085646D01*
X133082863Y-63064583D01*
X133060779Y-63043554D01*
X133038635Y-63022559D01*
X133016431Y-63001598D01*
X132994166Y-62980671D01*
X132971841Y-62959779D01*
X132949457Y-62938922D01*
X132927013Y-62918102D01*
X132904510Y-62897317D01*
X132881949Y-62876570D01*
X132859329Y-62855859D01*
X132836652Y-62835186D01*
X132813916Y-62814551D01*
X132791124Y-62793955D01*
X132768274Y-62773397D01*
X132745367Y-62752879D01*
X132722404Y-62732401D01*
X132699385Y-62711963D01*
X132676310Y-62691565D01*
X132653180Y-62671209D01*
X132629995Y-62650894D01*
X132606754Y-62630621D01*
X132583460Y-62610391D01*
X132560111Y-62590204D01*
X132536708Y-62570060D01*
X132513251Y-62549959D01*
X132489742Y-62529903D01*
X132466179Y-62509892D01*
X132442564Y-62489925D01*
X132418897Y-62470004D01*
X132395177Y-62450130D01*
X132371406Y-62430301D01*
X132347584Y-62410520D01*
X132323710Y-62390785D01*
X132299786Y-62371099D01*
X132275812Y-62351461D01*
X132251787Y-62331871D01*
X132227713Y-62312330D01*
X132203590Y-62292839D01*
X132179417Y-62273398D01*
X132155195Y-62254007D01*
X132130925Y-62234667D01*
X132106607Y-62215378D01*
X132082241Y-62196141D01*
X132057828Y-62176957D01*
X132033367Y-62157824D01*
X132008860Y-62138745D01*
X131984305Y-62119720D01*
X131959705Y-62100748D01*
X131935059Y-62081830D01*
X131910367Y-62062968D01*
X131885630Y-62044161D01*
X131860848Y-62025409D01*
X131836021Y-62006713D01*
X131811150Y-61988074D01*
X131786235Y-61969492D01*
X131761276Y-61950968D01*
X131736274Y-61932501D01*
X131711229Y-61914093D01*
X131686141Y-61895744D01*
X131661011Y-61877453D01*
X131635839Y-61859223D01*
X131610625Y-61841052D01*
X131585369Y-61822942D01*
X131560072Y-61804893D01*
X131534735Y-61786906D01*
X131509356Y-61768980D01*
X131483938Y-61751117D01*
X131458480Y-61733316D01*
X131432982Y-61715579D01*
X131407446Y-61697905D01*
X131381870Y-61680296D01*
X131356255Y-61662750D01*
X131330603Y-61645270D01*
X131304912Y-61627855D01*
X131272581Y-61606072D01*
X131240291Y-61584461D01*
X131208043Y-61563022D01*
X131175838Y-61541756D01*
X131143676Y-61520661D01*
X131111559Y-61499739D01*
X131079486Y-61478989D01*
X131047459Y-61458411D01*
X131015478Y-61438006D01*
X130983544Y-61417773D01*
X130951657Y-61397712D01*
X130919819Y-61377824D01*
X130888029Y-61358108D01*
X130856290Y-61338564D01*
X130824600Y-61319192D01*
X130792962Y-61299993D01*
X130761375Y-61280967D01*
X130729841Y-61262113D01*
X130698360Y-61243431D01*
X130666932Y-61224921D01*
X130635560Y-61206585D01*
X130604242Y-61188420D01*
X130572980Y-61170428D01*
X130541775Y-61152609D01*
X130510627Y-61134962D01*
X130479537Y-61117488D01*
X130448505Y-61100186D01*
X130417533Y-61083057D01*
X130386621Y-61066100D01*
X130355770Y-61049316D01*
X130324980Y-61032705D01*
X130294252Y-61016266D01*
X130263587Y-61000000D01*
X130232985Y-60983906D01*
X130202447Y-60967985D01*
X130171975Y-60952237D01*
X130141568Y-60936662D01*
X130111227Y-60921259D01*
X130080953Y-60906029D01*
X130050746Y-60890972D01*
X130020608Y-60876087D01*
X129990539Y-60861376D01*
X129960540Y-60846837D01*
X129930611Y-60832471D01*
X129900753Y-60818277D01*
X129870967Y-60804257D01*
X129841253Y-60790409D01*
X129811612Y-60776735D01*
X129782046Y-60763233D01*
X129752553Y-60749904D01*
X129723136Y-60736748D01*
X129693795Y-60723765D01*
X129664531Y-60710955D01*
X129635343Y-60698318D01*
X129606234Y-60685854D01*
X129577203Y-60673562D01*
X129548252Y-60661444D01*
X129519381Y-60649499D01*
X129490591Y-60637727D01*
X129461882Y-60626128D01*
X129433255Y-60614702D01*
X129404711Y-60603449D01*
X129376250Y-60592369D01*
X129347874Y-60581463D01*
X129319582Y-60570729D01*
X129291376Y-60560169D01*
X129263257Y-60549781D01*
X129235224Y-60539567D01*
X129207279Y-60529527D01*
X129179422Y-60519659D01*
X129151654Y-60509964D01*
X129123976Y-60500443D01*
X129096389Y-60491095D01*
X129068893Y-60481921D01*
X129041488Y-60472919D01*
X129014176Y-60464091D01*
X128986957Y-60455436D01*
X128959832Y-60446955D01*
X128932801Y-60438647D01*
X128905866Y-60430512D01*
X128879027Y-60422550D01*
X128852284Y-60414762D01*
X128825638Y-60407148D01*
X128799091Y-60399706D01*
X128772642Y-60392439D01*
X128746293Y-60385344D01*
X128720044Y-60378424D01*
X128693896Y-60371676D01*
X128667849Y-60365102D01*
X128641904Y-60358702D01*
X128616062Y-60352475D01*
X128590324Y-60346422D01*
X128564690Y-60340542D01*
X128539160Y-60334836D01*
X128513737Y-60329303D01*
X128488419Y-60323944D01*
X128463209Y-60318759D01*
X128438107Y-60313747D01*
X128413112Y-60308909D01*
X128388227Y-60304245D01*
X128363452Y-60299754D01*
X128338787Y-60295437D01*
X128314233Y-60291293D01*
X128289791Y-60287324D01*
X128265462Y-60283528D01*
X128241246Y-60279906D01*
X128217143Y-60276457D01*
X128193156Y-60273183D01*
X128169283Y-60270082D01*
X128145527Y-60267155D01*
X128121887Y-60264402D01*
X128098365Y-60261822D01*
X128074960Y-60259417D01*
X128051675Y-60257185D01*
X128028509Y-60255128D01*
X128005463Y-60253244D01*
X127982537Y-60251534D01*
X127959734Y-60249998D01*
X127937052Y-60248636D01*
X127914494Y-60247448D01*
X127892059Y-60246434D01*
X127869748Y-60245594D01*
X127847562Y-60244928D01*
X127825502Y-60244436D01*
X127803568Y-60244118D01*
X127781761Y-60243974D01*
X127760082Y-60244004D01*
X127738532Y-60244209D01*
X127717110Y-60244587D01*
X127695819Y-60245139D01*
X127674657Y-60245866D01*
X127653627Y-60246767D01*
X127632729Y-60247842D01*
X127611964Y-60249091D01*
X127591331Y-60250514D01*
X127570833Y-60252111D01*
X127550469Y-60253883D01*
X127530241Y-60255829D01*
X127510148Y-60257949D01*
X127490193Y-60260244D01*
X127470375Y-60262713D01*
X127450694Y-60265356D01*
X127431153Y-60268173D01*
X127411751Y-60271165D01*
X127392489Y-60274331D01*
X127373368Y-60277671D01*
X127354389Y-60281186D01*
X127335552Y-60284875D01*
X127316858Y-60288739D01*
X127298307Y-60292777D01*
X127279901Y-60296989D01*
X127261640Y-60301376D01*
X127243524Y-60305938D01*
X127225555Y-60310673D01*
X127207733Y-60315584D01*
X127190059Y-60320669D01*
X127172533Y-60325928D01*
X127155156Y-60331362D01*
X127137929Y-60336971D01*
X127120853Y-60342754D01*
X127103928Y-60348711D01*
X127087154Y-60354844D01*
X127070534Y-60361150D01*
X127054066Y-60367632D01*
X127037753Y-60374288D01*
X127021594Y-60381119D01*
X127005591Y-60388124D01*
X126989744Y-60395305D01*
X126974053Y-60402660D01*
X126958520Y-60410189D01*
X126943145Y-60417894D01*
X126927929Y-60425773D01*
X126912873Y-60433827D01*
X126897976Y-60442055D01*
X126883241Y-60450459D01*
X126868667Y-60459037D01*
X126854255Y-60467790D01*
X126840007Y-60476718D01*
X126825922Y-60485821D01*
X126812001Y-60495099D01*
X126798246Y-60504551D01*
X126784656Y-60514179D01*
X126771232Y-60523981D01*
X126757976Y-60533959D01*
X126744888Y-60544111D01*
X126731968Y-60554439D01*
X126719217Y-60564941D01*
X126706636Y-60575618D01*
X126694225Y-60586470D01*
X126681986Y-60597498D01*
X126669919Y-60608700D01*
X126658025Y-60620078D01*
X126646303Y-60631630D01*
X126634756Y-60643358D01*
X126623384Y-60655260D01*
X126612187Y-60667338D01*
X126601166Y-60679591D01*
X126606777Y-60646635D01*
X126612443Y-60613757D01*
X126618164Y-60580957D01*
X126623939Y-60548236D01*
X126629769Y-60515595D01*
X126635653Y-60483032D01*
X126641592Y-60450548D01*
X126647584Y-60418144D01*
X126653630Y-60385819D01*
X126659731Y-60353574D01*
X126665884Y-60321408D01*
X126672092Y-60289322D01*
X126678352Y-60257316D01*
X126684666Y-60225391D01*
X126691033Y-60193545D01*
X126697453Y-60161780D01*
X126703926Y-60130095D01*
X126710452Y-60098490D01*
X126717030Y-60066967D01*
X126723661Y-60035524D01*
X126730344Y-60004162D01*
X126737079Y-59972882D01*
X126743866Y-59941682D01*
X126750705Y-59910564D01*
X126757596Y-59879527D01*
X126764538Y-59848572D01*
X126771532Y-59817699D01*
X126778578Y-59786908D01*
X126785674Y-59756198D01*
X126792822Y-59725571D01*
X126800021Y-59695026D01*
X126807270Y-59664564D01*
X126814571Y-59634183D01*
X126821921Y-59603886D01*
X126829323Y-59573671D01*
X126836774Y-59543540D01*
X126844276Y-59513491D01*
X126851828Y-59483525D01*
X126859429Y-59453643D01*
X126867081Y-59423844D01*
X126874782Y-59394129D01*
X126882533Y-59364497D01*
X126890333Y-59334949D01*
X126898182Y-59305486D01*
X126906080Y-59276106D01*
X126914028Y-59246810D01*
X126922024Y-59217599D01*
X126930069Y-59188472D01*
X126938162Y-59159430D01*
X126946304Y-59130472D01*
X126954494Y-59101600D01*
X126962732Y-59072812D01*
X126971019Y-59044109D01*
X126979353Y-59015492D01*
X126987735Y-58986960D01*
X126996165Y-58958513D01*
X127004642Y-58930153D01*
X127013166Y-58901877D01*
X127021738Y-58873688D01*
X127030357Y-58845585D01*
X127039023Y-58817568D01*
X127047736Y-58789637D01*
X127056495Y-58761792D01*
X127065301Y-58734034D01*
X127074153Y-58706363D01*
X127083052Y-58678779D01*
X127091997Y-58651281D01*
X127100988Y-58623870D01*
X127110024Y-58596547D01*
X127119107Y-58569311D01*
X127128235Y-58542162D01*
X127137409Y-58515101D01*
X127146627Y-58488128D01*
X127155892Y-58461242D01*
X127165201Y-58434444D01*
X127174555Y-58407735D01*
X127183954Y-58381113D01*
X127193398Y-58354580D01*
X127202886Y-58328136D01*
X127212419Y-58301780D01*
X127221996Y-58275512D01*
X127231617Y-58249334D01*
X127241283Y-58223245D01*
X127250992Y-58197244D01*
X127260745Y-58171333D01*
X127270541Y-58145511D01*
X127280381Y-58119779D01*
X127290265Y-58094136D01*
X127300191Y-58068584D01*
X127310161Y-58043121D01*
X127320173Y-58017748D01*
X127330229Y-57992465D01*
X127340327Y-57967272D01*
X127350468Y-57942170D01*
X127360651Y-57917158D01*
X127370876Y-57892237D01*
X127381144Y-57867407D01*
X127391453Y-57842668D01*
X127401805Y-57818020D01*
X127412198Y-57793462D01*
X127422633Y-57768997D01*
X127433109Y-57744622D01*
X127443626Y-57720340D01*
X127454185Y-57696148D01*
X127464785Y-57672049D01*
X127475426Y-57648042D01*
X127486108Y-57624127D01*
X127496830Y-57600304D01*
X127507593Y-57576573D01*
X127518396Y-57552935D01*
X127529240Y-57529389D01*
X127540124Y-57505936D01*
X127551048Y-57482576D01*
X127562011Y-57459309D01*
X127573015Y-57436135D01*
X127584058Y-57413054D01*
X127595140Y-57390067D01*
X127606262Y-57367173D01*
X127617423Y-57344373D01*
X127628623Y-57321666D01*
X127639862Y-57299054D01*
X127651140Y-57276535D01*
X127662456Y-57254111D01*
X127673812Y-57231781D01*
X127685205Y-57209545D01*
X127696637Y-57187404D01*
X127708107Y-57165357D01*
X127719615Y-57143406D01*
X127731160Y-57121549D01*
X127742744Y-57099787D01*
X127754365Y-57078120D01*
X127766024Y-57056549D01*
X127777720Y-57035073D01*
X127789453Y-57013693D01*
X127801223Y-56992408D01*
X127813030Y-56971219D01*
X127824874Y-56950127D01*
X127836755Y-56929130D01*
X127848672Y-56908229D01*
X127860625Y-56887425D01*
X127872615Y-56866718D01*
X127884641Y-56846106D01*
X127896703Y-56825592D01*
X127908801Y-56805175D01*
X127920934Y-56784854D01*
X127933104Y-56764631D01*
X127945308Y-56744504D01*
X127957548Y-56724476D01*
X127969823Y-56704544D01*
X127982134Y-56684711D01*
X127994479Y-56664975D01*
X128006859Y-56645337D01*
X128019273Y-56625797D01*
X128031722Y-56606355D01*
X128044206Y-56587011D01*
X128056724Y-56567766D01*
X128069276Y-56548620D01*
X128081862Y-56529572D01*
X128094481Y-56510623D01*
X128107135Y-56491772D01*
X128119822Y-56473021D01*
X133316766Y-56462882D01*
X133329823Y-56479877D01*
G37*
G36*
X126402624Y-62423588D02*
G01*
X126408086Y-62443288D01*
X126413668Y-62463037D01*
X126419368Y-62482832D01*
X126425188Y-62502674D01*
X126431126Y-62522563D01*
X126437183Y-62542497D01*
X126443357Y-62562477D01*
X126449649Y-62582502D01*
X126456058Y-62602571D01*
X126462584Y-62622685D01*
X126469226Y-62642842D01*
X126475985Y-62663042D01*
X126482860Y-62683285D01*
X126489851Y-62703571D01*
X126496956Y-62723898D01*
X126504177Y-62744267D01*
X126511513Y-62764677D01*
X126518962Y-62785127D01*
X126526526Y-62805617D01*
X126534204Y-62826148D01*
X126541995Y-62846717D01*
X126549899Y-62867325D01*
X126557916Y-62887972D01*
X126566045Y-62908656D01*
X126574287Y-62929378D01*
X126582640Y-62950137D01*
X126591105Y-62970933D01*
X126599681Y-62991765D01*
X126608368Y-63012632D01*
X126617165Y-63033535D01*
X126626073Y-63054472D01*
X126635091Y-63075444D01*
X126644218Y-63096450D01*
X126653454Y-63117490D01*
X126662800Y-63138562D01*
X126672254Y-63159667D01*
X126681816Y-63180804D01*
X126691486Y-63201973D01*
X126701264Y-63223174D01*
X126711150Y-63244405D01*
X126721142Y-63265666D01*
X126731242Y-63286958D01*
X126741447Y-63308279D01*
X126751759Y-63329629D01*
X126762176Y-63351008D01*
X126772699Y-63372415D01*
X126783327Y-63393850D01*
X126794060Y-63415312D01*
X126804898Y-63436801D01*
X126815839Y-63458316D01*
X126826885Y-63479857D01*
X126838034Y-63501424D01*
X126849286Y-63523016D01*
X126860641Y-63544633D01*
X126872099Y-63566274D01*
X126883659Y-63587939D01*
X126895321Y-63609627D01*
X126907084Y-63631338D01*
X126918949Y-63653071D01*
X126930915Y-63674826D01*
X126942981Y-63696603D01*
X126955148Y-63718402D01*
X126967415Y-63740220D01*
X126979782Y-63762060D01*
X126992248Y-63783918D01*
X127004813Y-63805797D01*
X127017477Y-63827694D01*
X127030240Y-63849610D01*
X127043100Y-63871543D01*
X127056059Y-63893495D01*
X127069114Y-63915463D01*
X127082267Y-63937449D01*
X127095517Y-63959450D01*
X127108864Y-63981467D01*
X127122306Y-64003500D01*
X127135845Y-64025548D01*
X127149479Y-64047610D01*
X127163209Y-64069686D01*
X127177033Y-64091776D01*
X127190952Y-64113879D01*
X127204965Y-64135995D01*
X127219073Y-64158123D01*
X127233274Y-64180263D01*
X127247568Y-64202415D01*
X127261955Y-64224577D01*
X127276436Y-64246750D01*
X127291008Y-64268933D01*
X127305673Y-64291126D01*
X127320429Y-64313328D01*
X127335277Y-64335538D01*
X127350216Y-64357757D01*
X127365246Y-64379984D01*
X127380366Y-64402219D01*
X127395576Y-64424460D01*
X127410877Y-64446708D01*
X127426266Y-64468962D01*
X127441745Y-64491222D01*
X127457313Y-64513487D01*
X127472970Y-64535756D01*
X127488715Y-64558031D01*
X127504548Y-64580309D01*
X127520468Y-64602590D01*
X127536476Y-64624875D01*
X127552570Y-64647162D01*
X127568752Y-64669451D01*
X127585019Y-64691742D01*
X127601373Y-64714034D01*
X127617813Y-64736327D01*
X127634337Y-64758621D01*
X127650947Y-64780914D01*
X127667642Y-64803207D01*
X127684421Y-64825499D01*
X127701285Y-64847789D01*
X127718232Y-64870078D01*
X127735262Y-64892364D01*
X127752376Y-64914648D01*
X127769573Y-64936929D01*
X127786852Y-64959206D01*
X127804213Y-64981479D01*
X127821656Y-65003747D01*
X127839181Y-65026010D01*
X127856787Y-65048269D01*
X127874474Y-65070521D01*
X127892242Y-65092767D01*
X127910090Y-65115007D01*
X127928018Y-65137239D01*
X127946026Y-65159464D01*
X127964113Y-65181680D01*
X127982279Y-65203889D01*
X128000523Y-65226088D01*
X128018847Y-65248278D01*
X128037248Y-65270458D01*
X128055727Y-65292628D01*
X128074283Y-65314788D01*
X128092917Y-65336936D01*
X128111627Y-65359073D01*
X128130414Y-65381198D01*
X128149277Y-65403310D01*
X128168216Y-65425409D01*
X128187230Y-65447496D01*
X128206320Y-65469568D01*
X128225484Y-65491626D01*
X128244723Y-65513670D01*
X128264037Y-65535698D01*
X128283424Y-65557711D01*
X128302885Y-65579708D01*
X128322419Y-65601689D01*
X128342026Y-65623653D01*
X128361706Y-65645599D01*
X128381458Y-65667528D01*
X128401283Y-65689438D01*
X128421179Y-65711330D01*
X128441146Y-65733203D01*
X128461184Y-65755057D01*
X128481293Y-65776890D01*
X128501473Y-65798703D01*
X128521723Y-65820496D01*
X128542042Y-65842267D01*
X128562431Y-65864016D01*
X128582890Y-65885743D01*
X128603417Y-65907448D01*
X128624012Y-65929130D01*
X128644676Y-65950788D01*
X128665408Y-65972422D01*
X128686207Y-65994032D01*
X128707073Y-66015617D01*
X128728007Y-66037177D01*
X128749007Y-66058711D01*
X128770073Y-66080219D01*
X128791205Y-66101700D01*
X128812403Y-66123155D01*
X128833667Y-66144582D01*
X128854995Y-66165981D01*
X128876388Y-66187352D01*
X128897846Y-66208694D01*
X128919367Y-66230007D01*
X128940952Y-66251290D01*
X128962601Y-66272543D01*
X128984313Y-66293766D01*
X129006088Y-66314957D01*
X129027925Y-66336117D01*
X129049824Y-66357246D01*
X129071785Y-66378342D01*
X129093808Y-66399405D01*
X129115892Y-66420435D01*
X129138036Y-66441432D01*
X129160242Y-66462394D01*
X129182507Y-66483322D01*
X129204833Y-66504215D01*
X129227218Y-66525072D01*
X129249662Y-66545894D01*
X129272166Y-66566680D01*
X129294728Y-66587428D01*
X129317348Y-66608140D01*
X129340027Y-66628814D01*
X129362763Y-66649450D01*
X129385556Y-66670047D01*
X129408407Y-66690606D01*
X129431314Y-66711125D01*
X129454278Y-66731604D01*
X129477298Y-66752043D01*
X129500373Y-66772442D01*
X129523505Y-66792799D01*
X129546691Y-66813115D01*
X129569932Y-66833388D01*
X129593228Y-66853620D01*
X129616578Y-66873808D01*
X129639981Y-66893953D01*
X129663439Y-66914054D01*
X129686949Y-66934111D01*
X129710513Y-66954123D01*
X129734129Y-66974090D01*
X129757797Y-66994012D01*
X129781518Y-67013888D01*
X129805290Y-67033717D01*
X129829113Y-67053499D01*
X129852987Y-67073234D01*
X129876913Y-67092922D01*
X129900888Y-67112561D01*
X129924914Y-67132151D01*
X129948989Y-67151692D01*
X129973114Y-67171184D01*
X129997287Y-67190626D01*
X130021510Y-67210018D01*
X130045781Y-67229358D01*
X130070100Y-67248648D01*
X130094468Y-67267885D01*
X130118882Y-67287071D01*
X130143344Y-67306203D01*
X130167853Y-67325283D01*
X130192408Y-67344309D01*
X130217009Y-67363282D01*
X130241657Y-67382199D01*
X130266350Y-67401063D01*
X130291088Y-67419870D01*
X130315872Y-67438622D01*
X130340699Y-67457318D01*
X130365572Y-67475958D01*
X130390488Y-67494540D01*
X130415448Y-67513065D01*
X130440451Y-67531532D01*
X130465498Y-67549941D01*
X130490587Y-67568290D01*
X130515719Y-67586581D01*
X130540892Y-67604812D01*
X130566108Y-67622983D01*
X130591365Y-67641093D01*
X130616663Y-67659142D01*
X130642002Y-67677130D01*
X130667381Y-67695056D01*
X130692801Y-67712919D01*
X130718261Y-67730720D01*
X130743760Y-67748457D01*
X130769298Y-67766131D01*
X130794875Y-67783741D01*
X130820491Y-67801286D01*
X130846145Y-67818766D01*
X130871838Y-67836181D01*
X130904169Y-67857964D01*
X130936459Y-67879575D01*
X130968707Y-67901014D01*
X131000912Y-67922281D01*
X131033073Y-67943375D01*
X131065191Y-67964297D01*
X131097264Y-67985047D01*
X131129291Y-68005624D01*
X131161272Y-68026029D01*
X131193206Y-68046262D01*
X131225093Y-68066322D01*
X131256931Y-68086210D01*
X131288720Y-68105926D01*
X131320460Y-68125469D01*
X131352149Y-68144840D01*
X131383788Y-68164039D01*
X131415374Y-68183065D01*
X131446909Y-68201918D01*
X131478390Y-68220599D01*
X131509817Y-68239108D01*
X131541190Y-68257444D01*
X131572507Y-68275608D01*
X131603769Y-68293599D01*
X131634974Y-68311418D01*
X131666122Y-68329064D01*
X131697212Y-68346537D01*
X131728244Y-68363838D01*
X131759216Y-68380967D01*
X131790128Y-68397922D01*
X131820979Y-68414706D01*
X131851769Y-68431316D01*
X131882497Y-68447754D01*
X131913162Y-68464019D01*
X131943764Y-68480112D01*
X131974301Y-68496031D01*
X132004774Y-68511778D01*
X132035181Y-68527353D01*
X132065522Y-68542754D01*
X132095796Y-68557983D01*
X132126002Y-68573040D01*
X132156140Y-68587923D01*
X132186209Y-68602633D01*
X132216208Y-68617171D01*
X132246137Y-68631536D01*
X132275995Y-68645728D01*
X132305781Y-68659747D01*
X132335495Y-68673594D01*
X132365135Y-68687267D01*
X132394702Y-68700768D01*
X132424194Y-68714095D01*
X132453611Y-68727250D01*
X132482952Y-68740232D01*
X132512216Y-68753041D01*
X132541403Y-68765677D01*
X132570513Y-68778140D01*
X132599543Y-68790429D01*
X132628494Y-68802546D01*
X132657365Y-68814490D01*
X132686155Y-68826261D01*
X132714864Y-68837859D01*
X132743491Y-68849283D01*
X132772035Y-68860535D01*
X132800495Y-68871614D01*
X132828871Y-68882519D01*
X132857163Y-68893251D01*
X132885368Y-68903810D01*
X132913488Y-68914196D01*
X132941520Y-68924409D01*
X132969465Y-68934448D01*
X132997322Y-68944315D01*
X133025089Y-68954008D01*
X133052767Y-68963528D01*
X133080354Y-68972875D01*
X133107850Y-68982048D01*
X133135254Y-68991048D01*
X133162566Y-68999875D01*
X133189785Y-69008529D01*
X133216910Y-69017009D01*
X133243940Y-69025316D01*
X133270875Y-69033449D01*
X133297714Y-69041409D01*
X133324456Y-69049196D01*
X133351101Y-69056809D01*
X133377648Y-69064249D01*
X133404097Y-69071516D01*
X133430446Y-69078609D01*
X133456694Y-69085529D01*
X133482842Y-69092275D01*
X133508889Y-69098848D01*
X133534833Y-69105247D01*
X133560675Y-69111473D01*
X133586413Y-69117525D01*
X133612046Y-69123404D01*
X133637575Y-69129109D01*
X133662998Y-69134640D01*
X133688315Y-69139998D01*
X133713525Y-69145183D01*
X133738627Y-69150193D01*
X133763621Y-69155030D01*
X133788505Y-69159694D01*
X133813280Y-69164184D01*
X133837945Y-69168500D01*
X133862498Y-69172642D01*
X133886939Y-69176611D01*
X133911268Y-69180406D01*
X133935484Y-69184027D01*
X133959585Y-69187475D01*
X133983573Y-69190749D01*
X134007444Y-69193849D01*
X134031200Y-69196775D01*
X134054839Y-69199528D01*
X134078361Y-69202106D01*
X134101765Y-69204511D01*
X134125050Y-69206742D01*
X134148215Y-69208799D01*
X134171261Y-69210682D01*
X134194185Y-69212392D01*
X134216988Y-69213927D01*
X134239669Y-69215289D01*
X134262227Y-69216476D01*
X134284661Y-69217490D01*
X134306971Y-69218330D01*
X134329156Y-69218995D01*
X134351215Y-69219487D01*
X134373148Y-69219805D01*
X134394954Y-69219948D01*
X134416633Y-69219918D01*
X134438182Y-69219714D01*
X134459603Y-69219335D01*
X134480894Y-69218783D01*
X134502054Y-69218056D01*
X134523083Y-69217155D01*
X134543981Y-69216080D01*
X134564745Y-69214831D01*
X134585377Y-69213408D01*
X134605874Y-69211811D01*
X134626237Y-69210039D01*
X134646464Y-69208094D01*
X134666556Y-69205974D01*
X134686510Y-69203680D01*
X134706328Y-69201211D01*
X134726007Y-69198569D01*
X134745547Y-69195752D01*
X134764948Y-69192760D01*
X134784209Y-69189595D01*
X134803329Y-69186255D01*
X134822307Y-69182741D01*
X134841143Y-69179053D01*
X134859836Y-69175190D01*
X134878385Y-69171153D01*
X134896790Y-69166941D01*
X134915051Y-69162555D01*
X134933165Y-69157995D01*
X134951133Y-69153260D01*
X134968954Y-69148351D01*
X134986627Y-69143267D01*
X135004151Y-69138009D01*
X135021527Y-69132576D01*
X135038753Y-69126969D01*
X135055828Y-69121187D01*
X135072751Y-69115231D01*
X135089523Y-69109100D01*
X135106143Y-69102795D01*
X135122609Y-69096315D01*
X135138921Y-69089660D01*
X135155078Y-69082831D01*
X135171080Y-69075827D01*
X135186926Y-69068649D01*
X135202615Y-69061296D01*
X135218146Y-69053768D01*
X135233520Y-69046066D01*
X135248734Y-69038189D01*
X135263789Y-69030137D01*
X135278684Y-69021911D01*
X135293418Y-69013510D01*
X135307990Y-69004934D01*
X135322400Y-68996183D01*
X135336647Y-68987257D01*
X135350731Y-68978157D01*
X135364650Y-68968882D01*
X135378404Y-68959432D01*
X135391992Y-68949807D01*
X135405414Y-68940008D01*
X135418668Y-68930033D01*
X135431755Y-68919884D01*
X135444673Y-68909559D01*
X135457422Y-68899060D01*
X135470002Y-68888386D01*
X135482410Y-68877537D01*
X135494647Y-68866513D01*
X135506713Y-68855314D01*
X135518605Y-68843940D01*
X135530325Y-68832391D01*
X135541870Y-68820667D01*
X135553241Y-68808768D01*
X135564436Y-68796694D01*
X135575455Y-68784445D01*
X135569410Y-68819936D01*
X135563301Y-68855336D01*
X135557129Y-68890645D01*
X135550893Y-68925862D01*
X135544594Y-68960988D01*
X135538233Y-68996022D01*
X135531808Y-69030964D01*
X135525321Y-69065814D01*
X135518772Y-69100572D01*
X135512160Y-69135237D01*
X135505486Y-69169810D01*
X135498750Y-69204291D01*
X135491953Y-69238678D01*
X135485093Y-69272972D01*
X135478173Y-69307174D01*
X135471191Y-69341282D01*
X135464148Y-69375296D01*
X135457043Y-69409217D01*
X135449879Y-69443044D01*
X135442653Y-69476777D01*
X135435367Y-69510416D01*
X135428021Y-69543960D01*
X135420614Y-69577410D01*
X135413148Y-69610766D01*
X135405622Y-69644026D01*
X135398036Y-69677192D01*
X135390391Y-69710262D01*
X135382687Y-69743238D01*
X135374923Y-69776118D01*
X135367100Y-69808902D01*
X135359219Y-69841591D01*
X135351279Y-69874183D01*
X135343281Y-69906680D01*
X135335224Y-69939080D01*
X135327109Y-69971384D01*
X135318936Y-70003591D01*
X135310706Y-70035702D01*
X135302418Y-70067716D01*
X135294072Y-70099632D01*
X135285669Y-70131452D01*
X135277209Y-70163174D01*
X135268692Y-70194798D01*
X135260119Y-70226325D01*
X135251488Y-70257754D01*
X135242802Y-70289085D01*
X135234059Y-70320318D01*
X135225259Y-70351452D01*
X135216404Y-70382488D01*
X135207493Y-70413426D01*
X135198527Y-70444264D01*
X135189505Y-70475004D01*
X135180428Y-70505644D01*
X135171295Y-70536185D01*
X135162108Y-70566627D01*
X135152866Y-70596968D01*
X135143570Y-70627211D01*
X135134218Y-70657353D01*
X135124813Y-70687395D01*
X135115354Y-70717337D01*
X135105840Y-70747178D01*
X135096273Y-70776919D01*
X135086652Y-70806559D01*
X135076978Y-70836098D01*
X135067251Y-70865536D01*
X135057470Y-70894872D01*
X135047637Y-70924108D01*
X135037750Y-70953241D01*
X135027811Y-70982273D01*
X135017820Y-71011203D01*
X135007776Y-71040031D01*
X134997681Y-71068757D01*
X134987533Y-71097381D01*
X134977334Y-71125902D01*
X134967083Y-71154320D01*
X134956780Y-71182635D01*
X134946427Y-71210848D01*
X134936022Y-71238957D01*
X134925566Y-71266962D01*
X134915060Y-71294865D01*
X134904503Y-71322663D01*
X134893895Y-71350358D01*
X134883237Y-71377949D01*
X134872529Y-71405435D01*
X134861772Y-71432818D01*
X134850964Y-71460096D01*
X134840107Y-71487269D01*
X134829200Y-71514337D01*
X134818245Y-71541301D01*
X134807240Y-71568159D01*
X134796186Y-71594912D01*
X134785083Y-71621559D01*
X134773932Y-71648101D01*
X134762732Y-71674538D01*
X134751484Y-71700868D01*
X134740188Y-71727092D01*
X134728845Y-71753210D01*
X134717453Y-71779221D01*
X134706014Y-71805126D01*
X134694527Y-71830924D01*
X134682993Y-71856616D01*
X134671412Y-71882200D01*
X134659784Y-71907677D01*
X134648109Y-71933046D01*
X134636388Y-71958308D01*
X134624620Y-71983463D01*
X134612806Y-72008509D01*
X134600946Y-72033448D01*
X134589040Y-72058278D01*
X134577089Y-72083000D01*
X134565091Y-72107613D01*
X134553049Y-72132118D01*
X134540961Y-72156514D01*
X134528828Y-72180800D01*
X134516650Y-72204978D01*
X134504427Y-72229046D01*
X134492160Y-72253005D01*
X134479848Y-72276855D01*
X134467492Y-72300594D01*
X134455092Y-72324223D01*
X134442648Y-72347743D01*
X134430161Y-72371152D01*
X134417629Y-72394450D01*
X134405055Y-72417638D01*
X134392437Y-72440715D01*
X134379776Y-72463682D01*
X134367072Y-72486537D01*
X134354325Y-72509281D01*
X134341536Y-72531913D01*
X134328704Y-72554434D01*
X134315830Y-72576843D01*
X134302914Y-72599140D01*
X134289957Y-72621325D01*
X134276957Y-72643398D01*
X134263916Y-72665359D01*
X134250833Y-72687207D01*
X134237709Y-72708942D01*
X134224544Y-72730564D01*
X134211339Y-72752073D01*
X134198092Y-72773470D01*
X134184805Y-72794752D01*
X134171477Y-72815922D01*
X134158110Y-72836977D01*
X134144702Y-72857919D01*
X134131254Y-72878746D01*
X134117767Y-72899460D01*
X134104240Y-72920059D01*
X134090673Y-72940544D01*
X134077067Y-72960914D01*
X134063423Y-72981169D01*
X134049739Y-73001309D01*
X134036017Y-73021334D01*
X134022256Y-73041244D01*
X134008456Y-73061038D01*
X133994619Y-73080717D01*
X133980743Y-73100280D01*
X133966830Y-73119727D01*
X133952878Y-73139058D01*
X133938889Y-73158273D01*
X133924863Y-73177371D01*
X133910800Y-73196352D01*
X133896699Y-73215217D01*
X133882562Y-73233965D01*
X133868388Y-73252596D01*
X133854177Y-73271109D01*
X133839930Y-73289506D01*
X133825646Y-73307784D01*
X133811327Y-73325945D01*
X133796972Y-73343988D01*
X133782581Y-73361913D01*
X133768154Y-73379720D01*
X133753692Y-73397408D01*
X133739195Y-73414978D01*
X133724663Y-73432429D01*
X133710096Y-73449762D01*
X133695494Y-73466975D01*
X133680857Y-73484069D01*
X133666187Y-73501044D01*
X133651482Y-73517899D01*
X133636742Y-73534635D01*
X133621969Y-73551250D01*
X133607163Y-73567746D01*
X133592323Y-73584122D01*
X133577449Y-73600377D01*
X133562542Y-73616512D01*
X133547602Y-73632526D01*
X133532629Y-73648420D01*
X133517624Y-73664192D01*
X133502586Y-73679844D01*
X133487515Y-73695374D01*
X133472413Y-73710782D01*
X133457278Y-73726070D01*
X133442111Y-73741235D01*
X133426913Y-73756278D01*
X133411683Y-73771200D01*
X133396422Y-73785999D01*
X133381129Y-73800675D01*
X133365806Y-73815229D01*
X133350452Y-73829661D01*
X133335066Y-73843969D01*
X133319651Y-73858154D01*
X133304205Y-73872217D01*
X133288728Y-73886155D01*
X133273222Y-73899971D01*
X133257686Y-73913662D01*
X133242120Y-73927230D01*
X133226525Y-73940674D01*
X133210900Y-73953993D01*
X133195246Y-73967188D01*
X133179563Y-73980259D01*
X133163851Y-73993205D01*
X133148110Y-74006026D01*
X133132341Y-74018722D01*
X133116544Y-74031293D01*
X133100718Y-74043739D01*
X133084864Y-74056059D01*
X133068982Y-74068254D01*
X133053073Y-74080322D01*
X133037136Y-74092265D01*
X133021172Y-74104082D01*
X133005180Y-74115772D01*
X132989162Y-74127336D01*
X132973116Y-74138774D01*
X132957044Y-74150084D01*
X132940946Y-74161268D01*
X132924821Y-74172324D01*
X132908669Y-74183254D01*
X132892492Y-74194056D01*
X132876289Y-74204730D01*
X132860060Y-74215276D01*
X132843806Y-74225695D01*
X132827526Y-74235986D01*
X132811221Y-74246148D01*
X132794891Y-74256182D01*
X132778537Y-74266088D01*
X132762157Y-74275864D01*
X132745753Y-74285512D01*
X132729325Y-74295031D01*
X132712872Y-74304421D01*
X132696395Y-74313681D01*
X132679895Y-74322812D01*
X132663371Y-74331813D01*
X132646823Y-74340684D01*
X132630252Y-74349425D01*
X132613658Y-74358036D01*
X132597040Y-74366517D01*
X132580400Y-74374868D01*
X132563737Y-74383087D01*
X132547052Y-74391176D01*
X132530344Y-74399134D01*
X132513614Y-74406961D01*
X132496862Y-74414656D01*
X132480088Y-74422220D01*
X132463293Y-74429653D01*
X132446476Y-74436953D01*
X132429638Y-74444122D01*
X132412778Y-74451158D01*
X132395897Y-74458063D01*
X132378996Y-74464835D01*
X132362074Y-74471474D01*
X132345131Y-74477980D01*
X132328168Y-74484354D01*
X132311185Y-74490595D01*
X132294182Y-74496702D01*
X132277159Y-74502676D01*
X132260116Y-74508516D01*
X132243054Y-74514223D01*
X132225972Y-74519796D01*
X132208871Y-74525235D01*
X132191751Y-74530539D01*
X132174613Y-74535710D01*
X132157455Y-74540745D01*
X132140279Y-74545646D01*
X132123085Y-74550412D01*
X132105873Y-74555044D01*
X132088642Y-74559540D01*
X132071394Y-74563900D01*
X132054128Y-74568125D01*
X132036845Y-74572215D01*
X132019544Y-74576169D01*
X132002226Y-74579986D01*
X131984891Y-74583668D01*
X131967539Y-74587213D01*
X131950170Y-74590622D01*
X131932785Y-74593894D01*
X131915384Y-74597030D01*
X131897966Y-74600028D01*
X131880533Y-74602890D01*
X131863083Y-74605614D01*
X131845618Y-74608200D01*
X131828138Y-74610650D01*
X131810642Y-74612961D01*
X131793131Y-74615134D01*
X131775605Y-74617170D01*
X131758064Y-74619067D01*
X131740508Y-74620825D01*
X131722938Y-74622446D01*
X131705353Y-74623927D01*
X131687755Y-74625270D01*
X131670142Y-74626473D01*
X131652515Y-74627537D01*
X131634875Y-74628462D01*
X131617222Y-74629248D01*
X131599555Y-74629893D01*
X131581874Y-74630399D01*
X131564181Y-74630765D01*
X131546475Y-74630991D01*
X131528757Y-74631076D01*
X131511025Y-74631021D01*
X131493282Y-74630825D01*
X131475526Y-74630488D01*
X131457759Y-74630011D01*
X131439979Y-74629392D01*
X131422188Y-74628632D01*
X131404385Y-74627730D01*
X131386571Y-74626687D01*
X131368746Y-74625502D01*
X131350910Y-74624175D01*
X131333063Y-74622706D01*
X131315205Y-74621095D01*
X131297337Y-74619341D01*
X131279458Y-74617445D01*
X131261570Y-74615406D01*
X131243671Y-74613224D01*
X131225763Y-74610898D01*
X131207845Y-74608430D01*
X131189917Y-74605818D01*
X131171980Y-74603063D01*
X131154034Y-74600164D01*
X131136079Y-74597121D01*
X131118115Y-74593934D01*
X131100142Y-74590603D01*
X131082161Y-74587127D01*
X131064172Y-74583507D01*
X131046174Y-74579742D01*
X131028169Y-74575832D01*
X131010155Y-74571778D01*
X130992134Y-74567578D01*
X130974106Y-74563233D01*
X130956070Y-74558742D01*
X130938027Y-74554105D01*
X130919977Y-74549323D01*
X130901920Y-74544395D01*
X130883857Y-74539321D01*
X130865787Y-74534100D01*
X130847711Y-74528733D01*
X130829628Y-74523219D01*
X130811540Y-74517558D01*
X130793446Y-74511751D01*
X130775346Y-74505796D01*
X130757240Y-74499694D01*
X130739130Y-74493445D01*
X130721014Y-74487048D01*
X130702893Y-74480503D01*
X130684768Y-74473810D01*
X130666637Y-74466969D01*
X130648503Y-74459980D01*
X130630363Y-74452843D01*
X130612220Y-74445557D01*
X130594073Y-74438122D01*
X130575922Y-74430538D01*
X130557768Y-74422805D01*
X130539609Y-74414923D01*
X130521448Y-74406892D01*
X130503283Y-74398711D01*
X130485116Y-74390381D01*
X130466946Y-74381900D01*
X130448773Y-74373270D01*
X130430597Y-74364489D01*
X130412419Y-74355558D01*
X130394239Y-74346476D01*
X130376058Y-74337244D01*
X130357874Y-74327861D01*
X130339688Y-74318327D01*
X130321502Y-74308642D01*
X130303314Y-74298805D01*
X130285124Y-74288817D01*
X130266934Y-74278678D01*
X130248743Y-74268386D01*
X130230551Y-74257943D01*
X130212359Y-74247347D01*
X130194167Y-74236599D01*
X130175974Y-74225699D01*
X130157782Y-74214646D01*
X130139589Y-74203440D01*
X130121397Y-74192082D01*
X130103206Y-74180570D01*
X130085015Y-74168905D01*
X130066825Y-74157087D01*
X130048636Y-74145115D01*
X130030449Y-74132989D01*
X130012262Y-74120709D01*
X129994078Y-74108275D01*
X129975895Y-74095688D01*
X129957713Y-74082945D01*
X129939534Y-74070048D01*
X129921357Y-74056997D01*
X129903183Y-74043790D01*
X129885011Y-74030429D01*
X129866841Y-74016912D01*
X129848675Y-74003240D01*
X129830511Y-73989412D01*
X129812351Y-73975429D01*
X129794194Y-73961290D01*
X129779003Y-73949339D01*
X129763838Y-73937297D01*
X129748699Y-73925163D01*
X129733585Y-73912940D01*
X129718498Y-73900625D01*
X129703436Y-73888221D01*
X129688401Y-73875727D01*
X129673391Y-73863143D01*
X129658408Y-73850469D01*
X129643450Y-73837706D01*
X129628519Y-73824854D01*
X129613615Y-73811913D01*
X129598736Y-73798884D01*
X129583884Y-73785766D01*
X129569059Y-73772559D01*
X129554260Y-73759265D01*
X129539487Y-73745883D01*
X129524742Y-73732413D01*
X129510022Y-73718856D01*
X129495330Y-73705212D01*
X129480664Y-73691480D01*
X129466026Y-73677662D01*
X129451414Y-73663758D01*
X129436829Y-73649767D01*
X129422271Y-73635690D01*
X129407740Y-73621527D01*
X129393236Y-73607278D01*
X129378760Y-73592944D01*
X129364310Y-73578525D01*
X129349888Y-73564021D01*
X129335493Y-73549432D01*
X129321126Y-73534758D01*
X129306786Y-73520000D01*
X129292474Y-73505158D01*
X129278189Y-73490231D01*
X129263931Y-73475221D01*
X129249702Y-73460128D01*
X129235500Y-73444951D01*
X129221326Y-73429691D01*
X129207179Y-73414348D01*
X129193061Y-73398923D01*
X129178970Y-73383415D01*
X129164908Y-73367825D01*
X129150873Y-73352152D01*
X129136867Y-73336398D01*
X129122888Y-73320563D01*
X129108938Y-73304646D01*
X129095016Y-73288647D01*
X129081123Y-73272568D01*
X129067258Y-73256408D01*
X129053421Y-73240168D01*
X129039613Y-73223847D01*
X129025833Y-73207446D01*
X129012082Y-73190966D01*
X128998359Y-73174405D01*
X128984666Y-73157765D01*
X128971001Y-73141046D01*
X128957364Y-73124248D01*
X128943757Y-73107371D01*
X128930179Y-73090416D01*
X128916629Y-73073382D01*
X128903109Y-73056270D01*
X128889617Y-73039080D01*
X128876155Y-73021812D01*
X128862722Y-73004467D01*
X128849318Y-72987044D01*
X128835943Y-72969544D01*
X128822598Y-72951968D01*
X128809282Y-72934315D01*
X128795996Y-72916585D01*
X128782739Y-72898779D01*
X128769512Y-72880897D01*
X128756314Y-72862939D01*
X128743146Y-72844906D01*
X128730008Y-72826797D01*
X128716900Y-72808613D01*
X128703821Y-72790355D01*
X128690772Y-72772021D01*
X128677754Y-72753613D01*
X128664765Y-72735130D01*
X128651806Y-72716574D01*
X128638877Y-72697944D01*
X128625979Y-72679240D01*
X128613111Y-72660462D01*
X128600273Y-72641611D01*
X128587465Y-72622688D01*
X128574688Y-72603691D01*
X128561941Y-72584622D01*
X128549225Y-72565481D01*
X128536539Y-72546267D01*
X128523884Y-72526981D01*
X128511260Y-72507624D01*
X128498666Y-72488195D01*
X128486103Y-72468695D01*
X128473571Y-72449124D01*
X128461070Y-72429482D01*
X128448599Y-72409769D01*
X128436160Y-72389986D01*
X128423752Y-72370132D01*
X128411375Y-72350209D01*
X128399029Y-72330216D01*
X128386714Y-72310153D01*
X128374430Y-72290021D01*
X128362178Y-72269819D01*
X128349957Y-72249549D01*
X128337767Y-72229210D01*
X128325609Y-72208802D01*
X128313483Y-72188327D01*
X128301388Y-72167783D01*
X128289325Y-72147171D01*
X128277293Y-72126491D01*
X128265293Y-72105744D01*
X128253325Y-72084930D01*
X128241389Y-72064049D01*
X128229485Y-72043101D01*
X128217613Y-72022087D01*
X128205773Y-72001006D01*
X128193965Y-71979859D01*
X128182189Y-71958646D01*
X128170445Y-71937367D01*
X128158733Y-71916023D01*
X128147054Y-71894614D01*
X128135407Y-71873139D01*
X128123792Y-71851600D01*
X128112210Y-71829995D01*
X128100661Y-71808327D01*
X128089144Y-71786594D01*
X128077659Y-71764797D01*
X128066208Y-71742937D01*
X128054789Y-71721013D01*
X128043403Y-71699025D01*
X128032049Y-71676975D01*
X128020729Y-71654861D01*
X128009442Y-71632685D01*
X127998187Y-71610446D01*
X127986966Y-71588145D01*
X127975777Y-71565782D01*
X127964622Y-71543357D01*
X127953500Y-71520870D01*
X127942412Y-71498322D01*
X127931357Y-71475712D01*
X127920335Y-71453042D01*
X127909346Y-71430311D01*
X127898391Y-71407519D01*
X127887470Y-71384667D01*
X127876582Y-71361755D01*
X127865728Y-71338783D01*
X127854908Y-71315751D01*
X127844121Y-71292659D01*
X127833368Y-71269509D01*
X127822649Y-71246299D01*
X127811964Y-71223031D01*
X127801313Y-71199703D01*
X127790696Y-71176318D01*
X127780114Y-71152874D01*
X127769565Y-71129372D01*
X127759050Y-71105812D01*
X127748570Y-71082195D01*
X127738124Y-71058520D01*
X127727713Y-71034789D01*
X127717336Y-71011000D01*
X127706993Y-70987155D01*
X127696685Y-70963253D01*
X127686411Y-70939294D01*
X127676172Y-70915280D01*
X127665968Y-70891210D01*
X127655799Y-70867084D01*
X127645664Y-70842903D01*
X127635564Y-70818667D01*
X127625500Y-70794376D01*
X127615470Y-70770029D01*
X127605475Y-70745629D01*
X127595515Y-70721174D01*
X127585591Y-70696664D01*
X127575701Y-70672101D01*
X127565847Y-70647484D01*
X127556028Y-70622814D01*
X127546245Y-70598090D01*
X127536496Y-70573314D01*
X127526784Y-70548484D01*
X127517107Y-70523602D01*
X127507465Y-70498667D01*
X127497859Y-70473681D01*
X127488289Y-70448642D01*
X127478754Y-70423551D01*
X127469256Y-70398409D01*
X127459793Y-70373216D01*
X127450366Y-70347971D01*
X127440975Y-70322675D01*
X127431620Y-70297329D01*
X127422301Y-70271932D01*
X127413018Y-70246485D01*
X127403771Y-70220988D01*
X127394561Y-70195441D01*
X127385387Y-70169845D01*
X127376249Y-70144199D01*
X127367148Y-70118503D01*
X127358083Y-70092759D01*
X127349054Y-70066966D01*
X127340062Y-70041125D01*
X127331107Y-70015235D01*
X127322188Y-69989297D01*
X127313306Y-69963311D01*
X127304461Y-69937277D01*
X127295653Y-69911196D01*
X127286881Y-69885068D01*
X127278147Y-69858892D01*
X127269449Y-69832670D01*
X127260789Y-69806401D01*
X127252165Y-69780086D01*
X127243579Y-69753724D01*
X127235030Y-69727317D01*
X127226518Y-69700863D01*
X127218044Y-69674364D01*
X127209607Y-69647820D01*
X127201207Y-69621231D01*
X127192845Y-69594597D01*
X127184521Y-69567918D01*
X127176234Y-69541194D01*
X127167984Y-69514427D01*
X127159773Y-69487615D01*
X127151599Y-69460759D01*
X127143463Y-69433860D01*
X127135364Y-69406917D01*
X127127304Y-69379931D01*
X127119282Y-69352903D01*
X127111297Y-69325831D01*
X127103351Y-69298717D01*
X127095443Y-69271560D01*
X127087573Y-69244362D01*
X127079741Y-69217121D01*
X127071948Y-69189839D01*
X127064193Y-69162515D01*
X127056477Y-69135150D01*
X127048798Y-69107744D01*
X127041159Y-69080297D01*
X127033558Y-69052810D01*
X127025995Y-69025282D01*
X127018472Y-68997714D01*
X127010987Y-68970106D01*
X127003541Y-68942458D01*
X126996133Y-68914771D01*
X126988765Y-68887044D01*
X126981435Y-68859278D01*
X126974145Y-68831473D01*
X126966893Y-68803630D01*
X126959681Y-68775748D01*
X126952508Y-68747828D01*
X126945374Y-68719870D01*
X126938280Y-68691873D01*
X126931224Y-68663840D01*
X126924209Y-68635769D01*
X126917232Y-68607660D01*
X126910295Y-68579515D01*
X126903398Y-68551333D01*
X126896540Y-68523114D01*
X126889722Y-68494860D01*
X126882944Y-68466569D01*
X126876205Y-68438242D01*
X126869506Y-68409879D01*
X126862848Y-68381481D01*
X126856229Y-68353048D01*
X126849650Y-68324579D01*
X126843111Y-68296076D01*
X126836612Y-68267538D01*
X126830154Y-68238966D01*
X126823735Y-68210359D01*
X126817357Y-68181719D01*
X126811019Y-68153045D01*
X126804722Y-68124337D01*
X126798465Y-68095596D01*
X126792248Y-68066822D01*
X126786072Y-68038015D01*
X126779937Y-68009175D01*
X126773842Y-67980303D01*
X126767788Y-67951398D01*
X126761775Y-67922462D01*
X126755802Y-67893493D01*
X126749871Y-67864494D01*
X126743980Y-67835462D01*
X126738130Y-67806400D01*
X126732322Y-67777306D01*
X126726554Y-67748182D01*
X126720828Y-67719027D01*
X126715142Y-67689842D01*
X126709498Y-67660627D01*
X126703896Y-67631382D01*
X126698334Y-67602107D01*
X126692814Y-67572802D01*
X126687336Y-67543469D01*
X126681899Y-67514106D01*
X126676504Y-67484715D01*
X126671150Y-67455295D01*
X126665838Y-67425846D01*
X126660568Y-67396370D01*
X126655339Y-67366865D01*
X126650153Y-67337333D01*
X126645008Y-67307773D01*
X126639905Y-67278186D01*
X126634844Y-67248572D01*
X126629826Y-67218931D01*
X126624849Y-67189263D01*
X126619915Y-67159568D01*
X126615022Y-67129848D01*
X126610173Y-67100101D01*
X126605365Y-67070329D01*
X126600600Y-67040531D01*
X126595877Y-67010707D01*
X126591197Y-66980859D01*
X126586559Y-66950985D01*
X126581964Y-66921087D01*
X126577412Y-66891164D01*
X126572902Y-66861217D01*
X126568435Y-66831246D01*
X126564011Y-66801250D01*
X126559630Y-66771232D01*
X126555292Y-66741189D01*
X126550997Y-66711124D01*
X126546745Y-66681035D01*
X126542536Y-66650924D01*
X126538370Y-66620790D01*
X126534247Y-66590633D01*
X126530168Y-66560455D01*
X126526132Y-66530254D01*
X126522139Y-66500032D01*
X126518190Y-66469788D01*
X126514284Y-66439523D01*
X126510422Y-66409237D01*
X126506603Y-66378930D01*
X126502828Y-66348602D01*
X126499097Y-66318254D01*
X126495409Y-66287886D01*
X126491766Y-66257497D01*
X126488166Y-66227089D01*
X126484610Y-66196661D01*
X126481098Y-66166214D01*
X126477630Y-66135747D01*
X126474206Y-66105262D01*
X126470827Y-66074758D01*
X126467491Y-66044235D01*
X126464200Y-66013694D01*
X126460953Y-65983135D01*
X126457750Y-65952558D01*
X126454592Y-65921963D01*
X126451479Y-65891351D01*
X126448410Y-65860722D01*
X126445385Y-65830075D01*
X126442405Y-65799412D01*
X126439470Y-65768732D01*
X126436579Y-65738036D01*
X126433734Y-65707324D01*
X126430933Y-65676596D01*
X126428177Y-65645852D01*
X126425466Y-65615092D01*
X126422800Y-65584317D01*
X126420179Y-65553527D01*
X126417603Y-65522723D01*
X126415073Y-65491903D01*
X126412587Y-65461069D01*
X126410147Y-65430221D01*
X126407753Y-65399359D01*
X126405403Y-65368483D01*
X126403099Y-65337593D01*
X126400841Y-65306690D01*
X126398628Y-65275774D01*
X126396461Y-65244845D01*
X126394340Y-65213903D01*
X126392264Y-65182949D01*
X126390234Y-65151982D01*
X126388250Y-65121004D01*
X126386311Y-65090013D01*
X126384419Y-65059011D01*
X126382573Y-65027997D01*
X126380772Y-64996972D01*
X126379018Y-64965936D01*
X126377310Y-64934889D01*
X126375648Y-64903832D01*
X126374033Y-64872764D01*
X126372464Y-64841686D01*
X126370941Y-64810599D01*
X126369464Y-64779501D01*
X126368034Y-64748394D01*
X126366651Y-64717278D01*
X126365314Y-64686152D01*
X126364024Y-64655018D01*
X126362781Y-64623875D01*
X126361584Y-64592723D01*
X126360434Y-64561564D01*
X126359331Y-64530396D01*
X126358275Y-64499221D01*
X126357266Y-64468037D01*
X126356304Y-64436847D01*
X126355390Y-64405649D01*
X126354522Y-64374445D01*
X126353701Y-64343234D01*
X126352928Y-64312016D01*
X126352202Y-64280792D01*
X126351523Y-64249562D01*
X126350892Y-64218326D01*
X126350308Y-64187084D01*
X126349772Y-64155837D01*
X126349283Y-64124584D01*
X126348842Y-64093327D01*
X126348449Y-64062065D01*
X126348104Y-64030798D01*
X126347806Y-63999527D01*
X126347556Y-63968252D01*
X126347354Y-63936973D01*
X126347200Y-63905690D01*
X126347094Y-63874403D01*
X126347036Y-63843114D01*
X126347026Y-63811821D01*
X126347064Y-63780525D01*
X126347151Y-63749227D01*
X126347286Y-63717926D01*
X126347469Y-63686623D01*
X126347701Y-63655318D01*
X126347981Y-63624011D01*
X126348309Y-63592703D01*
X126348687Y-63561393D01*
X126349112Y-63530082D01*
X126349587Y-63498770D01*
X126350110Y-63467458D01*
X126350682Y-63436145D01*
X126351303Y-63404832D01*
X126351973Y-63373518D01*
X126352691Y-63342205D01*
X126353459Y-63310892D01*
X126354275Y-63279580D01*
X126355141Y-63248268D01*
X126356056Y-63216958D01*
X126357020Y-63185648D01*
X126358034Y-63154340D01*
X126359097Y-63123034D01*
X126360209Y-63091730D01*
X126361371Y-63060427D01*
X126362582Y-63029127D01*
X126363842Y-62997830D01*
X126365153Y-62966535D01*
X126366512Y-62935243D01*
X126367922Y-62903954D01*
X126369381Y-62872668D01*
X126370891Y-62841387D01*
X126372450Y-62810108D01*
X126374059Y-62778834D01*
X126375718Y-62747564D01*
X126377427Y-62716299D01*
X126379186Y-62685038D01*
X126380995Y-62653782D01*
X126382855Y-62622531D01*
X126384764Y-62591286D01*
X126386724Y-62560046D01*
X126388735Y-62528811D01*
X126390796Y-62497583D01*
X126392907Y-62466361D01*
X126395069Y-62435145D01*
X126397281Y-62403935D01*
X126402624Y-62423588D01*
G37*
D12*
%TO.C,R3*%
X124189258Y-100061500D02*
X123714742Y-100061500D01*
X124189258Y-101106500D02*
X123714742Y-101106500D01*
%TO.C,C13*%
X124092580Y-86358000D02*
X123811420Y-86358000D01*
X124092580Y-87378000D02*
X123811420Y-87378000D01*
%TO.C,C8*%
X122807000Y-82409420D02*
X122807000Y-82690580D01*
X123827000Y-82409420D02*
X123827000Y-82690580D01*
%TO.C,R8*%
X124189258Y-97013500D02*
X123714742Y-97013500D01*
X124189258Y-98058500D02*
X123714742Y-98058500D01*
%TO.C,R5*%
X124189258Y-87869500D02*
X123714742Y-87869500D01*
X124189258Y-88914500D02*
X123714742Y-88914500D01*
%TO.C,C17*%
X136350580Y-97062000D02*
X136069420Y-97062000D01*
X136350580Y-98082000D02*
X136069420Y-98082000D01*
%TO.C,X2*%
X124147000Y-77407000D02*
X124147000Y-80327000D01*
X124147000Y-80327000D02*
X127567000Y-80327000D01*
%TO.C,R2*%
X124189258Y-106157500D02*
X123714742Y-106157500D01*
X124189258Y-107202500D02*
X123714742Y-107202500D01*
%TO.C,U5*%
X131802000Y-98736000D02*
X136422000Y-98736000D01*
X131802000Y-98936000D02*
X131802000Y-98736000D01*
X131802000Y-103956000D02*
X131802000Y-103756000D01*
X136422000Y-98736000D02*
X136422000Y-98936000D01*
X136422000Y-103756000D02*
X136422000Y-103956000D01*
X136422000Y-103956000D02*
X131802000Y-103956000D01*
X137402000Y-104226000D02*
X136722000Y-104226000D01*
X137062000Y-103756000D01*
X137402000Y-104226000D01*
G36*
X137402000Y-104226000D02*
G01*
X136722000Y-104226000D01*
X137062000Y-103756000D01*
X137402000Y-104226000D01*
G37*
%TO.C,C9*%
X123811420Y-107694000D02*
X124092580Y-107694000D01*
X123811420Y-108714000D02*
X124092580Y-108714000D01*
%TO.C,C12*%
X123811420Y-101598000D02*
X124092580Y-101598000D01*
X123811420Y-102618000D02*
X124092580Y-102618000D01*
%TO.C,C11*%
X124092580Y-98550000D02*
X123811420Y-98550000D01*
X124092580Y-99570000D02*
X123811420Y-99570000D01*
%TO.C,X1*%
X124178000Y-80967000D02*
X124178000Y-84387000D01*
X124178000Y-84387000D02*
X128298000Y-84387000D01*
%TO.C,R6*%
X124189258Y-90917500D02*
X123714742Y-90917500D01*
X124189258Y-91962500D02*
X123714742Y-91962500D01*
%TO.C,R1*%
X124189258Y-109205500D02*
X123714742Y-109205500D01*
X124189258Y-110250500D02*
X123714742Y-110250500D01*
%TO.C,C14*%
X123811420Y-89406000D02*
X124092580Y-89406000D01*
X123811420Y-90426000D02*
X124092580Y-90426000D01*
%TO.C,C1*%
X130061580Y-83945000D02*
X129780420Y-83945000D01*
X130061580Y-84965000D02*
X129780420Y-84965000D01*
%TO.C,C19*%
X128903000Y-101994580D02*
X128903000Y-101713420D01*
X129923000Y-101994580D02*
X129923000Y-101713420D01*
%TO.C,C18*%
X136350580Y-104448000D02*
X136069420Y-104448000D01*
X136350580Y-105468000D02*
X136069420Y-105468000D01*
%TO.C,C7*%
X122807000Y-78816420D02*
X122807000Y-79097580D01*
X123827000Y-78816420D02*
X123827000Y-79097580D01*
%TO.C,U3*%
X131043000Y-112613000D02*
X132863000Y-112613000D01*
X131043000Y-112663000D02*
X131043000Y-112613000D01*
X131043000Y-114563000D02*
X131043000Y-113783000D01*
X131043000Y-115733000D02*
X131043000Y-115683000D01*
X132863000Y-112613000D02*
X132863000Y-112663000D01*
X132863000Y-115683000D02*
X132863000Y-115733000D01*
X132863000Y-115733000D02*
X131043000Y-115733000D01*
X133643000Y-116013000D02*
X133163000Y-116013000D01*
X133403000Y-115683000D01*
X133643000Y-116013000D01*
G36*
X133643000Y-116013000D02*
G01*
X133163000Y-116013000D01*
X133403000Y-115683000D01*
X133643000Y-116013000D01*
G37*
%TO.C,R4*%
X124189258Y-103109500D02*
X123714742Y-103109500D01*
X124189258Y-104154500D02*
X123714742Y-104154500D01*
%TO.C,C10*%
X124092580Y-104646000D02*
X123811420Y-104646000D01*
X124092580Y-105666000D02*
X123811420Y-105666000D01*
%TO.C,U4*%
X131802000Y-91370000D02*
X136422000Y-91370000D01*
X131802000Y-91570000D02*
X131802000Y-91370000D01*
X131802000Y-96590000D02*
X131802000Y-96390000D01*
X136422000Y-91370000D02*
X136422000Y-91570000D01*
X136422000Y-96390000D02*
X136422000Y-96590000D01*
X136422000Y-96590000D02*
X131802000Y-96590000D01*
X137402000Y-96860000D02*
X136722000Y-96860000D01*
X137062000Y-96390000D01*
X137402000Y-96860000D01*
G36*
X137402000Y-96860000D02*
G01*
X136722000Y-96860000D01*
X137062000Y-96390000D01*
X137402000Y-96860000D01*
G37*
%TO.C,C6*%
X130188580Y-116203000D02*
X129907420Y-116203000D01*
X130188580Y-117223000D02*
X129907420Y-117223000D01*
%TO.C,C15*%
X124092580Y-92454000D02*
X123811420Y-92454000D01*
X124092580Y-93474000D02*
X123811420Y-93474000D01*
%TO.C,C3*%
X137920000Y-81774420D02*
X137920000Y-82055580D01*
X138940000Y-81774420D02*
X138940000Y-82055580D01*
%TO.C,C20*%
X128903000Y-94628580D02*
X128903000Y-94347420D01*
X129923000Y-94628580D02*
X129923000Y-94347420D01*
%TO.C,U2*%
X131294000Y-76752000D02*
X135914000Y-76752000D01*
X135914000Y-83522000D02*
X131294000Y-83522000D01*
X137794000Y-83307000D02*
X137464000Y-83067000D01*
X137794000Y-82827000D01*
X137794000Y-83307000D01*
G36*
X137794000Y-83307000D02*
G01*
X137464000Y-83067000D01*
X137794000Y-82827000D01*
X137794000Y-83307000D01*
G37*
%TO.C,C4*%
X128649000Y-108698420D02*
X128649000Y-108979580D01*
X129669000Y-108698420D02*
X129669000Y-108979580D01*
%TO.C,C2*%
X137019420Y-83945000D02*
X137300580Y-83945000D01*
X137019420Y-84965000D02*
X137300580Y-84965000D01*
%TO.C,U1*%
X131043000Y-107406000D02*
X132863000Y-107406000D01*
X131043000Y-107456000D02*
X131043000Y-107406000D01*
X131043000Y-110526000D02*
X131043000Y-110476000D01*
X132863000Y-107406000D02*
X132863000Y-107456000D01*
X132863000Y-110476000D02*
X132863000Y-110526000D01*
X132863000Y-110526000D02*
X131043000Y-110526000D01*
X133643000Y-110806000D02*
X133163000Y-110806000D01*
X133403000Y-110476000D01*
X133643000Y-110806000D01*
G36*
X133643000Y-110806000D02*
G01*
X133163000Y-110806000D01*
X133403000Y-110476000D01*
X133643000Y-110806000D01*
G37*
%TO.C,R7*%
X124189258Y-93965500D02*
X123714742Y-93965500D01*
X124189258Y-95010500D02*
X123714742Y-95010500D01*
%TO.C,C16*%
X123811420Y-95502000D02*
X124092580Y-95502000D01*
X123811420Y-96522000D02*
X124092580Y-96522000D01*
%TO.C,C5*%
X131431420Y-110996000D02*
X131712580Y-110996000D01*
X131431420Y-112016000D02*
X131712580Y-112016000D01*
%TD*%
%LPC*%
D13*
%TO.C,R3*%
X124777000Y-100584000D03*
X123127000Y-100584000D03*
%TD*%
D14*
%TO.C,C13*%
X124727000Y-86868000D03*
X123177000Y-86868000D03*
%TD*%
D15*
%TO.C,C8*%
X123317000Y-81775000D03*
X123317000Y-83325000D03*
%TD*%
D13*
%TO.C,R8*%
X124777000Y-97536000D03*
X123127000Y-97536000D03*
%TD*%
%TO.C,R5*%
X124777000Y-88392000D03*
X123127000Y-88392000D03*
%TD*%
D14*
%TO.C,C17*%
X136985000Y-97572000D03*
X135435000Y-97572000D03*
%TD*%
D16*
%TO.C,X2*%
X124982000Y-79567000D03*
X126732000Y-79567000D03*
X126732000Y-78167000D03*
X124982000Y-78167000D03*
%TD*%
D13*
%TO.C,R2*%
X124777000Y-106680000D03*
X123127000Y-106680000D03*
%TD*%
D17*
%TO.C,U5*%
X136974500Y-103296000D03*
X136974500Y-102646000D03*
X136974500Y-101996000D03*
X136974500Y-101346000D03*
X136974500Y-100696000D03*
X136974500Y-100046000D03*
X136974500Y-99396000D03*
X131249500Y-99396000D03*
X131249500Y-100046000D03*
X131249500Y-100696000D03*
X131249500Y-101346000D03*
X131249500Y-101996000D03*
X131249500Y-102646000D03*
X131249500Y-103296000D03*
%TD*%
D18*
%TO.C,C9*%
X123177000Y-108204000D03*
X124727000Y-108204000D03*
%TD*%
%TO.C,C12*%
X123177000Y-102108000D03*
X124727000Y-102108000D03*
%TD*%
D14*
%TO.C,C11*%
X124727000Y-99060000D03*
X123177000Y-99060000D03*
%TD*%
D19*
%TO.C,X1*%
X125138000Y-83527000D03*
X127338000Y-83527000D03*
X127338000Y-81827000D03*
X125138000Y-81827000D03*
%TD*%
D13*
%TO.C,R6*%
X124777000Y-91440000D03*
X123127000Y-91440000D03*
%TD*%
%TO.C,R1*%
X124777000Y-109728000D03*
X123127000Y-109728000D03*
%TD*%
D18*
%TO.C,C14*%
X123177000Y-89916000D03*
X124727000Y-89916000D03*
%TD*%
D14*
%TO.C,C1*%
X130696000Y-84455000D03*
X129146000Y-84455000D03*
%TD*%
D20*
%TO.C,C19*%
X129413000Y-102629000D03*
X129413000Y-101079000D03*
%TD*%
D14*
%TO.C,C18*%
X136985000Y-104958000D03*
X135435000Y-104958000D03*
%TD*%
D15*
%TO.C,C7*%
X123317000Y-78182000D03*
X123317000Y-79732000D03*
%TD*%
D21*
%TO.C,U3*%
X133090500Y-115123000D03*
X133090500Y-114173000D03*
X133090500Y-113223000D03*
X130815500Y-113223000D03*
X130815500Y-115123000D03*
%TD*%
D13*
%TO.C,R4*%
X124777000Y-103632000D03*
X123127000Y-103632000D03*
%TD*%
D14*
%TO.C,C10*%
X124727000Y-105156000D03*
X123177000Y-105156000D03*
%TD*%
D17*
%TO.C,U4*%
X136974500Y-95930000D03*
X136974500Y-95280000D03*
X136974500Y-94630000D03*
X136974500Y-93980000D03*
X136974500Y-93330000D03*
X136974500Y-92680000D03*
X136974500Y-92030000D03*
X131249500Y-92030000D03*
X131249500Y-92680000D03*
X131249500Y-93330000D03*
X131249500Y-93980000D03*
X131249500Y-94630000D03*
X131249500Y-95280000D03*
X131249500Y-95930000D03*
%TD*%
D14*
%TO.C,C6*%
X130823000Y-116713000D03*
X129273000Y-116713000D03*
%TD*%
%TO.C,C15*%
X124727000Y-92964000D03*
X123177000Y-92964000D03*
%TD*%
D15*
%TO.C,C3*%
X138430000Y-81140000D03*
X138430000Y-82690000D03*
%TD*%
D20*
%TO.C,C20*%
X129413000Y-95263000D03*
X129413000Y-93713000D03*
%TD*%
D17*
%TO.C,U2*%
X136466500Y-83062000D03*
X136466500Y-82412000D03*
X136466500Y-81762000D03*
X136466500Y-81112000D03*
X136466500Y-80462000D03*
X136466500Y-79812000D03*
X136466500Y-79162000D03*
X136466500Y-78512000D03*
X136466500Y-77862000D03*
X136466500Y-77212000D03*
X130741500Y-77212000D03*
X130741500Y-77862000D03*
X130741500Y-78512000D03*
X130741500Y-79162000D03*
X130741500Y-79812000D03*
X130741500Y-80462000D03*
X130741500Y-81112000D03*
X130741500Y-81762000D03*
X130741500Y-82412000D03*
X130741500Y-83062000D03*
%TD*%
D15*
%TO.C,C4*%
X129159000Y-108064000D03*
X129159000Y-109614000D03*
%TD*%
D18*
%TO.C,C2*%
X136385000Y-84455000D03*
X137935000Y-84455000D03*
%TD*%
D21*
%TO.C,U1*%
X133090500Y-109916000D03*
X133090500Y-108966000D03*
X133090500Y-108016000D03*
X130815500Y-108016000D03*
X130815500Y-108966000D03*
X130815500Y-109916000D03*
%TD*%
D13*
%TO.C,R7*%
X124777000Y-94488000D03*
X123127000Y-94488000D03*
%TD*%
D18*
%TO.C,C16*%
X123177000Y-96012000D03*
X124727000Y-96012000D03*
%TD*%
%TO.C,C5*%
X130797000Y-111506000D03*
X132347000Y-111506000D03*
%TD*%
D22*
%TO.C,J1*%
X118110000Y-57785000D03*
D23*
X118110000Y-60325000D03*
X118110000Y-62865000D03*
X118110000Y-65405000D03*
X118110000Y-67945000D03*
X118110000Y-70485000D03*
X118110000Y-73025000D03*
X118110000Y-75565000D03*
X118110000Y-78105000D03*
X118110000Y-80645000D03*
X118110000Y-83185000D03*
X118110000Y-85725000D03*
X118110000Y-88265000D03*
X118110000Y-90805000D03*
X118110000Y-93345000D03*
X118110000Y-95885000D03*
X118110000Y-98425000D03*
X118110000Y-100965000D03*
X118110000Y-103505000D03*
X118110000Y-106045000D03*
X118110000Y-108585000D03*
X118110000Y-111125000D03*
X118110000Y-113665000D03*
X118110000Y-116205000D03*
%TD*%
%LPD*%
M02*
