%TF.GenerationSoftware,KiCad,Pcbnew,9.0.9-9.0.9~ubuntu24.04.1*%
%TF.CreationDate,2026-06-02T22:00:35-04:00*%
%TF.ProjectId,mcp3564rbreakout,6d637033-3536-4347-9262-7265616b6f75,rev?*%
%TF.SameCoordinates,Original*%
%TF.FileFunction,Copper,L1,Top*%
%TF.FilePolarity,Positive*%
%FSLAX46Y46*%
G04 Gerber Fmt 4.6, Leading zero omitted, Abs format (unit mm)*
G04 Created by KiCad (PCBNEW 9.0.9-9.0.9~ubuntu24.04.1) date 2026-06-02 22:00:35*
%MOMM*%
%LPD*%
G01*
G04 APERTURE LIST*
G04 Aperture macros list*
%AMRoundRect*
0 Rectangle with rounded corners*
0 $1 Rounding radius*
0 $2 $3 $4 $5 $6 $7 $8 $9 X,Y pos of 4 corners*
0 Add a 4 corners polygon primitive as box body*
4,1,4,$2,$3,$4,$5,$6,$7,$8,$9,$2,$3,0*
0 Add four circle primitives for the rounded corners*
1,1,$1+$1,$2,$3*
1,1,$1+$1,$4,$5*
1,1,$1+$1,$6,$7*
1,1,$1+$1,$8,$9*
0 Add four rect primitives between the rounded corners*
20,1,$1+$1,$2,$3,$4,$5,0*
20,1,$1+$1,$4,$5,$6,$7,0*
20,1,$1+$1,$6,$7,$8,$9,0*
20,1,$1+$1,$8,$9,$2,$3,0*%
G04 Aperture macros list end*
%TA.AperFunction,SMDPad,CuDef*%
%ADD10RoundRect,0.200000X0.200000X0.275000X-0.200000X0.275000X-0.200000X-0.275000X0.200000X-0.275000X0*%
%TD*%
%TA.AperFunction,SMDPad,CuDef*%
%ADD11RoundRect,0.225000X0.225000X0.250000X-0.225000X0.250000X-0.225000X-0.250000X0.225000X-0.250000X0*%
%TD*%
%TA.AperFunction,SMDPad,CuDef*%
%ADD12RoundRect,0.225000X-0.250000X0.225000X-0.250000X-0.225000X0.250000X-0.225000X0.250000X0.225000X0*%
%TD*%
%TA.AperFunction,SMDPad,CuDef*%
%ADD13RoundRect,0.250000X-0.325000X-0.250000X0.325000X-0.250000X0.325000X0.250000X-0.325000X0.250000X0*%
%TD*%
%TA.AperFunction,SMDPad,CuDef*%
%ADD14RoundRect,0.100000X0.637500X0.100000X-0.637500X0.100000X-0.637500X-0.100000X0.637500X-0.100000X0*%
%TD*%
%TA.AperFunction,SMDPad,CuDef*%
%ADD15RoundRect,0.225000X-0.225000X-0.250000X0.225000X-0.250000X0.225000X0.250000X-0.225000X0.250000X0*%
%TD*%
%TA.AperFunction,SMDPad,CuDef*%
%ADD16RoundRect,0.250000X-0.450000X-0.350000X0.450000X-0.350000X0.450000X0.350000X-0.450000X0.350000X0*%
%TD*%
%TA.AperFunction,SMDPad,CuDef*%
%ADD17RoundRect,0.225000X0.250000X-0.225000X0.250000X0.225000X-0.250000X0.225000X-0.250000X-0.225000X0*%
%TD*%
%TA.AperFunction,SMDPad,CuDef*%
%ADD18RoundRect,0.150000X0.512500X0.150000X-0.512500X0.150000X-0.512500X-0.150000X0.512500X-0.150000X0*%
%TD*%
%TA.AperFunction,ComponentPad*%
%ADD19R,1.700000X1.700000*%
%TD*%
%TA.AperFunction,ComponentPad*%
%ADD20C,1.700000*%
%TD*%
%TA.AperFunction,ViaPad*%
%ADD21C,0.609600*%
%TD*%
%TA.AperFunction,Conductor*%
%ADD22C,0.304800*%
%TD*%
%TA.AperFunction,Conductor*%
%ADD23C,0.152400*%
%TD*%
%TA.AperFunction,Conductor*%
%ADD24C,0.508000*%
%TD*%
%TA.AperFunction,Conductor*%
%ADD25C,0.635000*%
%TD*%
%TA.AperFunction,Conductor*%
%ADD26C,0.203200*%
%TD*%
G04 APERTURE END LIST*
D10*
%TO.P,R3,1*%
%TO.N,Net-(U2-CH3)*%
X124777000Y-100584000D03*
%TO.P,R3,2*%
%TO.N,/CH3*%
X123127000Y-100584000D03*
%TD*%
D11*
%TO.P,C13,1*%
%TO.N,Net-(U2-CH7)*%
X124727000Y-86868000D03*
%TO.P,C13,2*%
%TO.N,GND*%
X123177000Y-86868000D03*
%TD*%
D12*
%TO.P,C8,1*%
%TO.N,+3V3*%
X123317000Y-81775000D03*
%TO.P,C8,2*%
%TO.N,GND*%
X123317000Y-83325000D03*
%TD*%
D10*
%TO.P,R8,1*%
%TO.N,Net-(U2-CH4)*%
X124777000Y-97536000D03*
%TO.P,R8,2*%
%TO.N,/CH4*%
X123127000Y-97536000D03*
%TD*%
%TO.P,R5,1*%
%TO.N,Net-(U2-CH7)*%
X124777000Y-88392000D03*
%TO.P,R5,2*%
%TO.N,/CH7*%
X123127000Y-88392000D03*
%TD*%
D11*
%TO.P,C17,1*%
%TO.N,+3V3*%
X136985000Y-97572000D03*
%TO.P,C17,2*%
%TO.N,GND*%
X135435000Y-97572000D03*
%TD*%
D13*
%TO.P,X2,1,ENA*%
%TO.N,/MCLK_ENA*%
X124982000Y-79567000D03*
%TO.P,X2,2,GND*%
%TO.N,GND*%
X126732000Y-79567000D03*
%TO.P,X2,3,OUT*%
%TO.N,/MCLK*%
X126732000Y-78167000D03*
%TO.P,X2,4,VS*%
%TO.N,+3V3*%
X124982000Y-78167000D03*
%TD*%
D10*
%TO.P,R2,1*%
%TO.N,Net-(U2-CH1)*%
X124777000Y-106680000D03*
%TO.P,R2,2*%
%TO.N,/CH1*%
X123127000Y-106680000D03*
%TD*%
D14*
%TO.P,U5,1,VDD*%
%TO.N,+3V3*%
X136974500Y-103296000D03*
%TO.P,U5,2,NC*%
%TO.N,unconnected-(U5-NC-Pad2)*%
X136974500Y-102646000D03*
%TO.P,U5,3,~{CS}*%
%TO.N,/~{DAC1_CS}*%
X136974500Y-101996000D03*
%TO.P,U5,4,SCK*%
%TO.N,/SCK*%
X136974500Y-101346000D03*
%TO.P,U5,5,MOSI*%
%TO.N,/MOSI*%
X136974500Y-100696000D03*
%TO.P,U5,6,NC*%
%TO.N,unconnected-(U5-NC-Pad6)*%
X136974500Y-100046000D03*
%TO.P,U5,7,NC*%
%TO.N,unconnected-(U5-NC-Pad7)*%
X136974500Y-99396000D03*
%TO.P,U5,8,~{LDAC}*%
%TO.N,/~{LDAC}*%
X131249500Y-99396000D03*
%TO.P,U5,9,~{SHDN}*%
%TO.N,+3V3*%
X131249500Y-100046000D03*
%TO.P,U5,10,VOUTB*%
%TO.N,/CH3*%
X131249500Y-100696000D03*
%TO.P,U5,11,VREFB*%
%TO.N,/REFIN+{slash}OUT*%
X131249500Y-101346000D03*
%TO.P,U5,12,VSS*%
%TO.N,GND*%
X131249500Y-101996000D03*
%TO.P,U5,13,VREFA*%
%TO.N,/REFIN+{slash}OUT*%
X131249500Y-102646000D03*
%TO.P,U5,14,VOUTA*%
%TO.N,/CH1*%
X131249500Y-103296000D03*
%TD*%
D15*
%TO.P,C9,1*%
%TO.N,GND*%
X123177000Y-108204000D03*
%TO.P,C9,2*%
%TO.N,Net-(U2-CH0)*%
X124727000Y-108204000D03*
%TD*%
%TO.P,C12,1*%
%TO.N,GND*%
X123177000Y-102108000D03*
%TO.P,C12,2*%
%TO.N,Net-(U2-CH2)*%
X124727000Y-102108000D03*
%TD*%
D11*
%TO.P,C11,1*%
%TO.N,Net-(U2-CH3)*%
X124727000Y-99060000D03*
%TO.P,C11,2*%
%TO.N,GND*%
X123177000Y-99060000D03*
%TD*%
D16*
%TO.P,X1,1,ENA*%
%TO.N,/MCLK_ENA*%
X125138000Y-83527000D03*
%TO.P,X1,2,GND*%
%TO.N,GND*%
X127338000Y-83527000D03*
%TO.P,X1,3,OUT*%
%TO.N,/MCLK*%
X127338000Y-81827000D03*
%TO.P,X1,4,VS*%
%TO.N,+3V3*%
X125138000Y-81827000D03*
%TD*%
D10*
%TO.P,R6,1*%
%TO.N,Net-(U2-CH6)*%
X124777000Y-91440000D03*
%TO.P,R6,2*%
%TO.N,/CH6*%
X123127000Y-91440000D03*
%TD*%
%TO.P,R1,1*%
%TO.N,Net-(U2-CH0)*%
X124777000Y-109728000D03*
%TO.P,R1,2*%
%TO.N,/CH0*%
X123127000Y-109728000D03*
%TD*%
D15*
%TO.P,C14,1*%
%TO.N,GND*%
X123177000Y-89916000D03*
%TO.P,C14,2*%
%TO.N,Net-(U2-CH6)*%
X124727000Y-89916000D03*
%TD*%
D11*
%TO.P,C1,1*%
%TO.N,+3V3*%
X130696000Y-84455000D03*
%TO.P,C1,2*%
%TO.N,GND*%
X129146000Y-84455000D03*
%TD*%
D17*
%TO.P,C19,1*%
%TO.N,/REFIN+{slash}OUT*%
X129413000Y-102629000D03*
%TO.P,C19,2*%
%TO.N,GND*%
X129413000Y-101079000D03*
%TD*%
D11*
%TO.P,C18,1*%
%TO.N,+3V3*%
X136985000Y-104958000D03*
%TO.P,C18,2*%
%TO.N,GND*%
X135435000Y-104958000D03*
%TD*%
D12*
%TO.P,C7,1*%
%TO.N,+3V3*%
X123317000Y-78182000D03*
%TO.P,C7,2*%
%TO.N,GND*%
X123317000Y-79732000D03*
%TD*%
D18*
%TO.P,U3,1*%
%TO.N,/VREF_BUF*%
X133090500Y-115123000D03*
%TO.P,U3,2*%
%TO.N,GND*%
X133090500Y-114173000D03*
%TO.P,U3,3*%
%TO.N,/VREF*%
X133090500Y-113223000D03*
%TO.P,U3,4*%
%TO.N,/VREF_BUF*%
X130815500Y-113223000D03*
%TO.P,U3,5*%
%TO.N,+3V3*%
X130815500Y-115123000D03*
%TD*%
D10*
%TO.P,R4,1*%
%TO.N,Net-(U2-CH2)*%
X124777000Y-103632000D03*
%TO.P,R4,2*%
%TO.N,/CH2*%
X123127000Y-103632000D03*
%TD*%
D11*
%TO.P,C10,1*%
%TO.N,Net-(U2-CH1)*%
X124727000Y-105156000D03*
%TO.P,C10,2*%
%TO.N,GND*%
X123177000Y-105156000D03*
%TD*%
D14*
%TO.P,U4,1,VDD*%
%TO.N,+3V3*%
X136974500Y-95930000D03*
%TO.P,U4,2,NC*%
%TO.N,unconnected-(U4-NC-Pad2)*%
X136974500Y-95280000D03*
%TO.P,U4,3,~{CS}*%
%TO.N,/~{DAC2_CS}*%
X136974500Y-94630000D03*
%TO.P,U4,4,SCK*%
%TO.N,/SCK*%
X136974500Y-93980000D03*
%TO.P,U4,5,MOSI*%
%TO.N,/MOSI*%
X136974500Y-93330000D03*
%TO.P,U4,6,NC*%
%TO.N,unconnected-(U4-NC-Pad6)*%
X136974500Y-92680000D03*
%TO.P,U4,7,NC*%
%TO.N,unconnected-(U4-NC-Pad7)*%
X136974500Y-92030000D03*
%TO.P,U4,8,~{LDAC}*%
%TO.N,/~{LDAC}*%
X131249500Y-92030000D03*
%TO.P,U4,9,~{SHDN}*%
%TO.N,+3V3*%
X131249500Y-92680000D03*
%TO.P,U4,10,VOUTB*%
%TO.N,/CH7*%
X131249500Y-93330000D03*
%TO.P,U4,11,VREFB*%
%TO.N,/REFIN+{slash}OUT*%
X131249500Y-93980000D03*
%TO.P,U4,12,VSS*%
%TO.N,GND*%
X131249500Y-94630000D03*
%TO.P,U4,13,VREFA*%
%TO.N,/REFIN+{slash}OUT*%
X131249500Y-95280000D03*
%TO.P,U4,14,VOUTA*%
%TO.N,/CH5*%
X131249500Y-95930000D03*
%TD*%
D11*
%TO.P,C6,1*%
%TO.N,+3V3*%
X130823000Y-116713000D03*
%TO.P,C6,2*%
%TO.N,GND*%
X129273000Y-116713000D03*
%TD*%
%TO.P,C15,1*%
%TO.N,Net-(U2-CH5)*%
X124727000Y-92964000D03*
%TO.P,C15,2*%
%TO.N,GND*%
X123177000Y-92964000D03*
%TD*%
D12*
%TO.P,C3,1*%
%TO.N,/REFIN+{slash}OUT*%
X138430000Y-81140000D03*
%TO.P,C3,2*%
%TO.N,GND*%
X138430000Y-82690000D03*
%TD*%
D17*
%TO.P,C20,1*%
%TO.N,/REFIN+{slash}OUT*%
X129413000Y-95263000D03*
%TO.P,C20,2*%
%TO.N,GND*%
X129413000Y-93713000D03*
%TD*%
D14*
%TO.P,U2,1,AVDD*%
%TO.N,+3V3*%
X136466500Y-83062000D03*
%TO.P,U2,2,AGND*%
%TO.N,GND*%
X136466500Y-82412000D03*
%TO.P,U2,3,REFIN-*%
X136466500Y-81762000D03*
%TO.P,U2,4,REFIN+/OUT*%
%TO.N,/REFIN+{slash}OUT*%
X136466500Y-81112000D03*
%TO.P,U2,5,CH0*%
%TO.N,Net-(U2-CH0)*%
X136466500Y-80462000D03*
%TO.P,U2,6,CH1*%
%TO.N,Net-(U2-CH1)*%
X136466500Y-79812000D03*
%TO.P,U2,7,CH2*%
%TO.N,Net-(U2-CH2)*%
X136466500Y-79162000D03*
%TO.P,U2,8,CH3*%
%TO.N,Net-(U2-CH3)*%
X136466500Y-78512000D03*
%TO.P,U2,9,CH4*%
%TO.N,Net-(U2-CH4)*%
X136466500Y-77862000D03*
%TO.P,U2,10,CH5*%
%TO.N,Net-(U2-CH5)*%
X136466500Y-77212000D03*
%TO.P,U2,11,CH6*%
%TO.N,Net-(U2-CH6)*%
X130741500Y-77212000D03*
%TO.P,U2,12,CH7*%
%TO.N,Net-(U2-CH7)*%
X130741500Y-77862000D03*
%TO.P,U2,13,~{CS}*%
%TO.N,/~{ADC_CS}*%
X130741500Y-78512000D03*
%TO.P,U2,14,SCK*%
%TO.N,/SCK*%
X130741500Y-79162000D03*
%TO.P,U2,15,MOSI*%
%TO.N,/MOSI*%
X130741500Y-79812000D03*
%TO.P,U2,16,MISO*%
%TO.N,/MISO*%
X130741500Y-80462000D03*
%TO.P,U2,17,~{IRQ}/MDAT*%
%TO.N,/~{IRQ}{slash}MDAT*%
X130741500Y-81112000D03*
%TO.P,U2,18,MCLK*%
%TO.N,/MCLK*%
X130741500Y-81762000D03*
%TO.P,U2,19,DGND*%
%TO.N,GND*%
X130741500Y-82412000D03*
%TO.P,U2,20,DVDD*%
%TO.N,+3V3*%
X130741500Y-83062000D03*
%TD*%
D12*
%TO.P,C4,1*%
%TO.N,+3V3*%
X129159000Y-108064000D03*
%TO.P,C4,2*%
%TO.N,GND*%
X129159000Y-109614000D03*
%TD*%
D15*
%TO.P,C2,1*%
%TO.N,+3V3*%
X136385000Y-84455000D03*
%TO.P,C2,2*%
%TO.N,GND*%
X137935000Y-84455000D03*
%TD*%
D18*
%TO.P,U1,1,GND*%
%TO.N,GND*%
X133090500Y-109916000D03*
%TO.P,U1,2,GND*%
X133090500Y-108966000D03*
%TO.P,U1,3,EN*%
%TO.N,+3V3*%
X133090500Y-108016000D03*
%TO.P,U1,4,VIN*%
X130815500Y-108016000D03*
%TO.P,U1,5,NR*%
%TO.N,unconnected-(U1-NR-Pad5)*%
X130815500Y-108966000D03*
%TO.P,U1,6,VREF*%
%TO.N,/VREF*%
X130815500Y-109916000D03*
%TD*%
D10*
%TO.P,R7,1*%
%TO.N,Net-(U2-CH5)*%
X124777000Y-94488000D03*
%TO.P,R7,2*%
%TO.N,/CH5*%
X123127000Y-94488000D03*
%TD*%
D15*
%TO.P,C16,1*%
%TO.N,GND*%
X123177000Y-96012000D03*
%TO.P,C16,2*%
%TO.N,Net-(U2-CH4)*%
X124727000Y-96012000D03*
%TD*%
%TO.P,C5,1*%
%TO.N,/VREF*%
X130797000Y-111506000D03*
%TO.P,C5,2*%
%TO.N,GND*%
X132347000Y-111506000D03*
%TD*%
D19*
%TO.P,J1,1,Pin_1*%
%TO.N,/~{DAC1_CS}*%
X118110000Y-57785000D03*
D20*
%TO.P,J1,2,Pin_2*%
%TO.N,/~{DAC2_CS}*%
X118110000Y-60325000D03*
%TO.P,J1,3,Pin_3*%
%TO.N,/~{LDAC}*%
X118110000Y-62865000D03*
%TO.P,J1,4,Pin_4*%
%TO.N,/~{ADC_CS}*%
X118110000Y-65405000D03*
%TO.P,J1,5,Pin_5*%
%TO.N,/SCK*%
X118110000Y-67945000D03*
%TO.P,J1,6,Pin_6*%
%TO.N,/MOSI*%
X118110000Y-70485000D03*
%TO.P,J1,7,Pin_7*%
%TO.N,/MISO*%
X118110000Y-73025000D03*
%TO.P,J1,8,Pin_8*%
%TO.N,/~{IRQ}{slash}MDAT*%
X118110000Y-75565000D03*
%TO.P,J1,9,Pin_9*%
%TO.N,/MCLK*%
X118110000Y-78105000D03*
%TO.P,J1,10,Pin_10*%
%TO.N,/MCLK_ENA*%
X118110000Y-80645000D03*
%TO.P,J1,11,Pin_11*%
%TO.N,GND*%
X118110000Y-83185000D03*
%TO.P,J1,12,Pin_12*%
%TO.N,+3V3*%
X118110000Y-85725000D03*
%TO.P,J1,13,Pin_13*%
%TO.N,GND*%
X118110000Y-88265000D03*
%TO.P,J1,14,Pin_14*%
%TO.N,/CH7*%
X118110000Y-90805000D03*
%TO.P,J1,15,Pin_15*%
%TO.N,/CH6*%
X118110000Y-93345000D03*
%TO.P,J1,16,Pin_16*%
%TO.N,/CH5*%
X118110000Y-95885000D03*
%TO.P,J1,17,Pin_17*%
%TO.N,/CH4*%
X118110000Y-98425000D03*
%TO.P,J1,18,Pin_18*%
%TO.N,/CH3*%
X118110000Y-100965000D03*
%TO.P,J1,19,Pin_19*%
%TO.N,/CH2*%
X118110000Y-103505000D03*
%TO.P,J1,20,Pin_20*%
%TO.N,/CH1*%
X118110000Y-106045000D03*
%TO.P,J1,21,Pin_21*%
%TO.N,/CH0*%
X118110000Y-108585000D03*
%TO.P,J1,22,Pin_22*%
%TO.N,/REFIN+{slash}OUT*%
X118110000Y-111125000D03*
%TO.P,J1,23,Pin_23*%
%TO.N,/VREF*%
X118110000Y-113665000D03*
%TO.P,J1,24,Pin_24*%
%TO.N,/VREF_BUF*%
X118110000Y-116205000D03*
%TD*%
D21*
%TO.N,+3V3*%
X136985000Y-106245400D03*
X136982200Y-98399600D03*
%TO.N,/SCK*%
X130200400Y-67945000D03*
%TO.N,/MOSI*%
X133731000Y-70485000D03*
%TO.N,/~{DAC2_CS}*%
X139242800Y-94640400D03*
X138049000Y-94640400D03*
%TO.N,/CH7*%
X132384800Y-93345000D03*
X122301000Y-88392000D03*
%TO.N,/CH5*%
X129336800Y-96342200D03*
X122326400Y-94488000D03*
%TO.N,/CH3*%
X128549400Y-100076000D03*
X122301000Y-100584000D03*
%TO.N,/CH1*%
X122275600Y-106680000D03*
X128727200Y-106680000D03*
%TO.N,+3V3*%
X136372600Y-85725000D03*
X129411814Y-85725000D03*
%TO.N,GND*%
X127330200Y-84455000D03*
X132257800Y-102002008D03*
X122478800Y-92964000D03*
X134061200Y-114173000D03*
X129413000Y-93014800D03*
X134061200Y-108966000D03*
X123317000Y-84124800D03*
X128346200Y-109626400D03*
X122478800Y-108204000D03*
X135432800Y-96824800D03*
X123317000Y-80543400D03*
X135432800Y-104216200D03*
X132308600Y-94640400D03*
X128473200Y-116713000D03*
X122478800Y-99060000D03*
X128676400Y-101066600D03*
X122478800Y-86868000D03*
X122478800Y-105156000D03*
X126720600Y-80391000D03*
X122478800Y-102108000D03*
X138658600Y-84455000D03*
X129667000Y-82423000D03*
X122478800Y-89916000D03*
X122478800Y-96012000D03*
X129133600Y-83642200D03*
X134061200Y-109931200D03*
X138430000Y-83464400D03*
X133121400Y-111506000D03*
%TD*%
D22*
%TO.N,+3V3*%
X136985000Y-98396800D02*
X136982200Y-98399600D01*
X136985000Y-97572000D02*
X136985000Y-98396800D01*
D23*
%TO.N,/SCK*%
X130200400Y-67945000D02*
X130276600Y-68021200D01*
X135763000Y-91363800D02*
X135763000Y-93726000D01*
X130276600Y-68021200D02*
X130276600Y-68059984D01*
X130276600Y-68059984D02*
X139877800Y-77661184D01*
X139877800Y-77661184D02*
X139877800Y-87249000D01*
X139877800Y-87249000D02*
X135763000Y-91363800D01*
X135763000Y-93726000D02*
X136017000Y-93980000D01*
%TO.N,/~{DAC1_CS}*%
X136974500Y-101996000D02*
X137907000Y-101996000D01*
X137907000Y-101996000D02*
X141325600Y-98577400D01*
X141325600Y-76047600D02*
X123063000Y-57785000D01*
X141325600Y-98577400D02*
X141325600Y-76047600D01*
X123063000Y-57785000D02*
X118110000Y-57785000D01*
%TO.N,/~{DAC2_CS}*%
X139242800Y-94640400D02*
X140843000Y-93040200D01*
X140843000Y-93040200D02*
X140843000Y-76631800D01*
X140843000Y-76631800D02*
X124536200Y-60325000D01*
X124536200Y-60325000D02*
X118110000Y-60325000D01*
%TO.N,/~{LDAC}*%
X133019800Y-91897200D02*
X139420600Y-85496400D01*
X139420600Y-85496400D02*
X139420600Y-78333600D01*
X139420600Y-78333600D02*
X123952000Y-62865000D01*
X123952000Y-62865000D02*
X118110000Y-62865000D01*
%TO.N,/MOSI*%
X133731000Y-70485000D02*
X133731000Y-70497700D01*
X133731000Y-70497700D02*
X140360400Y-77127100D01*
X140360400Y-77127100D02*
X140360400Y-90855800D01*
X140360400Y-90855800D02*
X138010900Y-93205300D01*
X138010900Y-93459300D02*
X137881600Y-93330000D01*
X138010900Y-93459300D02*
X138010900Y-93205300D01*
X138010900Y-93205300D02*
X137886200Y-93330000D01*
X137886200Y-93330000D02*
X137881600Y-93330000D01*
%TO.N,/~{LDAC}*%
X133019800Y-92176600D02*
X132873200Y-92030000D01*
X132887000Y-92030000D02*
X133019800Y-91897200D01*
X133019800Y-92176600D02*
X133019800Y-91897200D01*
X132873200Y-92030000D02*
X132887000Y-92030000D01*
%TO.N,/~{DAC2_CS}*%
X136974500Y-94630000D02*
X138038600Y-94630000D01*
X138038600Y-94630000D02*
X138049000Y-94640400D01*
%TO.N,/MOSI*%
X136974500Y-100696000D02*
X137886200Y-100696000D01*
X137886200Y-100696000D02*
X138658600Y-99923600D01*
X138658600Y-99923600D02*
X138658600Y-94107000D01*
X138658600Y-94107000D02*
X138010900Y-93459300D01*
X137881600Y-93330000D02*
X136974500Y-93330000D01*
D24*
%TO.N,+3V3*%
X134874000Y-108356400D02*
X135214400Y-108016000D01*
X134508200Y-108016000D02*
X135214400Y-108016000D01*
X135214400Y-108016000D02*
X136985000Y-106245400D01*
X136985000Y-106245400D02*
X136985000Y-104958000D01*
D23*
%TO.N,/~{LDAC}*%
X131249500Y-99396000D02*
X132175800Y-99396000D01*
X132175800Y-99396000D02*
X133934200Y-97637600D01*
X133934200Y-97637600D02*
X133934200Y-93091000D01*
X133934200Y-93091000D02*
X133019800Y-92176600D01*
X132873200Y-92030000D02*
X131249500Y-92030000D01*
%TO.N,+3V3*%
X131249500Y-92680000D02*
X132812000Y-92680000D01*
X133426200Y-93294200D02*
X133426200Y-95402400D01*
X132812000Y-92680000D02*
X133426200Y-93294200D01*
X133426200Y-95402400D02*
X130124200Y-98704400D01*
X130124200Y-98704400D02*
X130124200Y-99822000D01*
X130124200Y-99822000D02*
X130348200Y-100046000D01*
X130348200Y-100046000D02*
X131249500Y-100046000D01*
X131249500Y-100046000D02*
X132431000Y-100046000D01*
X132431000Y-100046000D02*
X135681000Y-103296000D01*
X135681000Y-103296000D02*
X136974500Y-103296000D01*
%TO.N,/SCK*%
X136974500Y-101346000D02*
X136042400Y-101346000D01*
X136042400Y-101346000D02*
X134594600Y-99898200D01*
X134594600Y-99898200D02*
X134594600Y-95402400D01*
X134594600Y-95402400D02*
X136017000Y-93980000D01*
X136017000Y-93980000D02*
X136974500Y-93980000D01*
D24*
%TO.N,GND*%
X135432800Y-104216200D02*
X135432800Y-104955800D01*
X135432800Y-104955800D02*
X135435000Y-104958000D01*
X135432800Y-96824800D02*
X135432800Y-97569800D01*
X135432800Y-97569800D02*
X135435000Y-97572000D01*
D23*
%TO.N,/CH7*%
X131249500Y-93330000D02*
X132369800Y-93330000D01*
X132369800Y-93330000D02*
X132384800Y-93345000D01*
%TO.N,/CH5*%
X129895600Y-96342200D02*
X129336800Y-96342200D01*
X130307800Y-95930000D02*
X129895600Y-96342200D01*
X131249500Y-95930000D02*
X130307800Y-95930000D01*
X122326400Y-94488000D02*
X121285000Y-94488000D01*
%TO.N,/CH3*%
X131249500Y-100696000D02*
X130312400Y-100696000D01*
X130312400Y-100696000D02*
X129692400Y-100076000D01*
X129692400Y-100076000D02*
X128549400Y-100076000D01*
X123127000Y-100584000D02*
X122301000Y-100584000D01*
D24*
%TO.N,GND*%
X129413000Y-101079000D02*
X128688800Y-101079000D01*
X128688800Y-101079000D02*
X128676400Y-101066600D01*
D23*
%TO.N,/CH1*%
X128727200Y-106680000D02*
X128752600Y-106654600D01*
X128752600Y-106654600D02*
X128752600Y-104851200D01*
X128752600Y-104851200D02*
X130307800Y-103296000D01*
X130307800Y-103296000D02*
X131249500Y-103296000D01*
X123127000Y-106680000D02*
X122275600Y-106680000D01*
D22*
%TO.N,+3V3*%
X136974500Y-104947500D02*
X136985000Y-104958000D01*
X136974500Y-97561500D02*
X136985000Y-97572000D01*
X136974500Y-95930000D02*
X136974500Y-97561500D01*
D24*
X136372600Y-84467400D02*
X136385000Y-84455000D01*
X124982000Y-78167000D02*
X123332000Y-78167000D01*
D25*
X122060000Y-79439000D02*
X123317000Y-78182000D01*
X118922800Y-85725000D02*
X118110000Y-85725000D01*
X122060000Y-81775000D02*
X122060000Y-79439000D01*
D24*
X125138000Y-81827000D02*
X123369000Y-81827000D01*
D25*
X129411814Y-85725000D02*
X129818214Y-85318600D01*
X118910100Y-84924900D02*
X122060000Y-81775000D01*
X118910100Y-84924900D02*
X118922800Y-84937600D01*
D22*
X130741500Y-84409500D02*
X130696000Y-84455000D01*
X136466500Y-84373500D02*
X136385000Y-84455000D01*
D24*
X129207000Y-108016000D02*
X130815500Y-108016000D01*
X123332000Y-78167000D02*
X123317000Y-78182000D01*
X134508200Y-108016000D02*
X134874000Y-108381800D01*
D25*
X118922800Y-84937600D02*
X118922800Y-85725000D01*
X129832400Y-85318600D02*
X130696000Y-84455000D01*
X122060000Y-81775000D02*
X123317000Y-81775000D01*
D24*
X134874000Y-108356400D02*
X134874000Y-108381800D01*
X134874000Y-115214400D02*
X133375400Y-116713000D01*
X130823000Y-116713000D02*
X130823000Y-115130500D01*
X136372600Y-85725000D02*
X136372600Y-84467400D01*
D22*
X130741500Y-83062000D02*
X130741500Y-84409500D01*
D24*
X129159000Y-108064000D02*
X129207000Y-108016000D01*
D25*
X129818214Y-85318600D02*
X129832400Y-85318600D01*
D24*
X133375400Y-116713000D02*
X130823000Y-116713000D01*
X133090500Y-108016000D02*
X130815500Y-108016000D01*
D25*
X118110000Y-85725000D02*
X118910100Y-84924900D01*
D24*
X134874000Y-108381800D02*
X134874000Y-115214400D01*
D25*
X129411814Y-85725000D02*
X118922800Y-85725000D01*
D22*
X136466500Y-83062000D02*
X136466500Y-84373500D01*
D24*
X123369000Y-81827000D02*
X123317000Y-81775000D01*
X130823000Y-115130500D02*
X130815500Y-115123000D01*
D22*
X136974500Y-103296000D02*
X136974500Y-104947500D01*
D24*
X133090500Y-108016000D02*
X134508200Y-108016000D01*
%TO.N,GND*%
X123177000Y-89916000D02*
X122478800Y-89916000D01*
X126732000Y-80379600D02*
X126720600Y-80391000D01*
X133090500Y-108966000D02*
X134061200Y-108966000D01*
D22*
X132192000Y-101996000D02*
X131249500Y-101996000D01*
D24*
X129146000Y-84455000D02*
X129146000Y-83654600D01*
D22*
X129678000Y-82412000D02*
X129667000Y-82423000D01*
X132257800Y-102002008D02*
X132198008Y-102002008D01*
X132198008Y-102002008D02*
X132192000Y-101996000D01*
X136466500Y-81762000D02*
X136466500Y-82412000D01*
D24*
X123177000Y-102108000D02*
X122478800Y-102108000D01*
X128358600Y-109614000D02*
X128346200Y-109626400D01*
X126732000Y-79567000D02*
X126732000Y-80379600D01*
X129146000Y-83654600D02*
X129133600Y-83642200D01*
D22*
X137655600Y-82690000D02*
X138430000Y-82690000D01*
D24*
X129413000Y-93713000D02*
X129413000Y-93014800D01*
X134046000Y-109916000D02*
X134061200Y-109931200D01*
D22*
X131249500Y-94630000D02*
X132298200Y-94630000D01*
D24*
X123317000Y-83325000D02*
X123317000Y-84124800D01*
X138430000Y-82690000D02*
X138430000Y-83464400D01*
X127338000Y-84447200D02*
X127330200Y-84455000D01*
D22*
X132298200Y-94630000D02*
X132308600Y-94640400D01*
D24*
X123177000Y-96012000D02*
X122478800Y-96012000D01*
X123177000Y-86868000D02*
X122478800Y-86868000D01*
X123177000Y-105156000D02*
X122478800Y-105156000D01*
X123177000Y-99060000D02*
X122478800Y-99060000D01*
X123177000Y-92964000D02*
X122478800Y-92964000D01*
X132347000Y-111506000D02*
X133121400Y-111506000D01*
X129159000Y-109614000D02*
X128358600Y-109614000D01*
D22*
X130741500Y-82412000D02*
X129678000Y-82412000D01*
D24*
X123177000Y-108204000D02*
X122478800Y-108204000D01*
X127338000Y-83527000D02*
X127338000Y-84447200D01*
X133090500Y-114173000D02*
X134061200Y-114173000D01*
X123317000Y-79732000D02*
X123317000Y-80543400D01*
X133090500Y-109916000D02*
X134046000Y-109916000D01*
D22*
X137377600Y-82412000D02*
X137655600Y-82690000D01*
D24*
X129273000Y-116713000D02*
X128473200Y-116713000D01*
D22*
X136466500Y-82412000D02*
X137377600Y-82412000D01*
D24*
X137935000Y-84455000D02*
X138658600Y-84455000D01*
D23*
%TO.N,/SCK*%
X130741500Y-79162000D02*
X129631800Y-79162000D01*
X121488200Y-67945000D02*
X118110000Y-67945000D01*
X129260600Y-78790800D02*
X129260600Y-75717400D01*
X129260600Y-75717400D02*
X121488200Y-67945000D01*
X129631800Y-79162000D02*
X129260600Y-78790800D01*
%TO.N,/REFIN+{slash}OUT*%
X129349800Y-102629000D02*
X127939800Y-101219000D01*
X128473200Y-93091000D02*
X135178800Y-86385400D01*
X119608600Y-111125000D02*
X119888000Y-110845600D01*
X135178800Y-81457800D02*
X135524600Y-81112000D01*
X118110000Y-111125000D02*
X119608600Y-111125000D01*
X131249500Y-102646000D02*
X129430000Y-102646000D01*
X127939800Y-107873800D02*
X127939800Y-104013000D01*
X129323800Y-102629000D02*
X129413000Y-102629000D01*
X135178800Y-86385400D02*
X135178800Y-81457800D01*
D26*
X131249500Y-93980000D02*
X132613400Y-93980000D01*
D23*
X132842000Y-101650800D02*
X132842000Y-102311200D01*
X128473200Y-94323200D02*
X128473200Y-93091000D01*
X132507200Y-102646000D02*
X131249500Y-102646000D01*
D26*
X131249500Y-95280000D02*
X129430000Y-95280000D01*
D23*
X127939800Y-104013000D02*
X129323800Y-102629000D01*
X124968000Y-110845600D02*
X127939800Y-107873800D01*
X129349200Y-95263000D02*
X129413000Y-95263000D01*
X132842000Y-102311200D02*
X132507200Y-102646000D01*
D26*
X132943600Y-94310200D02*
X132943600Y-94970600D01*
D23*
X138402000Y-81112000D02*
X138430000Y-81140000D01*
X119888000Y-110845600D02*
X124968000Y-110845600D01*
X129430000Y-102646000D02*
X129413000Y-102629000D01*
X136466500Y-81112000D02*
X138402000Y-81112000D01*
X127939800Y-101219000D02*
X127939800Y-96672400D01*
X129413000Y-102629000D02*
X129349800Y-102629000D01*
X135524600Y-81112000D02*
X136466500Y-81112000D01*
X129413000Y-95263000D02*
X128473200Y-94323200D01*
D26*
X129430000Y-95280000D02*
X129413000Y-95263000D01*
X132613400Y-93980000D02*
X132943600Y-94310200D01*
X132943600Y-94970600D02*
X132634200Y-95280000D01*
X132634200Y-95280000D02*
X131249500Y-95280000D01*
D23*
X131249500Y-101346000D02*
X132537200Y-101346000D01*
X127939800Y-96672400D02*
X129349200Y-95263000D01*
X132537200Y-101346000D02*
X132842000Y-101650800D01*
%TO.N,/CH3*%
X120269000Y-100584000D02*
X119888000Y-100965000D01*
X122301000Y-100584000D02*
X120269000Y-100584000D01*
X119888000Y-100965000D02*
X118110000Y-100965000D01*
%TO.N,/MOSI*%
X123063000Y-70485000D02*
X118110000Y-70485000D01*
X128879600Y-79273400D02*
X128879600Y-76301600D01*
X130741500Y-79812000D02*
X129418200Y-79812000D01*
X129418200Y-79812000D02*
X128879600Y-79273400D01*
X128879600Y-76301600D02*
X123063000Y-70485000D01*
%TO.N,/MCLK*%
X127609600Y-78968600D02*
X126808000Y-78167000D01*
X127403000Y-81762000D02*
X127338000Y-81827000D01*
X126732000Y-77481400D02*
X125984000Y-76733400D01*
X126732000Y-78167000D02*
X126732000Y-77481400D01*
X130741500Y-81762000D02*
X127403000Y-81762000D01*
X125984000Y-76733400D02*
X119481600Y-76733400D01*
X127609600Y-81555400D02*
X127609600Y-78968600D01*
X119481600Y-76733400D02*
X118110000Y-78105000D01*
X127338000Y-81827000D02*
X127609600Y-81555400D01*
X126808000Y-78167000D02*
X126732000Y-78167000D01*
%TO.N,/CH2*%
X123127000Y-103632000D02*
X120015000Y-103632000D01*
X119888000Y-103505000D02*
X118110000Y-103505000D01*
X120015000Y-103632000D02*
X119888000Y-103505000D01*
%TO.N,/VREF*%
X130797000Y-111506000D02*
X130810000Y-111506000D01*
X130815500Y-109916000D02*
X130815500Y-111487500D01*
X131851400Y-112369600D02*
X132704800Y-113223000D01*
X120269000Y-111506000D02*
X130797000Y-111506000D01*
X130810000Y-111506000D02*
X131673600Y-112369600D01*
X120269000Y-111506000D02*
X118110000Y-113665000D01*
X132704800Y-113223000D02*
X133090500Y-113223000D01*
X131673600Y-112369600D02*
X131851400Y-112369600D01*
X130815500Y-111487500D02*
X130797000Y-111506000D01*
%TO.N,/CH0*%
X123127000Y-109728000D02*
X121031000Y-109728000D01*
X119888000Y-108585000D02*
X118110000Y-108585000D01*
X121031000Y-109728000D02*
X119888000Y-108585000D01*
%TO.N,/CH1*%
X120523000Y-106680000D02*
X119888000Y-106045000D01*
X119888000Y-106045000D02*
X118110000Y-106045000D01*
X122275600Y-106680000D02*
X120523000Y-106680000D01*
%TO.N,/~{IRQ}{slash}MDAT*%
X128041400Y-77419200D02*
X126187200Y-75565000D01*
X126187200Y-75565000D02*
X118110000Y-75565000D01*
X129143400Y-81112000D02*
X128041400Y-80010000D01*
X128041400Y-80010000D02*
X128041400Y-77419200D01*
X130741500Y-81112000D02*
X129143400Y-81112000D01*
%TO.N,/MISO*%
X124612400Y-73025000D02*
X118110000Y-73025000D01*
X129306200Y-80462000D02*
X128473200Y-79629000D01*
X130741500Y-80462000D02*
X129306200Y-80462000D01*
X128473200Y-79629000D02*
X128473200Y-76885800D01*
X128473200Y-76885800D02*
X124612400Y-73025000D01*
D22*
%TO.N,/VREF_BUF*%
X131638000Y-113223000D02*
X130815500Y-113223000D01*
X133090500Y-115123000D02*
X132268000Y-115123000D01*
X121092000Y-113223000D02*
X118110000Y-116205000D01*
X121092000Y-113223000D02*
X130815500Y-113223000D01*
X131953000Y-113538000D02*
X131638000Y-113223000D01*
X132268000Y-115123000D02*
X131953000Y-114808000D01*
X131953000Y-114808000D02*
X131953000Y-113538000D01*
D23*
%TO.N,/MCLK_ENA*%
X126136400Y-80632984D02*
X126136400Y-80619600D01*
X126238000Y-82550000D02*
X126238000Y-80734584D01*
X121488200Y-77266800D02*
X118110000Y-80645000D01*
X125857000Y-78790800D02*
X125857000Y-77711388D01*
X125083800Y-79567000D02*
X124982000Y-79567000D01*
X125261000Y-83527000D02*
X126238000Y-82550000D01*
X125412412Y-77266800D02*
X121488200Y-77266800D01*
X126136400Y-80619600D02*
X125083800Y-79567000D01*
X126238000Y-80734584D02*
X126136400Y-80632984D01*
X124982000Y-79567000D02*
X125080800Y-79567000D01*
X125080800Y-79567000D02*
X125857000Y-78790800D01*
X125138000Y-83527000D02*
X125261000Y-83527000D01*
X125857000Y-77711388D02*
X125412412Y-77266800D01*
%TO.N,Net-(U2-CH0)*%
X127330200Y-93573600D02*
X134747000Y-86156800D01*
X124727000Y-108204000D02*
X124739400Y-108204000D01*
X124727000Y-108204000D02*
X124727000Y-109678000D01*
X127330200Y-105613200D02*
X127330200Y-93573600D01*
X124727000Y-109678000D02*
X124777000Y-109728000D01*
X124739400Y-108204000D02*
X127330200Y-105613200D01*
X134747000Y-81229200D02*
X135514200Y-80462000D01*
X135514200Y-80462000D02*
X136466500Y-80462000D01*
X134747000Y-86156800D02*
X134747000Y-81229200D01*
%TO.N,Net-(U2-CH1)*%
X134315200Y-81026000D02*
X135529200Y-79812000D01*
X135529200Y-79812000D02*
X136466500Y-79812000D01*
X124739400Y-105156000D02*
X126847600Y-103047800D01*
X126847600Y-93395800D02*
X134315200Y-85928200D01*
X124727000Y-105156000D02*
X124727000Y-106630000D01*
X124727000Y-106630000D02*
X124777000Y-106680000D01*
X124727000Y-105156000D02*
X124739400Y-105156000D01*
X126847600Y-103047800D02*
X126847600Y-93395800D01*
X134315200Y-85928200D02*
X134315200Y-81026000D01*
%TO.N,Net-(U2-CH3)*%
X125958600Y-97828400D02*
X125958600Y-92964000D01*
X133477000Y-85445600D02*
X133477000Y-80543400D01*
X125958600Y-92964000D02*
X133477000Y-85445600D01*
X124727000Y-99060000D02*
X124727000Y-100534000D01*
X124727000Y-100534000D02*
X124777000Y-100584000D01*
X124727000Y-99060000D02*
X125958600Y-97828400D01*
X133477000Y-80543400D02*
X135508400Y-78512000D01*
X135508400Y-78512000D02*
X136466500Y-78512000D01*
%TO.N,Net-(U2-CH2)*%
X124727000Y-103582000D02*
X124777000Y-103632000D01*
X133883400Y-85699600D02*
X133883400Y-80797400D01*
X126415800Y-93167200D02*
X133883400Y-85699600D01*
X135518800Y-79162000D02*
X136466500Y-79162000D01*
X124727000Y-102108000D02*
X126415800Y-100419200D01*
X126415800Y-100419200D02*
X126415800Y-93167200D01*
X124727000Y-102108000D02*
X124727000Y-103582000D01*
X133883400Y-80797400D02*
X135518800Y-79162000D01*
%TO.N,Net-(U2-CH7)*%
X131826000Y-84556600D02*
X131826000Y-78028800D01*
X124727000Y-88342000D02*
X124777000Y-88392000D01*
X131659200Y-77862000D02*
X130741500Y-77862000D01*
X124727000Y-86868000D02*
X129514600Y-86868000D01*
X129514600Y-86868000D02*
X131826000Y-84556600D01*
X131826000Y-78028800D02*
X131659200Y-77862000D01*
X124727000Y-86868000D02*
X124727000Y-88342000D01*
%TO.N,Net-(U2-CH6)*%
X132232400Y-84785200D02*
X132232400Y-77781201D01*
X131663199Y-77212000D02*
X130741500Y-77212000D01*
X132232400Y-77781201D02*
X131663199Y-77212000D01*
X124727000Y-89916000D02*
X127101600Y-89916000D01*
X124727000Y-91390000D02*
X124777000Y-91440000D01*
X124727000Y-89916000D02*
X124727000Y-91390000D01*
X127101600Y-89916000D02*
X132232400Y-84785200D01*
%TO.N,Net-(U2-CH5)*%
X124727000Y-94438000D02*
X124777000Y-94488000D01*
X124739400Y-92964000D02*
X132638800Y-85064600D01*
X132638800Y-85064600D02*
X132638800Y-80086200D01*
X124727000Y-92964000D02*
X124727000Y-94438000D01*
X132638800Y-80086200D02*
X135513000Y-77212000D01*
X124727000Y-92964000D02*
X124739400Y-92964000D01*
X135513000Y-77212000D02*
X136466500Y-77212000D01*
%TO.N,Net-(U2-CH4)*%
X125552200Y-95199200D02*
X125552200Y-92760800D01*
X124727000Y-97486000D02*
X124777000Y-97536000D01*
X124739400Y-96012000D02*
X125552200Y-95199200D01*
X135523400Y-77862000D02*
X136466500Y-77862000D01*
X133070600Y-80314800D02*
X135523400Y-77862000D01*
X125552200Y-92760800D02*
X133070600Y-85242400D01*
X124727000Y-96012000D02*
X124727000Y-97486000D01*
X124727000Y-96012000D02*
X124739400Y-96012000D01*
X133070600Y-85242400D02*
X133070600Y-80314800D01*
%TO.N,/CH4*%
X123127000Y-97536000D02*
X120777000Y-97536000D01*
X120777000Y-97536000D02*
X119888000Y-98425000D01*
X119888000Y-98425000D02*
X118110000Y-98425000D01*
%TO.N,/CH6*%
X123127000Y-91440000D02*
X121793000Y-91440000D01*
X121793000Y-91440000D02*
X119888000Y-93345000D01*
X119888000Y-93345000D02*
X118110000Y-93345000D01*
%TO.N,/~{ADC_CS}*%
X119913400Y-65405000D02*
X118110000Y-65405000D01*
X130741500Y-78512000D02*
X129820000Y-78512000D01*
X129820000Y-78512000D02*
X129641600Y-78333600D01*
X129641600Y-75133200D02*
X119913400Y-65405000D01*
X129641600Y-78333600D02*
X129641600Y-75133200D01*
%TO.N,/CH5*%
X121285000Y-94488000D02*
X119888000Y-95885000D01*
X119888000Y-95885000D02*
X118110000Y-95885000D01*
X123127000Y-94488000D02*
X122326400Y-94488000D01*
%TO.N,/CH7*%
X123127000Y-88392000D02*
X122301000Y-88392000D01*
X122301000Y-88392000D02*
X119888000Y-90805000D01*
X119888000Y-90805000D02*
X118110000Y-90805000D01*
%TD*%
M02*
