%TF.GenerationSoftware,KiCad,Pcbnew,9.0.9-9.0.9~ubuntu24.04.1*%
%TF.CreationDate,2026-06-02T22:00:35-04:00*%
%TF.ProjectId,mcp3564rbreakout,6d637033-3536-4347-9262-7265616b6f75,rev?*%
%TF.SameCoordinates,Original*%
%TF.FileFunction,Paste,Top*%
%TF.FilePolarity,Positive*%
%FSLAX46Y46*%
G04 Gerber Fmt 4.6, Leading zero omitted, Abs format (unit mm)*
G04 Created by KiCad (PCBNEW 9.0.9-9.0.9~ubuntu24.04.1) date 2026-06-02 22:00:35*
%MOMM*%
%LPD*%
G01*
G04 APERTURE LIST*
G04 Aperture macros list*
%AMRoundRect*
0 Rectangle with rounded corners*
0 $1 Rounding radius*
0 $2 $3 $4 $5 $6 $7 $8 $9 X,Y pos of 4 corners*
0 Add a 4 corners polygon primitive as box body*
4,1,4,$2,$3,$4,$5,$6,$7,$8,$9,$2,$3,0*
0 Add four circle primitives for the rounded corners*
1,1,$1+$1,$2,$3*
1,1,$1+$1,$4,$5*
1,1,$1+$1,$6,$7*
1,1,$1+$1,$8,$9*
0 Add four rect primitives between the rounded corners*
20,1,$1+$1,$2,$3,$4,$5,0*
20,1,$1+$1,$4,$5,$6,$7,0*
20,1,$1+$1,$6,$7,$8,$9,0*
20,1,$1+$1,$8,$9,$2,$3,0*%
G04 Aperture macros list end*
%ADD10RoundRect,0.200000X0.200000X0.275000X-0.200000X0.275000X-0.200000X-0.275000X0.200000X-0.275000X0*%
%ADD11RoundRect,0.225000X0.225000X0.250000X-0.225000X0.250000X-0.225000X-0.250000X0.225000X-0.250000X0*%
%ADD12RoundRect,0.225000X-0.250000X0.225000X-0.250000X-0.225000X0.250000X-0.225000X0.250000X0.225000X0*%
%ADD13RoundRect,0.250000X-0.325000X-0.250000X0.325000X-0.250000X0.325000X0.250000X-0.325000X0.250000X0*%
%ADD14RoundRect,0.100000X0.637500X0.100000X-0.637500X0.100000X-0.637500X-0.100000X0.637500X-0.100000X0*%
%ADD15RoundRect,0.225000X-0.225000X-0.250000X0.225000X-0.250000X0.225000X0.250000X-0.225000X0.250000X0*%
%ADD16RoundRect,0.250000X-0.450000X-0.350000X0.450000X-0.350000X0.450000X0.350000X-0.450000X0.350000X0*%
%ADD17RoundRect,0.225000X0.250000X-0.225000X0.250000X0.225000X-0.250000X0.225000X-0.250000X-0.225000X0*%
%ADD18RoundRect,0.150000X0.512500X0.150000X-0.512500X0.150000X-0.512500X-0.150000X0.512500X-0.150000X0*%
G04 APERTURE END LIST*
D10*
%TO.C,R3*%
X124777000Y-100584000D03*
X123127000Y-100584000D03*
%TD*%
D11*
%TO.C,C13*%
X124727000Y-86868000D03*
X123177000Y-86868000D03*
%TD*%
D12*
%TO.C,C8*%
X123317000Y-81775000D03*
X123317000Y-83325000D03*
%TD*%
D10*
%TO.C,R8*%
X124777000Y-97536000D03*
X123127000Y-97536000D03*
%TD*%
%TO.C,R5*%
X124777000Y-88392000D03*
X123127000Y-88392000D03*
%TD*%
D11*
%TO.C,C17*%
X136985000Y-97572000D03*
X135435000Y-97572000D03*
%TD*%
D13*
%TO.C,X2*%
X124982000Y-79567000D03*
X126732000Y-79567000D03*
X126732000Y-78167000D03*
X124982000Y-78167000D03*
%TD*%
D10*
%TO.C,R2*%
X124777000Y-106680000D03*
X123127000Y-106680000D03*
%TD*%
D14*
%TO.C,U5*%
X136974500Y-103296000D03*
X136974500Y-102646000D03*
X136974500Y-101996000D03*
X136974500Y-101346000D03*
X136974500Y-100696000D03*
X136974500Y-100046000D03*
X136974500Y-99396000D03*
X131249500Y-99396000D03*
X131249500Y-100046000D03*
X131249500Y-100696000D03*
X131249500Y-101346000D03*
X131249500Y-101996000D03*
X131249500Y-102646000D03*
X131249500Y-103296000D03*
%TD*%
D15*
%TO.C,C9*%
X123177000Y-108204000D03*
X124727000Y-108204000D03*
%TD*%
%TO.C,C12*%
X123177000Y-102108000D03*
X124727000Y-102108000D03*
%TD*%
D11*
%TO.C,C11*%
X124727000Y-99060000D03*
X123177000Y-99060000D03*
%TD*%
D16*
%TO.C,X1*%
X125138000Y-83527000D03*
X127338000Y-83527000D03*
X127338000Y-81827000D03*
X125138000Y-81827000D03*
%TD*%
D10*
%TO.C,R6*%
X124777000Y-91440000D03*
X123127000Y-91440000D03*
%TD*%
%TO.C,R1*%
X124777000Y-109728000D03*
X123127000Y-109728000D03*
%TD*%
D15*
%TO.C,C14*%
X123177000Y-89916000D03*
X124727000Y-89916000D03*
%TD*%
D11*
%TO.C,C1*%
X130696000Y-84455000D03*
X129146000Y-84455000D03*
%TD*%
D17*
%TO.C,C19*%
X129413000Y-102629000D03*
X129413000Y-101079000D03*
%TD*%
D11*
%TO.C,C18*%
X136985000Y-104958000D03*
X135435000Y-104958000D03*
%TD*%
D12*
%TO.C,C7*%
X123317000Y-78182000D03*
X123317000Y-79732000D03*
%TD*%
D18*
%TO.C,U3*%
X133090500Y-115123000D03*
X133090500Y-114173000D03*
X133090500Y-113223000D03*
X130815500Y-113223000D03*
X130815500Y-115123000D03*
%TD*%
D10*
%TO.C,R4*%
X124777000Y-103632000D03*
X123127000Y-103632000D03*
%TD*%
D11*
%TO.C,C10*%
X124727000Y-105156000D03*
X123177000Y-105156000D03*
%TD*%
D14*
%TO.C,U4*%
X136974500Y-95930000D03*
X136974500Y-95280000D03*
X136974500Y-94630000D03*
X136974500Y-93980000D03*
X136974500Y-93330000D03*
X136974500Y-92680000D03*
X136974500Y-92030000D03*
X131249500Y-92030000D03*
X131249500Y-92680000D03*
X131249500Y-93330000D03*
X131249500Y-93980000D03*
X131249500Y-94630000D03*
X131249500Y-95280000D03*
X131249500Y-95930000D03*
%TD*%
D11*
%TO.C,C6*%
X130823000Y-116713000D03*
X129273000Y-116713000D03*
%TD*%
%TO.C,C15*%
X124727000Y-92964000D03*
X123177000Y-92964000D03*
%TD*%
D12*
%TO.C,C3*%
X138430000Y-81140000D03*
X138430000Y-82690000D03*
%TD*%
D17*
%TO.C,C20*%
X129413000Y-95263000D03*
X129413000Y-93713000D03*
%TD*%
D14*
%TO.C,U2*%
X136466500Y-83062000D03*
X136466500Y-82412000D03*
X136466500Y-81762000D03*
X136466500Y-81112000D03*
X136466500Y-80462000D03*
X136466500Y-79812000D03*
X136466500Y-79162000D03*
X136466500Y-78512000D03*
X136466500Y-77862000D03*
X136466500Y-77212000D03*
X130741500Y-77212000D03*
X130741500Y-77862000D03*
X130741500Y-78512000D03*
X130741500Y-79162000D03*
X130741500Y-79812000D03*
X130741500Y-80462000D03*
X130741500Y-81112000D03*
X130741500Y-81762000D03*
X130741500Y-82412000D03*
X130741500Y-83062000D03*
%TD*%
D12*
%TO.C,C4*%
X129159000Y-108064000D03*
X129159000Y-109614000D03*
%TD*%
D15*
%TO.C,C2*%
X136385000Y-84455000D03*
X137935000Y-84455000D03*
%TD*%
D18*
%TO.C,U1*%
X133090500Y-109916000D03*
X133090500Y-108966000D03*
X133090500Y-108016000D03*
X130815500Y-108016000D03*
X130815500Y-108966000D03*
X130815500Y-109916000D03*
%TD*%
D10*
%TO.C,R7*%
X124777000Y-94488000D03*
X123127000Y-94488000D03*
%TD*%
D15*
%TO.C,C16*%
X123177000Y-96012000D03*
X124727000Y-96012000D03*
%TD*%
%TO.C,C5*%
X130797000Y-111506000D03*
X132347000Y-111506000D03*
%TD*%
M02*
