M48
; DRILL file {KiCad 9.0.9-9.0.9~ubuntu24.04.1} date 2026-06-02T22:00:38-0400
; FORMAT={-:-/ absolute / inch / decimal}
; #@! TF.CreationDate,2026-06-02T22:00:38-04:00
; #@! TF.GenerationSoftware,Kicad,Pcbnew,9.0.9-9.0.9~ubuntu24.04.1
; #@! TF.FileFunction,MixedPlating,1,2
FMAT,2
INCH
; #@! TA.AperFunction,Plated,PTH,ViaDrill
T1C0.0120
; #@! TA.AperFunction,Plated,PTH,ComponentDrill
T2C0.0394
%
G90
G05
T1
X4.814Y-4.2
X4.815Y-3.48
X4.815Y-3.96
X4.816Y-3.72
X4.822Y-3.42
X4.822Y-3.54
X4.822Y-3.66
X4.822Y-3.78
X4.822Y-3.9
X4.822Y-4.02
X4.822Y-4.14
X4.822Y-4.26
X4.855Y-3.171
X4.855Y-3.312
X4.989Y-3.165
X5.013Y-3.325
X5.053Y-4.316
X5.058Y-4.595
X5.061Y-3.94
X5.066Y-3.979
X5.068Y-4.2
X5.084Y-3.293
X5.092Y-3.793
X5.095Y-3.375
X5.095Y-3.662
X5.105Y-3.245
X5.126Y-2.675
X5.207Y-4.0158
X5.209Y-3.726
X5.212Y-3.675
X5.241Y-4.39
X5.265Y-2.775
X5.278Y-4.29
X5.278Y-4.328
X5.278Y-4.495
X5.332Y-3.812
X5.332Y-4.103
X5.369Y-3.375
X5.393Y-3.874
X5.3931Y-4.1829
X5.435Y-3.726
X5.45Y-3.286
X5.459Y-3.325
X5.482Y-3.726
T2
X4.65Y-2.275
X4.65Y-2.375
X4.65Y-2.475
X4.65Y-2.575
X4.65Y-2.675
X4.65Y-2.775
X4.65Y-2.875
X4.65Y-2.975
X4.65Y-3.075
X4.65Y-3.175
X4.65Y-3.275
X4.65Y-3.375
X4.65Y-3.475
X4.65Y-3.575
X4.65Y-3.675
X4.65Y-3.775
X4.65Y-3.875
X4.65Y-3.975
X4.65Y-4.075
X4.65Y-4.175
X4.65Y-4.275
X4.65Y-4.375
X4.65Y-4.475
X4.65Y-4.575
M30
