%TF.GenerationSoftware,KiCad,Pcbnew,9.0.9-9.0.9~ubuntu24.04.1*%
%TF.CreationDate,2026-06-02T22:00:36-04:00*%
%TF.ProjectId,mcp3564rbreakout,6d637033-3536-4347-9262-7265616b6f75,rev?*%
%TF.SameCoordinates,Original*%
%TF.FileFunction,Legend,Bot*%
%TF.FilePolarity,Positive*%
%FSLAX46Y46*%
G04 Gerber Fmt 4.6, Leading zero omitted, Abs format (unit mm)*
G04 Created by KiCad (PCBNEW 9.0.9-9.0.9~ubuntu24.04.1) date 2026-06-02 22:00:36*
%MOMM*%
%LPD*%
G01*
G04 APERTURE LIST*
%ADD10C,0.000000*%
%ADD11C,0.120000*%
%ADD12R,1.700000X1.700000*%
%ADD13C,1.700000*%
G04 APERTURE END LIST*
D10*
%TO.C,OlinLogoTruncated*%
G36*
X140790786Y-72216133D02*
G01*
X140683012Y-75266470D01*
X140370944Y-78259433D01*
X139865744Y-81151145D01*
X139178579Y-83897730D01*
X138320611Y-86455309D01*
X137303006Y-88780006D01*
X136136928Y-90827943D01*
X134833541Y-92555245D01*
X133404009Y-93918032D01*
X131659739Y-94952232D01*
X129932407Y-95347228D01*
X128254160Y-95134094D01*
X126657142Y-94343906D01*
X125173500Y-93007740D01*
X123835380Y-91156672D01*
X122674927Y-88821776D01*
X121724288Y-86034129D01*
X121015608Y-82824805D01*
X122217449Y-83575500D01*
X123916863Y-83745736D01*
X126023273Y-83337425D01*
X128446103Y-82352480D01*
X131094776Y-80792813D01*
X133388731Y-79066174D01*
X135477484Y-77152663D01*
X137306166Y-75128400D01*
X138819908Y-73069505D01*
X139963843Y-71052098D01*
X140683101Y-69152299D01*
X140790786Y-72216133D01*
G37*
G36*
X136991946Y-56443211D02*
G01*
X138026459Y-58225374D01*
X138926129Y-60333808D01*
X139672272Y-62750460D01*
X140246206Y-65457280D01*
X139044229Y-64706372D01*
X137344733Y-64536110D01*
X135238281Y-64944501D01*
X132815436Y-65929552D01*
X130166761Y-67489272D01*
X127872921Y-69215872D01*
X125784238Y-71129289D01*
X123955579Y-73153443D01*
X122441813Y-75212252D01*
X121297809Y-77229635D01*
X120578436Y-79129510D01*
X120470974Y-76210954D01*
X120559484Y-73302759D01*
X120834315Y-70442854D01*
X121285817Y-67669167D01*
X121904340Y-65019626D01*
X122680235Y-62532159D01*
X123603852Y-60244694D01*
X124665540Y-58195160D01*
X125855650Y-56421485D01*
X136991946Y-56443211D01*
G37*
D11*
%TO.C,J1*%
X116730000Y-59055000D02*
X116730000Y-117585000D01*
X119490000Y-56405000D02*
X118110000Y-56405000D01*
X119490000Y-57785000D02*
X119490000Y-56405000D01*
X119490000Y-59055000D02*
X116730000Y-59055000D01*
X119490000Y-59055000D02*
X119490000Y-117585000D01*
X119490000Y-117585000D02*
X116730000Y-117585000D01*
%TD*%
%LPC*%
D12*
%TO.C,J1*%
X118110000Y-57785000D03*
D13*
X118110000Y-60325000D03*
X118110000Y-62865000D03*
X118110000Y-65405000D03*
X118110000Y-67945000D03*
X118110000Y-70485000D03*
X118110000Y-73025000D03*
X118110000Y-75565000D03*
X118110000Y-78105000D03*
X118110000Y-80645000D03*
X118110000Y-83185000D03*
X118110000Y-85725000D03*
X118110000Y-88265000D03*
X118110000Y-90805000D03*
X118110000Y-93345000D03*
X118110000Y-95885000D03*
X118110000Y-98425000D03*
X118110000Y-100965000D03*
X118110000Y-103505000D03*
X118110000Y-106045000D03*
X118110000Y-108585000D03*
X118110000Y-111125000D03*
X118110000Y-113665000D03*
X118110000Y-116205000D03*
%TD*%
%LPD*%
M02*
